<svg width="50" height="47" viewBox="0 0 50 47" fill="none" xmlns="http://www.w3.org/2000/svg">
<path fill-rule="evenodd" clip-rule="evenodd" d="M24.2682 21.0729H25.7337C26.1613 21.0729 26.5076 20.7269 26.5076 20.2995C26.5076 19.8726 26.1611 19.5261 25.7337 19.5261H24.2682C23.8406 19.5261 23.4948 19.8721 23.4948 20.2995C23.4946 20.7266 23.8406 21.0729 24.2682 21.0729ZM26.5071 15.1334C26.5071 14.7064 26.1606 14.3599 25.7332 14.3599H24.2677C23.8401 14.3599 23.4943 14.7065 23.4943 15.1334C23.4943 15.5603 23.8403 15.9068 24.2677 15.9068H25.7332C26.1606 15.9074 26.5071 15.5609 26.5071 15.1334ZM26.5071 9.96794C26.5071 9.54102 26.1606 9.19452 25.7332 9.19452H24.2677C23.8401 9.19452 23.4943 9.54055 23.4943 9.96794C23.4943 10.3955 23.8403 10.7414 24.2677 10.7414H25.7332C26.1606 10.7415 26.5071 10.3955 26.5071 9.96794ZM1.84544 44.7463C1.84544 44.7832 1.87946 44.8167 1.91592 44.8167L7.92383 44.8169C7.96078 44.8169 7.9943 44.7834 7.9943 44.7464V38.7394C7.9943 38.7024 7.96078 38.6684 7.92383 38.6684H1.91633C1.87938 38.6684 1.84586 38.7019 1.84586 38.7394V44.7464L1.84544 44.7463ZM15.2329 38.7392V44.7463C15.2329 44.7832 15.267 44.8167 15.3034 44.8167L21.3101 44.8169C21.348 44.8169 21.3806 44.7834 21.3806 44.7464V38.7394C21.3806 38.7024 21.3475 38.6684 21.3101 38.6684H15.3034C15.2668 38.6684 15.2328 38.7024 15.2328 38.7394L15.2329 38.7392ZM28.62 38.7392V44.7463C28.62 44.7832 28.6531 44.8167 28.6905 44.8167L34.6976 44.8169C34.7345 44.8169 34.7681 44.7834 34.7681 44.7464L34.7682 38.7394C34.7682 38.7024 34.7347 38.6684 34.6977 38.6684H28.6911C28.653 38.6684 28.62 38.7024 28.62 38.7394L28.62 38.7392ZM42.0067 38.7392V44.7463C42.0067 44.7832 42.0407 44.8167 42.0781 44.8167L48.0848 44.8169C48.1217 44.8169 48.1553 44.7834 48.1553 44.7464V38.7394C48.1553 38.7024 48.1213 38.6684 48.0848 38.6684H42.0781C42.0407 38.6684 42.0067 38.7024 42.0067 38.7394V38.7392ZM33.695 19.6792C33.695 20.5042 30.6265 22.1087 25.0004 22.1087C19.3744 22.1087 16.3059 20.5042 16.3059 19.6792V16.7183C18.2134 17.8872 21.6209 18.4898 25.0004 18.4898C28.3805 18.4898 31.7875 17.8867 33.695 16.7178V19.6792ZM33.695 11.5521V14.5135C33.695 15.3381 30.6265 16.9431 25.0004 16.9431C19.3744 16.9431 16.3059 15.3381 16.3059 14.5135V11.5521C18.2134 12.7215 21.6209 13.3241 25.0004 13.3241C28.3805 13.3241 31.7875 12.7215 33.695 11.5521ZM33.695 6.38669V9.3476C33.695 10.1721 30.6265 11.7771 25.0004 11.7771C19.3744 11.7771 16.3059 10.1721 16.3059 9.3476V6.38669C18.2134 7.55565 21.6209 8.15819 25.0004 8.15819C28.3805 8.15819 31.7875 7.55565 33.695 6.38669ZM25.0004 1.75252C19.3746 1.75252 16.3059 3.35752 16.3059 4.18252C16.3059 5.00706 19.3744 6.61156 25.0004 6.61156C30.6265 6.61156 33.695 5.00706 33.695 4.18252C33.695 3.35764 30.6265 1.75252 25.0004 1.75252ZM1.91627 37.1209H4.14673V30.6679C4.14673 30.2404 4.49276 29.8945 4.92015 29.8945H24.2268V23.6445C19.4022 23.5135 14.7589 22.1571 14.7589 19.679L14.7587 4.18194C14.7587 1.57144 19.9112 0.205353 25.0004 0.205353C30.0896 0.205353 35.2421 1.57139 35.2421 4.18194V19.6782C35.2421 22.1567 30.5979 23.5131 25.7742 23.6437V29.8937L45.0812 29.8939C45.5081 29.8939 45.8546 30.2399 45.8546 30.6673V37.1202H48.0846C48.9772 37.1202 49.7021 37.8463 49.7021 38.7382V44.7453C49.7021 45.6372 48.9772 46.3628 48.0846 46.3628H42.078C41.1854 46.3628 40.4595 45.6374 40.4595 44.7453V38.7386C40.4595 37.8467 41.1856 37.1206 42.078 37.1206H44.3075V31.4414H32.4671V37.121H34.6971C35.5897 37.121 36.3146 37.8471 36.3146 38.739V44.7461C36.3146 45.638 35.5897 46.3636 34.6971 46.3636H28.6904C27.7978 46.3636 27.0729 45.6382 27.0729 44.7461V38.739C27.0729 37.8471 27.7978 37.121 28.6904 37.121H30.9204V31.4419H19.0808V37.1214H21.3103C22.2029 37.1214 22.9278 37.8475 22.9278 38.7394V44.7465C22.9278 45.6384 22.2029 46.364 21.3103 46.364H15.3037C14.4111 46.364 13.6862 45.6386 13.6862 44.7465L13.6863 38.7394C13.6863 37.8475 14.4112 37.1214 15.3038 37.1214H17.5343V31.4423H5.69386V37.1219H7.92385C8.81532 37.1219 9.54136 37.8479 9.54136 38.7399V44.7469C9.54136 45.6389 8.81527 46.3644 7.92385 46.3644H1.91636C1.02489 46.3644 0.298855 45.639 0.298855 44.7469V38.7399C0.298855 37.8479 1.02494 37.1219 1.91636 37.1219L1.91627 37.1209Z" fill="white"/>
</svg>
