<svg width="50" height="50" viewBox="0 0 50 50" fill="none" xmlns="http://www.w3.org/2000/svg">
<path d="M37.1804 45.7767C37.1804 45.4941 36.9922 45.209 36.6913 45.1225L36.7051 45.0958H36.5H3.68041V8.77666C3.68041 8.5816 3.61486 8.40933 3.49105 8.28552C3.36724 8.16171 3.19498 8.09616 2.99991 8.09616C2.80485 8.09616 2.63258 8.16171 2.50877 8.28552C2.38496 8.40933 2.31941 8.5816 2.31941 8.77666V45.7767C2.31941 45.9717 2.38496 46.144 2.50877 46.2678C2.63258 46.3916 2.80485 46.4572 2.99991 46.4572H36.4999C36.695 46.4572 36.8672 46.3916 36.9911 46.2678C37.1149 46.144 37.1804 45.9717 37.1804 45.7767Z" fill="white" stroke="white" stroke-width="0.25"/>
<path d="M29.9446 16.7637H12.7779C12.5828 16.7637 12.4106 16.8293 12.2868 16.9531C12.163 17.0769 12.0974 17.2492 12.0974 17.4442C12.0974 17.6393 12.163 17.8116 12.2868 17.9354C12.4106 18.0592 12.5828 18.1247 12.7779 18.1247H29.9446C30.1396 18.1247 30.3119 18.0592 30.4357 17.9354C30.5595 17.8116 30.6251 17.6393 30.6251 17.4442C30.6251 17.0341 30.283 16.7637 29.9446 16.7637Z" fill="white" stroke="white" stroke-width="0.25"/>
<path d="M12.7779 21.0417H12.7779L23.6112 21.0419C23.8063 21.0419 23.9786 21.1075 24.1024 21.2313C24.2262 21.3551 24.2917 21.5273 24.2917 21.7224C24.2917 21.9175 24.2262 22.0897 24.1024 22.2135C23.9786 22.3374 23.8063 22.4029 23.6112 22.4029H12.7779C12.5828 22.4029 12.4105 22.3373 12.2867 22.2135C12.1629 22.0896 12.0973 21.9173 12.0974 21.7222L12.7779 21.0417ZM12.7779 21.0417C12.5828 21.0417 12.4106 21.1073 12.2868 21.2311M12.7779 21.0417L12.2868 21.2311M12.2868 21.2311C12.163 21.3549 12.0974 21.5271 12.0974 21.7222L12.2868 21.2311Z" fill="white" stroke="white" stroke-width="0.25"/>
<path d="M12.7779 25.5417H12.7779L28 25.5419C28.1951 25.5419 28.3673 25.6075 28.4911 25.7313C28.6149 25.8551 28.6805 26.0273 28.6805 26.2224C28.6805 26.4175 28.6149 26.5897 28.4911 26.7135C28.3673 26.8374 28.1951 26.9029 28 26.9029H12.7779C12.5828 26.9029 12.4105 26.8373 12.2867 26.7135C12.1629 26.5896 12.0973 26.4173 12.0974 26.2222L12.7779 25.5417ZM12.7779 25.5417C12.5828 25.5417 12.4106 25.6073 12.2868 25.7311M12.7779 25.5417L12.2868 25.7311M12.2868 25.7311C12.163 25.8549 12.0974 26.0271 12.0974 26.2222L12.2868 25.7311Z" fill="white" stroke="white" stroke-width="0.25"/>
<path d="M12.7779 30.2638H12.7779L25.7779 30.264C25.973 30.264 26.1452 30.3295 26.2691 30.4533C26.3929 30.5772 26.4584 30.7494 26.4584 30.9445C26.4584 31.1396 26.3929 31.3118 26.269 31.4356C26.1452 31.5594 25.973 31.625 25.7779 31.625H12.7779C12.5829 31.625 12.4105 31.5594 12.2867 31.4356C12.1629 31.3118 12.0973 31.1395 12.0974 30.9443L12.7779 30.2638ZM12.7779 30.2638C12.5828 30.2638 12.4106 30.3294 12.2868 30.4532M12.7779 30.2638L12.2868 30.4532M12.2868 30.4532C12.163 30.577 12.0974 30.7492 12.0974 30.9443L12.2868 30.4532Z" fill="white" stroke="white" stroke-width="0.25"/>
<path d="M29.3333 34.9862H12.7779C12.5828 34.9862 12.4106 35.0518 12.2868 35.1756C12.163 35.2994 12.0974 35.4717 12.0974 35.6667C12.0974 35.8618 12.163 36.0341 12.2868 36.1579C12.4106 36.2817 12.5828 36.3472 12.7779 36.3472H29.3892C29.5842 36.3472 29.7565 36.2817 29.8803 36.1579C30.0041 36.0341 30.0697 35.8618 30.0697 35.6667C30.0697 35.2492 29.7196 34.9862 29.3335 34.9862H29.3333Z" fill="white" stroke="white" stroke-width="0.25"/>
<path d="M48.2375 26.8887C48.2375 22.918 45.1377 19.6673 41.2929 19.383V13.6667V13.6647C41.2929 13.6372 41.2929 13.587 41.2843 13.535C41.2759 13.4847 41.2563 13.4116 41.2008 13.3561C41.1889 13.3441 41.1826 13.3331 41.1687 13.3053L41.1675 13.3028C41.1535 13.2748 41.1319 13.2316 41.0895 13.1893L32.7009 4.80027L32.6981 4.79747C32.6723 4.77171 32.6392 4.73853 32.6042 4.71227C32.5786 4.69306 32.5422 4.66985 32.4976 4.65886C32.4492 4.62592 32.3951 4.61225 32.3553 4.60562C32.3033 4.59697 32.2531 4.59698 32.2256 4.59698L32.2237 4.59698H7.11242C6.91735 4.59698 6.74509 4.66254 6.62128 4.78635C6.49747 4.91016 6.43192 5.08242 6.43192 5.27748V42.2775C6.43192 42.4725 6.49747 42.6448 6.62128 42.7686C6.74509 42.8924 6.91735 42.958 7.11242 42.958H40.6124H40.6679H40.7234C40.9185 42.958 41.0907 42.8924 41.2146 42.7686C41.3384 42.6448 41.4039 42.4725 41.4039 42.2775L41.4041 34.3929C45.2468 34.0555 48.2372 30.8591 48.2374 26.8887H48.2375ZM40.0429 41.5971H7.79292V5.95832H31.5429V13.6667C31.5429 13.8617 31.6085 14.034 31.7323 14.1578C31.8561 14.2816 32.0284 14.3472 32.2234 14.3472H39.9317V19.3865C36.1445 19.7784 33.1538 22.9732 33.1538 26.8888C33.1538 30.8046 36.1993 34.0549 40.0426 34.3929L40.0429 41.5971ZM32.9042 12.9862V6.91301L38.9774 12.9862H32.9042ZM40.7233 33.0971C37.2924 33.0971 34.515 30.3197 34.515 26.8887C34.515 23.4578 37.2924 20.6804 40.7233 20.6804C44.1543 20.6804 46.9317 23.4578 46.9317 26.8887C46.9317 30.319 44.0995 33.0971 40.7233 33.0971Z" fill="white" stroke="white" stroke-width="0.25"/>
<path d="M42.8455 24.2033L42.8458 24.2029C42.9531 24.0598 43.1237 23.9787 43.2824 23.947C43.4373 23.916 43.615 23.9258 43.7373 24.0075L43.7429 24.0112L43.7428 24.0114C43.8865 24.1191 43.9687 24.2914 43.993 24.4618C44.0174 24.6322 43.9867 24.8205 43.8791 24.9641L43.8791 24.9641L43.779 24.8893L43.879 24.9643L42.8455 24.2033ZM42.8455 24.2033L39.7083 28.4224L38.0335 26.8C37.7625 26.5297 37.3505 26.53 37.0796 26.8007L37.0796 26.8007M42.8455 24.2033L37.0796 26.8007M37.0796 26.8007C36.8086 27.0717 36.8087 27.4841 37.0796 27.7553L37.0795 27.7553M37.0796 26.8007L37.0795 27.7553M37.0795 27.7553L37.0819 27.7575M37.0795 27.7553L37.0819 27.7575M37.0819 27.7575L39.3041 29.8687L39.3403 29.9031M37.0819 27.7575L39.3403 29.9031M39.3403 29.9031H39.3902M39.3403 29.9031H39.3902M39.3902 29.9031H39.4012C39.4044 29.9053 39.4077 29.9076 39.4111 29.9099C39.4277 29.921 39.4542 29.9368 39.4873 29.9474L39.3902 29.9031ZM40.2928 29.7641V29.7226H40.1678L40.2421 29.7781L40.268 29.7974L40.2824 29.7781L40.2928 29.7641ZM39.7989 28.5101L39.7237 28.6112L39.6331 28.5235L39.7989 28.5101ZM39.5568 29.8891C39.5568 29.9586 39.5568 29.9586 39.5567 29.9586C39.5567 29.9586 39.5568 29.9586 39.5568 29.9586V29.8891V29.8336C39.5568 29.8558 39.5568 29.8741 39.5568 29.8891ZM40.1539 29.9321C40.17 29.9225 40.1831 29.9111 40.1916 29.9031L40.0702 29.9581L40.0896 29.9775L40.1184 29.9486C40.131 29.9443 40.1429 29.9387 40.1539 29.9321Z" fill="white" stroke="white" stroke-width="0.25"/>
</svg>
