<svg width="50" height="50" viewBox="0 0 50 50" fill="none" xmlns="http://www.w3.org/2000/svg">
<path d="M33.5938 35.9378C33.5938 34.6456 32.5422 33.594 31.25 33.594C29.9579 33.594 28.9063 34.6456 28.9063 35.9378C28.9063 36.955 29.5617 37.8144 30.4688 38.1378V39.9886C29.5617 40.312 28.9063 41.1714 28.9063 42.1886C28.9063 43.4808 29.9579 44.5324 31.25 44.5324C32.5422 44.5324 33.5938 43.4808 33.5938 42.1886C33.5938 41.1714 32.9384 40.312 32.0313 39.9886V38.1378C32.9384 37.8144 33.5938 36.955 33.5938 35.9378Z" fill="white"/>
<path d="M49.2167 13.7394L44.0713 8.59402H42.8229C42.4995 7.68694 41.6401 7.03152 40.6229 7.03152C39.3307 7.03152 38.2791 8.08311 38.2791 9.37527C38.2791 10.3925 38.9346 11.2519 39.8416 11.5753V12.5003H35.4775L33.3564 10.3792C33.5034 10.0737 33.5916 9.73627 33.5916 9.37527C33.5916 8.08311 32.54 7.03152 31.2478 7.03152C29.9557 7.03152 28.9041 8.08311 28.9041 9.37527C28.9041 10.6674 29.9557 11.719 31.2478 11.719C31.6088 11.719 31.9462 11.6308 32.2517 11.4838L34.8307 14.0628H39.8415V15.3019L37.1744 17.969H36.5728C36.2494 17.062 35.39 16.4065 34.3727 16.4065C33.0806 16.4065 32.029 17.4581 32.029 18.7503C32.029 19.1113 32.1172 19.4487 32.2642 19.7542L31.426 20.5924C31.6665 21.1354 31.8299 21.7104 31.9268 22.3011L33.369 20.8589C33.6744 21.0058 34.0118 21.0941 34.3728 21.0941C35.39 21.0941 36.2494 20.4387 36.5728 19.5316H37.8212L41.404 15.9487V11.5754C42.0658 11.3394 42.5868 10.8184 42.8228 10.1566H43.4244L47.654 14.3862V22.3333L46.3141 23.6731C46.0086 23.5261 45.6712 23.4379 45.3102 23.4379C44.0181 23.4379 42.9665 24.4895 42.9665 25.7817C42.9665 26.1427 43.0547 26.4801 43.2017 26.7856L41.0806 28.9067H39.6977C39.3743 27.9996 38.5149 27.3442 37.4977 27.3442C36.2055 27.3442 35.1539 28.3958 35.1539 29.6879C35.1539 30.9801 36.2055 32.0317 37.4977 32.0317C38.5149 32.0317 39.3743 31.3763 39.6977 30.4692H41.7274L44.3063 27.8902C44.6118 28.0372 44.9492 28.1254 45.3102 28.1254C45.6712 28.1254 46.0087 28.0372 46.3142 27.8902L47.654 29.23V34.8334L44.2056 38.2818H42.8227C42.4993 37.3747 41.6399 36.7193 40.6227 36.7193C39.3305 36.7193 38.2789 37.7709 38.2789 39.063C38.2789 40.0803 38.9344 40.9397 39.8414 41.2631V43.4272L35.6119 47.6568H30.0085L25.7789 43.4272V39.7006C26.686 39.3772 27.3414 38.5178 27.3414 37.5005C27.3414 36.4833 26.686 35.6239 25.7789 35.3005V33.5943H24.2164V35.3005C23.3094 35.6239 22.6539 36.4833 22.6539 37.5005C22.6539 38.5178 23.3094 39.3772 24.2164 39.7006V43.4272L19.9869 47.6568H14.3835L10.1539 43.4272V41.2631C11.061 40.9397 11.7164 40.0803 11.7164 39.063C11.7164 37.7709 10.6649 36.7193 9.3727 36.7193C8.35545 36.7193 7.49607 37.3747 7.17266 38.2818H5.78982L2.34141 34.8334V29.23L3.68124 27.8902C3.98674 28.0372 4.32416 28.1254 4.68516 28.1254C5.04616 28.1254 5.38357 28.0372 5.68907 27.8902L8.26803 30.4692H10.2977C10.6211 31.3763 11.4804 32.0317 12.4977 32.0317C13.7899 32.0317 14.8414 30.9801 14.8414 29.6879C14.8414 28.3958 13.7899 27.3442 12.4977 27.3442C11.4804 27.3442 10.6211 27.9996 10.2977 28.9067H8.91482L6.79374 26.7856C6.94071 26.4801 7.02893 26.1427 7.02893 25.7817C7.02893 24.4895 5.97734 23.4379 4.68518 23.4379C4.32417 23.4379 3.98676 23.5261 3.68126 23.6731L2.34143 22.3333V14.3862L6.57101 10.1566H7.1726C7.4086 10.8184 7.92959 11.3394 8.59139 11.5754V15.9487L12.1742 19.5316H13.4226C13.746 20.4387 14.6054 21.0941 15.6226 21.0941C15.9836 21.0941 16.3211 21.0058 16.6266 20.8589L18.0641 22.2964C18.1601 21.7018 18.3328 21.1315 18.5727 20.5955L17.732 19.7549C17.8782 19.4487 17.9664 19.1113 17.9664 18.7503C17.9664 17.4582 16.9148 16.4066 15.6226 16.4066C14.6054 16.4066 13.746 17.062 13.4226 17.9691H12.821L10.1538 15.3019V11.5753C11.0609 11.2519 11.7163 10.3925 11.7163 9.37529C11.7163 8.81117 11.5085 8.30109 11.1756 7.89563L15.1647 3.90654H20.7681L24.2165 7.35496V10.6144L23.1118 11.7191H21.729C21.4056 10.812 20.5462 10.1566 19.5289 10.1566C18.2368 10.1566 17.1852 11.2082 17.1852 12.5003C17.1852 13.7925 18.2368 14.8441 19.5289 14.8441C20.5462 14.8441 21.4056 14.1887 21.729 13.2816H23.7586L25.7789 11.2613V7.355L29.2273 3.90659H35.2978C35.6212 4.81367 36.4806 5.46909 37.4978 5.46909C38.79 5.46909 39.8416 4.4175 39.8416 3.12534C39.8416 1.83317 38.79 0.781586 37.4978 0.781586C36.4806 0.781586 35.6212 1.437 35.2978 2.34409H28.5807L24.9978 5.92692L21.415 2.34409H14.5183L9.78876 7.07367C9.65351 7.04942 9.51532 7.03152 9.37307 7.03152C8.35582 7.03152 7.49644 7.68693 7.17303 8.59402H5.92465L0.779236 13.7394V22.9798L2.57694 24.7776C2.42997 25.0831 2.34176 25.4205 2.34176 25.7815C2.34176 26.1425 2.42997 26.4799 2.57694 26.7854L0.779236 28.5831V35.4798L5.1434 39.8439H7.17303C7.40903 40.5057 7.93003 41.0267 8.59182 41.2627V44.0736L13.7372 49.219H20.6339L24.9981 44.8549L29.3622 49.219H36.2589L41.4043 44.0736V41.2627C42.0661 41.0267 42.5871 40.5057 42.8231 39.8439H44.8527L49.2169 35.4798V28.5831L47.4192 26.7854C47.5662 26.4799 47.6544 26.1425 47.6544 25.7815C47.6544 25.4205 47.5662 25.0831 47.4192 24.7776L49.2169 22.9798L49.2167 13.7394Z" fill="white"/>
<path d="M19.5313 38.1378C20.4384 37.8144 21.0938 36.955 21.0938 35.9377C21.0938 34.6456 20.0422 33.594 18.75 33.594C17.4579 33.594 16.4063 34.6456 16.4063 35.9377C16.4063 36.955 17.0617 37.8144 17.9688 38.1378V38.7394L16.6289 40.0792C16.3234 39.9322 15.986 39.844 15.625 39.844C14.3329 39.844 13.2813 40.8956 13.2813 42.1878C13.2813 43.4799 14.3329 44.5315 15.625 44.5315C16.9172 44.5315 17.9688 43.4799 17.9688 42.1878C17.9688 41.8268 17.8806 41.4893 17.7336 41.1838L19.5313 39.3861L19.5313 38.1378Z" fill="white"/>
<path d="M25.7813 23.4378C25.7813 23.8692 25.4315 24.219 25 24.219C24.5686 24.219 24.2188 23.8693 24.2188 23.4378C24.2188 23.0063 24.5686 22.6565 25 22.6565C25.4315 22.6565 25.7813 23.0063 25.7813 23.4378Z" fill="white"/>
<path d="M28.6446 19.3603C27.629 18.4516 26.3556 17.9688 25.0071 17.9688C24.7953 17.9688 24.5821 17.9805 24.3673 18.0048C21.8924 18.2813 19.8769 20.2751 19.5744 22.7448C19.3626 24.4736 19.9658 26.1527 21.1893 27.3439L24.2189 27.3438V25.6376C23.3118 25.3142 22.6564 24.4548 22.6564 23.4375C22.6564 22.1454 23.708 21.0938 25.0002 21.0938C26.2923 21.0938 27.3439 22.1454 27.3439 23.4375C27.3439 24.4548 26.6885 25.3142 25.7814 25.6376V27.3438H28.8174C29.8713 26.3165 30.4689 24.9219 30.4689 23.4375C30.4689 21.8829 29.8041 20.3968 28.6447 19.3602L28.6446 19.3603Z" fill="white"/>
<path d="M21.875 31.2503C21.875 31.6808 22.2258 32.0315 22.6563 32.0315H27.3438C27.7743 32.0315 28.125 31.6808 28.125 31.2503V28.9065H21.875V31.2503Z" fill="white"/>
</svg>
