<svg width="83" height="51" viewBox="0 0 83 51" fill="none" xmlns="http://www.w3.org/2000/svg">
<g clip-path="url(#clip0_480_20558)">
<path d="M70.9247 23.9927V15.168H74.4495L74.494 20.3364L74.5385 25.5054L76.541 23.1102L78.5436 20.715H80.7012C81.888 20.715 82.8594 20.7595 82.8594 20.8129C82.8594 20.8669 81.7565 22.189 80.4083 23.7506L77.9572 26.5899L79.6853 28.5689L82.4058 31.6833L83.3981 32.818H78.7056L76.7062 30.3059C75.6065 28.9241 74.6497 27.79 74.5804 27.7843C74.5112 27.7792 74.4546 28.9095 74.4546 30.2964V32.818H70.9247V23.9927Z" fill="white"/>
<path d="M38.3133 23.9927V15.168H41.8438V32.8174H38.3133V23.9927Z" fill="white"/>
<path d="M62.7557 32.9802C58.863 32.2083 56.5968 27.855 58.2309 24.2864C59.351 21.8391 61.3815 20.5195 64.0276 20.5195C65.8631 20.5195 67.0118 20.9929 68.3529 22.301C68.9349 22.8696 69.4107 23.4446 69.4095 23.5793C69.4082 23.714 68.7996 24.1511 68.0562 24.5507L66.7055 25.2769L66.0511 24.686C64.4882 23.2743 62.2392 23.6523 61.3573 25.4751C60.2906 27.6784 62.0594 30.0749 64.4831 29.7115C65.0448 29.6276 65.4361 29.4217 65.9711 28.9281L66.6973 28.2585L67.9285 28.9535C68.6052 29.336 69.2284 29.7159 69.3129 29.7979C69.5099 29.9904 68.7557 31.08 68.0232 31.6606C66.4857 32.8786 64.6108 33.3481 62.7557 32.9802Z" fill="white"/>
<path d="M49.0417 20.5187C47.3698 20.5322 45.6041 21.3029 44.6415 22.6973C43.6662 24.1098 43.4404 24.8744 43.4404 26.7645C43.4404 28.3958 43.4804 28.614 43.9699 29.6473C44.7981 31.3952 46.176 32.5745 47.8504 32.9689C49.2175 33.2911 50.5601 33.0358 51.7667 32.2237L52.6016 31.6619V32.8159H56.1316V20.7131H52.6016V22.1235L52.0553 21.5966C51.2861 20.8546 50.1857 20.5095 49.0417 20.5187ZM49.881 23.8104C50.3075 23.8132 50.746 23.9097 51.1728 24.1187C51.3577 24.2093 51.7549 24.5159 52.0553 24.8003C52.5924 25.3086 52.6016 25.3432 52.6016 26.8198C52.6016 28.3066 52.5957 28.3269 52.0368 28.8539C51.7265 29.1467 51.1694 29.4774 50.799 29.5885C49.0096 30.1245 47.337 29.2407 46.9067 27.5322C46.4068 25.5468 48.0326 23.7983 49.881 23.8104Z" fill="white"/>
<path d="M30.3095 32.9963C28.6577 32.7339 26.7148 31.9003 26.7148 31.4543C26.7148 31.3101 27.4709 29.4448 27.645 29.1589C27.6602 29.1347 28.0052 29.2987 28.4124 29.5229C29.3781 30.0566 30.3781 30.312 31.5688 30.3292C32.6081 30.3438 33.1641 30.1367 33.4328 29.6354C33.7517 29.0388 33.1749 28.6544 31.2536 28.183C28.4544 27.4969 27.4734 26.8222 27.0649 25.3044C26.4804 23.1334 28.2619 20.9104 30.8712 20.554C32.0846 20.3888 33.7772 20.5921 34.9658 21.0464C36.5224 21.6417 36.5218 21.6391 35.9951 23.0477C35.6622 23.9346 35.4722 24.2402 35.288 24.1817C35.1495 24.1373 34.5662 23.9054 33.9919 23.6652C32.1494 22.8939 30.2447 23.1144 30.2447 24.0985C30.2447 24.5439 30.9004 24.906 32.5446 25.3692C35.6577 26.2459 36.8051 27.2663 36.7969 29.1532C36.7905 30.7529 35.9468 31.9613 34.3375 32.6767C33.5275 33.0369 31.5516 33.1932 30.3095 32.9963Z" fill="white"/>
<path d="M16.6289 23.6507C16.6289 22.1202 16.9212 21.3432 17.6696 20.887C19.62 19.6977 21.8481 21.9258 20.6588 23.8762C20.2033 24.624 19.4256 24.9169 17.8951 24.9169H16.6289V23.6507Z" fill="white"/>
<path d="M12.2584 24.6232C11.2063 24.0977 11.0824 23.5958 11.083 19.8747C11.083 16.9198 11.1148 16.5437 11.4108 16.0583C12.1459 14.8531 13.8397 14.6549 14.8422 15.6568L15.3683 16.1822L15.4147 19.7515C15.4585 23.1003 15.4401 23.355 15.1167 23.8767C14.7635 24.4478 13.9115 24.9173 13.2298 24.9173C13.0195 24.9173 12.5824 24.7845 12.2584 24.6232Z" fill="white"/>
<path d="M7.10473 19.1862C6.43446 18.9918 5.75021 18.1912 5.60853 17.4352C5.3976 16.3107 6.53484 15 7.721 15C8.38174 15 9.2604 15.5553 9.59903 16.1868C9.82139 16.601 9.90653 17.122 9.90653 18.0648V19.3704L8.77183 19.3552C8.14794 19.3469 7.39762 19.2707 7.10473 19.1862Z" fill="white"/>
<path d="M1.41709 24.6803C-0.301477 23.916 -0.43998 21.7203 1.17566 20.8537C1.67249 20.5869 2.16995 20.5469 4.9476 20.5469C8.58359 20.5469 9.04293 20.6682 9.62171 21.7839C10.1795 22.8588 9.64458 24.1886 8.45461 24.6854C7.68777 25.0062 2.14072 25.0018 1.41709 24.6797V24.6803Z" fill="white"/>
<path d="M12.3102 30.1926C10.7746 29.4353 10.7511 27.2167 12.2701 26.4022C12.767 26.1354 13.2638 26.0947 16.0027 26.0947C19.5593 26.0947 20.0999 26.2154 20.6603 27.1354C21.3356 28.2428 20.889 29.7441 19.7422 30.2231C18.8737 30.5865 13.0599 30.5617 12.3102 30.1926Z" fill="white"/>
<path d="M12.3101 35.7481C11.4365 35.3034 11.1938 34.7653 11.1125 33.095L11.04 31.6064L12.5623 31.6662C14.3552 31.736 14.8908 32.0245 15.2802 33.1274C15.7504 34.4597 14.9194 35.7805 13.5057 35.9457C13.0921 35.994 12.6487 35.9203 12.3101 35.7481Z" fill="white"/>
<path d="M1.04756 30.1354C0.803564 29.9878 0.591085 29.7936 0.422309 29.5637C0.253532 29.3339 0.131777 29.073 0.0640205 28.796C-0.00373616 28.519 -0.0161627 28.2314 0.0274559 27.9496C0.0710745 27.6678 0.169879 27.3974 0.318206 27.1538C0.811221 26.3444 1.44528 26.0947 3.00565 26.0947H4.35889V27.4816C4.35826 28.5604 4.2852 28.988 4.02979 29.4067C3.88222 29.6508 3.68792 29.8633 3.45803 30.0322C3.22813 30.201 2.96717 30.3228 2.69011 30.3905C2.41305 30.4583 2.12533 30.4707 1.84347 30.427C1.5616 30.3834 1.29113 30.2845 1.04756 30.1361V30.1354Z" fill="white"/>
<path d="M6.59459 35.6838C5.6219 35.091 5.53613 34.7143 5.53613 31.0542C5.53613 27.3947 5.6219 27.0179 6.59459 26.4251C6.93445 26.2198 7.32396 26.1113 7.72103 26.1113C8.11809 26.1113 8.5076 26.2198 8.84746 26.4251C9.82206 27.0192 9.90656 27.3908 9.90592 31.0885C9.90529 34.0923 9.87352 34.4684 9.57682 34.9544C9.42925 35.1985 9.23495 35.4111 9.00505 35.5799C8.77516 35.7487 8.5142 35.8705 8.23713 35.9383C7.96007 36.006 7.67236 36.0184 7.39049 35.9748C7.10863 35.9311 6.83816 35.8322 6.59459 35.6838Z" fill="white"/>
</g>
<defs>
<clipPath id="clip0_480_20558">
<rect width="83" height="51" fill="white"/>
</clipPath>
</defs>
</svg>
