<svg width="50" height="50" viewBox="0 0 50 50" fill="none" xmlns="http://www.w3.org/2000/svg">
<g clip-path="url(#clip0_480_20530)">
<path fill-rule="evenodd" clip-rule="evenodd" d="M46.1833 5.14666H30.4704C28.361 5.14666 26.6423 6.86541 26.6423 8.97478V14.844H5.97813C4.54259 14.844 3.37071 16.0158 3.37071 17.4514V37.3539H2.27696C1.02696 37.3636 0.00158691 38.3792 0.00158691 39.639V41.1137C0.00158691 43.1742 1.68125 44.8539 3.74184 44.8539H44.0252C46.0857 44.8539 47.7654 43.1742 47.7654 41.1137V39.639C47.7654 38.389 46.7498 37.3637 45.49 37.3637H44.3963V24.3557H46.1736C48.283 24.3557 50.0018 22.637 50.0018 20.5276V8.9747C50.0115 6.86533 48.2928 5.14658 46.1834 5.14658L46.1833 5.14666ZM30.4704 24.3558H32.7263L33.3122 28.8092C33.4001 29.522 34.3474 29.7369 34.738 29.1412L37.9118 24.3562H39.4939V34.0145H8.40013V19.7666H26.6618V20.5283C26.6423 22.6279 28.361 24.3564 30.4704 24.3564L30.4704 24.3558ZM46.2029 39.6292V41.1038C46.2029 42.305 45.2263 43.2815 44.0252 43.2815H3.74184C2.54067 43.2815 1.56409 42.305 1.56409 41.1038V39.6292C1.56409 39.2385 1.87659 38.926 2.26721 38.926H18.8885V39.717C18.8885 40.635 19.6306 41.3772 20.5486 41.3772H27.199C28.117 41.3772 28.8592 40.635 28.8592 39.717V38.926H45.4805C45.8906 38.926 46.2031 39.2385 46.2031 39.6292H46.2029ZM42.8435 37.3635H28.0973C27.6676 37.3635 27.316 37.7151 27.316 38.1448V39.717C27.316 39.7659 27.2672 39.8147 27.2184 39.8147H20.568C20.5191 39.8147 20.4703 39.7659 20.4703 39.717V38.1448C20.4703 37.7151 20.1188 37.3635 19.6891 37.3635H4.94281V17.4515C4.94281 16.8753 5.41156 16.4065 5.98773 16.4065H26.6519V18.1937H7.60898C7.17931 18.1937 6.82773 18.5452 6.82773 18.9749V34.7853C6.82773 35.215 7.17929 35.5666 7.60898 35.5666H40.2748C40.7045 35.5666 41.0561 35.215 41.0561 34.7853V24.3557H42.8432L42.8435 37.3635ZM48.449 20.5177C48.449 21.7677 47.4333 22.7833 46.1833 22.7833H37.4921C37.2284 22.7833 36.9843 22.9103 36.8378 23.1349L34.5917 26.5236L34.1913 23.4669C34.1425 23.0763 33.8105 22.7833 33.4198 22.7833H30.4706C29.2206 22.7833 28.205 21.7677 28.205 20.5177V8.9748C28.205 7.7248 29.2206 6.70918 30.4706 6.70918H46.1739C47.4239 6.70918 48.4396 7.7248 48.4396 8.9748V20.5177L48.449 20.5177ZM42.619 14.0627L35.0602 9.70728C34.5426 9.41432 33.8883 9.77564 33.8883 10.3811V19.102C33.8883 19.7074 34.5426 20.0687 35.0602 19.7758L42.619 15.4104C43.1463 15.1174 43.1268 14.3752 42.619 14.0627ZM35.4606 17.7541V11.7383L40.6656 14.7461L35.4606 17.7541Z" fill="white"/>
</g>
<defs>
<clipPath id="clip0_480_20530">
<rect width="50" height="50" fill="white"/>
</clipPath>
</defs>
</svg>
