<?xml version="1.0" encoding="UTF-8" standalone="no"?>
<!DOCTYPE svg PUBLIC "-//W3C//DTD SVG 1.1//EN" "http://www.w3.org/Graphics/SVG/1.1/DTD/svg11.dtd">
<svg width="100%" height="100%" viewBox="0 0 1336 298" version="1.1" xmlns="http://www.w3.org/2000/svg" xmlns:xlink="http://www.w3.org/1999/xlink" xml:space="preserve" xmlns:serif="http://www.serif.com/" style="fill-rule:evenodd;clip-rule:evenodd;stroke-linejoin:round;stroke-miterlimit:2;">
    <g transform="matrix(1,0,0,1,-120.44,-120.42)">
        <path d="M1404.1,264.95C1404.1,254.15 1413.13,246.53 1425.71,246.53C1437.22,246.53 1443.77,251.84 1443.77,261.05C1443.77,269.37 1436.69,273.98 1425.71,278.76L1404.1,287.97L1404.1,264.95ZM1423.58,331.01C1435.98,331.01 1446.78,326.23 1452.27,316.49C1454.04,313.48 1453.69,309.94 1451.03,308.17C1448.37,306.4 1444.83,306.93 1443.06,309.59C1438.28,316.5 1432.26,319.86 1423.58,319.86C1410.83,319.86 1404.1,313.31 1404.1,301.44L1404.1,299.85L1429.42,289.05C1448.9,280.73 1456.16,275.24 1456.16,260.01C1456.16,244.78 1444.29,235.39 1425.52,235.39C1406.75,235.39 1392.05,247.79 1392.05,264.96L1392.05,301.44C1392.05,319.33 1404.27,331.01 1423.57,331.01L1423.58,331.01ZM1372.58,236.26C1354.87,236.26 1342.47,249.19 1342.47,268.67L1342.47,324.1C1342.47,327.46 1344.95,330.12 1348.49,330.12C1352.03,330.12 1354.51,327.46 1354.51,324.1L1354.51,268.67C1354.51,256.8 1360.71,247.95 1372.75,247.95C1374.7,247.95 1377.71,248.66 1379.3,248.66C1382.49,248.66 1384.97,246.53 1384.97,242.99C1384.97,240.33 1383.38,238.03 1380.01,237.15C1377.53,236.44 1375.05,236.26 1372.57,236.26L1372.58,236.26ZM1271.15,305.33C1271.15,297.01 1278.23,292.4 1289.21,287.62L1310.82,278.41L1310.82,301.43C1310.82,312.23 1301.79,319.85 1289.21,319.85C1277.7,319.85 1271.15,314.54 1271.15,305.33ZM1291.34,235.38C1278.94,235.38 1268.14,240.16 1262.65,249.9C1260.88,252.91 1261.23,256.45 1263.89,258.22C1266.55,259.99 1270.09,259.46 1271.86,256.8C1276.64,249.89 1282.66,246.53 1291.34,246.53C1304.09,246.53 1310.82,253.08 1310.82,264.95L1310.82,266.54L1285.5,277.34C1266.02,285.66 1258.76,291.15 1258.76,306.38C1258.76,321.61 1270.63,331 1289.4,331C1308.17,331 1322.87,318.6 1322.87,301.43L1322.87,264.95C1322.87,247.06 1310.65,235.38 1291.35,235.38L1291.34,235.38ZM1182.07,289.39L1182.07,248.66C1182.07,231.66 1194.64,218.55 1210.76,218.55C1222.98,218.55 1232.01,223.86 1237.15,233.78C1238.57,236.61 1241.93,237.85 1244.94,236.44C1247.77,235.02 1248.84,231.66 1247.42,228.82C1240.69,214.83 1227.59,207.04 1210.76,207.04C1187.56,207.04 1169.5,225.1 1169.5,248.66L1169.5,289.39C1169.5,312.94 1187.56,331.01 1210.76,331.01C1227.58,331.01 1240.69,323.22 1247.42,309.23C1248.84,306.4 1247.77,303.03 1244.94,301.61C1241.93,300.19 1238.56,301.43 1237.15,304.27C1232.01,314.19 1222.98,319.5 1210.76,319.5C1194.64,319.5 1182.07,306.4 1182.07,289.39ZM1084.61,325.01C1084.61,327.47 1087.09,330.12 1090.63,330.12C1094.17,330.12 1096.65,327.46 1096.65,324.1L1096.65,268.87C1096.65,257 1106.21,247.44 1118.08,247.44C1129.95,247.44 1139.51,257 1139.51,268.87L1139.51,324.1C1139.51,327.46 1141.99,330.12 1145.53,330.12C1149.07,330.12 1151.55,327.46 1151.55,324.1L1151.55,268.87C1151.55,250.98 1137.38,236.28 1119.67,236.28C1110.64,236.28 1102.49,240.18 1096.65,246.37L1096.65,213.94C1096.65,210.58 1094.17,207.92 1090.63,207.92C1087.09,207.92 1084.61,210.58 1084.61,214.85L1084.61,325.01ZM1045.3,237.15L1045.3,213.95C1045.3,210.59 1042.82,207.93 1039.28,207.93C1035.74,207.93 1033.26,210.59 1033.26,213.95L1033.26,237.15L1018.56,237.15C1015.37,237.15 1013.07,239.45 1013.07,242.82C1013.07,246.01 1015.37,248.31 1018.56,248.31L1033.26,248.31L1033.26,297.72C1033.26,306.75 1036.27,315.08 1041.76,321.1C1047.78,327.65 1055.4,330.13 1064.78,330.13C1068.68,330.13 1071.16,327.12 1070.98,323.93C1070.8,320.74 1068.15,318.62 1064.96,318.62C1051.68,318.62 1045.3,309.77 1045.3,297.72L1045.3,248.31L1065.49,248.31C1068.68,248.31 1070.98,246.01 1070.98,242.64C1070.98,239.45 1068.68,237.15 1065.49,237.15L1045.3,237.15ZM1016.97,325.52C1017.15,322.33 1014.67,319.85 1011.48,319.5C1004.22,318.79 1000.15,314.36 1000.15,306.04L1000.15,213.95C1000.15,210.59 997.67,207.93 994.13,207.93C990.59,207.93 988.11,210.59 988.11,213.95L988.11,306.04C988.11,312.77 990.06,318.61 993.6,322.86C997.67,328 1003.52,331.01 1010.78,331.01C1014.32,331.01 1016.8,328.53 1016.98,325.52L1016.97,325.52ZM915.7,305.33C915.7,297.01 922.78,292.4 933.76,287.62L955.37,278.41L955.37,301.43C955.37,312.23 946.34,319.85 933.76,319.85C922.25,319.85 915.7,314.54 915.7,305.33ZM935.89,235.38C923.49,235.38 912.69,240.16 907.2,249.9C905.43,252.91 905.78,256.45 908.44,258.22C911.1,259.99 914.64,259.46 916.41,256.8C921.19,249.89 927.21,246.53 935.89,246.53C948.64,246.53 955.37,253.08 955.37,264.95L955.37,266.54L930.05,277.34C910.57,285.66 903.31,291.15 903.31,306.38C903.31,321.61 915.18,331 933.95,331C952.72,331 967.42,318.6 967.42,301.43L967.42,264.95C967.42,247.06 955.2,235.38 935.9,235.38L935.89,235.38ZM838.84,264.95C838.84,254.15 847.87,246.53 860.45,246.53C871.96,246.53 878.51,251.84 878.51,261.05C878.51,269.37 871.43,273.98 860.45,278.76L838.84,287.97L838.84,264.95ZM858.32,331.01C870.72,331.01 881.52,326.23 887.01,316.49C888.78,313.48 888.43,309.94 885.77,308.17C883.11,306.4 879.57,306.93 877.8,309.59C873.02,316.5 867,319.86 858.32,319.86C845.57,319.86 838.84,313.31 838.84,301.44L838.84,299.85L864.16,289.05C883.64,280.73 890.9,275.24 890.9,260.01C890.9,244.78 879.03,235.39 860.26,235.39C841.49,235.39 826.79,247.79 826.79,264.96L826.79,301.44C826.79,319.33 839.01,331.01 858.31,331.01L858.32,331.01ZM805.57,323.75L805.57,214.31C805.57,210.59 803.09,207.93 799.19,207.93C795.29,207.93 792.81,210.59 792.81,214.31L792.81,261.59L736.91,261.59L736.91,214.31C736.91,210.59 734.43,207.93 730.53,207.93C726.63,207.93 724.15,210.59 724.15,214.31L724.15,323.75C724.15,327.29 726.81,330.13 730.53,330.13C734.25,330.13 736.91,327.47 736.91,323.75L736.91,272.75L792.81,272.75L792.81,323.75C792.81,327.47 795.29,330.13 799.19,330.13C803.09,330.13 805.57,327.47 805.57,323.75ZM670.96,329.24C674.15,329.24 676.45,326.94 676.45,323.75C676.45,320.39 674.15,318.08 670.96,318.08L618.98,318.08L618.98,272.74L666.71,272.74C669.9,272.74 672.2,270.44 672.2,267.25C672.2,263.89 669.9,261.58 666.71,261.58L618.98,261.58L618.98,219.96L670.96,219.96C674.15,219.96 676.45,217.66 676.45,214.29C676.45,211.1 674.15,208.8 670.96,208.8L612.78,208.8C609.06,208.8 606.58,211.46 606.58,215L606.58,323.03C606.58,326.57 609.06,329.23 612.78,329.23L670.96,329.23L670.96,329.24ZM584.45,289.39L584.45,270.26C584.45,266.72 581.97,264.06 578.25,264.06L544.78,264.06C541.59,264.06 539.29,266.36 539.29,269.55C539.29,272.91 541.59,275.22 544.78,275.22L572.05,275.22L572.05,289.39C572.05,306.04 559.3,319.5 543.89,319.5C528.48,319.5 515.91,306.22 515.91,289.39L515.91,248.66C515.91,231.66 527.95,218.55 543.54,218.55C555.41,218.55 563.91,223.86 569.04,233.78C570.46,236.61 573.82,237.85 576.83,236.44C579.66,235.02 580.73,231.66 579.31,228.82C572.58,214.83 560.01,207.04 543.54,207.04C520.87,207.04 503.34,225.1 503.34,248.66L503.34,289.39C503.34,312.77 521.05,331.01 543.89,331.01C566.73,331.01 584.44,312.06 584.44,289.39L584.45,289.39ZM302.39,230.33C302.39,213.45 313.81,197.04 320.06,200.16C327.16,203.72 314.74,219.63 302.39,230.33M224.58,236.5C224.58,222.92 237.99,197.09 246.19,199.81C255.86,203.03 238.17,229.08 224.58,236.5ZM211,333.65C204.83,333.93 200.72,329.98 200.72,323.4C200.72,305.7 225.25,288.81 243.78,279.74C240.49,304.44 232.15,332.68 211,333.65ZM324.2,276.02C310.22,276.02 299.5,286.32 299.5,298.66C299.5,308.96 305.67,317.18 313.91,317.18C316.8,317.18 319.66,315.54 319.66,311.83C319.66,306.48 312.57,305.18 313.12,297.17C313.47,291.89 318.44,288.36 323.37,288.36C333.25,288.36 337.87,297.93 337.87,307.81C337.45,323.04 326.25,333.64 313.08,333.64C295.79,333.64 284.69,317.17 284.69,299.46C284.69,273.12 301.97,262.83 311.02,260.36C311.11,260.36 334.7,264.57 333.96,254.17C333.64,249.61 326.84,247.86 321.91,247.65C316.44,247.43 310.95,249.4 310.95,249.4C308.07,247.95 306.08,245.12 304.86,241.84C321.73,229.07 333.67,216.73 333.67,202.73C333.67,195.32 328.73,188.73 319.26,188.73C302.39,188.73 289.62,210.13 289.62,229.48C289.62,232.77 289.62,236.07 290.45,238.95C279.75,246.77 271.79,251.62 257.38,260.27C257.38,258.46 257.76,253.83 258.97,247.79C263.91,242.44 270.69,234.43 270.69,228.25C270.69,225.37 269.05,222.9 265.75,222.9C257.52,222.9 251.35,235.24 249.7,243.89C245.99,248.42 238.59,254.19 232.41,254.19C227.47,254.19 225.83,249.65 225.41,248.01C241.06,242.65 260.4,221.25 260.4,201.9C260.4,197.78 258.75,188.72 246.41,188.72C227.88,188.72 212.24,216.3 212.24,237.71C205.65,237.71 203.19,230.71 203.19,225.36C203.19,220.01 205.25,214.65 205.25,213.01C205.25,211.37 204.42,209.3 201.95,209.3C195.77,209.3 192.07,217.53 192.07,227C192.49,240.17 201.13,248.41 212.66,249.23C214.31,257.05 221.31,264.46 229.95,264.46C235.31,264.46 241.89,262.82 246.42,258.7C246,261.59 245.6,264.05 245.18,266.52C227.07,275.99 213.9,282.58 201.96,293.27C192.5,301.92 187.14,313.44 187.14,322.51C187.14,334.86 194.96,346.37 211.01,346.37C229.95,346.37 244.35,331.15 251.35,310.15C254.65,300.27 255.97,285.9 256.79,272.72C275.73,262.02 284.71,255.82 294.57,248.82C295.81,250.88 297.06,252.53 298.69,253.76C290.05,258.29 269.47,271.05 269.47,301.09C269.47,322.5 283.88,346.37 312.28,346.37C335.74,346.37 351.8,327.04 351.8,308.51C351.8,291.63 342.33,275.99 324.21,275.99L324.2,276.02ZM394.97,311.37C394.9,311.5 394.66,311.69 394.21,311.53C393.86,311.4 393.75,311.22 393.76,311C393.78,310.76 398.74,296.12 398.71,279.31C398.65,261.19 391.29,250.08 381.84,250.08C376.07,250.08 371.96,254.2 371.96,260.37C371.96,271.49 385.54,272.31 385.54,296.6C385.54,306.48 383.48,315.93 380.19,326.24C364.96,377.69 316.38,401.56 269.05,401.56C247.23,401.56 231.72,397.08 227.1,395.01C226.91,394.92 226.76,394.55 226.9,394.19C227.01,393.9 227.33,393.69 227.5,393.77C229.38,394.51 242.69,398.69 259.15,398.69C277.26,398.69 287.97,391.29 287.97,382.21C287.97,376.46 283.44,371.93 277.67,371.93C266.56,371.93 265.73,385.92 241.86,385.92C231.57,385.92 222.52,383.87 211.81,380.57C160.77,364.93 136.44,316.76 136.48,269.01C136.5,245.76 143.01,227.24 143.12,227.06C143.2,226.94 143.49,226.81 143.85,226.94C144.22,227.06 144.32,227.38 144.28,227.47C143.68,229.4 139.36,242.67 139.36,259.13C139.36,277.25 146.77,287.95 156.23,287.95C161.58,287.95 166.11,283.83 166.11,278.08C166.11,266.96 152.53,265.73 152.53,241.85C152.53,231.55 154.59,222.5 157.88,211.8C173.52,160.76 221.68,136.83 269.03,136.47C291.03,136.3 310.29,142.88 311.01,143.46C311.14,143.57 311.28,143.86 311.14,144.2C310.99,144.58 310.73,144.63 310.6,144.61C310.37,144.58 297.85,139.35 278.9,139.35C261.21,139.35 250.1,146.75 250.1,156.23C250.1,161.58 254.21,166.1 260.38,166.1C271.5,166.1 272.33,152.52 296.19,152.52C306.49,152.52 315.53,154.58 326.24,157.87C377.71,173.51 401.13,222.09 401.57,269.01C401.8,293.05 395.02,311.25 394.96,311.37L394.97,311.37ZM269.05,127.4C190.84,127.4 127.43,190.8 127.43,269C127.43,347.2 190.83,410.6 269.05,410.6C347.27,410.6 410.64,347.22 410.64,269C410.64,190.78 347.26,127.4 269.05,127.4ZM269.05,417.61C187.13,417.61 120.44,351.34 120.44,269.01C120.44,186.68 187.11,120.42 269.03,120.42C350.95,120.42 417.63,187.1 417.63,269.02C417.63,350.94 350.93,417.62 269.03,417.62L269.05,417.61Z" style="fill:#002B43;fill-rule:nonzero;"/>
    </g>
</svg>
