<svg width="35" height="20" viewBox="0 0 35 20" fill="none" xmlns="http://www.w3.org/2000/svg">
<path d="M2.83796 16.7422C-0.990353 13.4737 -0.901356 6.58077 2.83796 3.31084C4.19014 4.23527 5.05571 5.69654 6.44521 6.58077C4.79159 8.87747 4.8002 11.1756 6.43947 13.4752C5.05571 14.3608 4.1887 15.8178 2.83796 16.7422Z" fill="#E8710A"/>
<path d="M17.5943 17.2361C15.0578 14.892 14.0272 11.9852 14.554 8.59473C15.2014 4.41761 17.6244 1.57114 21.6537 0.444323C25.3356 -0.586321 28.7792 0.132834 31.5266 3.05538C30.2577 4.12191 29.0763 5.276 28.0328 6.56646C26.5385 5.3406 24.8604 4.77791 22.9671 5.38223C19.5163 6.48321 18.5948 10.0345 20.8226 13.4838C20.4766 13.8786 20.1149 14.2604 19.7876 14.6695C19.0842 15.5494 17.9589 16.0676 17.5943 17.2361Z" fill="#F9AB00"/>
<path d="M28.0328 6.56791C29.0763 5.27745 30.2577 4.12336 31.5266 3.05683C35.4066 7.05165 35.4037 13.1494 31.5194 17.0724C27.7184 20.9108 21.5632 20.984 17.5943 17.2375C17.9589 16.0691 19.0842 15.5509 19.7876 14.671C20.1149 14.2619 20.4766 13.8786 20.8226 13.4853C22.3341 14.8001 24.058 15.3054 25.9901 14.6767C29.4294 13.5571 30.361 9.79047 28.0328 6.56791Z" fill="#E8710A"/>
<path d="M6.4452 6.58089C5.0557 5.69666 4.19013 4.23539 2.83795 3.31096C6.00883 -0.131214 11.0501 -0.912092 15.0047 1.36595C15.8014 1.82529 16.0368 2.23582 15.4138 2.98512C15.1885 3.25498 15.0435 3.59087 14.8526 3.89088C14.4234 4.56554 14.1219 5.42249 13.519 5.85886C12.8229 6.3627 12.2343 5.36938 11.5137 5.2244C9.57876 4.8354 7.90791 5.28325 6.4452 6.58089Z" fill="#F9AB00"/>
<path d="M2.83795 16.7422C4.1887 15.8178 5.0557 14.3609 6.43946 13.4738C8.41032 15.1274 10.5305 15.5307 12.8272 14.19C13.3037 13.9116 13.5492 14.0637 13.7932 14.4628C14.3473 15.3743 14.8741 16.3073 15.4885 17.1757C15.9765 17.8648 15.8071 18.2021 15.1253 18.6198C11.2539 20.9911 6.03611 20.2131 2.83795 16.7422Z" fill="#F9AB00"/>
</svg>
