<?xml version="1.0" standalone="no"?>
<!DOCTYPE svg PUBLIC "-//W3C//DTD SVG 20010904//EN"
 "http://www.w3.org/TR/2001/REC-SVG-20010904/DTD/svg10.dtd">
<svg version="1.0" xmlns="http://www.w3.org/2000/svg"
 width="260.000000pt" height="260.000000pt" viewBox="0 0 260.000000 260.000000"
 preserveAspectRatio="xMidYMid meet">
<metadata>
Created by potrace 1.11, written by Peter Selinger 2001-2013
</metadata>
<g transform="translate(0.000000,260.000000) scale(0.100000,-0.100000)"
fill="#000000" stroke="none">
<path d="M510 2584 c-180 -38 -357 -177 -439 -344 -71 -146 -71 -137 -71 -940
0 -803 0 -794 71 -940 83 -169 260 -307 444 -345 103 -22 1467 -22 1570 0 240
50 450 260 500 500 22 103 22 1467 0 1570 -50 240 -260 450 -500 500 -101 21
-1477 21 -1575 -1z m107 -705 c68 -25 83 -53 198 -369 61 -165 112 -300 115
-300 3 0 54 135 115 300 115 316 130 344 198 369 39 15 111 14 150 -3 63 -27
81 -60 182 -336 88 -241 114 -306 115 -289 1 18 202 553 215 573 20 31 91 66
131 66 44 -1 108 -34 134 -70 48 -68 47 -71 -149 -620 -99 -278 -189 -516
-199 -529 -31 -42 -69 -64 -119 -68 -57 -6 -120 20 -146 60 -9 14 -66 161
-127 328 -61 167 -112 304 -114 306 -2 2 -52 -130 -112 -294 -111 -304 -129
-341 -176 -376 -32 -24 -114 -33 -160 -18 -76 25 -83 40 -283 586 -158 432
-186 516 -182 552 11 99 121 168 214 132z"/>
</g>
</svg>
