<svg width="100" height="60" viewBox="0 0 100 60" fill="none" xmlns="http://www.w3.org/2000/svg">
<path d="M28.6369 21.89C28.6369 23.1098 28.7671 24.0988 28.9951 24.8241C29.2556 25.5494 29.5813 26.3406 30.0372 27.1977C30.2 27.4615 30.2652 27.7252 30.2652 27.956C30.2652 28.2856 30.0698 28.6153 29.6464 28.945L27.5948 30.3296C27.3017 30.5274 27.0086 30.6263 26.748 30.6263C26.4224 30.6263 26.0967 30.4615 25.7711 30.1647C25.3152 29.6702 24.9244 29.1428 24.5987 28.6153C24.273 28.0549 23.9474 27.4285 23.5892 26.6702C21.049 29.7032 17.8576 31.2197 14.0148 31.2197C11.2793 31.2197 9.09739 30.4285 7.50167 28.8461C5.90594 27.2636 5.0918 25.1538 5.0918 22.5164C5.0918 19.7142 6.06877 17.4395 8.05528 15.7252C10.0418 14.0109 12.6796 13.1538 16.0339 13.1538C17.1411 13.1538 18.2809 13.2527 19.4859 13.4175C20.6908 13.5823 21.9283 13.8461 23.2309 14.1428V11.7362C23.2309 9.23068 22.7099 7.48343 21.7003 6.46145C20.6582 5.43947 18.8997 4.94497 16.3921 4.94497C15.2523 4.94497 14.08 5.07683 12.875 5.37354C11.6701 5.67024 10.4977 6.03288 9.35791 6.49442C8.83686 6.72519 8.44607 6.85705 8.21811 6.92299C7.99015 6.98892 7.82732 7.02189 7.69706 7.02189C7.24114 7.02189 7.01318 6.69222 7.01318 5.99991V4.38453C7.01318 3.85705 7.07831 3.46145 7.24114 3.23068C7.40397 2.99991 7.69706 2.76914 8.15298 2.53837C9.29278 1.94497 10.6605 1.45046 12.2563 1.05486C13.852 0.626285 15.5454 0.428483 17.3365 0.428483C21.2119 0.428483 24.0451 1.31859 25.8688 3.09881C27.6599 4.87903 28.5717 7.58233 28.5717 11.2087V21.89H28.6369ZM15.4152 26.901C16.4898 26.901 17.5971 26.7032 18.7694 26.3076C19.9418 25.912 20.9839 25.1867 21.8632 24.1977C22.3842 23.5713 22.775 22.879 22.9704 22.0878C23.1658 21.2966 23.2961 20.3406 23.2961 19.2197V17.8351C22.3517 17.6043 21.3421 17.4065 20.3 17.2746C19.2579 17.1428 18.2484 17.0768 17.2388 17.0768C15.0569 17.0768 13.4612 17.5054 12.3865 18.3955C11.3119 19.2856 10.7908 20.5384 10.7908 22.1867C10.7908 23.7362 11.1816 24.89 11.9957 25.6812C12.7773 26.5054 13.9171 26.901 15.4152 26.901ZM41.5655 30.4615C40.9793 30.4615 40.5885 30.3626 40.328 30.1318C40.0675 29.934 39.8395 29.4724 39.6441 28.8461L31.9911 3.36255C31.7957 2.70321 31.698 2.27464 31.698 2.04387C31.698 1.51639 31.9586 1.21969 32.4796 1.21969H35.6711C36.2898 1.21969 36.7132 1.31859 36.9411 1.54936C37.2017 1.74716 37.3971 2.2087 37.5925 2.83508L43.0635 24.6593L48.1438 2.83508C48.3066 2.17574 48.502 1.74716 48.7625 1.54936C49.023 1.35156 49.479 1.21969 50.0651 1.21969H52.6704C53.2892 1.21969 53.7125 1.31859 53.973 1.54936C54.2336 1.74716 54.4615 2.2087 54.5918 2.83508L59.7372 24.923L65.3711 2.83508C65.5665 2.17574 65.7944 1.74716 66.0224 1.54936C66.2829 1.35156 66.7063 1.21969 67.2924 1.21969H70.3211C70.8421 1.21969 71.1352 1.48343 71.1352 2.04387C71.1352 2.2087 71.1026 2.37354 71.0701 2.57134C71.0375 2.76914 70.9724 3.03288 70.8421 3.39552L62.9938 28.879C62.7984 29.5384 62.5704 29.9669 62.3099 30.1647C62.0494 30.3626 61.626 30.4944 61.0724 30.4944H58.2717C57.653 30.4944 57.2296 30.3955 56.9691 30.1647C56.7086 29.934 56.4806 29.5054 56.3503 28.8461L51.3026 7.58233L46.2875 28.8131C46.1247 29.4724 45.9293 29.901 45.6688 30.1318C45.4082 30.3626 44.9523 30.4615 44.3661 30.4615H41.5655ZM83.4125 31.3516C81.7191 31.3516 80.0257 31.1538 78.3974 30.7582C76.7691 30.3626 75.499 29.934 74.6523 29.4395C74.1313 29.1428 73.773 28.8131 73.6428 28.5164C73.5125 28.2197 73.4474 27.89 73.4474 27.5933V25.912C73.4474 25.2197 73.7079 24.89 74.1964 24.89C74.3918 24.89 74.5872 24.923 74.7826 24.9889C74.978 25.0549 75.2711 25.1867 75.5967 25.3186C76.704 25.8131 77.9089 26.2087 79.179 26.4724C80.4816 26.7362 81.7517 26.868 83.0543 26.868C85.1059 26.868 86.7017 26.5054 87.8089 25.7801C88.9161 25.0549 89.5023 23.9999 89.5023 22.6483C89.5023 21.7252 89.2092 20.9669 88.623 20.3406C88.0369 19.7142 86.9296 19.1538 85.3339 18.6263L80.6119 17.1428C78.2346 16.3845 76.476 15.2636 75.4013 13.7801C74.3267 12.3296 73.773 10.7142 73.773 8.99991C73.773 7.6153 74.0661 6.39552 74.6523 5.34057C75.2385 4.28563 76.0201 3.36255 76.9971 2.63727C77.974 1.87903 79.0813 1.31859 80.3839 0.922988C81.6865 0.527384 83.0543 0.362549 84.4872 0.362549C85.2036 0.362549 85.9526 0.395516 86.6691 0.494417C87.4181 0.593318 88.102 0.725186 88.7859 0.857054C89.4372 1.02189 90.0559 1.18672 90.6421 1.38453C91.2283 1.58233 91.6842 1.78013 92.0099 1.97793C92.4658 2.24167 92.7915 2.50541 92.9869 2.80211C93.1823 3.06585 93.2799 3.42848 93.2799 3.89002V5.43947C93.2799 6.13178 93.0194 6.49442 92.5309 6.49442C92.2704 6.49442 91.847 6.36255 91.2934 6.09881C89.4372 5.24167 87.353 4.8131 85.0408 4.8131C83.1846 4.8131 81.7191 5.1098 80.7096 5.73618C79.7 6.36255 79.179 7.31859 79.179 8.67024C79.179 9.59332 79.5046 10.3845 80.1559 11.0109C80.8073 11.6373 82.0122 12.2636 83.7382 12.8241L88.3625 14.3076C90.7072 15.0658 92.4007 16.1208 93.4102 17.4724C94.4197 18.8241 94.9082 20.3735 94.9082 22.0878C94.9082 23.5054 94.6151 24.7911 94.0615 25.912C93.4753 27.0329 92.6938 28.0219 91.6842 28.8131C90.6747 29.6373 89.4697 30.2307 88.0694 30.6593C86.604 31.1208 85.0734 31.3516 83.4125 31.3516Z" fill="#252F3E"/>
<path fill-rule="evenodd" clip-rule="evenodd" d="M89.5672 47.3733C78.8531 55.3843 63.2866 59.6371 49.9021 59.6371C31.1442 59.6371 14.2425 52.6151 1.47675 40.9447C0.467211 40.0217 1.37905 38.7689 2.58399 39.4942C16.3919 47.6041 33.4238 52.5162 51.0419 52.5162C62.9284 52.5162 75.9873 50.0107 88.0041 44.8678C89.7952 44.0436 91.3258 46.0546 89.5672 47.3733Z" fill="#FF9900"/>
<path fill-rule="evenodd" clip-rule="evenodd" d="M94.0289 42.2306C92.6611 40.4503 84.9756 41.3734 81.4911 41.802C80.4489 41.9339 80.2861 41.0108 81.2305 40.3185C87.3529 35.9668 97.4157 37.2196 98.5881 38.6701C99.7605 40.1536 98.2624 50.3405 92.5309 55.2196C91.6516 55.9778 90.8049 55.5822 91.1957 54.5932C92.4983 51.3295 95.3967 43.9778 94.0289 42.2306Z" fill="#FF9900"/>
</svg>
