<svg width="250" height="100" viewBox="0 0 250 100" fill="none" xmlns="http://www.w3.org/2000/svg">
<path d="M73.8431 70.0968C81.2978 68.7783 87.4549 67.6871 87.5256 67.6721L87.6542 67.6448L80.6163 59.2627C76.7454 54.6525 73.5783 50.8627 73.5783 50.8409C73.5783 50.7995 80.8456 30.7614 80.8864 30.6901C80.9001 30.6663 85.8457 39.2156 92.8749 51.4143C99.4558 62.835 104.881 72.2513 104.932 72.3396L105.023 72.5L82.6563 72.4971L60.2892 72.4942L73.8431 70.0968V70.0968ZM159.619 68.0697C156.214 67.8511 154.234 65.9099 153.709 62.2764C153.569 61.3098 153.569 61.2847 153.554 55.0098L153.541 48.9367H155.048H156.554L156.566 54.8109C156.577 60.1052 156.584 60.726 156.634 61.0984C156.839 62.6099 157.248 63.6264 157.943 64.356C158.5 64.9399 159.151 65.2818 160.053 65.4632C160.478 65.5488 161.689 65.549 162.077 65.4636C162.991 65.2621 163.724 64.8637 164.37 64.2167C165.107 63.4792 165.652 62.4329 165.916 61.2497L166.005 60.851L166.015 54.927L166.025 49.003H167.563H169.101V58.3157V67.6283H167.579H166.056V66.1508C166.056 65.1468 166.045 64.6769 166.022 64.6847C166.003 64.691 165.925 64.8108 165.848 64.9509C165.324 65.909 164.449 66.7851 163.492 67.313C162.343 67.9457 161.192 68.1707 159.619 68.0697L159.619 68.0697ZM194.177 68.0546C192.975 67.9642 191.709 67.5504 190.675 66.9098C188.495 65.5595 187.205 63.3339 186.827 60.2709C186.697 59.211 186.681 57.7873 186.79 56.8867C187.034 54.8744 187.823 52.8989 188.948 51.4885C189.236 51.127 189.89 50.4721 190.251 50.1835C191.227 49.404 192.367 48.8589 193.578 48.5937C194.283 48.4391 195.526 48.3666 196.275 48.4361C198.158 48.6109 199.884 49.4986 201.057 50.8958C202.249 52.3153 202.904 54.2989 202.988 56.7414C203.001 57.1242 203.004 57.7953 202.995 58.2328L202.978 59.0281L196.383 59.0365L189.788 59.0449V59.3395C189.788 60.2366 190.006 61.2583 190.382 62.1276C190.707 62.8773 191.266 63.6958 191.724 64.092C192.662 64.9042 193.811 65.3904 195.067 65.5074C195.533 65.5508 196.721 65.5051 197.252 65.4234C198.767 65.1903 200.207 64.5953 201.37 63.7221C201.507 63.6194 201.638 63.5234 201.661 63.5088C201.695 63.4875 201.703 63.7559 201.703 64.8842L201.702 66.286L201.39 66.479C200.074 67.2939 198.567 67.8171 196.971 68.013C196.494 68.0714 194.746 68.0975 194.177 68.0546L194.177 68.0546ZM199.916 56.2312C199.916 54.7286 199.284 53.0594 198.389 52.1998C197.75 51.5864 196.978 51.2115 196.06 51.0692C195.626 51.0018 194.711 51.0278 194.253 51.1204C193.285 51.3162 192.485 51.7422 191.786 52.4331C191.052 53.1601 190.501 54.0432 190.154 55.0493C190.03 55.4111 189.884 56.005 189.839 56.3354L189.817 56.4928H194.867H199.916V56.2312ZM110.457 67.5868C110.465 67.564 112.705 61.6733 115.434 54.4962L120.397 41.447L121.991 41.4469L123.586 41.4468L123.718 41.7865C124.122 42.8246 133.653 67.6 133.653 67.6128C133.653 67.6213 132.889 67.6281 131.956 67.628L130.26 67.6277L128.886 63.9659L127.513 60.3041L121.982 60.304L116.451 60.304L116.403 60.4283C116.377 60.4966 115.79 62.1443 115.099 64.0898L113.843 67.627L112.143 67.6276C110.798 67.6281 110.446 67.6195 110.457 67.5867V67.5868ZM126.503 57.5097C126.503 57.5039 125.579 54.9947 124.449 51.9337C122.335 46.2071 122.217 45.8625 122.05 44.9432C121.972 44.5121 121.932 44.5001 121.886 44.8935C121.853 45.1746 121.708 45.8038 121.597 46.1528C121.542 46.326 120.59 48.9417 119.482 51.9656C118.374 54.9894 117.467 57.4763 117.467 57.4919C117.467 57.5075 119.5 57.5202 121.985 57.5202C124.47 57.5202 126.503 57.5155 126.503 57.5097V57.5097ZM134.679 67.1513V66.6744L140.189 59.0898L145.699 51.5051L140.71 51.4885L135.721 51.472L135.713 50.2043L135.704 48.9367H142.92H150.136V49.3648V49.793L144.625 57.419C141.594 61.6133 139.114 65.0521 139.114 65.0607C139.114 65.0693 141.564 65.0764 144.559 65.0764H150.003V66.3523V67.6283H142.341H134.679V67.1513ZM175.114 67.6062C175.102 67.594 175.092 63.3884 175.092 58.2604V48.9367H176.598H178.104V50.8589C178.104 51.9161 178.117 52.781 178.133 52.781C178.148 52.781 178.222 52.608 178.296 52.3965C178.634 51.4273 179.221 50.5216 179.978 49.8019C180.659 49.1535 181.438 48.7657 182.357 48.6173C182.616 48.5756 182.834 48.5677 183.35 48.5812C183.999 48.5981 184.338 48.6455 184.732 48.7746L184.856 48.8152V50.3804V51.9456L184.501 51.7673C183.872 51.4523 183.252 51.3276 182.506 51.3664C182.021 51.3917 181.703 51.4541 181.315 51.5998C180.517 51.8997 179.869 52.4291 179.417 53.1517C178.762 54.1978 178.295 55.5424 178.157 56.7783C178.133 57 178.118 58.8063 178.112 62.3671L178.104 67.6283H176.62C175.804 67.6283 175.126 67.6183 175.114 67.6062ZM47 67.5407C47 67.5289 50.3162 61.7648 54.3694 54.7316L61.7389 41.9439L70.3271 34.7274C75.0506 30.7584 78.928 27.5061 78.9436 27.5002C78.9591 27.4942 78.897 27.6508 78.8055 27.8481C78.714 28.0455 74.5175 37.0581 69.4799 47.8762L60.3206 67.5454L53.6603 67.5538C49.9971 67.5584 47 67.5525 47 67.5407V67.5407Z" fill="#0089D6"/>
</svg>
