<svg width="134" height="54" viewBox="0 0 134 54" fill="none" xmlns="http://www.w3.org/2000/svg">
<g clip-path="url(#clip0_226_715)">
<path d="M17.6425 47.43C15.3934 45.661 12.9943 43.965 11.3548 41.5767C7.90521 37.3651 5.24915 32.489 3.43336 27.3647C2.33584 24.0327 1.95996 20.4604 0.545111 17.2572C-0.934963 14.9306 0.798741 12.3873 3.34717 11.6478C4.48179 11.43 6.4768 10.3598 4.06862 11.1248C1.90961 12.7088 1.70067 9.6869 3.91456 9.49555C5.42544 9.29472 5.98163 8.05786 5.46495 6.94441C3.84311 5.88678 9.3977 4.72443 6.60285 3.1463C3.69138 0.00513893 10.6754 -0.599542 8.95232 2.96785C8.53988 5.71103 13.8325 2.46508 12.6044 5.63286C13.8526 7.15413 17.2784 5.9791 17.1934 8.11331C19.0116 8.23829 19.6356 9.76812 21.3424 9.88557C23.1113 10.6844 26.3181 11.3139 26.9201 13.3073C25.1651 14.6967 21.1012 10.4373 20.9059 14.2834C21.4361 19.9649 21.301 25.8176 23.3797 31.2282C24.363 34.5043 26.7465 37.0832 28.8991 39.6347C30.9587 42.1337 33.7486 43.8928 36.5921 45.3741C39.0865 46.5505 41.7757 47.3307 44.4942 47.8203C45.5968 46.9769 47.5434 43.8415 49.2635 45.1637C49.3451 46.6492 45.8495 48.2691 49.099 48.1049C51.0071 47.5293 52.3306 49.5806 53.9018 47.7304C55.3495 49.4451 59.9188 46.6348 58.8887 50.1397C57.4959 51.0383 55.4646 50.4953 54.0695 51.7315C51.7694 50.5826 49.9381 52.7594 47.3917 52.4842C44.5638 52.9907 41.6868 53.1951 38.8198 53.1996C34.1162 52.8279 29.3131 52.6713 24.8385 51.0337C22.3178 50.3012 19.8579 48.8659 17.6425 47.43ZM21.6149 49.1511C24.0762 50.2156 26.483 51.3374 29.1805 51.6758C33.4601 52.271 37.8796 53.1866 42.1745 52.3514C40.2307 51.4737 38.2211 52.6934 36.2846 51.7238C33.962 52.2236 31.4695 51.5965 29.1083 51.2877C26.4232 50.0917 23.5256 49.2693 21.0111 47.7168C17.8692 46.5692 22.6361 49.1885 23.4846 49.4007C25.4487 50.5155 21.3247 48.8292 20.7433 48.3657C19.0982 47.4429 18.8886 47.6358 20.5804 48.5729C20.9212 48.7724 21.2579 48.9813 21.6149 49.1511ZM16.9313 45.8413C19.3165 46.7247 16.9208 44.164 15.8278 44.3128C15.3436 43.4727 13.9778 42.942 14.9412 42.4907C13.2081 43.0923 13.1257 40.2027 12.3111 40.6156C10.4776 40.0366 11.5975 37.9858 9.41355 36.7263C9.21419 35.3992 7.24368 34.2482 6.61517 32.2464C6.33758 31.2216 4.38891 28.2785 5.58598 31.0175C6.60523 33.6542 8.39852 35.9123 9.89087 38.1678C11.0497 40.3152 12.418 42.5596 14.5284 43.8993C15.2398 44.5817 15.9267 45.6274 16.9313 45.8413ZM10.0602 38.2974C10.1435 37.9372 10.4965 39.077 10.0602 38.2974V38.2974ZM19.7877 46.9003C20.3159 46.6638 19.0283 46.6024 19.7877 46.9003V46.9003ZM21.0825 47.3726C20.9484 46.7205 20.4915 47.7373 21.0825 47.3726V47.3726ZM22.7032 48.0486C23.4748 47.314 21.5141 47.5854 22.7032 48.0486V48.0486ZM25.4809 49.5968C25.9497 48.9038 23.9803 49.3353 25.4809 49.5968V49.5968ZM20.1469 45.8785C21.3453 45.1033 18.599 45.8678 20.1469 45.8785V45.8785ZM21.3627 46.4848C21.3287 46.0749 20.9294 46.6683 21.3627 46.4848V46.4848ZM27.4392 50.2774C28.416 50.8939 33.1434 51.6286 30.1832 50.5302C29.6879 50.6346 24.6942 49.1177 27.4392 50.2774ZM17.7926 42.7644C17.6976 42.3533 16.2764 42.3106 17.7926 42.7644V42.7644ZM20.6214 44.413C21.3576 43.8996 19.0934 44.017 20.6214 44.413V44.413ZM23.0008 45.872C24.0573 45.4737 21.287 45.4718 23.0008 45.872V45.872ZM16.6415 41.5107C17.7878 42.3898 21.2642 41.6234 18.3969 40.986C17.0919 40.2904 14.1507 39.8142 16.1555 41.4055L16.6415 41.5107L16.6415 41.5107ZM24.6124 46.3757C25.0899 45.5623 22.6102 45.9112 24.6124 46.3757V46.3757ZM22.1903 44.4507C24.9931 45.2436 19.8334 42.6783 21.4988 44.159L21.8679 44.326L22.1903 44.4508L22.1903 44.4507ZM27.0464 47.2575C29.7009 47.2828 24.6489 46.8915 27.0464 47.2575V47.2575ZM15.6202 39.975C15.5165 39.4805 14.9651 40.0164 15.6202 39.975V39.975ZM31.5366 49.7762C31.6074 48.8832 30.6704 50.4407 31.5366 49.7762V49.7762ZM20.1501 42.749C19.9895 42.2788 19.3207 42.7298 20.1501 42.749V42.749ZM15.8719 39.6648C17.3958 39.5732 13.7856 38.9933 15.8719 39.6648V39.6648ZM10.8039 36.3888C10.6142 35.6583 9.14563 35.0756 10.8039 36.3888V36.3888ZM24.1087 44.8325C23.8296 44.5141 23.9774 44.9021 24.1087 44.8325V44.8325ZM32.3901 49.9144C32.3635 49.428 31.9391 50.0985 32.3901 49.9144V49.9144ZM23.3758 44.0756C23.5249 43.4489 22.0764 43.8859 23.3758 44.0756V44.0756ZM17.2063 40.1657C18.34 40.0443 15.3902 39.3992 17.2063 40.1657V40.1657ZM27.6426 46.6505C29.4093 45.9506 25.9207 46.3088 27.6426 46.6505V46.6505ZM22.2141 42.9656C24.2502 43.2281 19.7914 41.5806 21.7673 42.8181L22.2141 42.9656L22.2141 42.9656ZM29.2906 47.3167C31.1916 46.1803 30.5649 49.978 32.5158 47.6376C34.4401 46.2325 30.8539 49.3747 33.2256 47.8881C34.9408 46.7409 37.4742 48.4319 39.0747 48.9836C40.2256 48.9271 41.3445 49.9788 42.5244 49.339C44.7957 48.7272 38.0829 48.4316 39.8425 47.3462C37.7643 47.9511 36.2288 46.6251 35.2061 45.2939C32.8749 44.7556 30.1795 43.5638 29.0161 41.5007C28.5417 40.7262 29.7013 41.6099 28.6066 40.3437C27.2019 39.0943 26.5004 37.676 25.5574 36.1572C24.4309 35.5563 24.2997 33.7873 24.1858 36.0979C24.1947 34.6397 22.8256 33.6582 22.4915 34.0662C22.4855 32.6618 23.9566 33.3658 22.9268 32.3267C22.7051 30.8711 21.9753 29.3543 21.7559 27.7109C21.4151 26.9187 21.7079 25.222 20.5926 27.0154C20.1863 28.9106 20.4577 24.6863 21.0896 26.0793C21.919 24.6578 20.7919 24.825 20.7457 25.0224C21.286 23.8231 21.0876 22.1219 20.6047 22.7709C20.8926 21.4997 21.0595 18.0926 20.1739 18.6964C20.7107 17.3671 21.192 12.614 18.8614 14.4262C17.9168 14.4395 16.2811 14.7691 15.5079 15.1536C17.9322 16.4899 15.2641 15.6362 14.2773 15.4238C14.1487 16.6603 13.1712 16.1255 11.9501 16.1377C13.9005 16.379 11.0003 18.1325 9.88138 17.4513C8.42824 18.1458 11.1355 19.8795 9.91054 20.4155C10.0611 21.2236 7.68432 20.1237 7.87098 21.9899C6.46026 21.3964 7.67673 24.2037 8.38251 23.2543C10.7819 23.9036 10.0716 25.3841 10.1327 26.7905C9.74177 27.61 8.20259 24.8643 9.78992 24.9914C8.53764 22.9571 8.40468 24.2561 7.36408 25.2012C7.12199 25.2698 10.0184 26.5458 8.20076 27.1768C9.79992 27.4235 9.84542 28.8229 10.171 29.7085C11.1322 30.7096 10.9354 28.603 12.0855 29.8061C11.3577 28.7343 8.23057 26.7861 10.7484 27.4109C10.7349 26.3322 10.293 25.4623 11.0644 25.4834C11.8283 24.1 10.2643 28.8943 11.9862 27.1361C12.4628 26.928 12.5809 25.7509 13.4376 27.2472C14.682 28.4714 13.8871 29.3584 12.1318 28.2375C12.4458 29.3029 14.4799 29.6836 14.0977 31.3496C14.5029 32.8149 15.0699 32.2752 15.5641 32.1905C15.9517 33.6142 16.1719 32.5673 16.1903 31.8898C17.9653 32.2698 17.5495 33.3191 18.1049 34.0521C19.3281 34.6042 16.3542 30.3098 18.4541 32.7608C20.6635 34.7555 19.2827 35.5882 17.3 35.2687C18.5549 35.1673 18.9596 36.9651 20.5292 36.902C21.9606 37.5829 22.9297 40.1983 20.4625 39.1095C19.6067 38.338 16.5785 37.3862 19.0519 38.8538C21.3363 39.9116 23.1506 40.5445 25.3538 41.8723C26.9306 42.998 27.6118 44.2872 28.2094 44.5424C26.8842 45.1754 24.2158 44.037 26.1973 43.6881C24.9614 43.463 23.5713 42.838 24.7551 44.3779C25.7617 45.2183 28.3213 45.1293 28.7802 45.2245C28.3912 46.0815 27.7237 46.1497 28.7961 46.2161C27.5997 46.8537 29.1798 46.9524 29.2906 47.3167H29.2906ZM26.8441 40.4079C26.1162 39.6467 25.928 38.2209 26.7149 39.4615C27.1184 39.6236 28.0074 41.7915 26.8441 40.4079H26.8441ZM34.8115 45.4689C35.2655 45.4395 34.8247 45.8138 34.8115 45.4689V45.4689ZM25.6948 38.5414C25.6669 37.3905 25.9581 39.4291 25.6948 38.5414V38.5414ZM24.9029 37.476C23.9874 35.707 26.0572 37.977 24.9029 37.476V37.476ZM15.3069 30.8528C15.8448 30.7094 15.5716 31.7728 15.3069 30.8528V30.8528ZM22.9441 34.9925C23.2745 33.752 23.3323 36.0333 22.9441 34.9925V34.9925ZM17.5487 31.2408C17.1683 30.5563 18.3443 31.8828 17.5487 31.2408V31.2408ZM22.1791 32.7251C21.3117 30.7818 22.7932 31.6637 22.371 33.0436L22.1791 32.7251ZM14.1939 27.3998C13.8061 26.7622 13.1646 24.8916 13.3711 24.3205C13.558 25.2505 15.3489 28.323 14.2497 25.5932C13.0348 23.305 15.7018 26.336 15.9761 26.9067C16.1039 27.4745 15.2266 26.7516 15.821 28.0829C14.737 26.5672 15.1811 28.9201 14.1939 27.3998ZM11.726 25.6993C11.8276 24.2169 12.291 26.7158 11.726 25.6993V25.6993ZM12.8361 26.0814C13.3658 24.9625 13.7343 27.6412 12.8361 26.0814V26.0814ZM10.1658 24.0157C9.24695 23.1027 8.58205 22.261 10.2087 23.449C10.8355 23.4735 8.81616 21.5351 10.3597 22.8335C11.9828 23.1294 11.1612 25.4947 10.1658 24.0157ZM11.5684 23.979C12.102 23.4503 11.8517 24.4995 11.5684 23.979V23.979ZM12.4315 24.2557C11.6226 22.7395 13.4133 24.8914 12.4315 24.2557V24.2557ZM10.7158 22.616C8.04473 20.239 14.0721 23.859 11.1521 23.0567L10.7157 22.6161L10.7158 22.616ZM18.3686 27.0625C17.2128 26.3695 18.0623 22.1836 18.4565 25.0464C19.5802 24.6829 18.3945 26.525 19.2326 26.5079C19.1005 27.6701 18.7255 28.0879 18.3686 27.0625ZM21.1993 28.7355C21.3126 27.474 21.4379 29.598 21.1993 28.7355V28.7355ZM20.7076 28.2497C20.8349 27.7108 20.7208 28.8843 20.7076 28.2497V28.2497ZM11.2397 21.8349C9.52376 19.4674 16.2267 24.2298 12.3388 22.4354C11.9325 22.3292 11.4437 22.2912 11.2397 21.8349ZM16.6906 24.7249C16.5282 22.7315 17.0532 25.0554 16.6905 24.7249L16.6906 24.7249ZM20.829 27.3797C21.1493 26.2442 20.8529 28.1309 20.829 27.3797V27.3797ZM11.5026 20.9314C12.5224 20.7132 15.729 22.7225 12.7844 21.5053C12.4572 21.1431 11.7597 21.3077 11.5026 20.9314ZM20.2604 25.2963C20.3694 23.2579 20.8693 24.0787 20.2642 25.5881L20.2605 25.2963L20.2604 25.2963H20.2604ZM12.2618 20.2221C12.6773 19.6125 11.1587 17.4662 12.4807 19.4522C13.0519 19.9061 14.1346 20.2126 13.1787 20.4035C14.682 21.7297 12.812 20.7629 12.2618 20.2221ZM19.8273 24.6596C20.1143 22.3376 20.0804 26.02 19.8273 24.6596V24.6596ZM11.3939 18.0774C11.7113 17.9418 11.5615 18.5003 11.3939 18.0774V18.0774ZM13.3673 19.252C13.8752 18.1863 14.3042 20.4405 13.3673 19.252V19.252ZM18.9338 22.3485C18.9284 21.9392 19.0388 22.9439 18.9338 22.3485V22.3485ZM18.6113 21.6347C17.8387 19.7286 19.33 22.6438 18.6113 21.6347V21.6347ZM18.1369 20.385C18.0073 19.5974 18.5777 21.3745 18.1369 20.385L18.1369 20.385ZM18.909 19.13C18.3788 18.1957 19.5785 15.0127 19.7124 16.9868C19.1528 18.5249 19.5509 19.3854 19.9413 17.3223C20.6622 15.6986 19.7856 20.5263 18.909 19.13L18.909 19.13ZM19.7024 14.3964C19.9335 14.1126 19.7537 14.7383 19.7024 14.3964V14.3964ZM18.3774 40.5044C18.0632 40.2301 18.4169 40.6789 18.3774 40.5044V40.5044ZM21.1069 41.8851C22.6252 42.2747 22.6174 41.6489 21.2452 41.463C20.5071 40.7764 18.1782 40.0481 20.2627 41.3778C20.4008 41.7275 20.837 41.7193 21.1069 41.8851ZM15.7163 38.3047C16.5527 38.9284 18.8669 40.0724 16.9079 38.5421C17.5683 37.7747 15.6436 37.3662 16.2821 36.8529C14.6582 35.8592 15.001 35.9476 16.1388 35.9789C14.1871 35.1065 16.4205 35.1718 16.3153 34.7248C15.5628 34.5761 12.5774 33.3978 14.3337 34.8215C12.5483 33.9112 13.9082 35.1607 13.3686 35.0286C11.5429 34.5308 14.9944 36.4191 13.0786 35.9503C14.126 36.7803 15.8978 38.0764 13.5214 36.8287C13.2083 37.2794 15.222 37.9626 15.7163 38.3047ZM18.571 39.9447C22.042 41.0632 16.8692 38.5782 18.571 39.9447V39.9447ZM33.1844 48.7975C33.2292 48.1089 32.71 49.3849 33.1844 48.7975V48.7975ZM34.6864 49.4297C35.4872 48.6537 34.7191 50.6657 36.0134 49.2397C36.0274 48.2188 35.9735 47.6158 34.5261 48.8559C34.1271 49.0772 33.9489 50.0181 34.6864 49.4297ZM10.844 34.4562C10.5981 33.4894 9.12008 33.4944 10.844 34.4562V34.4562ZM12.4479 35.5072C11.8523 34.5197 10.3229 34.6132 12.4479 35.5072V35.5072ZM21.5722 41.0099C22.463 41.8011 25.6636 41.5904 22.6542 41.1072C22.2084 40.4482 19.8239 40.6068 21.5722 41.0099ZM34.1151 48.7562C35.4862 47.6057 32.7867 49.2694 34.1151 48.7562V48.7562ZM36.9666 50.7157C36.9752 50.3465 36.3756 50.8773 36.9666 50.7157V50.7157ZM36.971 50.1988C38.4893 48.5902 35.4998 50.294 36.971 50.1988H36.971ZM6.89929 31.1537C5.60525 29.3074 6.09488 28.4775 4.84697 26.9699C4.61073 25.817 2.70616 23.201 3.86189 25.9725C4.92047 27.5934 5.23503 30.1031 6.89929 31.1537ZM36.4948 49.6874C39.2881 47.882 35.3482 48.901 36.4948 49.6874V49.6874ZM38.6271 50.5228C40.0259 49.3218 37.7423 50.2716 38.6271 50.5228V50.5228ZM10.3686 32.4154C10.769 31.8198 9.33473 32.3392 10.3686 32.4154V32.4154ZM38.1818 49.9524C39.5362 49.0792 37.8698 49.2132 37.9364 50.0327L38.1818 49.9524H38.1818ZM19.8013 38.3671C19.7547 37.7774 19.0861 38.4172 19.8013 38.3671V38.3671ZM20.9372 39.0207C20.5762 38.2908 20.3822 39.1353 20.9372 39.0207V39.0207ZM40.3551 50.5426C42.0902 49.2909 39.3033 50.3029 39.9908 50.7797L40.3551 50.5426ZM39.6906 50.2214C41.1041 49.037 38.1983 50.7463 39.6906 50.2214V50.2214ZM43.0853 52.4821C44.0344 51.8465 41.9324 52.2765 43.0853 52.4821V52.4821ZM11.239 31.9859C12.5111 32.2709 16.3227 35.1188 14.074 32.1828C12.9224 31.8419 13.6131 29.0267 12.4383 29.525C13.2268 30.8422 13.087 31.4028 11.4316 30.5724C9.35098 29.5568 10.2624 31.0757 10.669 31.4944C10.1149 31.6203 11.4019 31.9753 11.239 31.9859ZM5.44326 27.4087C5.671 26.4668 3.34626 22.2267 4.34548 25.2841C4.70617 25.9246 4.6695 27.1384 5.44326 27.4087ZM16.0809 33.9671C15.4259 33.4193 16.0498 33.8896 16.0809 33.9671V33.9671ZM17.694 34.3425C17.6932 33.3447 15.911 33.9373 17.694 34.3425V34.3425ZM31.6728 43.1548C31.4062 42.4731 30.6189 43.139 31.6728 43.1548L31.6728 43.1548ZM32.3441 43.6452C32.245 43.2636 31.9568 43.7188 32.3441 43.6452V43.6452ZM37.8848 47.1352C38.4177 46.7415 37.2198 47.0849 37.8848 47.1352V47.1352ZM8.33827 28.1478C9.8625 27.5577 6.70518 27.727 8.33827 28.1478V28.1478ZM30.4422 42.0734C30.4253 41.0867 29.4705 42.3182 30.4422 42.0734V42.0734ZM7.73605 26.7445C8.71514 26.4137 6.83032 26.5266 7.73605 26.7445V26.7445ZM10.5779 28.1211C10.5601 27.7967 10.2773 28.2438 10.5779 28.1211V28.1211ZM45.24 49.3763C46.499 49.1211 49.368 50.0172 49.8318 49.0425C48.3028 49.0054 44.5421 47.9638 44.3641 49.2911L44.6988 49.3438L45.24 49.3763ZM11.4811 28.3487C11.503 27.3488 10.7014 28.3113 11.4811 28.3487V28.3487ZM4.00918 23.1656C3.66985 21.2605 2.71858 22.8772 4.00918 23.1656V23.1656ZM5.79096 23.6134C5.81285 23.0017 4.16009 23.063 5.79096 23.6134V23.6134ZM6.8092 24.1135C6.51486 23.8751 6.57881 24.4147 6.8092 24.1135V24.1135ZM13.2161 28.2235C13.5177 27.9465 12.502 28.0183 13.2161 28.2235V28.2235ZM6.131 22.9856C5.95878 21.5467 4.0673 22.7701 6.131 22.9856V22.9856ZM2.47806 20.6154C2.42611 19.9513 2.12208 20.8659 2.47806 20.6154V20.6154ZM3.02142 20.2051C2.93277 19.4176 2.55491 20.3052 3.02142 20.2051V20.2051ZM6.02364 21.9971C7.29314 21.4984 3.71124 20.9656 5.76424 21.9029L6.02364 21.9971ZM46.2036 46.8156C47.0162 46.0707 45.1709 46.5853 46.2036 46.8156V46.8156ZM51.0576 49.3317C51.3833 48.3686 50.2378 49.4586 51.0576 49.3317V49.3317ZM6.33046 20.4235C6.46419 19.4918 5.32401 20.6086 6.33046 20.4235V20.4235ZM2.05903 17.5617C1.82957 16.2463 1.86096 13.9374 4.05576 14.7177C1.12607 15.2994 6.08343 18.359 5.4574 15.9433C6.68927 16.0036 7.86722 15.2153 7.22075 16.4117C9.64789 16.1436 11.3306 14.0389 13.675 14.3338C15.5013 14.0922 17.498 13.9089 19.466 13.1738C21.084 13.0572 22.6416 11.3151 21.7547 10.2826C19.5482 10.0959 17.2384 10.3719 14.7995 10.8567C12.0969 11.4185 9.64209 12.4859 6.91526 12.9441C4.25738 13.3012 7.44987 13.9279 6.68855 14.0675C5.30162 14.5487 8.34256 14.8732 6.50874 15.3805C5.37621 15.1652 4.19739 14.776 4.68116 13.5826C2.13514 13.9129 -0.102085 14.9696 1.90943 17.5605L2.05903 17.5617L2.05903 17.5616V17.5617ZM8.19402 14.4372C8.79097 12.2381 11.3922 16.2468 9.17245 14.7293C8.90732 14.5309 8.47128 14.369 8.19402 14.4372ZM8.31016 13.371C9.17173 12.7292 8.76816 13.7309 8.31016 13.371V13.371ZM9.40415 13.3884C9.48193 12.3765 11.9085 13.9241 9.80426 13.7527L9.40415 13.3884ZM10.9006 12.7867C11.4471 12.1481 11.0577 13.3547 10.9006 12.7867V12.7867ZM11.2835 12.5303C12.1934 11.437 16.4367 11.8325 13.3308 12.4237C12.4983 11.797 11.8601 12.7933 11.2835 12.5303ZM16.8211 11.6767C16.6826 8.69012 19.5722 12.7381 16.8211 11.6767V11.6767ZM18.3923 11.6681C18.9668 10.1628 20.6216 11.0641 18.6582 11.3656C18.7008 11.5258 18.6006 12.1427 18.3923 11.6681ZM5.71086 19.6509C7.42728 18.5998 3.8887 18.739 5.71086 19.6509V19.6509ZM6.97997 20.0036C7.58176 19.3637 5.67237 19.744 6.97997 20.0036V20.0036ZM3.24058 17.3497C4.22134 16.5963 2.07999 17.0632 3.24058 17.3497V17.3497ZM53.9228 49.0565C53.9511 48.1824 53.1731 49.4504 53.9228 49.0565V49.0565ZM48.7728 45.542C48.9193 44.5357 48.111 45.6297 48.7728 45.542V45.542ZM55.3389 49.3954C56.7102 49.4 59.4937 48.9695 56.5101 48.9709C56.0419 49.0439 53.7821 49.0283 55.3389 49.3954L55.3389 49.3954ZM8.09631 19.3867C9.20607 19.3105 9.83259 18.1626 7.88168 18.2286C4.8581 17.9156 10.5493 19.2639 7.4938 18.8783C7.08323 19.1502 8.07246 19.462 8.09631 19.3867ZM9.07368 19.8814C8.95781 19.1689 8.73051 20.26 9.07368 19.8814V19.8814ZM10.2331 16.7899C10.7146 16.1926 9.56666 16.6302 10.2331 16.7899V16.7899ZM6.54232 10.6207C8.52291 9.94689 11.2313 9.18977 12.1665 10.9524C11.2148 9.80695 11.7824 8.67928 12.6813 10.3541C13.9524 12.0486 14.5887 9.58335 13.762 9.01498C14.7041 10.1856 15.7757 10.7387 14.3928 9.08896C15.8955 7.28132 11.3838 9.32567 10.3583 9.30509C9.86492 9.52655 5.26436 10.4784 6.54232 10.6207ZM7.70306 8.39766C8.8326 7.54512 11.6096 8.90478 9.82763 7.55039C9.6534 7.39649 5.92504 8.57744 7.70306 8.39766ZM11.821 8.56767C13.143 8.60141 11.2508 6.79172 12.8261 7.61175C12.5674 6.76655 10.992 6.60832 10.2218 6.27065C9.78622 7.04339 11.1085 8.57806 11.821 8.56767ZM8.42513 4.82958C8.88247 4.2096 7.62361 5.14389 8.42513 4.82958V4.82958ZM10.1082 5.23242C12.2386 4.94986 9.56517 4.31498 9.67893 5.20971L10.1082 5.23242V5.23242V5.23242ZM6.96556 2.77337C5.46554 0.815233 9.78654 3.10253 8.26253 1.05229C6.97982 0.0308639 5.7472 2.20174 6.96556 2.77337ZM26.2159 13.1422C26.9039 11.9225 23.3755 11.4982 25.7524 12.7099C25.9712 12.783 25.9217 13.2265 26.2159 13.1422Z" fill="black"/>
<path d="M58.6902 4.73039C58.4441 5.70038 58.292 7.32906 58.2342 9.61641C58.2341 10.0652 58.0315 10.2896 57.6261 10.2896C57.2207 10.2896 56.9384 10.0942 56.7792 9.70328C56.3449 8.64647 55.9323 7.90814 55.5414 7.48828C55.0781 6.99608 54.4629 6.6993 53.6956 6.59794C52.8704 6.46767 50.8146 6.40252 47.5283 6.4025C46.7755 6.40252 46.2833 6.48215 46.0517 6.64137C45.9069 6.74274 45.8345 6.95989 45.8345 7.29284V17.13C45.8345 17.463 46.0444 17.6223 46.4643 17.6078C47.7527 17.5933 49.6203 17.5064 52.0669 17.3472C52.5446 17.2893 52.8668 17.1337 53.0333 16.8803C53.1997 16.627 53.3626 15.9719 53.5219 14.915C53.6232 14.336 53.9634 14.1116 54.5425 14.2418C55.0347 14.3432 55.2446 14.5676 55.1723 14.915C54.7669 16.8839 54.6366 19.4464 54.7814 22.6024C54.7958 22.9788 54.557 23.1815 54.0648 23.2104C53.6594 23.2539 53.406 23.0367 53.3047 22.5589C52.9283 20.7493 52.2298 19.783 51.2091 19.6599C50.1885 19.5369 48.5272 19.4753 46.2254 19.4753C45.9648 19.4753 45.8345 19.5694 45.8345 19.7576V29.5297C45.8345 30.2535 46.1023 30.7457 46.638 31.0063C47.0578 31.2235 47.9626 31.4189 49.3525 31.5927C50.0618 31.665 50.3731 31.9763 50.2862 32.5264C50.1994 33.0042 49.5624 33.1924 48.3753 33.091C44.9442 32.816 42.1139 32.8305 39.8844 33.1345C39.2619 33.2213 38.9507 32.968 38.9507 32.3744C38.9507 31.998 39.2619 31.7809 39.8844 31.723C41.3032 31.5637 42.0126 30.3187 42.0126 27.9879V9.39926C42.0126 8.44379 41.8425 7.70908 41.5022 7.19512C41.162 6.68121 40.5287 6.21432 39.6021 5.79446C39.023 5.5339 38.8059 5.17921 38.9507 4.73039C39.023 4.45536 39.1389 4.30335 39.2981 4.27436C39.4429 4.23096 39.8265 4.25992 40.449 4.36123C41.3611 4.50602 43.5109 4.57841 46.8986 4.57838C50.8943 4.57841 54.347 4.49155 57.257 4.31779C58.2269 4.25991 58.7119 4.33954 58.7119 4.55667C58.7119 4.6146 58.7046 4.67251 58.6902 4.73039H58.6902Z" fill="black"/>
<path d="M72.8052 32.331C72.8052 32.9101 72.4794 33.1634 71.828 33.091C69.8301 32.9028 67.3545 32.9318 64.4012 33.1779C63.8076 33.2358 63.4421 33.2213 63.3046 33.1345C63.167 33.0476 63.0983 32.8087 63.0983 32.4179C63.0983 32.0704 63.4928 31.7772 64.2818 31.5384C65.0708 31.2995 65.4653 30.5865 65.4653 29.3994V9.74671C65.4653 8.57409 65.2952 7.7127 64.955 7.16255C64.6147 6.61244 64.0176 6.18537 63.1634 5.88132C62.7146 5.7221 62.4902 5.49771 62.4902 5.20814C62.4902 4.77385 62.816 4.44812 63.4674 4.23093C64.4519 3.91246 65.4725 3.42024 66.5293 2.75427C67.398 2.23312 67.9481 1.97253 68.1797 1.9725C68.7154 1.97253 68.9832 2.3417 68.9832 3.08C68.9832 3.02212 68.9543 3.74598 68.8964 5.25157C68.8529 6.68483 68.8384 8.09634 68.8529 9.48612L68.9398 28.8782C68.9398 29.7613 69.1569 30.4019 69.5913 30.8C70.0256 31.1982 70.7711 31.4624 71.828 31.5927C72.4794 31.665 72.8052 31.9112 72.8052 32.331Z" fill="black"/>
<path d="M92.6099 30.8761C92.6099 31.1801 92.0561 31.6397 90.9487 32.255C89.8411 32.8703 88.9544 33.1779 88.2885 33.1779C87.7239 33.1779 87.2244 32.9028 86.7901 32.3527C86.3558 31.8026 86.0518 31.5275 85.878 31.5275C85.7477 31.5275 85.0601 31.8243 83.8151 32.4179C82.57 33.0114 81.3177 33.3082 80.0582 33.3082C78.8711 33.3082 77.8794 32.9608 77.0832 32.2659C76.2146 31.4986 75.7803 30.4562 75.7803 29.1388C75.7803 26.6343 78.6467 24.8391 84.3797 23.7533C85.3641 23.5651 85.8636 23.167 85.878 22.559L85.9215 21.1692C86.0083 18.7949 84.9587 17.6078 82.7727 17.6078C82.1502 17.6078 81.5602 18.1652 81.0029 19.2799C80.4455 20.3946 79.6456 20.9954 78.6033 21.0823C77.4162 21.1981 76.8226 20.6987 76.8226 19.5839C76.8226 18.889 77.7057 18.0783 79.4719 17.1518C81.325 16.1818 83.1057 15.6968 84.814 15.6968C87.7528 15.6968 89.2078 17.0939 89.1788 19.8879L89.092 28.8348C89.0775 29.7758 89.4756 30.2463 90.2863 30.2463C90.4456 30.2463 90.7496 30.2101 91.1984 30.1377C91.6472 30.0653 91.9077 30.0291 91.9801 30.0291C92.4 30.0291 92.6099 30.3114 92.6099 30.8761ZM85.9215 25.9249C85.9359 25.563 85.8527 25.3241 85.6717 25.2083C85.4908 25.0925 85.2049 25.0707 84.814 25.1431C81.325 25.7656 79.5805 26.9021 79.5805 28.5525C79.5805 30.2173 80.4853 31.0498 82.295 31.0498C83.0188 31.0498 83.7644 30.9122 84.5317 30.6372C85.4293 30.3187 85.878 29.935 85.878 29.4862L85.9215 25.9249Z" fill="black"/>
<path d="M108.81 28.2919C108.81 29.8265 108.22 31.0462 107.04 31.951C105.861 32.8558 104.25 33.3082 102.209 33.3082C100.848 33.3082 99.487 33.1634 98.1261 32.8739C96.9535 32.6133 96.2731 32.3744 96.0849 32.1573C95.969 31.9546 95.9111 30.9629 95.9111 29.1822C95.9111 28.415 96.0849 28.0168 96.4323 27.9879C96.7798 27.9445 97.0765 28.1327 97.3227 28.5525C98.4084 30.449 100.16 31.3972 102.578 31.3972C104.619 31.3972 105.64 30.6879 105.64 29.2691C105.64 28.6466 105.408 28.1254 104.945 27.7056C104.438 27.2278 103.454 26.6705 101.992 26.0335C99.8779 25.0925 98.4663 24.2673 97.757 23.5579C96.9897 22.8051 96.606 21.7917 96.606 20.5177C96.606 18.9542 97.2068 17.7381 98.4084 16.8695C99.5232 16.0298 101.014 15.61 102.882 15.61C104.054 15.61 105.126 15.7041 106.096 15.8923C107.138 16.0805 107.681 16.3121 107.724 16.5872C107.84 17.3979 108.079 18.5705 108.441 20.1051C108.484 20.2933 108.282 20.4453 107.833 20.5611C107.355 20.6625 107.037 20.5829 106.878 20.3223C105.734 18.4547 104.286 17.5209 102.534 17.5209C100.551 17.5209 99.5594 18.1579 99.5594 19.4319C99.5594 20.1413 99.8272 20.7059 100.363 21.1257C100.841 21.4877 101.963 22.0523 103.729 22.8196C105.582 23.6158 106.841 24.3324 107.507 24.9694C108.376 25.7946 108.81 26.9021 108.81 28.2919Z" fill="black"/>
<path d="M134 32.2007C134 32.7074 133.66 32.9752 132.98 33.0042C131.966 33.0187 130.642 33.0911 129.006 33.2213C128.195 33.3806 127.616 33.2793 127.268 32.9173C124.981 30.4562 123.041 27.8793 121.449 25.1866C121.318 24.9549 121.152 24.8391 120.949 24.8391C120.703 24.8391 120.276 25.0563 119.668 25.4906C118.987 25.867 118.647 26.4026 118.647 27.0975C118.647 27.5898 118.662 28.2991 118.691 29.2257C118.72 30.1522 118.951 30.7602 119.386 31.0498C119.69 31.2525 120.392 31.4117 121.492 31.5275C122.172 31.6144 122.513 31.8677 122.513 32.2876C122.513 32.6206 122.458 32.8269 122.35 32.9065C122.241 32.9861 121.955 33.0042 121.492 32.9608C120.044 32.8305 117.598 32.9029 114.152 33.1779C113.284 33.2503 112.813 33.1417 112.741 32.8522C112.712 32.7508 112.697 32.6061 112.697 32.4179C112.697 31.9691 113.139 31.6289 114.022 31.3972C114.818 31.1946 115.216 30.2608 115.216 28.5959V9.61643C115.216 8.42933 115.1 7.60414 114.869 7.14085C114.55 6.54731 113.884 6.08404 112.871 5.75104C112.393 5.59182 112.154 5.36743 112.154 5.07786C112.154 4.65805 112.494 4.33232 113.175 4.10065C114.261 3.73876 115.296 3.2393 116.28 2.60227C117.076 2.08113 117.569 1.82054 117.757 1.82051C118.35 1.82054 118.647 2.19695 118.647 2.94973C118.647 2.84842 118.64 3.56503 118.626 5.09958C118.611 6.15643 118.604 7.57519 118.604 9.35584L118.647 22.9498C118.647 23.3263 118.749 23.5145 118.951 23.5145C119.168 23.5145 119.501 23.3263 119.95 22.9498C121.152 22.0088 122.628 20.7783 124.38 19.2582C124.728 18.8963 124.901 18.6067 124.901 18.3896C124.901 17.9987 124.315 17.7236 123.142 17.5644C122.636 17.5065 122.397 17.2242 122.426 16.7175C122.469 16.2108 122.723 15.9936 123.186 16.066C124.228 16.2108 125.748 16.2904 127.746 16.3049C129.136 16.3193 130.518 16.3266 131.894 16.3266C132.343 16.3411 132.567 16.6089 132.567 17.13C132.567 17.6223 132.212 17.8901 131.503 17.9335C130.388 17.977 129.339 18.2303 128.354 18.6936C126.979 19.3161 125.509 20.4091 123.946 21.9726C123.83 22.0595 123.772 22.1681 123.772 22.2984C123.772 22.5011 124.018 22.986 124.511 23.7533C126.32 26.504 128.028 28.5814 129.635 29.9857C130.663 30.8688 131.626 31.3104 132.524 31.3104C133.19 31.3104 133.602 31.3574 133.761 31.4515C133.921 31.5456 134 31.7954 134 32.2007H134Z" fill="black"/>
</g>
<defs>
<clipPath id="clip0_226_715">
<rect width="134" height="53.6" fill="white" transform="translate(0 0.200027)"/>
</clipPath>
</defs>
</svg>
