<svg width="164" height="36" viewBox="0 0 164 36" fill="none" xmlns="http://www.w3.org/2000/svg">
<g clip-path="url(#clip0_226_632)">
<path d="M73.5743 25.0418C73.5743 25.345 73.1499 25.7086 72.665 25.7086C72.1195 25.7086 71.7559 25.4056 71.7559 25.0418V16.01C71.7559 15.6464 72.1195 15.4039 72.665 15.4039C73.0894 15.4039 73.5137 15.6464 73.5137 16.01V16.9193C73.938 16.0706 74.9685 15.2826 76.4233 15.2826C78.4842 15.2826 80.2421 17.1617 80.2421 19.4651V25.1025C80.2421 25.5267 79.7572 25.7692 79.3329 25.7692C78.9085 25.7692 78.4236 25.5267 78.4236 25.1025V19.4651C78.4236 18.1922 77.2719 16.9193 75.9384 16.9193C74.7866 16.9193 73.5743 17.8891 73.5743 19.4651V25.0418Z" fill="#8B9597"/>
<path d="M91.4561 19.2228C91.4561 20.9807 90.4862 21.0413 89.5163 21.0413H84.7276V21.7081C84.7276 23.3447 86.0005 24.3752 87.8191 24.3752C89.4557 24.3752 89.9407 23.5265 90.4862 23.5265C90.9105 23.5265 91.2136 24.0115 91.2136 24.3752C91.2136 24.9208 89.88 25.9512 87.7585 25.9512C84.9095 25.9512 82.9092 24.2539 82.9092 21.7081V19.4046C82.9092 17.1619 84.8489 15.2827 87.2736 15.2827C89.5163 15.2221 91.4561 16.9194 91.4561 19.2228ZM88.7889 19.829C89.5769 19.829 89.7588 19.7077 89.7588 19.1016C89.7588 17.8287 88.7283 16.6163 87.2736 16.6163C85.8794 16.6163 84.7882 17.6468 84.7882 18.9803V19.7684H88.7889V19.829Z" fill="#8B9597"/>
<path d="M95.8203 16.01V16.9193C96.3052 16.0706 97.3358 15.2826 98.7299 15.2826C100.912 15.2826 102.67 17.1617 102.67 19.4651V21.708C102.67 23.8902 100.851 25.9511 98.8512 25.9511C97.5176 25.9511 96.3659 25.1631 95.9416 24.2538V30.1336C95.9416 30.4366 95.5173 30.8004 95.0323 30.8004C94.4868 30.8004 94.123 30.4973 94.123 30.1336V16.01C94.123 15.6464 94.4868 15.4039 94.9717 15.4039C95.4567 15.3432 95.8203 15.6464 95.8203 16.01ZM100.851 19.4045C100.851 18.1316 99.6997 16.8587 98.3057 16.8587C97.0933 16.8587 95.881 17.8286 95.881 19.4045V22.1929C95.881 22.799 96.9115 24.1932 98.3662 24.1932C99.6997 24.1932 100.851 22.9203 100.851 21.5867V19.4045Z" fill="#8B9597"/>
<path d="M107.216 22.4355C107.216 23.7086 107.701 24.1328 109.034 24.1328H109.701C110.186 24.1328 110.489 24.4965 110.489 24.9209C110.489 25.3451 110.186 25.7089 109.701 25.7089H109.034C106.67 25.7089 105.397 24.6784 105.397 22.4355V11.161C105.397 10.7973 105.882 10.5548 106.307 10.5548C106.792 10.5548 107.216 10.7973 107.216 11.161V15.3435H109.944C110.247 15.3435 110.489 15.7072 110.489 16.0708C110.489 16.4346 110.247 16.7982 109.944 16.7982H107.216V22.4355Z" fill="#8B9597"/>
<path d="M112.732 21.708V16.0101C112.732 15.7069 113.096 15.3433 113.641 15.3433C114.126 15.3433 114.55 15.6464 114.55 16.0101V21.708C114.55 22.9809 115.642 24.2539 117.036 24.2539C118.43 24.2539 119.521 22.9809 119.521 21.708V16.0101C119.521 15.7069 119.945 15.4039 120.43 15.4039C120.975 15.4039 121.34 15.7069 121.34 16.0101V21.708C121.34 23.9508 119.399 25.8905 117.036 25.8905C114.672 25.8905 112.732 23.8902 112.732 21.708Z" fill="#8B9597"/>
<path d="M126.311 25.0418C126.311 25.345 125.887 25.7086 125.402 25.7086C124.856 25.7086 124.493 25.4056 124.493 25.0418V16.01C124.493 15.6464 124.856 15.4039 125.402 15.4039C125.827 15.4039 126.25 15.6464 126.25 16.01V16.9193C126.675 16.0706 127.706 15.2826 129.16 15.2826C131.222 15.2826 132.979 17.1617 132.979 19.4651V25.1025C132.979 25.5267 132.494 25.7692 132.07 25.7692C131.645 25.7692 131.16 25.5267 131.16 25.1025V19.4651C131.16 18.1922 130.009 16.9193 128.675 16.9193C127.524 16.9193 126.311 17.8891 126.311 19.4651V25.0418Z" fill="#8B9597"/>
<path d="M144.192 19.2228C144.192 20.9807 143.222 21.0413 142.253 21.0413H137.464V21.7081C137.464 23.3447 138.736 24.3752 140.555 24.3752C142.191 24.3752 142.676 23.5265 143.222 23.5265C143.647 23.5265 143.95 24.0115 143.95 24.3752C143.95 24.9208 142.616 25.9512 140.494 25.9512C137.645 25.9512 135.645 24.2539 135.645 21.7081V19.4046C135.645 17.1619 137.585 15.2827 140.009 15.2827C142.253 15.2221 144.192 16.9194 144.192 19.2228ZM141.525 19.829C142.313 19.829 142.494 19.7077 142.494 19.1016C142.494 17.8287 141.465 16.6163 140.009 16.6163C138.615 16.6163 137.524 17.6468 137.524 18.9803V19.7684H141.525V19.829Z" fill="#8B9597"/>
<path d="M148.617 24.6784C148.617 25.2845 148.132 25.8302 147.526 25.8302C146.86 25.8302 146.375 25.2845 146.375 24.6784C146.375 24.0722 146.86 23.5267 147.526 23.5267C148.072 23.5267 148.617 24.0722 148.617 24.6784Z" fill="#8B9597"/>
<path d="M158.558 19.4654V25.0421C158.558 25.4057 158.194 25.7089 157.648 25.7089C157.164 25.7089 156.8 25.4057 156.8 25.0421V24.1934C156.012 25.0421 154.981 25.8906 153.527 25.8906C151.89 25.8906 150.557 24.9815 150.557 22.9811C150.557 20.5564 152.618 19.9503 155.649 19.9503H156.679V19.4654C156.679 18.1925 156.012 16.7377 154.255 16.7377C152.739 16.7377 152.254 17.3438 151.89 17.3438C151.465 17.3438 151.224 16.7983 151.224 16.4345C151.224 15.7678 152.861 15.1616 154.315 15.1616C157.467 15.2222 158.558 17.2832 158.558 19.4654ZM156.74 21.0413H155.951C154.072 21.0413 152.375 21.2232 152.375 22.7386C152.375 23.8903 153.103 24.3753 154.072 24.3753C155.346 24.3753 156.74 23.1629 156.74 22.1325V21.0413Z" fill="#8B9597"/>
<path d="M163.65 11.4639C163.65 12.0095 163.165 12.4945 162.559 12.4945C161.953 12.4945 161.407 12.0095 161.407 11.4639C161.407 10.9184 161.892 10.4335 162.559 10.4335C163.165 10.4335 163.65 10.9184 163.65 11.4639ZM163.468 16.0101V25.0419C163.468 25.3451 163.044 25.7088 162.559 25.7088C162.074 25.7088 161.649 25.4057 161.649 25.0419V16.0101C161.649 15.6465 162.014 15.404 162.559 15.404C163.105 15.404 163.468 15.6465 163.468 16.0101Z" fill="#8B9597"/>
<path fill-rule="evenodd" clip-rule="evenodd" d="M52.0552 31.528C53.0858 29.1034 53.6313 26.1938 54.1163 23.4054C54.2374 22.6174 54.4193 21.8294 54.5406 21.102C54.7831 19.8291 54.9042 18.9804 54.8436 18.0711C54.7831 17.162 53.995 16.1314 52.9039 16.1314C51.5097 16.0708 50.7823 16.7376 50.4793 18.1319L49.9943 20.6171C49.6306 22.5568 49.2669 24.4359 48.9032 26.3757C48.9032 26.4363 48.9032 26.5574 48.8426 26.6787C48.6001 28.0728 48.4183 28.8609 48.0546 29.2853C47.994 29.3458 47.5091 29.8914 46.7817 29.7702C46.418 29.7095 45.933 29.467 45.5694 28.6184C45.5087 28.0122 45.3269 26.9212 45.2056 26.315C44.9026 24.7996 44.5995 23.2236 44.2964 21.7081C43.6297 18.3743 42.9629 14.9798 42.1749 11.5853C41.5686 8.97875 40.7201 6.25102 39.6895 3.58391C38.7804 1.21987 37.5073 0.250015 35.5676 0.250015C33.2037 0.250015 32.0519 1.76542 31.0821 3.58391C29.7486 6.1904 29.0212 9.16061 28.3544 12.4944C27.7481 15.2829 27.2026 18.1924 26.6571 20.9201C26.354 22.3749 26.1116 23.7691 25.8084 25.2239C25.8084 25.3451 25.1417 28.2547 25.081 28.4972C24.778 29.2851 24.293 29.7095 23.7475 29.7095C22.8988 29.7095 22.4746 28.679 22.4139 28.376C22.4139 28.3154 22.1714 27.5273 22.1108 27.4061C21.9897 27.0424 21.8684 26.6787 21.8078 26.315C21.5047 24.739 21.2016 23.1629 20.8379 21.587C20.1711 18.253 19.5043 14.7979 18.7163 11.464C18.1102 8.79691 17.2615 6.1904 16.2311 3.5233C15.3824 1.40172 13.8064 0.613713 12.4122 0.553097C12.4122 0.553097 9.26021 0.431864 7.80542 3.58391C6.59309 6.06917 5.68385 8.91814 4.89585 12.5552C4.41092 14.7979 4.10783 16.4346 3.98659 18.0106C3.92598 18.9804 4.53215 19.9503 5.38076 20.2533C6.04755 20.4958 6.71432 20.4352 7.25988 20.1322C7.74481 19.8291 8.1085 19.2835 8.29035 18.6168C8.65404 16.9195 8.95713 15.1616 9.26021 13.525C9.44206 12.6763 10.3513 8.19075 10.5332 7.64519C10.715 7.09965 11.0787 5.82671 11.9879 5.82671C11.9879 5.82671 11.9879 5.82671 12.0486 5.82671C12.8972 5.88733 13.2609 6.97842 13.5034 8.00889C13.6246 8.49382 13.867 9.70615 14.0489 10.7972C14.1701 11.3428 14.2914 11.8883 14.352 12.252C14.7157 13.9492 15.0188 15.6465 15.3824 17.2832C15.5643 18.253 15.8067 19.1623 15.9886 20.1322C16.6554 23.1629 17.3221 26.315 18.1102 29.3458C18.5952 31.1037 19.4437 32.6796 20.0499 33.6495C20.7773 34.8618 21.9897 35.5286 23.2626 35.5892C25.3842 35.6499 27.2632 34.1344 28.2331 31.6492C29.5667 28.2547 30.2941 24.5571 31.0215 20.9201C31.0215 20.9201 32.7793 11.8883 33.1429 10.2517C33.2037 9.82738 33.7492 7.64519 33.8703 7.28149C34.3553 5.82672 35.0221 5.70548 35.3253 5.70548H35.3858C36.295 5.70548 36.9012 7.03903 37.6892 11.0397L37.7498 11.2822C38.1741 13.1613 38.5379 15.101 38.9015 16.9801C39.5683 20.2533 40.2351 23.5873 40.9625 26.8606C41.5686 29.7095 42.3566 31.6492 43.5084 33.2859C45.0845 35.5286 47.2666 35.953 49.57 34.5588C50.6004 33.9527 51.5097 32.8009 52.0552 31.528Z" fill="#8B9597"/>
<path fill-rule="evenodd" clip-rule="evenodd" d="M3.07783 29.8308C1.56242 29.8914 0.350098 31.1037 0.350098 32.6192C0.350098 33.3465 0.65318 34.0133 1.19873 34.5588C1.74427 35.1044 2.41105 35.4075 3.13845 35.4075C3.80522 35.4075 4.53262 35.0437 5.01755 34.4982C5.50248 33.9527 5.80557 33.2859 5.80557 32.6192C5.80557 31.1037 4.53262 29.8308 3.07783 29.8308Z" fill="#8B9597"/>
</g>
<defs>
<clipPath id="clip0_226_632">
<rect width="163.3" height="35.5" fill="white" transform="translate(0.350098 0.250015)"/>
</clipPath>
</defs>
</svg>
