<svg width="100" height="74" viewBox="0 0 100 74" fill="none" xmlns="http://www.w3.org/2000/svg">
<path d="M8.75007 59.2738C8.75007 59.3833 8.69532 59.5675 8.58582 59.8263C8.47632 60.0751 8.30709 60.4086 8.07814 60.8267C7.84918 61.2448 7.55552 61.7525 7.19716 62.3498C6.83879 62.947 6.40577 63.6389 5.89809 64.4253V67.5759C5.81845 67.5958 5.69402 67.6207 5.52479 67.6505C5.36552 67.6804 5.19629 67.6953 5.01711 67.6953C4.63884 67.6953 4.37504 67.6257 4.22573 67.4863C4.07641 67.3469 4.00175 67.118 4.00175 66.7994V64.4402C3.73298 64.052 3.44927 63.6239 3.15064 63.1561C2.852 62.6882 2.55834 62.2154 2.26966 61.7375C1.98098 61.2597 1.7122 60.7919 1.46334 60.334C1.21448 59.8661 1.00543 59.443 0.836203 59.0648C0.91584 58.9154 1.04027 58.781 1.2095 58.6616C1.37873 58.5322 1.59275 58.4675 1.85157 58.4675C2.14025 58.4675 2.3692 58.5322 2.53843 58.6616C2.71761 58.791 2.89182 59.015 3.06104 59.3335C3.14068 59.4729 3.26511 59.7068 3.43434 60.0353C3.61352 60.3539 3.79768 60.6923 3.98682 61.0507C4.18591 61.409 4.37007 61.7475 4.53929 62.066C4.71848 62.3846 4.84291 62.6036 4.91259 62.723H4.98725C5.17639 62.3547 5.35557 62.0063 5.52479 61.6778C5.69402 61.3394 5.85827 61.0109 6.01754 60.6923C6.17682 60.3638 6.33111 60.0353 6.48043 59.7068C6.6397 59.3684 6.80395 59.02 6.97318 58.6616C7.09264 58.5919 7.22702 58.5421 7.37634 58.5123C7.53561 58.4824 7.68493 58.4675 7.82429 58.4675C8.09307 58.4675 8.31207 58.5372 8.48129 58.6765C8.66048 58.8159 8.75007 59.015 8.75007 59.2738ZM16.3899 64.052C16.3899 64.6293 16.3003 65.152 16.1211 65.6198C15.9519 66.0777 15.708 66.4709 15.3895 66.7994C15.0709 67.1279 14.6877 67.3818 14.2397 67.561C13.7918 67.7302 13.2891 67.8148 12.7316 67.8148C12.1742 67.8148 11.6715 67.7302 11.2235 67.561C10.7755 67.3818 10.3923 67.1329 10.0737 66.8144C9.7552 66.4859 9.50634 66.0927 9.32716 65.6348C9.15793 65.1669 9.07332 64.6393 9.07332 64.052C9.07332 63.4746 9.15793 62.957 9.32716 62.4991C9.50634 62.0312 9.7552 61.638 10.0737 61.3195C10.4022 60.991 10.7905 60.7421 11.2384 60.5729C11.6864 60.3937 12.1841 60.3041 12.7316 60.3041C13.2791 60.3041 13.7768 60.3937 14.2248 60.5729C14.6727 60.7421 15.056 60.991 15.3745 61.3195C15.703 61.648 15.9519 62.0461 16.1211 62.514C16.3003 62.9719 16.3899 63.4846 16.3899 64.052ZM12.7316 61.7973C12.1941 61.7973 11.771 61.9964 11.4624 62.3945C11.1538 62.7828 10.9995 63.3353 10.9995 64.052C10.9995 64.7787 11.1488 65.3361 11.4475 65.7243C11.7561 66.1126 12.1841 66.3067 12.7316 66.3067C13.2791 66.3067 13.7022 66.1126 14.0008 65.7243C14.3094 65.3262 14.4637 64.7687 14.4637 64.052C14.4637 63.3353 14.3094 62.7828 14.0008 62.3945C13.6922 61.9964 13.2692 61.7973 12.7316 61.7973ZM24.6519 66.2022C24.6519 66.4311 24.6121 66.6252 24.5324 66.7845C24.4528 66.9338 24.3084 67.0682 24.0994 67.1877C23.8107 67.3668 23.4424 67.5162 22.9944 67.6356C22.5564 67.7551 22.0537 67.8148 21.4863 67.8148C20.9687 67.8148 20.5008 67.7551 20.0827 67.6356C19.6646 67.5261 19.3063 67.3519 19.0076 67.113C18.709 66.8741 18.4801 66.5705 18.3208 66.2022C18.1615 65.8338 18.0819 65.3958 18.0819 64.8882V60.543C18.1615 60.5131 18.276 60.4883 18.4253 60.4683C18.5846 60.4385 18.7588 60.4235 18.9479 60.4235C19.2963 60.4235 19.5551 60.4883 19.7244 60.6177C19.8936 60.7371 19.9782 60.9661 19.9782 61.3045V64.8583C19.9782 65.3759 20.1076 65.7492 20.3664 65.9782C20.6352 66.1972 21.0135 66.3067 21.5013 66.3067C21.8098 66.3067 22.0687 66.2768 22.2777 66.2171C22.4967 66.1574 22.661 66.0927 22.7705 66.023V60.543C22.8501 60.5131 22.9646 60.4883 23.1139 60.4683C23.2732 60.4385 23.4424 60.4235 23.6216 60.4235C23.9799 60.4235 24.2388 60.4883 24.398 60.6177C24.5673 60.7371 24.6519 60.9661 24.6519 61.3045V66.2022ZM28.585 67.5759C28.4954 67.5958 28.376 67.6207 28.2266 67.6505C28.0773 67.6804 27.9081 67.6953 27.719 67.6953C27.3705 67.6953 27.1117 67.6306 26.9425 67.5012C26.7733 67.3718 26.6887 67.1429 26.6887 66.8144V62.081C26.6887 61.8222 26.7484 61.6032 26.8678 61.424C26.9873 61.2448 27.1615 61.0855 27.3905 60.9462C27.699 60.757 28.0773 60.6027 28.5253 60.4833C28.9832 60.3638 29.4759 60.3041 30.0035 60.3041C30.9492 60.3041 31.422 60.5978 31.422 61.1851C31.422 61.3244 31.3972 61.4588 31.3474 61.5882C31.3076 61.7077 31.2628 61.8072 31.213 61.8869C30.984 61.8371 30.7003 61.8122 30.3619 61.8122C30.0135 61.8122 29.685 61.852 29.3764 61.9317C29.0678 62.0113 28.804 62.1108 28.585 62.2303V67.5759ZM37.8973 67.5759C37.8177 67.5958 37.6982 67.6207 37.539 67.6505C37.3896 67.6804 37.2254 67.6953 37.0462 67.6953C36.6878 67.6953 36.4241 67.6306 36.2548 67.5012C36.0956 67.3718 36.0159 67.1429 36.0159 66.8144V57.8851C36.0956 57.8553 36.21 57.8304 36.3593 57.8105C36.5186 57.7806 36.6878 57.7657 36.867 57.7657C37.2254 57.7657 37.4842 57.8304 37.6435 57.9598C37.8127 58.0892 37.8973 58.3182 37.8973 58.6467V67.5759ZM47.0001 64.052C47.0001 64.6293 46.9105 65.152 46.7314 65.6198C46.5621 66.0777 46.3182 66.4709 45.9997 66.7994C45.6812 67.1279 45.2979 67.3818 44.85 67.561C44.402 67.7302 43.8993 67.8148 43.3418 67.8148C42.7844 67.8148 42.2817 67.7302 41.8337 67.561C41.3858 67.3818 41.0025 67.1329 40.684 66.8144C40.3654 66.4859 40.1166 66.0927 39.9374 65.6348C39.7682 65.1669 39.6835 64.6393 39.6835 64.052C39.6835 63.4746 39.7682 62.957 39.9374 62.4991C40.1166 62.0312 40.3654 61.638 40.684 61.3195C41.0125 60.991 41.4007 60.7421 41.8487 60.5729C42.2966 60.3937 42.7943 60.3041 43.3418 60.3041C43.8893 60.3041 44.3871 60.3937 44.835 60.5729C45.283 60.7421 45.6662 60.991 45.9848 61.3195C46.3133 61.648 46.5621 62.0461 46.7314 62.514C46.9105 62.9719 47.0001 63.4846 47.0001 64.052ZM43.3418 61.7973C42.8043 61.7973 42.3812 61.9964 42.0726 62.3945C41.764 62.7828 41.6097 63.3353 41.6097 64.052C41.6097 64.7787 41.7591 65.3361 42.0577 65.7243C42.3663 66.1126 42.7943 66.3067 43.3418 66.3067C43.8893 66.3067 44.3124 66.1126 44.611 65.7243C44.9196 65.3262 45.0739 64.7687 45.0739 64.052C45.0739 63.3353 44.9196 62.7828 44.611 62.3945C44.3025 61.9964 43.8794 61.7973 43.3418 61.7973ZM53.2463 66.9786C53.0472 67.0782 52.8133 67.1628 52.5445 67.2325C52.2857 67.3021 51.9821 67.337 51.6337 67.337C51.1857 67.337 50.7626 67.2773 50.3645 67.1578C49.9663 67.0284 49.6179 66.8243 49.3192 66.5456C49.0206 66.2669 48.7817 65.9085 48.6025 65.4705C48.4333 65.0225 48.3487 64.48 48.3487 63.8429C48.3487 63.2656 48.4333 62.7579 48.6025 62.3199C48.7817 61.8719 49.0306 61.4986 49.3491 61.2C49.6776 60.9014 50.0658 60.6774 50.5138 60.5281C50.9617 60.3788 51.4595 60.3041 52.007 60.3041C52.5246 60.3041 52.9974 60.3688 53.4255 60.4982C53.8635 60.6276 54.2119 60.7769 54.4707 60.9462C54.6499 61.0656 54.7893 61.2 54.8888 61.3493C54.9983 61.4986 55.0531 61.6878 55.0531 61.9167V67.6804C55.0531 68.1881 54.9585 68.6261 54.7693 68.9944C54.5902 69.3627 54.3413 69.6614 54.0228 69.8903C53.7042 70.1292 53.3309 70.3034 52.9029 70.4129C52.4748 70.5224 52.0119 70.5772 51.5142 70.5772C50.9966 70.5772 50.5436 70.5274 50.1554 70.4279C49.7771 70.3383 49.4934 70.2338 49.3043 70.1143C48.9758 69.9053 48.8116 69.6265 48.8116 69.2781C48.8116 69.089 48.8514 68.9247 48.931 68.7854C49.0106 68.646 49.1052 68.5415 49.2147 68.4718C49.4735 68.6311 49.7871 68.7704 50.1554 68.8899C50.5237 69.0093 50.9169 69.0691 51.335 69.0691C51.9323 69.0691 52.4002 68.9546 52.7386 68.7256C53.0771 68.4967 53.2463 68.1284 53.2463 67.6207V66.9786ZM51.9472 65.8737C52.2359 65.8737 52.4798 65.8338 52.6789 65.7542C52.8879 65.6746 53.0671 65.58 53.2164 65.4705V62.0959C53.0771 62.0163 52.9128 61.9466 52.7237 61.8869C52.5445 61.8271 52.3255 61.7973 52.0667 61.7973C51.5192 61.7973 51.0762 61.9665 50.7378 62.305C50.4093 62.6335 50.245 63.1461 50.245 63.8429C50.245 64.2212 50.2848 64.5398 50.3645 64.7986C50.4541 65.0574 50.5735 65.2664 50.7228 65.4257C50.8821 65.585 51.0663 65.6995 51.2753 65.7691C51.4843 65.8388 51.7083 65.8737 51.9472 65.8737ZM64.0387 64.052C64.0387 64.6293 63.9491 65.152 63.77 65.6198C63.6007 66.0777 63.3569 66.4709 63.0383 66.7994C62.7198 67.1279 62.3365 67.3818 61.8886 67.561C61.4406 67.7302 60.9379 67.8148 60.3804 67.8148C59.823 67.8148 59.3203 67.7302 58.8723 67.561C58.4244 67.3818 58.0411 67.1329 57.7226 66.8144C57.404 66.4859 57.1552 66.0927 56.976 65.6348C56.8068 65.1669 56.7221 64.6393 56.7221 64.052C56.7221 63.4746 56.8068 62.957 56.976 62.4991C57.1552 62.0312 57.404 61.638 57.7226 61.3195C58.0511 60.991 58.4393 60.7421 58.8873 60.5729C59.3352 60.3937 59.8329 60.3041 60.3804 60.3041C60.9279 60.3041 61.4257 60.3937 61.8736 60.5729C62.3216 60.7421 62.7048 60.991 63.0234 61.3195C63.3519 61.648 63.6007 62.0461 63.77 62.514C63.9491 62.9719 64.0387 63.4846 64.0387 64.052ZM60.3804 61.7973C59.8429 61.7973 59.4198 61.9964 59.1112 62.3945C58.8026 62.7828 58.6484 63.3353 58.6484 64.052C58.6484 64.7787 58.7977 65.3361 59.0963 65.7243C59.4049 66.1126 59.8329 66.3067 60.3804 66.3067C60.9279 66.3067 61.351 66.1126 61.6496 65.7243C61.9582 65.3262 62.1125 64.7687 62.1125 64.052C62.1125 63.3353 61.9582 62.7828 61.6496 62.3945C61.3411 61.9964 60.918 61.7973 60.3804 61.7973ZM70.7955 67.5759C70.7059 67.5958 70.5865 67.6207 70.4371 67.6505C70.2878 67.6804 70.1186 67.6953 69.9295 67.6953C69.5811 67.6953 69.3222 67.6306 69.153 67.5012C68.9838 67.3718 68.8992 67.1429 68.8992 66.8144V57.8851C68.9788 57.8553 69.0933 57.8304 69.2426 57.8105C69.4019 57.7806 69.5761 57.7657 69.7652 57.7657C70.1136 57.7657 70.3724 57.8304 70.5417 57.9598C70.7109 58.0892 70.7955 58.3182 70.7955 58.6467V60.7073C71.0145 60.5978 71.2634 60.5032 71.5421 60.4235C71.8308 60.3439 72.1493 60.3041 72.4977 60.3041C73.4036 60.3041 74.1253 60.538 74.6628 61.0059C75.2004 61.4738 75.4692 62.1805 75.4692 63.1262V67.5759C75.3895 67.5958 75.2701 67.6207 75.1108 67.6505C74.9615 67.6804 74.7972 67.6953 74.6181 67.6953C74.2597 67.6953 73.9959 67.6306 73.8267 67.5012C73.6574 67.3718 73.5728 67.1429 73.5728 66.8144V63.2158C73.5728 62.7181 73.4434 62.3597 73.1846 62.1407C72.9258 61.9118 72.5873 61.7973 72.1692 61.7973C71.9005 61.7973 71.6516 61.8421 71.4226 61.9317C71.1937 62.0113 70.9846 62.1108 70.7955 62.2303V67.5759ZM79.0578 64.9031C79.1972 65.4108 79.456 65.7791 79.8343 66.008C80.2125 66.237 80.6804 66.3515 81.2379 66.3515C81.656 66.3515 82.0392 66.2918 82.3876 66.1723C82.746 66.0429 83.0347 65.9085 83.2537 65.7691C83.393 65.8488 83.5075 65.9583 83.5971 66.0976C83.6867 66.237 83.7315 66.3863 83.7315 66.5456C83.7315 66.7447 83.6618 66.9239 83.5224 67.0831C83.393 67.2325 83.2089 67.3619 82.97 67.4714C82.741 67.5809 82.4672 67.6655 82.1487 67.7252C81.8302 67.7849 81.4867 67.8148 81.1184 67.8148C80.5311 67.8148 79.9935 67.7352 79.5058 67.5759C79.028 67.4166 78.6148 67.1777 78.2664 66.8592C77.928 66.5307 77.6592 66.1275 77.4601 65.6497C77.271 65.1719 77.1764 64.6144 77.1764 63.9773C77.1764 63.3601 77.271 62.8226 77.4601 62.3647C77.6492 61.9068 77.9031 61.5235 78.2216 61.2149C78.5501 60.9063 78.9284 60.6774 79.3565 60.5281C79.7845 60.3788 80.2374 60.3041 80.7152 60.3041C81.203 60.3041 81.651 60.3837 82.0591 60.543C82.4672 60.6923 82.8157 60.9063 83.1043 61.1851C83.393 61.4538 83.617 61.7823 83.7763 62.1706C83.9455 62.5488 84.0301 62.962 84.0301 63.4099C84.0301 63.6886 83.9555 63.8977 83.8061 64.037C83.6668 64.1764 83.4677 64.266 83.2089 64.3058L79.0578 64.9031ZM80.7152 61.7226C80.2275 61.7226 79.8193 61.8869 79.4908 62.2154C79.1623 62.5339 78.9782 62.9918 78.9384 63.5891L82.2532 63.0963C82.2134 62.728 82.0691 62.4095 81.8202 62.1407C81.5713 61.862 81.203 61.7226 80.7152 61.7226ZM87.5418 67.5759C87.4522 67.5958 87.3327 67.6207 87.1834 67.6505C87.0341 67.6804 86.8649 67.6953 86.6757 67.6953C86.3273 67.6953 86.0685 67.6306 85.8993 67.5012C85.73 67.3718 85.6454 67.1429 85.6454 66.8144V62.081C85.6454 61.8222 85.7052 61.6032 85.8246 61.424C85.9441 61.2448 86.1183 61.0855 86.3472 60.9462C86.6558 60.757 87.0341 60.6027 87.482 60.4833C87.94 60.3638 88.4327 60.3041 88.9603 60.3041C89.906 60.3041 90.3788 60.5978 90.3788 61.1851C90.3788 61.3244 90.3539 61.4588 90.3042 61.5882C90.2643 61.7077 90.2195 61.8072 90.1698 61.8869C89.9408 61.8371 89.6571 61.8122 89.3187 61.8122C88.9703 61.8122 88.6418 61.852 88.3332 61.9317C88.0246 62.0113 87.7608 62.1108 87.5418 62.2303V67.5759ZM93.0488 64.9031C93.1882 65.4108 93.447 65.7791 93.8253 66.008C94.2035 66.237 94.6714 66.3515 95.2289 66.3515C95.6469 66.3515 96.0302 66.2918 96.3786 66.1723C96.737 66.0429 97.0257 65.9085 97.2447 65.7691C97.384 65.8488 97.4985 65.9583 97.5881 66.0976C97.6777 66.237 97.7225 66.3863 97.7225 66.5456C97.7225 66.7447 97.6528 66.9239 97.5134 67.0831C97.384 67.2325 97.1999 67.3619 96.9609 67.4714C96.732 67.5809 96.4582 67.6655 96.1397 67.7252C95.8212 67.7849 95.4777 67.8148 95.1094 67.8148C94.5221 67.8148 93.9845 67.7352 93.4968 67.5759C93.0189 67.4166 92.6058 67.1777 92.2574 66.8592C91.919 66.5307 91.6502 66.1275 91.4511 65.6497C91.262 65.1719 91.1674 64.6144 91.1674 63.9773C91.1674 63.3601 91.262 62.8226 91.4511 62.3647C91.6402 61.9068 91.8941 61.5235 92.2126 61.2149C92.5411 60.9063 92.9194 60.6774 93.3474 60.5281C93.7755 60.3788 94.2284 60.3041 94.7062 60.3041C95.194 60.3041 95.642 60.3837 96.0501 60.543C96.4582 60.6923 96.8067 60.9063 97.0953 61.1851C97.384 61.4538 97.608 61.7823 97.7673 62.1706C97.9365 62.5488 98.0211 62.962 98.0211 63.4099C98.0211 63.6886 97.9464 63.8977 97.7971 64.037C97.6578 64.1764 97.4587 64.266 97.1999 64.3058L93.0488 64.9031ZM94.7062 61.7226C94.2185 61.7226 93.8103 61.8869 93.4818 62.2154C93.1533 62.5339 92.9692 62.9918 92.9294 63.5891L96.2442 63.0963C96.2044 62.728 96.0601 62.4095 95.8112 62.1407C95.5623 61.862 95.194 61.7226 94.7062 61.7226Z" fill="#0E7384"/>
<g clip-path="url(#clip0_127_1901)">
<path d="M31.3221 35.5883C34.6387 32.1972 37.9514 28.9271 41.273 25.6481C42.5759 24.3619 43.8801 23.0744 45.1865 21.7777V27.8074V29.0517H46.4309H55.6876H56.9319V27.8074V9.52531V8.28099H55.6876H37.4056H36.1612V9.52531V16.4679V17.7122H37.4056H43.4179C41.125 19.9867 38.8311 22.2365 36.5343 24.4891L36.5326 24.4908C34.2322 26.7469 31.9289 29.0059 29.6246 31.2919V25.2618V24.0174H28.3802H20.1364V17.7122H28.3802H29.6246V16.4679V1.74432H29.6494H29.7199H29.7904H29.861H29.9315H30.002H30.0725H30.143H30.2135H30.284H30.3545H30.425H30.4955H30.5661H30.6366H30.7071H30.7776H30.8481H30.9186H30.9891H31.0596H31.1301H31.2006H31.2712H31.3417H31.4122H31.4827H31.5532H31.6237H31.6942H31.7647H31.8352H31.9058H31.9763H32.0468H32.1173H32.1878H32.2583H32.3288H32.3993H32.4698H32.5403H32.6109H32.6814H32.7519H32.8224H32.8929H32.9634H33.0339H33.1044H33.1749H33.2454H33.316H33.3865H33.457H33.5275H33.598H33.6685H33.739H33.8095H33.88H33.9505H34.0211H34.0916H34.1621H34.2326H34.3031H34.3736H34.4441H34.5146H34.5851H34.6557H34.7262H34.7967H34.8672H34.9377H35.0082H35.0787H35.1492H35.2197H35.2902H35.3608H35.4313H35.5018H35.5723H35.6428H35.7133H35.7838H35.8543H35.9248H35.9953H36.0659H36.1364H36.2069H36.2774H36.3479H36.4184H36.4889H36.5594H36.6299H36.7004H36.771H36.8415H36.912H36.9825H37.053H37.1235H37.194H37.2645H37.335H37.4056H37.4761H37.5466H37.6171H37.6876H37.7581H37.8286H37.8991H37.9696H38.0401H38.1107H38.1812H38.2517H38.3222H38.3927H38.4632H38.5337H38.6042H38.6747H38.7452H38.8158H38.8863H38.9568H39.0273H39.0978H39.1683H39.2388H39.3093H39.3798H39.4503H39.5209H39.5914H39.6619H39.7324H39.8029H39.8734H39.9439H40.0144H40.0849H40.1555H40.226H40.2965H40.367H40.4375H40.508H40.5785H40.649H40.7195H40.79H40.8606H40.9311H41.0016H41.0721H41.1426H41.2131H41.2836H41.3541H41.4246H41.4951H41.5657H41.6362H41.7067H41.7772H41.8477H41.9182H41.9887H42.0592H42.1297H42.2002H42.2708H42.3413H42.4118H42.4823H42.5528H42.6233H42.6938H42.7643H42.8348H42.9053H42.9759H43.0464H43.1169H43.1874H43.2579H43.3284H43.3989H43.4694H43.5399H43.6105H43.681H43.7515H43.822H43.8925H43.963H44.0335H44.104H44.1745H44.245H44.3156H44.3861H44.4566H44.5271H44.5976H44.6681H44.7386H44.8091H44.8796H44.9501H45.0207H45.0912H45.1617H45.2322H45.3027H45.3732H45.4437H45.5142H45.5847H45.6553H45.7258H45.7963H45.8668H45.9373H46.0078H46.0783H46.1488H46.2193H46.2898H46.3604H46.4309H46.5014H46.5719H46.6424H46.7129H46.7834H46.8539H46.9244H46.9949H47.0655H47.136H47.2065H47.277H47.3475H47.418H47.4885H47.559H47.6295H47.7H47.7706H47.8411H47.9116H47.9821H48.0526H48.1231H48.1936H48.2641H48.3346H48.4051H48.4757H48.5462H48.6167H48.6872H48.7577H48.8282H48.8987H48.9692H49.0397H49.1103H49.1808H49.2513H49.3218H49.3923H49.4628H49.5333H49.6038H49.6743H49.7448H49.8154H49.8859H49.9564H50.0269H50.0974H50.1679H50.2384H50.3089H50.3794H50.4499H50.5205H50.591H50.6615H50.732H50.8025H50.873H50.9435H51.014H51.0845H51.155H51.2256H51.2961H51.3666H51.4371H51.5076H51.5781H51.6486H51.7191H51.7896H51.8602H51.9307H52.0012H52.0717H52.1422H52.2127H52.2832H52.3537H52.4242H52.4947H52.5653H52.6358H52.7063H52.7768H52.8473H52.9178H52.9883H53.0588H53.1293H53.1998H53.2704H53.3409H53.4114H53.4819H53.5524H53.6229H53.6934H53.7639H53.8344H53.9049H53.9755H54.046H54.1165H54.187H54.2575H54.328H54.3985H54.469H54.5395H54.6101H54.6806H54.7511H54.8216H54.8921H54.9626H55.0331H55.1036H55.1741H55.2446H55.3152H55.3857H55.4562H55.5267H55.5972H55.6677H55.7382H55.8087H55.8792H55.9497H56.0203H56.0908H56.1613H56.2318H56.3023H56.3728H56.4433H56.5138H56.5843H56.6549H56.7254H56.7959H56.8664H56.9369H57.0074H57.0779H57.1484H57.2189H57.2894H57.36H57.4305H57.501H57.5715H57.642H57.7125H57.783H57.8535H57.924H57.9945H58.0651H58.1356H58.2061H58.2766H58.3471H58.4176H58.4881H58.5586H58.6291H58.6996H58.7702H58.8407H58.9112H58.9817H59.0522H59.1227H59.1932H59.2637H59.3342H59.4048H59.4753H59.5458H59.6163H59.6868H59.7573H59.8278H59.8983H59.9688H60.0393H60.1099H60.1804H60.2509H60.3214H60.3919H60.4624H60.5329H60.6034H60.6739H60.7444H60.815H60.8855H60.956H61.0265H61.097H61.1675H61.238H61.3085H61.379H61.4495H61.5201H61.5906H61.6611H61.7316H61.8021H61.8726H61.9431H62.0136H62.0841H62.1546H62.2252H62.2957H62.3662H62.4367H62.5072H62.5777H62.6482H62.7187H62.7892H62.8598H62.9303H63.0008H63.0713H63.1418H63.2123H63.2372V27.8074V29.0517H64.4815H71.5682V35.5883H64.4815H63.2372V36.8327V43.688H56.9319V36.8327V35.5883H55.6876H46.4309H45.1865V36.8327V47.1593H38.6499V36.8327V35.5883H37.4056H31.3221Z" stroke="#4AAFC0" stroke-width="2.48864"/>
</g>
<defs>
<clipPath id="clip0_127_1901">
<rect width="53.9205" height="47.9036" fill="white" transform="translate(18.8921 0.5)"/>
</clipPath>
</defs>
</svg>
