<svg width="176" height="36" viewBox="0 0 176 36" fill="none" xmlns="http://www.w3.org/2000/svg">
<g clip-path="url(#clip0_226_875)">
<path d="M171.09 7.57568L167.143 18.7715C166.425 20.781 166.066 21.9293 165.402 23.867H165.33C164.81 22.1984 164.344 20.8528 163.662 18.8792L159.822 7.55774H155.229L163.177 28.3346C162.998 28.7831 162.818 29.2496 162.621 29.7341C161.957 31.3489 160.378 32.4074 158.638 32.4074H156.664V35.942H158.692C161.975 35.942 164.936 33.9504 166.156 30.8824C168.686 24.5488 172.992 13.7657 175.45 7.57568H171.09Z" fill="#06AC38"/>
<path d="M60.872 24.3514C60.872 31.8692 57.4271 35.942 50.4656 35.942C45.2804 35.942 42.1585 33.2148 41.0461 29.1061H45.2445C45.9622 31.0079 47.4514 32.7124 50.5374 32.7124C55.292 32.7124 56.9786 29.752 56.9786 24.1182C56.9427 24.1182 56.9427 24.0823 56.9068 24.0823C55.8841 25.8586 53.5875 27.4375 49.9453 27.4375C44.0962 27.4375 40.3643 23.2032 40.3643 17.2644C40.3643 11.0923 44.4012 6.92975 49.9812 6.92975C53.5875 6.92975 55.7585 8.47276 56.9427 10.1773C56.9068 9.74665 56.9068 9.29809 56.9068 8.86749V7.55772H60.872V24.3514ZM44.7242 17.2285C44.7242 21.2654 46.9849 24.1541 50.8603 24.1541C54.3411 24.1541 57.0324 21.696 57.0324 17.1029C57.0324 13.03 54.664 10.3028 50.8603 10.3028C47.0566 10.3028 44.7242 13.03 44.7242 17.2285Z" fill="#06AC38"/>
<path d="M67.4207 19.0047C67.5822 22.647 69.9147 25.5356 73.9516 25.5356C76.8044 25.5356 78.186 24.19 79.2445 22.4137H83.2456C82.0614 26.1636 78.778 28.8549 73.7902 28.8549C67.3849 28.8549 63.3838 24.5488 63.3838 18.0538C63.3838 11.5588 67.5463 6.98358 73.7902 6.98358C80.5543 6.98358 83.6762 12.1329 83.6762 17.7129V19.0227H67.4207V19.0047ZM79.5137 15.8469C79.1548 12.5635 77.0915 10.2311 73.7004 10.2311C70.4529 10.2311 67.959 12.3662 67.5643 15.8469H79.5137Z" fill="#06AC38"/>
<path d="M90.0813 7.57568V10.2311C90.7451 8.29336 92.7726 7.0733 95.1051 7.0733C95.6254 7.0733 95.8586 7.10919 96.1278 7.14507V10.7873C95.7689 10.7155 95.1768 10.6617 94.7462 10.6617C90.9963 10.6617 90.2787 13.4248 90.2787 17.5873V28.3525H86.2776V11.3076C86.2776 9.99785 86.2776 8.84956 86.2417 7.59362H90.0813V7.57568Z" fill="#06AC38"/>
<path d="M137.215 25.3742C136.139 27.1504 134.129 28.8549 130.613 28.8549C125.786 28.8549 123.418 25.8945 123.418 20.5119V7.57568H127.401V19.0047C127.401 23.0776 128.747 25.5356 131.994 25.5356C136.264 25.5356 137.018 21.6602 137.018 17.1029V7.57568H141.019V25.2127C141.019 26.2892 141.019 27.3119 141.055 28.3346H137.215V25.3742Z" fill="#06AC38"/>
<path d="M150.008 7.57569H153.883V10.6617H150.008V23.1314C150.008 25.105 150.995 25.6971 152.538 25.6971C152.807 25.6971 153.291 25.6612 153.525 25.6254V28.5858C152.933 28.6576 152.502 28.7473 151.982 28.7473C148.303 28.7473 145.971 27.5272 145.971 23.3647V10.6617H142.849V7.57569H145.971V1.95984H150.008V7.57569Z" fill="#06AC38"/>
<path d="M0.550781 20.799H4.69539V28.3346H0.550781V20.799Z" fill="#06AC38"/>
<path d="M16.1603 1.43952C13.9355 0.255346 12.3925 0.0579834 8.75028 0.0579834H0.550781V17.2106H8.7144C11.9619 17.2106 14.3841 17.0132 16.5192 15.5958C18.8516 14.0528 20.0538 11.487 20.0538 8.52662C20.0538 5.31499 18.5646 2.74929 16.1603 1.43952ZM9.66533 13.6221H4.69539V3.7361L9.37825 3.70021C13.6485 3.64639 15.7836 5.15352 15.7836 8.5625C15.7836 12.2227 13.1461 13.6221 9.66533 13.6221Z" fill="#06AC38"/>
<path d="M98.5679 0.0579834H105.493C115.864 0.129751 120.852 5.1894 120.888 14.2681C120.924 22.0011 116.923 28.2449 106.175 28.3525H98.5858V0.0579834H98.5679ZM102.766 24.818H105.188C112.706 24.818 116.635 21.9472 116.635 14.2501C116.618 7.48598 112.724 3.6105 105.583 3.6105C104.202 3.6105 102.766 3.64639 102.766 3.64639V24.818Z" fill="#06AC38"/>
<path d="M34.587 28.3525C34.4614 27.5272 34.4614 27.0069 34.3896 25.4998C32.8107 27.7604 30.7115 28.7473 27.3922 28.7473C23.0323 28.7473 19.8745 26.6122 19.8745 22.7367C19.8745 18.2691 24.1447 16.7979 29.6888 16.0443C31.0703 15.8469 32.6133 15.6855 33.959 15.5778C33.959 11.4691 31.6804 10.2311 29.2941 10.2311C26.9078 10.2311 25.1674 11.8997 25.1674 14.0886H21.2919C21.2919 9.87225 24.6112 7.03741 29.3838 7.03741C34.1564 7.03741 37.8345 9.01104 37.8345 16.6185V20.6554C37.8345 24.0106 37.9959 26.4686 38.3548 28.3705H34.587V28.3525ZM24.1806 22.6829C24.1806 24.6206 25.7595 25.8406 28.2893 25.8406C32.0033 25.8406 33.9949 23.58 33.9949 19.543C33.9949 19.0227 33.9949 18.6638 34.0308 18.4306C27.2666 19.1303 24.1806 19.7942 24.1806 22.6829Z" fill="#06AC38"/>
</g>
<defs>
<clipPath id="clip0_226_875">
<rect width="175.074" height="36" fill="white" transform="translate(0.463379)"/>
</clipPath>
</defs>
</svg>
