<svg width="170" height="70" viewBox="0 0 170 70" fill="none" xmlns="http://www.w3.org/2000/svg">
<path d="M60.3991 42.0008C58.2664 42.0008 56.0943 41.1154 54.7341 39.38V48.7548H50.4624V25.6117H54.325L54.4724 28.1575C55.7973 26.2013 58.1501 25.168 60.395 25.168C64.6998 25.168 67.8709 28.7866 67.8709 33.5844C67.8709 38.3822 64.704 42.0029 60.3991 42.0008ZM59.0763 28.345C56.574 28.345 54.5513 30.3011 54.5513 33.5865C54.5513 36.8718 56.574 38.8321 59.0763 38.8321C61.5787 38.8321 63.6013 36.8759 63.6013 33.5906C63.6013 30.3053 61.5787 28.345 59.0763 28.345Z" fill="#130654"/>
<path d="M83.9709 41.5612L83.8234 39.0154C82.4985 40.9716 80.1436 42.0049 77.8988 42.0029C73.5939 42.0029 70.4229 38.3863 70.4229 33.5885C70.4229 28.7908 73.5877 25.1721 77.8988 25.1742C80.1436 25.1742 82.4985 26.2158 83.8234 28.1637L83.9709 25.6179H87.8417V41.5612H83.9709ZM79.2257 28.347C76.7234 28.347 74.7007 30.3032 74.6987 33.5885C74.6966 36.8738 76.7213 38.8321 79.2237 38.8321C81.726 38.8321 83.7507 36.8759 83.7507 33.5906C83.7507 30.3053 81.7281 28.347 79.2257 28.347Z" fill="#130654"/>
<path d="M102.767 41.5633V32.7427C102.767 29.6428 101.701 28.6095 99.7513 28.6095C97.7266 28.6095 95.5191 30.4532 95.5191 32.6677V41.5633H91.2495V25.6179H95.1515L95.3363 28.572C96.4037 26.5408 98.7939 25.1763 101.224 25.1763C105.454 25.1763 107.038 28.1303 107.038 32.0781V41.5654L102.767 41.5633Z" fill="#130654"/>
<path d="M122.682 41.5675L122.534 39.0197C121.209 40.9759 118.854 42.0092 116.612 42.0092C112.307 42.0092 109.136 38.3905 109.136 33.5928C109.136 28.795 112.301 25.1784 116.612 25.1784C118.744 25.1784 120.914 26.0659 122.277 27.7992V19.4224H126.546V41.5675H122.682ZM117.937 28.3533C115.445 28.3533 113.412 30.3095 113.412 33.5928C113.412 36.876 115.434 38.8322 117.937 38.8322C120.439 38.8322 122.462 36.8781 122.462 33.5928C122.462 30.3075 120.445 28.3533 117.937 28.3533Z" fill="#130654"/>
<path d="M142.582 41.5695L142.435 39.0238C141.11 40.9799 138.755 42.0112 136.51 42.0112C132.205 42.0112 129.034 38.3946 129.034 33.5947C129.034 28.7949 132.199 25.1804 136.51 25.1804C138.755 25.1804 141.11 26.2221 142.435 28.172L142.582 25.6242H146.445V41.5674L142.582 41.5695ZM137.837 28.3553C135.345 28.3553 133.312 30.3115 133.31 33.5968C133.308 36.8821 135.335 38.8321 137.835 38.8321C140.335 38.8321 142.362 36.8759 142.362 33.5906C142.362 30.3053 140.339 28.3553 137.837 28.3553Z" fill="#130654"/>
<path d="M155.9 42.0883C153.654 42.0696 151.456 41.4442 149.535 40.2779L150.234 37.3259C151.522 38.1009 153.472 39.0988 155.827 39.0988C157.519 39.0988 158.697 38.5821 158.697 37.253C158.697 36.1093 157.482 35.703 155.312 35.1864C151.412 34.3364 150.014 32.2698 150.014 30.0178C150.014 27.5074 151.964 25.1471 156.269 25.1471C158.882 25.1471 161.164 26.2908 161.668 26.5866L160.969 29.3928C159.579 28.5533 157.993 28.095 156.371 28.0637C154.643 28.0637 153.796 28.6532 153.796 29.6136C153.796 30.6823 154.901 31.1636 156.591 31.5698C160.786 32.4552 162.478 34.4114 162.478 36.553C162.487 39.9841 159.984 42.0883 155.9 42.0883Z" fill="#130654"/>
<path d="M20.5524 14.7537H15.5498V25.1742H20.5524V14.7537Z" fill="#130654"/>
<path d="M20.5524 36.1593H15.5498V46.5798H20.5524V36.1593Z" fill="#130654"/>
<path d="M20.5524 28.2158H15.5498V33.1323H20.5524V28.2158Z" fill="#FFCA00"/>
<path d="M12.5178 23.3223H7.51514V57.9608H12.5178V23.3223Z" fill="#130654"/>
<path d="M28.423 44.757H23.4204V55.1775H28.423V44.757Z" fill="#130654"/>
<path d="M28.423 23.3347H23.4204V33.7552H28.423V23.3347Z" fill="#130654"/>
<path d="M28.423 36.7968H23.4204V41.7133H28.423V36.7968Z" fill="#E70488"/>
<path d="M36.2912 12.0392H31.2886V46.6777H36.2912V12.0392Z" fill="#130654"/>
</svg>
