<svg width="184" height="44" viewBox="0 0 184 44" fill="none" xmlns="http://www.w3.org/2000/svg">
<g clip-path="url(#clip0_127_2058)">
<path d="M37.2619 33.6602L28.0861 28.3594C26.797 27.6172 25.1486 28.0586 24.4025 29.3477C24.1134 29.8555 24.0001 30.4141 24.0548 30.9571V41.3165C24.0548 42.7969 25.2579 44.0001 26.7423 44.0001C28.2228 44.0001 29.4259 42.7969 29.4259 41.3165V35.3594L34.5665 38.3282C35.8556 39.0743 37.5079 38.629 38.2501 37.3399C38.9962 36.0508 38.5548 34.4024 37.2619 33.6602Z" fill="#8B9597"/>
<path d="M14.4415 22.3008C14.4571 21.3438 13.9532 20.4531 13.1251 19.9727L3.94929 14.6758C3.55086 14.4453 3.09382 14.3242 2.63679 14.3242C1.69539 14.3242 0.820386 14.8281 0.351636 15.6406C-0.374926 16.8984 0.0586684 18.5117 1.31648 19.2383L6.60554 22.2891L1.31648 25.3438C0.707105 25.6953 0.269605 26.2617 0.0899184 26.9414C-0.0936756 27.6211 7.43866e-05 28.332 0.351636 28.9414C0.820386 29.7539 1.69539 30.2578 2.63289 30.2578C3.09382 30.2578 3.55086 30.1367 3.94929 29.9062L13.1251 24.6094C13.9454 24.1328 14.4493 23.25 14.4415 22.3008Z" fill="#8B9597"/>
<path d="M6.03133 10.9219L15.2071 16.2188C16.2774 16.8398 17.5977 16.6367 18.4415 15.8125C18.9766 15.3203 19.3087 14.6172 19.3087 13.8359V3.21875C19.3087 1.73438 18.1056 0.53125 16.6251 0.53125C15.1407 0.53125 13.9376 1.73438 13.9376 3.21875V9.26172L8.72664 6.25391C7.43758 5.50781 5.78914 5.94922 5.04305 7.23828C4.29696 8.52734 4.74227 10.1758 6.03133 10.9219Z" fill="#8B9597"/>
<path d="M26.6641 22.7305C26.6641 22.9336 26.5469 23.2148 26.4023 23.3633L22.7656 27C22.6211 27.1445 22.3359 27.2617 22.1328 27.2617H21.207C21.0039 27.2617 20.7187 27.1445 20.5742 27L16.9336 23.3633C16.7891 23.2148 16.6719 22.9336 16.6719 22.7305V21.8047C16.6719 21.5977 16.7891 21.3164 16.9336 21.1719L20.5742 17.5312C20.7187 17.3867 21.0039 17.2695 21.207 17.2695H22.1328C22.3359 17.2695 22.6211 17.3867 22.7656 17.5312L26.4023 21.1719C26.5469 21.3164 26.6641 21.5977 26.6641 21.8047V22.7305ZM23.418 22.2852V22.2461C23.418 22.0977 23.332 21.8906 23.2266 21.7812L22.1523 20.7109C22.0469 20.6016 21.8398 20.5156 21.6875 20.5156H21.6484C21.5 20.5156 21.293 20.6016 21.1836 20.7109L20.1133 21.7812C20.0078 21.8867 19.9219 22.0937 19.9219 22.2461V22.2852C19.9219 22.4375 20.0078 22.6445 20.1133 22.75L21.1836 23.8242C21.293 23.9297 21.5 24.0156 21.6484 24.0156H21.6875C21.8398 24.0156 22.0469 23.9297 22.1523 23.8242L23.2266 22.75C23.332 22.6445 23.418 22.4375 23.418 22.2852Z" fill="#8B9597"/>
<path d="M28.086 16.2188L37.2618 10.9219C38.5508 10.1797 38.9961 8.52734 38.25 7.23828C37.5039 5.94922 35.8555 5.50781 34.5664 6.25391L29.4258 9.22266V3.21875C29.4258 1.73438 28.2227 0.53125 26.7422 0.53125C25.2579 0.53125 24.0547 1.73438 24.0547 3.21875V13.625C24.0039 14.1641 24.1094 14.7266 24.4024 15.2344C25.1485 16.5234 26.7969 16.9648 28.086 16.2188Z" fill="#8B9597"/>
<path d="M17.047 28.0468C16.4376 27.9296 15.7852 28.0273 15.2071 28.3593L6.03133 33.6601C4.74227 34.4023 4.29696 36.0507 5.04305 37.3398C5.78914 38.6328 7.43758 39.0742 8.72664 38.3281L13.9376 35.3203V41.3163C13.9376 42.7968 15.1407 43.9999 16.6251 43.9999C18.1056 43.9999 19.3087 42.7968 19.3087 41.3163V30.6992C19.3087 29.3593 18.3282 28.2499 17.047 28.0468Z" fill="#8B9597"/>
<path d="M42.996 15.6093C42.2538 14.3164 40.6014 13.875 39.3124 14.6211L30.1366 19.9179C29.2577 20.4257 28.7733 21.3554 28.7889 22.3007C28.7811 23.2421 29.2655 24.1601 30.1366 24.6601L39.3124 29.9609C40.6014 30.7031 42.2499 30.2617 42.996 28.9726C43.7421 27.6836 43.2968 26.0351 42.0077 25.289L36.8124 22.289L42.0077 19.289C43.3007 18.5468 43.7421 16.8984 42.996 15.6093Z" fill="#8B9597"/>
<path d="M183.996 21.668V21.6719V21.7695C183.996 22.2695 183.578 22.6406 183.062 22.6406H170.172C170.195 22.9453 170.234 23.2422 170.297 23.5352C170.895 26.3281 173.285 28.4062 176.125 28.4297C176.133 28.4297 176.277 28.4297 176.5 28.4297C176.535 28.4297 176.57 28.4297 176.605 28.4297H176.875C176.934 28.4297 176.992 28.4297 177.055 28.4258C177.109 28.4258 177.164 28.4219 177.219 28.418C177.223 28.418 177.227 28.418 177.23 28.4141C178.172 28.3398 179.121 27.9609 179.969 27.3516C179.969 27.3516 179.969 27.3516 179.973 27.3516C180.016 27.3203 180.062 27.2852 180.105 27.25C180.113 27.2461 180.121 27.2383 180.133 27.2305C180.168 27.2031 180.207 27.1719 180.246 27.1406C180.262 27.1289 180.273 27.1172 180.289 27.1055C180.32 27.082 180.352 27.0547 180.383 27.0273C180.402 27.0117 180.426 26.9922 180.445 26.9766C180.469 26.9531 180.492 26.9297 180.52 26.9102C180.543 26.8867 180.57 26.8633 180.594 26.8398C180.613 26.8242 180.633 26.8047 180.652 26.7852C180.684 26.7578 180.711 26.7305 180.742 26.7031C180.758 26.6875 180.773 26.668 180.789 26.6523C180.82 26.6211 180.852 26.5898 180.883 26.5586C180.898 26.543 180.91 26.5312 180.926 26.5156C180.957 26.4805 180.988 26.4453 181.02 26.4102C181.035 26.3984 181.047 26.3828 181.059 26.3672C181.094 26.332 181.125 26.2969 181.156 26.2617C181.168 26.2461 181.184 26.2305 181.195 26.2148C181.227 26.1758 181.254 26.1406 181.285 26.1055C181.301 26.0859 181.316 26.0664 181.332 26.0469C181.359 26.0117 181.387 25.9805 181.41 25.9492C181.434 25.918 181.453 25.8906 181.473 25.8633C181.492 25.8359 181.512 25.8125 181.531 25.7852C181.562 25.7422 181.594 25.6992 181.621 25.6562C181.633 25.6406 181.641 25.6289 181.648 25.6172C181.727 25.5039 181.801 25.3867 181.875 25.2656C181.875 25.2656 181.875 25.2617 181.879 25.2578C181.895 25.2305 181.914 25.207 181.934 25.1797C181.941 25.168 181.949 25.1562 181.961 25.1484C181.973 25.1289 181.988 25.1172 182 25.1016C182.012 25.0898 182.023 25.0781 182.035 25.0664C182.051 25.0547 182.062 25.043 182.078 25.0312C182.09 25.0195 182.102 25.0078 182.117 25C182.137 24.9844 182.16 24.9688 182.184 24.957C182.199 24.9453 182.219 24.9336 182.234 24.9258C182.254 24.918 182.27 24.9102 182.285 24.9023C182.301 24.8945 182.316 24.8906 182.328 24.8828C182.352 24.875 182.371 24.8711 182.395 24.8633C182.406 24.8594 182.414 24.8555 182.426 24.8516C182.5 24.8359 182.578 24.8242 182.652 24.8242C182.734 24.8242 182.82 24.8359 182.898 24.8594C182.902 24.8594 182.902 24.8594 182.906 24.8594C182.938 24.8711 182.973 24.8789 183.004 24.8945C183.012 24.8984 183.02 24.8984 183.027 24.9023C183.062 24.918 183.094 24.9336 183.125 24.9531L183.141 24.9609C183.57 25.2734 183.703 25.8203 183.441 26.2695L183.438 26.2734C183.406 26.3242 183.375 26.375 183.344 26.4219C183.336 26.4336 183.328 26.4453 183.32 26.457C182.406 27.8477 181.164 28.957 179.777 29.6211C179.746 29.6328 179.719 29.6484 179.688 29.6641C179.684 29.6641 179.676 29.668 179.672 29.668C179.031 29.9648 178.344 30.1719 177.609 30.2578C177.594 30.2578 177.578 30.2617 177.562 30.2617C177.5 30.2695 177.438 30.2773 177.375 30.2812C177.34 30.2812 177.305 30.2852 177.266 30.2891C177.223 30.2891 177.176 30.293 177.133 30.2969C177.047 30.2969 176.961 30.3008 176.875 30.3008C176.863 30.3008 176.539 30.3008 176.32 30.3008C176.195 30.3008 176.125 30.3008 176.117 30.3008C171.781 30.2695 168.289 26.6523 168.289 22.2227C168.289 17.7188 171.805 14.082 176.176 14.082C176.305 14.082 176.434 14.0859 176.562 14.0898C178.086 14.168 179.492 14.6875 180.66 15.5391C180.664 15.543 180.668 15.5469 180.672 15.5469C180.738 15.5938 180.801 15.6445 180.863 15.6914C180.895 15.7188 180.93 15.7461 180.965 15.7734C180.996 15.7969 181.027 15.8242 181.059 15.8477C182.703 17.2188 183.812 19.2773 183.996 21.6602V21.668ZM170.297 20.8008H181.965C181.387 17.9883 178.969 15.9531 176.176 15.9531C173.332 15.9531 170.934 17.9492 170.297 20.8008Z" fill="#8B9597"/>
<path d="M151.039 14.3555C151.184 14.5 151.281 14.6953 151.305 14.9219C151.305 14.9531 151.309 14.9844 151.309 15.0156V29.3633C151.309 29.875 150.879 30.3008 150.371 30.3008C149.863 30.3008 149.438 29.875 149.438 29.3633V27.457C149.082 27.8867 148.691 28.2773 148.266 28.6172C148.254 28.6289 148.242 28.6367 148.23 28.6484C148.191 28.6797 148.148 28.7109 148.109 28.7383C146.82 29.7305 145.254 30.3008 143.617 30.3008C140.98 30.3008 138.66 28.8984 137.277 26.7734C137.266 26.7578 137.25 26.7383 137.238 26.7227C137.199 26.6562 137.16 26.5898 137.117 26.5195C137.09 26.4766 137.066 26.4336 137.039 26.3906C137.012 26.3477 136.988 26.3008 136.965 26.2539C136.926 26.1875 136.887 26.1172 136.852 26.0508C136.84 26.0273 136.832 26.0039 136.82 25.9805C136.309 24.9648 135.992 23.8203 135.938 22.6055C135.93 22.4688 135.926 22.332 135.926 22.1914C135.926 22.0508 135.93 21.9141 135.938 21.7773C135.992 20.5625 136.309 19.418 136.82 18.3984C136.832 18.3789 136.84 18.3555 136.852 18.332C136.887 18.2656 136.926 18.1953 136.965 18.1289C136.988 18.082 137.012 18.0352 137.039 17.9922C137.063 17.9492 137.09 17.9063 137.117 17.8633C137.156 17.7969 137.199 17.7266 137.238 17.6602C137.25 17.6445 137.266 17.625 137.277 17.6094C138.66 15.4844 140.98 14.082 143.617 14.082C145.398 14.082 147.082 14.7344 148.422 15.8711C148.789 16.1797 149.129 16.5195 149.438 16.8945V15.0156C149.438 14.9844 149.438 14.9531 149.441 14.9219C149.465 14.6953 149.562 14.5 149.707 14.3555C149.707 14.3555 149.707 14.3555 149.707 14.3516C149.723 14.3359 149.742 14.3242 149.758 14.3086C149.762 14.3047 149.77 14.2969 149.773 14.293C149.785 14.2812 149.801 14.2734 149.812 14.2656C149.824 14.2578 149.836 14.2461 149.848 14.2383C149.855 14.2344 149.863 14.2305 149.871 14.2227C149.891 14.2148 149.906 14.2031 149.926 14.1914C149.93 14.1914 149.934 14.1875 149.938 14.1875C149.961 14.1758 149.984 14.1641 150.008 14.1523C150.008 14.1523 150.008 14.1523 150.012 14.1523C150.066 14.1289 150.125 14.1133 150.184 14.1016C150.188 14.1016 150.195 14.0977 150.199 14.0977C150.223 14.0938 150.25 14.0898 150.277 14.0859C150.309 14.0859 150.34 14.082 150.371 14.082C150.406 14.082 150.438 14.0859 150.469 14.0859C150.496 14.0898 150.52 14.0938 150.547 14.0977C150.551 14.0977 150.555 14.1016 150.562 14.1016C150.621 14.1133 150.68 14.1289 150.734 14.1523H150.738C150.762 14.1641 150.785 14.1758 150.805 14.1875C150.812 14.1875 150.816 14.1914 150.82 14.1914C150.836 14.2031 150.855 14.2148 150.871 14.2227C150.879 14.2305 150.891 14.2344 150.898 14.2383C150.91 14.2461 150.922 14.2578 150.934 14.2656C150.945 14.2734 150.957 14.2812 150.969 14.293C150.977 14.2969 150.98 14.3047 150.988 14.3086C151.004 14.3242 151.023 14.3359 151.035 14.3516C151.039 14.3555 151.039 14.3555 151.039 14.3555ZM143.617 28.4297C146.824 28.4297 149.438 25.6328 149.438 22.1914C149.438 18.7344 146.824 15.9219 143.617 15.9219C140.434 15.9219 137.797 18.7305 137.797 22.1914C137.797 22.3008 137.801 22.4062 137.805 22.5117C137.805 22.5586 137.812 22.6016 137.812 22.6445C137.816 22.707 137.82 22.7695 137.828 22.8281C137.832 22.8789 137.84 22.9258 137.844 22.9727C137.852 23.0273 137.855 23.0859 137.863 23.1406C137.871 23.1836 137.879 23.2227 137.883 23.2617C137.895 23.3242 137.902 23.3867 137.914 23.4492C137.922 23.4805 137.93 23.5078 137.934 23.5352C137.949 23.6094 137.965 23.6797 137.98 23.7539C137.984 23.7695 137.988 23.7852 137.996 23.8008C138.66 26.4727 140.941 28.4297 143.617 28.4297Z" fill="#8B9597"/>
<path d="M127.559 7.31641H127.305C127.273 7.31641 127.238 7.31641 127.207 7.32031C127.172 7.31641 127.141 7.31641 127.105 7.31641C127.016 7.31641 126.926 7.31641 126.836 7.32031C126.82 7.32031 126.801 7.32422 126.785 7.32422C126.715 7.32422 126.645 7.32813 126.574 7.33594C126.562 7.33594 126.547 7.33594 126.535 7.33594C126.461 7.34375 126.391 7.34766 126.32 7.35547C126.313 7.35938 126.305 7.35938 126.297 7.35938C126.219 7.37109 126.145 7.37891 126.074 7.39063C126.07 7.39063 126.066 7.39063 126.066 7.39063C125.594 7.46484 125.168 7.59766 124.789 7.78516C124.789 7.78906 124.785 7.78906 124.781 7.78906C124.727 7.82031 124.668 7.85156 124.613 7.88281C124.602 7.88672 124.594 7.89453 124.582 7.90234C124.535 7.92969 124.488 7.95703 124.441 7.98828C124.422 8 124.406 8.01563 124.391 8.02734C124.352 8.05078 124.316 8.07813 124.277 8.10547C124.25 8.12891 124.223 8.15234 124.195 8.17188C124.172 8.19141 124.148 8.21094 124.125 8.23047C124.082 8.26953 124.043 8.30469 124.004 8.34375C123.996 8.35156 123.988 8.35938 123.98 8.36719C123.934 8.41797 123.887 8.46484 123.84 8.51563C123.832 8.52734 123.824 8.53906 123.816 8.54688C123.777 8.58984 123.738 8.63281 123.703 8.67578C123.691 8.69531 123.676 8.71484 123.664 8.73438C123.633 8.77344 123.605 8.80859 123.578 8.84766C123.57 8.86328 123.563 8.875 123.551 8.88672C123.52 8.93359 123.488 8.98047 123.461 9.02734C123.457 9.03516 123.453 9.03906 123.449 9.04688C123.195 9.46484 123.016 9.95703 122.902 10.5508C122.902 10.5586 122.902 10.5703 122.898 10.5781C122.883 10.6523 122.871 10.7305 122.859 10.8086C122.855 10.832 122.852 10.8555 122.852 10.8789C122.84 10.9453 122.832 11.0117 122.824 11.082C122.82 11.1211 122.816 11.1602 122.812 11.2031C122.805 11.2578 122.797 11.3086 122.793 11.3672C122.789 11.4258 122.785 11.4844 122.781 11.5469C122.777 11.5859 122.777 11.625 122.773 11.668C122.77 11.75 122.766 11.8359 122.762 11.9219C122.762 11.9453 122.758 11.9609 122.758 11.9805C122.754 12.0898 122.754 12.2031 122.754 12.3125V13.8555H120.809C120.687 13.8516 120.566 13.875 120.457 13.9141C120.105 14.043 119.855 14.375 119.855 14.7617C119.855 15.125 120.035 15.4336 120.316 15.6133C120.457 15.7031 120.621 15.7578 120.801 15.7656H120.809V15.7695H122.754V29.3945C122.75 29.4141 122.754 29.4297 122.754 29.4492C122.754 29.4609 122.754 29.4727 122.754 29.4844C122.766 29.7031 122.855 29.9023 123 30.0547L123.004 30.0586C123.023 30.0781 123.047 30.0977 123.066 30.1172C123.07 30.1211 123.074 30.1211 123.078 30.125C123.094 30.1406 123.113 30.1523 123.129 30.1641C123.137 30.1719 123.148 30.1797 123.156 30.1836C123.164 30.1914 123.172 30.1953 123.184 30.1992C123.336 30.2969 123.516 30.3516 123.707 30.3516C123.738 30.3516 123.77 30.3477 123.797 30.3438C123.98 30.3281 124.148 30.25 124.285 30.1367L124.289 30.1328C124.309 30.1172 124.324 30.1016 124.34 30.082C124.344 30.0781 124.352 30.0742 124.355 30.0703C124.371 30.0547 124.383 30.0391 124.395 30.0273C124.543 29.8477 124.625 29.625 124.613 29.3945V15.7695H126.707V15.7656H126.715C127.27 15.7383 127.676 15.3047 127.66 14.7656C127.66 14.7617 127.66 14.7617 127.66 14.7578C127.664 14.7383 127.66 14.7188 127.66 14.6992C127.66 14.6914 127.66 14.6836 127.66 14.6797C127.645 14.4727 127.555 14.2852 127.414 14.1406C127.414 14.1406 127.414 14.1406 127.414 14.1367C127.41 14.1367 127.41 14.1367 127.41 14.1367C127.391 14.1172 127.375 14.1016 127.355 14.0859C127.348 14.0781 127.34 14.0742 127.336 14.0664C127.32 14.0547 127.309 14.0469 127.293 14.0352C127.281 14.0273 127.266 14.0156 127.254 14.0078C127.246 14.0039 127.234 13.9961 127.227 13.9922C127.207 13.9805 127.187 13.9688 127.168 13.9609C127.164 13.957 127.156 13.9531 127.152 13.9531C127.129 13.9414 127.105 13.9297 127.082 13.9219C127.078 13.918 127.074 13.918 127.066 13.9141C127.043 13.9062 127.02 13.8984 126.996 13.8906C126.988 13.8906 126.98 13.8867 126.973 13.8867C126.949 13.8828 126.93 13.875 126.906 13.8711C126.895 13.8711 126.883 13.8711 126.871 13.8672C126.855 13.8633 126.836 13.8633 126.816 13.8594C126.801 13.8594 126.785 13.8594 126.773 13.8594C126.762 13.8594 126.75 13.8555 126.738 13.8555C126.727 13.8555 126.711 13.8555 126.707 13.8555H124.613V12.3164C124.613 12.3047 124.613 12.293 124.613 12.2852C124.617 12.207 124.617 12.1289 124.621 12.0547C124.621 12.0352 124.621 12.0117 124.625 11.9922C124.625 11.9258 124.629 11.8594 124.633 11.7969C124.633 11.7852 124.637 11.7695 124.637 11.7578C124.641 11.6836 124.648 11.6094 124.656 11.5391C124.73 10.7773 124.895 10.2969 125.066 10.0039C125.07 9.99609 125.07 9.99219 125.074 9.98438C125.086 9.96484 125.102 9.94531 125.113 9.92578C125.121 9.91016 125.133 9.89453 125.145 9.87891C125.148 9.87109 125.156 9.85547 125.164 9.84766C125.184 9.82031 125.203 9.79688 125.227 9.77344C125.473 9.49609 125.855 9.32813 126.41 9.26172C126.418 9.26172 126.422 9.25781 126.434 9.25781C126.465 9.25391 126.5 9.25 126.531 9.25C126.547 9.24609 126.566 9.24609 126.582 9.24219C126.613 9.24219 126.641 9.23828 126.672 9.23828C126.695 9.23828 126.715 9.23438 126.742 9.23438C126.77 9.23047 126.797 9.23047 126.824 9.23047C126.852 9.23047 126.879 9.22656 126.906 9.22656C126.934 9.22656 126.961 9.22656 126.988 9.22656C127.027 9.22656 127.066 9.22656 127.105 9.22656H127.109C127.141 9.22656 127.168 9.22266 127.199 9.21875C127.234 9.22266 127.27 9.22656 127.305 9.22656H127.559C128.082 9.22656 128.512 8.79688 128.512 8.26953C128.512 7.74219 128.082 7.31641 127.559 7.31641Z" fill="#8B9597"/>
<path d="M132.598 7.34375C132.598 7.34375 132.594 7.33984 132.59 7.33984C132.57 7.33203 132.555 7.32422 132.531 7.32031C132.523 7.31641 132.512 7.3125 132.5 7.30859C132.484 7.30469 132.469 7.30078 132.453 7.29688C132.438 7.29297 132.422 7.28516 132.41 7.28516C132.391 7.28125 132.375 7.27734 132.355 7.27734C132.34 7.27344 132.328 7.27344 132.312 7.26953C132.281 7.26562 132.246 7.26563 132.215 7.26563C131.707 7.26563 131.277 7.69141 131.277 8.19922V29.3633C131.277 29.875 131.707 30.3008 132.215 30.3008C132.246 30.3008 132.281 30.3008 132.312 30.2969C132.316 30.2969 132.324 30.293 132.328 30.293C132.355 30.2891 132.383 30.2852 132.41 30.2812C132.414 30.2812 132.422 30.2773 132.43 30.2773C132.453 30.2695 132.477 30.2656 132.5 30.2578C132.504 30.2578 132.508 30.2578 132.512 30.2539C132.871 30.1406 133.137 29.8359 133.176 29.4609C133.18 29.4297 133.184 29.3984 133.184 29.3633V8.19922C133.184 8.16797 133.18 8.13672 133.176 8.10547C133.141 7.76172 132.914 7.47656 132.598 7.34375Z" fill="#8B9597"/>
<path d="M60.875 25.3203C60.8672 25.2656 60.8672 25.2148 60.8594 25.1641C60.8555 25.125 60.8516 25.0898 60.8477 25.0547C60.8398 25.0117 60.8359 24.9727 60.8281 24.9297C60.8203 24.8906 60.8125 24.8516 60.8047 24.8086C60.8008 24.7773 60.793 24.7422 60.7852 24.7109C60.7734 24.6641 60.7656 24.6211 60.7539 24.5742C60.7461 24.5508 60.7383 24.5234 60.7305 24.5C60.7188 24.4492 60.7031 24.4023 60.6836 24.3555C60.6797 24.3359 60.6719 24.3164 60.668 24.3008C60.6484 24.2461 60.6289 24.1953 60.6055 24.1406C60.6016 24.1328 60.5977 24.1211 60.5938 24.1094C60.5664 24.0547 60.543 23.9961 60.5156 23.9414C60.5117 23.9375 60.5117 23.9336 60.5078 23.9297C60.2852 23.4805 59.9688 23.1055 59.582 22.7891C59.582 22.7852 59.582 22.7852 59.5781 22.7852C59.5234 22.7422 59.4688 22.6953 59.4102 22.6523C59.4102 22.6523 59.4063 22.6484 59.4023 22.6445C59.3984 22.6445 59.3945 22.6406 59.3906 22.6367C59.3555 22.6133 59.3203 22.5859 59.2891 22.5625C58.8086 22.2227 58.2773 21.9531 57.5039 21.6562C57.4922 21.6523 57.4805 21.6484 57.4688 21.6445C57.457 21.6367 57.4414 21.6328 57.4297 21.625C56.9922 21.4609 56.5391 21.3047 56.0742 21.1523C56.0742 21.1523 56.0742 21.1523 56.0703 21.1523C56.0703 21.1523 56.0664 21.1523 56.0664 21.1484C56.0586 21.1484 56.0508 21.1445 56.0391 21.1406C55.9961 21.125 55.9492 21.1094 55.8867 21.0898C55.8555 21.082 55.832 21.0742 55.8086 21.0664C55.6523 21.0117 55.4922 20.9609 55.332 20.9062C55.2188 20.8672 55.0977 20.8281 54.9531 20.7812C54.9141 20.7695 54.8203 20.7383 54.7422 20.7148C54.7383 20.7148 54.7383 20.7109 54.7344 20.7109C54.6875 20.6953 54.6406 20.6797 54.5898 20.6641C54.1992 20.5391 53.8789 20.4297 53.6055 20.3281C53.1602 20.1641 52.7539 19.9883 52.4219 19.7773C52.4141 19.7734 52.4063 19.7695 52.4023 19.7656C51.9492 19.4766 51.6367 19.1211 51.5625 18.6562L51.5586 18.6523C51.5547 18.6211 51.5508 18.5859 51.5508 18.5547C51.5469 18.5469 51.5469 18.543 51.5469 18.5391C51.543 18.5 51.543 18.4648 51.543 18.4258C51.543 18.3711 51.5469 18.3164 51.5508 18.2656C51.5508 18.25 51.5508 18.2383 51.5547 18.2266C51.5586 18.1836 51.5625 18.1445 51.5664 18.1055C51.5703 18.0937 51.5703 18.082 51.5742 18.0703C51.582 18.0273 51.5898 17.9883 51.5977 17.9453C51.6016 17.9414 51.6016 17.9336 51.6055 17.9258C51.6172 17.8789 51.6289 17.8359 51.6445 17.793C51.6445 17.7891 51.6445 17.7891 51.6445 17.7891C51.8477 17.1836 52.3281 16.7344 52.8945 16.418C52.9336 16.3984 52.9727 16.3789 53.0078 16.3594C53.0469 16.3398 53.082 16.3203 53.1172 16.3047C53.1758 16.2773 53.2344 16.25 53.293 16.2266C53.3281 16.2109 53.3594 16.1953 53.3945 16.1836C53.457 16.1602 53.5195 16.1367 53.582 16.1133C53.6133 16.1016 53.6484 16.0898 53.6836 16.0781C53.7461 16.0586 53.8047 16.0391 53.8672 16.0234C53.9063 16.0117 53.9414 16 53.9805 15.9922C54.0391 15.9766 54.0977 15.9648 54.1523 15.9492C54.1914 15.9414 54.2305 15.9336 54.2695 15.9258C54.332 15.9141 54.3906 15.9023 54.4453 15.8945C54.4805 15.8906 54.5117 15.8867 54.5469 15.8789C54.6133 15.8711 54.6836 15.8633 54.7539 15.8594C54.7695 15.8555 54.7852 15.8555 54.8047 15.8516C54.8906 15.8477 54.9766 15.8438 55.0586 15.8438C55.1563 15.8438 55.2539 15.8477 55.3477 15.8516C55.3633 15.8516 55.3789 15.8516 55.3906 15.8516C56.082 15.8945 56.6406 16.0625 57.1016 16.2852C57.1367 16.3008 57.1719 16.3203 57.207 16.3359C57.2266 16.3477 57.2461 16.3594 57.2656 16.3672C57.3086 16.3906 57.3516 16.4141 57.3984 16.4414C57.4063 16.4453 57.4141 16.4492 57.4219 16.4531C57.4688 16.4805 57.5156 16.5117 57.5625 16.5391C57.5664 16.543 57.5703 16.543 57.5703 16.543C57.6211 16.5742 57.6719 16.6094 57.7227 16.6406C57.7227 16.6445 57.7266 16.6445 57.7266 16.6484C57.7773 16.6797 57.8242 16.7109 57.8711 16.7461C57.8906 16.7617 57.9062 16.7734 57.9258 16.7852C58.0352 16.8672 58.207 17 58.3633 17.1289C58.3828 17.1406 58.3984 17.1523 58.4102 17.1641C58.5273 17.2617 58.6367 17.3477 58.7422 17.4258C58.7617 17.4414 58.7773 17.4531 58.7891 17.4609C58.793 17.4648 58.7969 17.4688 58.8008 17.4688C58.8125 17.4766 58.8242 17.4844 58.8359 17.4922C58.8633 17.5117 58.8945 17.5313 58.9219 17.5508C58.9336 17.5586 58.9453 17.5625 58.957 17.5703C58.9844 17.5859 59.0117 17.6016 59.0391 17.6172C59.0508 17.6211 59.0586 17.625 59.0703 17.6289C59.1016 17.6445 59.1289 17.6562 59.1602 17.668C59.168 17.6719 59.1719 17.6719 59.1797 17.6758C59.2148 17.6875 59.25 17.6992 59.2852 17.7031C59.2852 17.7031 59.2852 17.7031 59.2891 17.707C59.3672 17.7188 59.4414 17.7227 59.5195 17.7031C59.5273 17.7031 59.5352 17.6992 59.543 17.6992C59.5625 17.6953 59.5859 17.6875 59.6055 17.6836C59.6133 17.6797 59.6172 17.6758 59.625 17.6719C59.6328 17.6719 59.6406 17.668 59.6484 17.6641C59.6797 17.6484 59.7109 17.6328 59.7422 17.6133C59.75 17.6133 59.7539 17.6094 59.7578 17.6055C59.793 17.582 59.8242 17.5586 59.8555 17.5312C59.8594 17.5273 59.8594 17.5273 59.8594 17.5273C59.8867 17.5039 59.9102 17.4766 59.9336 17.4492C59.9492 17.4297 59.9648 17.4063 59.9766 17.3828C59.9805 17.3789 59.9844 17.375 59.9844 17.3711C60.1484 17.0977 60.0547 16.7383 59.7656 16.3477C59.7617 16.3398 59.7578 16.332 59.75 16.3242C59.7383 16.3086 59.7305 16.2969 59.7188 16.2812C59.0547 15.4219 57.543 14.4805 56.1406 14.1797C56.1328 14.1797 56.125 14.1797 56.1172 14.1758C56.0586 14.1641 55.9961 14.1523 55.9375 14.1406C55.9219 14.1406 55.9023 14.1367 55.8867 14.1328C55.8359 14.125 55.7852 14.1172 55.7344 14.1133C55.7148 14.1094 55.6953 14.1055 55.6758 14.1055C55.6289 14.1016 55.5781 14.0977 55.5312 14.0938C55.5117 14.0898 55.4922 14.0898 55.4766 14.0859C55.4102 14.0859 55.3477 14.082 55.2852 14.082C55.1836 14.082 55.082 14.082 54.9844 14.0859C54.9297 14.0859 54.875 14.0898 54.8164 14.0938C54.7773 14.0977 54.7305 14.0977 54.6914 14.0977C54.6133 14.1055 54.5391 14.1094 54.4648 14.1172C54.4453 14.1172 54.4219 14.1172 54.4023 14.1211C54.3164 14.1289 54.2305 14.1367 54.1484 14.1484C54.1367 14.1484 54.1289 14.1484 54.1211 14.1484C54.0313 14.1602 53.9453 14.1719 53.8594 14.1875C53.8555 14.1875 53.8477 14.1875 53.8438 14.1875C53.7578 14.1992 53.6719 14.2148 53.5898 14.2305C53.5859 14.2305 53.582 14.2344 53.5742 14.2344C53.3984 14.2656 53.2266 14.3047 53.0625 14.3477C53.0586 14.3477 53.0586 14.3516 53.0586 14.3516C52.9766 14.3711 52.8945 14.3945 52.8125 14.418C52.7344 14.4414 52.6602 14.4688 52.5898 14.4922C52.582 14.4922 52.5781 14.4961 52.5703 14.4961C52.5 14.5234 52.4297 14.5469 52.3594 14.5742C52.3516 14.5781 52.3438 14.582 52.3398 14.582C52.2695 14.6094 52.207 14.6367 52.1406 14.668C52.1328 14.6719 52.1211 14.6719 52.1133 14.6797C52.0547 14.7031 51.9922 14.7344 51.9375 14.7617C51.9219 14.7695 51.9102 14.7734 51.8984 14.7812C51.8398 14.8086 51.7852 14.8359 51.7305 14.8672C51.7148 14.875 51.7031 14.8828 51.6875 14.8906C51.6367 14.918 51.5859 14.9492 51.5352 14.9805C51.5195 14.9883 51.5039 14.9961 51.4883 15.0078C51.4219 15.0469 51.3594 15.0898 51.2969 15.1289C51.2227 15.1836 51.1484 15.2344 51.082 15.2891C51.0742 15.2891 51.0703 15.293 51.0703 15.2969C50.7383 15.543 50.4531 15.8047 50.2188 16.1094C50.2109 16.1211 50.1992 16.1328 50.1914 16.1445C50.1641 16.1875 50.1328 16.2266 50.1055 16.2656C50.0859 16.2969 50.0664 16.3281 50.0469 16.3594C50.0312 16.3828 50.0156 16.4063 50.0039 16.4297C49.9727 16.4805 49.9453 16.5312 49.918 16.5859C49.9141 16.5937 49.9102 16.5977 49.9062 16.6055C49.6953 17.0234 49.5742 17.5039 49.5273 18.0859C49.5273 18.0937 49.5273 18.1016 49.5234 18.1094C49.5195 18.2109 49.5117 18.3125 49.5078 18.4219C49.5078 18.5039 49.5078 18.5859 49.5117 18.668C49.5117 18.6797 49.5117 18.6914 49.5117 18.7031C49.5547 19.8203 50.0625 20.6602 50.9805 21.3125C50.9883 21.3164 50.9961 21.3242 51.0039 21.3281C51.043 21.3555 51.082 21.3828 51.1211 21.4102C51.1484 21.4297 51.1797 21.4453 51.207 21.4648C51.2148 21.4727 51.2266 21.4766 51.2344 21.4805C52.1406 22.0547 53.25 22.3828 54.1758 22.6445C54.6289 22.7773 55.0352 22.8906 55.1562 22.9258C55.1836 22.9336 55.2109 22.9414 55.2344 22.9531C55.7891 23.1367 56.2148 23.2852 56.5664 23.4258C56.5938 23.4336 56.6172 23.4453 56.6445 23.4531C56.6523 23.457 56.6641 23.4609 56.6758 23.4688C56.875 23.5508 57.0703 23.6367 57.2578 23.7305C57.4141 23.8086 57.5586 23.8906 57.7031 23.9766C58.0742 24.207 58.3594 24.457 58.5508 24.7305C58.5586 24.7383 58.5625 24.7461 58.5664 24.7539C58.5859 24.7773 58.6016 24.8008 58.6133 24.8281C58.625 24.8438 58.6328 24.8555 58.6406 24.8711C58.6523 24.8906 58.6641 24.9102 58.6719 24.9297C58.6836 24.9492 58.6914 24.9727 58.7031 24.9922C58.7109 25.0078 58.7188 25.0234 58.7266 25.0391C58.7344 25.0625 58.7461 25.0859 58.7539 25.1133C58.7578 25.125 58.7656 25.1406 58.7695 25.1562C58.7773 25.1836 58.7852 25.2109 58.793 25.2383C58.7969 25.25 58.8008 25.2617 58.8047 25.2773C58.8125 25.3047 58.8203 25.3359 58.8242 25.3633C58.8281 25.375 58.832 25.3906 58.832 25.4023C58.8359 25.4336 58.8398 25.4648 58.8438 25.4961C58.8477 25.5078 58.8477 25.5195 58.8477 25.5312C58.8516 25.5781 58.8555 25.6211 58.8555 25.668C58.8555 25.7383 58.8516 25.8047 58.8477 25.8711C58.8477 25.8906 58.8438 25.9102 58.8438 25.9297C58.8398 25.9805 58.832 26.0312 58.8203 26.082C58.8203 26.0977 58.8164 26.1133 58.8125 26.1289C58.7891 26.2656 58.75 26.3945 58.6992 26.5234C58.6953 26.5273 58.6953 26.5312 58.6953 26.5352C58.668 26.5938 58.6406 26.6562 58.6094 26.7109C58.6055 26.7187 58.6055 26.7227 58.6016 26.7266C58.5352 26.8516 58.457 26.9727 58.3594 27.0859C58.3125 27.1445 58.2617 27.1992 58.2109 27.2539C58.207 27.2539 58.207 27.2539 58.207 27.2578C58.1016 27.3633 57.9844 27.4609 57.8633 27.5508C57.8594 27.5547 57.8555 27.5547 57.8555 27.5586C57.7969 27.5977 57.7383 27.6406 57.6797 27.6758C57.6719 27.6836 57.6641 27.6875 57.6562 27.6914C57.5547 27.7539 57.4453 27.8164 57.3359 27.8711C57.2969 27.8906 57.2578 27.9102 57.2148 27.9297C57.1719 27.9492 57.125 27.9727 57.0781 27.9922C57.0391 28.0078 57.0039 28.0234 56.9648 28.0391C56.8594 28.0781 56.7578 28.1172 56.6523 28.1523C56.6367 28.1562 56.6211 28.1602 56.6055 28.168C56.543 28.1875 56.4805 28.2031 56.418 28.2227C56.4023 28.2266 56.3828 28.2344 56.3672 28.2383C56.1602 28.293 55.957 28.3359 55.7656 28.3672C55.7617 28.3672 55.7578 28.3672 55.7539 28.3672C55.6563 28.3828 55.5625 28.3945 55.4727 28.4062C55.4375 28.4102 55.4063 28.4141 55.3711 28.4141C55.3398 28.418 55.3086 28.418 55.2734 28.4219C55.1992 28.4258 55.1211 28.4297 55.0508 28.4297C54.9063 28.4297 54.7656 28.4258 54.6289 28.418C54.5742 28.418 54.5195 28.4141 54.4648 28.4102C54.3906 28.4023 54.3125 28.3984 54.2422 28.3906C54.1758 28.3867 54.1055 28.3789 54.043 28.3711C53.9844 28.3633 53.9297 28.3555 53.875 28.3477C53.7539 28.3281 53.6406 28.3125 53.5273 28.2891C53.4766 28.2773 53.4219 28.2695 53.3711 28.2578C53.3125 28.2422 53.2539 28.2305 53.1953 28.2148C53.1289 28.1992 53.0664 28.1836 53.0039 28.1641C52.9609 28.1523 52.9141 28.1406 52.875 28.1289C52.7695 28.0977 52.6641 28.0625 52.5625 28.0234C52.5391 28.0156 52.5156 28.0078 52.4922 28C52.2656 27.9141 52.043 27.8203 51.8242 27.7109C51.8164 27.707 51.8047 27.6992 51.793 27.6953C51.6523 27.625 51.4141 27.4922 51.1875 27.3633C51.168 27.3516 51.1445 27.3398 51.125 27.3281C50.9648 27.2344 50.8281 27.1562 50.6992 27.0938C50.6875 27.0859 50.6797 27.082 50.6719 27.0781C50.6641 27.0742 50.6563 27.0703 50.6523 27.0703C50.6172 27.0547 50.5898 27.0391 50.5586 27.0273C50.5469 27.0234 50.5391 27.0195 50.5312 27.0156C50.4492 26.9844 50.375 26.9609 50.3008 26.9531C50.2773 26.9492 50.2539 26.9492 50.2305 26.9492C50.2227 26.9453 50.2148 26.9453 50.207 26.9453C50.0586 26.9453 49.9297 26.9961 49.8086 27.1094C49.7813 27.1328 49.7578 27.1562 49.7344 27.1836C49.7305 27.1914 49.7227 27.1992 49.7148 27.207C49.6992 27.2266 49.6875 27.2422 49.6758 27.2578C49.668 27.2695 49.6602 27.2813 49.6562 27.2891C49.6445 27.3047 49.6328 27.3203 49.625 27.3359C49.6172 27.3477 49.6133 27.3594 49.6094 27.3711C49.6016 27.3867 49.5938 27.4023 49.5859 27.418C49.582 27.4297 49.5781 27.4375 49.5742 27.4492C49.5664 27.4688 49.5625 27.4844 49.5586 27.5C49.5547 27.5117 49.5508 27.5195 49.5508 27.5312C49.5469 27.5508 49.543 27.5703 49.5391 27.5898C49.5391 27.5977 49.5352 27.6055 49.5352 27.6133C49.5313 27.6406 49.5312 27.6641 49.5312 27.6875C49.5312 27.6914 49.5312 27.6953 49.5312 27.6992C49.5312 27.7305 49.5352 27.7578 49.543 27.7891C49.543 27.793 49.543 27.8008 49.543 27.8047C49.5508 27.8281 49.5547 27.8555 49.5625 27.8789C49.5664 27.8906 49.5703 27.9023 49.5742 27.9141C49.582 27.9336 49.5859 27.957 49.5977 27.9766C49.6016 27.9883 49.6055 27.9961 49.6094 28.0039C49.6602 28.1211 49.7422 28.2422 49.8477 28.3594C49.9609 28.4844 50.1055 28.6094 50.2734 28.7383C50.2773 28.7383 50.2773 28.7383 50.2773 28.7422C50.3242 28.7734 50.3711 28.8086 50.4219 28.8438C50.4336 28.8516 50.4414 28.8594 50.4531 28.8633C50.5898 28.957 50.7344 29.0469 50.8984 29.1406C50.9375 29.1641 50.9766 29.1875 51.0156 29.207C51.0547 29.2305 51.0938 29.25 51.1328 29.2695C51.1797 29.2969 51.2344 29.3242 51.2852 29.3516C51.3203 29.3672 51.3516 29.3867 51.3867 29.4023C51.4648 29.4414 51.5469 29.4805 51.6289 29.5195C51.6406 29.5273 51.6484 29.5312 51.6602 29.5352C51.75 29.5781 51.8398 29.6172 51.9297 29.6523C51.9688 29.668 52.0039 29.6836 52.043 29.6992C52.0508 29.7031 52.0586 29.707 52.0664 29.707C52.9023 30.0352 53.9336 30.2539 54.8438 30.293C54.9102 30.2969 54.9805 30.3008 55.0469 30.3008H55.0508C55.082 30.3008 55.1094 30.3008 55.1406 30.2969C55.2109 30.2969 55.2813 30.2969 55.3516 30.2969C55.3594 30.2969 55.3672 30.2969 55.375 30.293C56.8555 30.2461 58.0703 29.8633 59.1055 29.1055C59.1055 29.1016 59.1055 29.1016 59.1055 29.1016C60.2539 28.2344 60.8867 27.0117 60.8867 25.6641C60.8867 25.5781 60.8828 25.4922 60.8789 25.4102C60.8789 25.3789 60.875 25.3477 60.875 25.3203Z" fill="#8B9597"/>
<path d="M70.4258 14.1133C70.4219 14.1133 70.418 14.1133 70.4141 14.1133C68.5938 14.1133 66.875 14.8555 65.6328 16.168V15.0508C65.6328 14.5352 65.2344 14.1133 64.7305 14.1133C64.6953 14.1133 64.6641 14.1172 64.6328 14.1172C64.4102 14.1406 64.2148 14.2383 64.0703 14.3828C64.0664 14.3828 64.0664 14.3828 64.0625 14.3867C64.0508 14.4023 64.0352 14.418 64.0234 14.4336C64.0156 14.4375 64.0078 14.4453 64.0039 14.4531C63.9922 14.4648 63.9844 14.4766 63.9766 14.4883C63.9688 14.5 63.9609 14.5117 63.9492 14.5234C63.9453 14.5313 63.9414 14.5391 63.9375 14.5469C63.9258 14.5664 63.9141 14.5859 63.9023 14.6016C63.9023 14.6055 63.9023 14.6094 63.8984 14.6133C63.8867 14.6367 63.875 14.6602 63.8633 14.6836C63.8438 14.7422 63.8242 14.8008 63.8125 14.8594C63.8125 14.8633 63.8125 14.8672 63.8086 14.8672C63.8047 14.8984 63.8008 14.9258 63.7969 14.9531C63.7969 14.9844 63.793 15.0156 63.793 15.0508V29.5586L63.7812 29.6211L63.8281 29.6602C63.8281 29.6797 63.832 29.707 63.8438 29.7344C63.8438 29.7383 63.8477 29.7461 63.8477 29.75C63.8555 29.7695 63.8672 29.793 63.8867 29.8125C64.0078 30.043 64.2305 30.2188 64.4922 30.2969L64.5117 30.3008H64.7305C64.7656 30.3008 64.8008 30.3008 64.8359 30.2969C64.8594 30.293 64.8828 30.2852 64.9063 30.2812C64.918 30.2812 64.9258 30.2812 64.9375 30.2773C64.9688 30.2695 65 30.2617 65.0313 30.25C65.0313 30.25 65.0313 30.25 65.0352 30.25C65.1992 30.1914 65.3398 30.0898 65.4336 29.9531C65.4375 29.9492 65.4414 29.9453 65.4453 29.9414C65.5078 29.875 65.543 29.8047 65.5781 29.707C65.582 29.6953 65.5859 29.6875 65.5859 29.6797C65.5898 29.6758 65.5898 29.6758 65.5898 29.6719C65.6055 29.625 65.6172 29.5781 65.6289 29.5312L65.6328 29.5156V20.7344C65.6953 18.1172 67.8359 15.9883 70.4063 15.9844C70.4102 15.9844 70.4102 15.9844 70.4141 15.9844C73.0313 15.9844 75.1602 18.1133 75.1602 20.7305V29.3633C75.1602 29.3984 75.1641 29.4297 75.168 29.4609C75.1875 29.6875 75.2852 29.8828 75.4297 30.0273C75.4297 30.0273 75.4336 30.0273 75.4336 30.0312C75.4492 30.0469 75.4648 30.0586 75.4805 30.0742C75.4883 30.082 75.4922 30.0859 75.5 30.0898C75.5117 30.1016 75.5234 30.1094 75.5352 30.1172C75.5469 30.1289 75.5586 30.1367 75.5703 30.1445C75.582 30.1484 75.5898 30.1523 75.5977 30.1602C75.6133 30.1719 75.6328 30.1797 75.6484 30.1914C75.6523 30.1914 75.6563 30.1953 75.6641 30.1953C75.6836 30.207 75.707 30.2188 75.7305 30.2305H75.7344C75.7891 30.2539 75.8477 30.2695 75.9063 30.2812C75.9141 30.2812 75.918 30.2852 75.9219 30.2852C75.9492 30.2891 75.9727 30.293 76 30.2969C76.0313 30.3008 76.0625 30.3008 76.0977 30.3008C76.1289 30.3008 76.1602 30.3008 76.1914 30.2969C76.2188 30.293 76.2461 30.2891 76.2695 30.2852C76.2734 30.2852 76.2813 30.2812 76.2852 30.2812C76.3477 30.2695 76.4023 30.2539 76.4609 30.2305C76.4844 30.2188 76.5078 30.207 76.5313 30.1953C76.5352 30.1953 76.5391 30.1914 76.543 30.1914C76.5625 30.1797 76.5781 30.1719 76.5977 30.1602C76.6055 30.1523 76.6133 30.1484 76.6211 30.1445C76.6328 30.1367 76.6445 30.1289 76.6563 30.1172C76.668 30.1094 76.6836 30.1016 76.6953 30.0898C76.6992 30.0859 76.707 30.082 76.7109 30.0742C76.7266 30.0586 76.7461 30.0469 76.7617 30.0312C76.7617 30.0273 76.7617 30.0273 76.7617 30.0273C76.9102 29.8828 77.0078 29.6875 77.0273 29.4609C77.0313 29.4297 77.0313 29.3984 77.0313 29.3633V20.7305C77.0313 17.0859 74.0703 14.1211 70.4258 14.1133Z" fill="#8B9597"/>
<path d="M87.2773 14.082C91.5195 14.082 94.9688 17.7188 94.9688 22.1914C94.9688 26.6641 91.5195 30.3008 87.2773 30.3008C87.1445 30.3008 87.0156 30.2969 86.8867 30.2891C86.8672 30.2891 86.8516 30.2891 86.832 30.2852C86.7188 30.2812 86.6055 30.2695 86.4961 30.2578C86.4922 30.2578 86.4883 30.2578 86.4844 30.2578C84.8086 30.0742 83.2422 29.3086 81.9961 28.0547C81.9453 28.0039 81.8906 27.9531 81.8438 27.8984C81.8398 27.8984 81.8398 27.8945 81.8359 27.8945C81.8086 27.8672 81.7852 27.8359 81.7578 27.8047C81.6992 27.7422 81.6406 27.6758 81.582 27.6094C81.5352 27.5586 81.4922 27.5 81.4453 27.4453C81.4141 27.4023 81.3789 27.3594 81.3438 27.3164C81.2734 27.2305 81.207 27.1406 81.1445 27.0508C81.1367 27.0391 81.1289 27.0273 81.1211 27.0156C80.3594 25.9492 79.8633 24.7188 79.6758 23.4141C79.6563 23.293 79.6445 23.1719 79.6328 23.0508C79.6289 23.0391 79.6289 23.0234 79.625 23.0078C79.6133 22.8945 79.6055 22.7852 79.6016 22.6719C79.5977 22.6484 79.5977 22.625 79.5977 22.5977C79.5898 22.4648 79.5859 22.3281 79.5859 22.1914C79.5859 22.0547 79.5898 21.918 79.5977 21.7852C79.5977 21.7578 79.5977 21.7344 79.6016 21.7109C79.6055 21.5977 79.6133 21.4844 79.625 21.375C79.6289 21.3594 79.6289 21.3438 79.6328 21.332C79.6445 21.2109 79.6563 21.0898 79.6758 20.9688C79.8633 19.6641 80.3594 18.4336 81.1211 17.3672C81.125 17.3555 81.1328 17.3437 81.1406 17.3359C81.207 17.2422 81.2734 17.1523 81.3438 17.0625C81.375 17.0234 81.4102 16.9844 81.4414 16.9414C81.4883 16.8828 81.5352 16.8281 81.582 16.7695C81.6367 16.707 81.6914 16.6484 81.75 16.5859C81.7773 16.5547 81.8086 16.5195 81.8359 16.4883C81.8398 16.4883 81.8398 16.4844 81.8438 16.4844C81.8867 16.4336 81.9375 16.3867 81.9844 16.3398C83.2305 15.082 84.8008 14.3086 86.4844 14.125C86.4883 14.125 86.4922 14.125 86.4961 14.125C86.6055 14.1133 86.7188 14.1055 86.832 14.0977C86.8516 14.0977 86.8672 14.0938 86.8867 14.0938C87.0156 14.0859 87.1445 14.082 87.2773 14.082ZM93.0664 21.5547C93.0664 21.5508 93.0664 21.5508 93.0664 21.5469C92.9297 20.1406 92.3516 18.8711 91.4883 17.8906C91.4492 17.8477 91.4141 17.8047 91.375 17.7617C91.3516 17.7383 91.3281 17.7148 91.3047 17.6914C91.2578 17.6445 91.2148 17.5977 91.168 17.5508C91.125 17.5078 91.0781 17.4687 91.0352 17.4297C91.0078 17.4062 90.9844 17.3789 90.957 17.3555C90.8867 17.293 90.8164 17.2344 90.7461 17.1758C90.7461 17.1758 90.7422 17.1758 90.7422 17.1719C89.9258 16.5117 88.9453 16.0781 87.8906 15.957C87.8789 15.957 87.8711 15.9531 87.8633 15.9531C87.7812 15.9414 87.7031 15.9375 87.6211 15.9336C87.6016 15.9297 87.5859 15.9297 87.5703 15.9297C87.4727 15.9219 87.375 15.9219 87.2773 15.9219C87.1797 15.9219 87.082 15.9219 86.9844 15.9297C86.9688 15.9297 86.9531 15.9297 86.9336 15.9336C86.8516 15.9375 86.7734 15.9414 86.6914 15.9531C86.6836 15.9531 86.6758 15.957 86.6641 15.957C85.6094 16.0781 84.6289 16.5117 83.8125 17.1719C83.8125 17.1758 83.8086 17.1758 83.8086 17.1758C83.7383 17.2344 83.668 17.293 83.5977 17.3555C83.5703 17.3789 83.5469 17.4023 83.5195 17.4258C83.4766 17.4688 83.4297 17.5078 83.3867 17.5508C83.3437 17.5938 83.3008 17.6406 83.2539 17.6875C83.2305 17.7109 83.207 17.7344 83.1797 17.7617C83.1445 17.8008 83.1094 17.8437 83.0703 17.8867C82.207 18.8672 81.625 20.1406 81.4883 21.5469C81.4883 21.5508 81.4883 21.5508 81.4883 21.5547C81.4805 21.6445 81.4727 21.7344 81.4688 21.8281C81.4688 21.8438 81.4648 21.8594 81.4648 21.875C81.4609 21.9805 81.457 22.0859 81.457 22.1914C81.457 25.625 84.0977 28.4297 87.2773 28.4297C90.457 28.4297 93.0977 25.625 93.0977 22.1914C93.0977 22.0859 93.0938 21.9805 93.0898 21.875C93.0898 21.8594 93.0859 21.8438 93.0859 21.8281C93.082 21.7344 93.0742 21.6445 93.0664 21.5547Z" fill="#8B9597"/>
<path d="M117.575 14.4844C117.567 14.4766 117.563 14.4688 117.555 14.4609C117.461 14.3438 117.336 14.25 117.196 14.1914C117.196 14.1914 117.196 14.1914 117.192 14.1914C117.176 14.1797 117.157 14.1758 117.141 14.168C117.133 14.168 117.125 14.1641 117.114 14.1602C116.989 14.1172 116.852 14.1094 116.719 14.1289H116.715C116.446 14.1719 116.188 14.3359 116.043 14.5781C116.043 14.5781 116.043 14.5781 116.039 14.5781C116.02 14.6172 115.996 14.6562 115.981 14.6953L115.977 14.6992V14.7031L111.5 26.957L107.985 18.5898C107.95 18.5117 107.903 18.4414 107.848 18.375C107.657 18.1523 107.364 18.0117 107.063 18.0117C107.016 18.0117 106.973 18.0117 106.926 18.0234C106.922 18.0234 106.918 18.0234 106.91 18.0234C106.598 18.0781 106.305 18.2969 106.172 18.5898C106.172 18.5937 106.172 18.5938 106.172 18.5938L102.657 26.9609L100.953 22.332L98.1487 14.7031C98.1331 14.6602 98.1175 14.625 98.0979 14.5859C98.094 14.582 98.094 14.582 98.0901 14.5781C98.0042 14.418 97.8675 14.293 97.7034 14.2148C97.7034 14.2148 97.6995 14.2148 97.6995 14.2109C97.6175 14.1758 97.5315 14.1484 97.4417 14.1328C97.4339 14.1328 97.43 14.1328 97.4222 14.1289C97.3792 14.125 97.3323 14.1211 97.2893 14.1211H97.2854C97.2737 14.1211 97.2659 14.1211 97.2581 14.1211C97.2386 14.1211 97.219 14.1211 97.1995 14.125C97.1878 14.125 97.1722 14.1289 97.1604 14.1289C97.1409 14.1328 97.1253 14.1328 97.1097 14.1367C97.0979 14.1406 97.0862 14.1406 97.0745 14.1445C97.055 14.1484 97.0354 14.1523 97.0159 14.1602C97.0081 14.1641 97.0003 14.1641 96.9925 14.168C96.9729 14.1758 96.9534 14.1797 96.9339 14.1914C96.9339 14.1914 96.9339 14.1914 96.93 14.1914C96.7698 14.2617 96.6409 14.3828 96.5472 14.5234C96.5433 14.5313 96.5393 14.5352 96.5354 14.543C96.5315 14.5508 96.5276 14.5586 96.5237 14.5664C96.4534 14.6836 96.4104 14.8203 96.3948 14.957C96.3792 15.1016 96.3987 15.2539 96.4573 15.3945L99.7034 24.1172L101.785 29.7109C101.785 29.7109 101.785 29.7109 101.785 29.7148C101.871 29.9258 101.996 30.0703 102.168 30.1484C102.172 30.1523 102.18 30.1562 102.184 30.1602C102.188 30.1641 102.192 30.168 102.2 30.1719C102.2 30.1758 102.203 30.1758 102.207 30.1797C102.215 30.1836 102.219 30.1875 102.227 30.1953C102.231 30.1953 102.231 30.1953 102.235 30.1953C102.266 30.2148 102.305 30.2305 102.356 30.2344C102.36 30.2344 102.364 30.2383 102.367 30.2383C102.383 30.2422 102.399 30.25 102.414 30.2539C102.422 30.2539 102.43 30.2578 102.438 30.2578C102.535 30.2891 102.598 30.3008 102.676 30.3008C102.719 30.3008 102.758 30.2969 102.801 30.2891C102.832 30.2852 102.867 30.2773 102.899 30.2656C102.907 30.2617 102.914 30.2617 102.922 30.2578C102.953 30.25 102.985 30.2383 103.016 30.2227C103.028 30.2188 103.039 30.2148 103.051 30.207C103.071 30.1953 103.094 30.1836 103.117 30.1719C103.133 30.1602 103.153 30.1484 103.172 30.1367C103.184 30.1289 103.196 30.1172 103.207 30.1094C103.235 30.0898 103.258 30.0703 103.285 30.0469C103.289 30.043 103.293 30.0391 103.297 30.0312C103.325 30.0039 103.352 29.9766 103.379 29.9453C103.379 29.9414 103.383 29.9375 103.387 29.9336C103.41 29.9023 103.434 29.8672 103.453 29.832C103.473 29.793 103.492 29.75 103.508 29.707L103.512 29.6953L103.524 29.6797L103.535 29.6523L107.063 21.2305L110.621 29.6836C110.649 29.7695 110.692 29.8477 110.75 29.9219C110.758 29.9336 110.766 29.9414 110.774 29.9531C110.793 29.9766 110.813 30 110.836 30.0234C110.848 30.0312 110.86 30.043 110.871 30.0508C110.891 30.0703 110.914 30.0898 110.938 30.1094C110.95 30.1172 110.957 30.125 110.969 30.1289C110.996 30.1484 111.024 30.168 111.051 30.1836C111.059 30.1875 111.067 30.1914 111.075 30.1953C111.106 30.2109 111.133 30.2266 111.168 30.2383C111.176 30.2422 111.184 30.2461 111.196 30.2461C111.223 30.2578 111.25 30.2695 111.282 30.2773C111.321 30.2852 111.36 30.293 111.395 30.3008H111.512C111.559 30.3008 111.602 30.2969 111.645 30.2891C111.657 30.2891 111.664 30.2891 111.676 30.2852C111.715 30.2773 111.75 30.2695 111.785 30.2578C111.797 30.2539 111.805 30.25 111.813 30.2461C111.852 30.2344 111.891 30.2148 111.926 30.1953C111.93 30.1953 111.934 30.1914 111.938 30.1914C111.981 30.1641 112.024 30.1367 112.059 30.1094C112.215 29.9922 112.328 29.8398 112.407 29.6523V29.6484L114.606 23.7266L117.7 15.3945C117.821 15.1016 117.774 14.7812 117.606 14.5312C117.598 14.5156 117.586 14.5 117.575 14.4844Z" fill="#8B9597"/>
<path d="M167.25 14.7461C167.25 14.7305 167.246 14.7109 167.242 14.6953C167.242 14.6836 167.238 14.6719 167.234 14.6602C167.23 14.6406 167.227 14.6211 167.223 14.6055C167.219 14.5937 167.215 14.582 167.211 14.5742C167.207 14.5508 167.199 14.5312 167.188 14.5117C167.188 14.5039 167.184 14.5 167.18 14.4922C167.168 14.4648 167.156 14.4414 167.141 14.418C167.141 14.4141 167.141 14.4141 167.141 14.4141C167.094 14.332 167.035 14.2617 166.969 14.1992C166.965 14.1953 166.965 14.1953 166.965 14.1953C166.961 14.1914 166.961 14.1914 166.961 14.1914C166.629 13.8594 166.16 13.8164 165.793 14.0742C165.781 14.082 165.773 14.0898 165.762 14.0938C165.746 14.1055 165.73 14.1172 165.715 14.1289C165.691 14.1523 165.668 14.1719 165.645 14.1953C165.645 14.1953 165.641 14.1953 165.641 14.1992L156.488 23.1211V8.19922C156.488 8.16797 156.488 8.13672 156.484 8.10547C156.449 7.76172 156.219 7.47656 155.906 7.34375C155.902 7.34375 155.902 7.33984 155.898 7.33984C155.879 7.33203 155.859 7.32422 155.84 7.32031C155.832 7.31641 155.82 7.3125 155.809 7.30859C155.793 7.30469 155.777 7.30078 155.758 7.29688C155.746 7.29297 155.73 7.28906 155.715 7.28516C155.699 7.28125 155.68 7.27734 155.664 7.27734C155.648 7.27344 155.637 7.27344 155.621 7.26953C155.586 7.26562 155.555 7.26563 155.523 7.26563C155.012 7.26563 154.586 7.69141 154.586 8.19922V29.3633C154.586 29.875 155.012 30.3008 155.523 30.3008C155.555 30.3008 155.59 30.3008 155.621 30.2969C155.625 30.2969 155.629 30.293 155.637 30.293C155.664 30.2891 155.691 30.2891 155.715 30.2812C155.723 30.2812 155.73 30.2773 155.738 30.2773C155.762 30.2695 155.785 30.2656 155.809 30.2578C155.812 30.2578 155.816 30.2539 155.82 30.2539C156.18 30.1406 156.445 29.832 156.484 29.4609C156.488 29.4297 156.488 29.3984 156.488 29.3633V25.793L159.57 22.7148L165.559 29.9414C165.598 30.0039 165.641 30.0586 165.695 30.1016C165.707 30.1133 165.715 30.1211 165.727 30.1289C165.742 30.1406 165.758 30.1523 165.773 30.1602C165.793 30.1758 165.812 30.1836 165.832 30.1953C165.84 30.1992 165.852 30.207 165.859 30.2109C165.887 30.2227 165.91 30.2305 165.938 30.2422C165.945 30.2461 165.953 30.2461 165.957 30.25C165.988 30.2578 166.016 30.2656 166.047 30.2734C166.051 30.2734 166.059 30.2773 166.066 30.2773C166.098 30.2852 166.125 30.2891 166.16 30.293C166.168 30.293 166.176 30.293 166.184 30.2969C166.223 30.2969 166.262 30.3008 166.305 30.3008C166.367 30.3008 166.426 30.2969 166.48 30.2891C166.484 30.2891 166.484 30.2891 166.484 30.2891C166.594 30.2734 166.695 30.2383 166.789 30.1914C166.793 30.1914 166.793 30.1875 166.793 30.1875C166.836 30.1641 166.879 30.1367 166.922 30.1055L166.934 30.0938C167.289 29.7383 167.344 29.2539 167.086 28.8516C167.062 28.8164 167.039 28.7812 167.012 28.7461L160.93 21.3594L166.969 15.5234C167.129 15.3594 167.227 15.1602 167.25 14.9453C167.25 14.9414 167.25 14.9375 167.254 14.9336C167.254 14.9141 167.254 14.8906 167.254 14.8711C167.254 14.8594 167.258 14.8477 167.258 14.8398C167.258 14.832 167.258 14.8281 167.258 14.8242C167.258 14.8086 167.254 14.7969 167.254 14.7812C167.254 14.7695 167.25 14.7578 167.25 14.7461Z" fill="#8B9597"/>
</g>
<defs>
<clipPath id="clip0_127_2058">
<rect width="184" height="44" fill="white"/>
</clipPath>
</defs>
</svg>
