<svg width="188" height="18" viewBox="0 0 188 18" fill="none" xmlns="http://www.w3.org/2000/svg">
<path d="M7.464 17.1896C7.0838 17.1896 6.78724 17.0831 6.57432 16.8702C6.37662 16.6573 6.27777 16.3607 6.27777 15.9805V2.93197H1.44159C1.12222 2.93197 0.871282 2.84833 0.688785 2.68104C0.506288 2.49854 0.415039 2.24761 0.415039 1.92824C0.415039 1.60887 0.506288 1.36554 0.688785 1.19825C0.871282 1.03096 1.12222 0.947314 1.44159 0.947314H13.4636C13.7982 0.947314 14.0567 1.03096 14.2392 1.19825C14.4217 1.36554 14.513 1.60887 14.513 1.92824C14.513 2.24761 14.4217 2.49854 14.2392 2.68104C14.0567 2.84833 13.7982 2.93197 13.4636 2.93197H8.62742V15.9805C8.62742 16.3607 8.52857 16.6573 8.33086 16.8702C8.14836 17.0831 7.85941 17.1896 7.464 17.1896Z" fill="#3C4858"/>
<path d="M17.8054 17.0299C17.3948 17.0299 17.0754 16.9234 16.8473 16.7105C16.6344 16.4824 16.5279 16.163 16.5279 15.7524V2.22479C16.5279 1.81418 16.6344 1.50241 16.8473 1.2895C17.0754 1.06137 17.3948 0.947314 17.8054 0.947314H26.1318C26.4512 0.947314 26.6945 1.03096 26.8618 1.19825C27.0291 1.35033 27.1128 1.57845 27.1128 1.88261C27.1128 2.20198 27.0291 2.44531 26.8618 2.6126C26.6945 2.77989 26.4512 2.86354 26.1318 2.86354H18.8091V7.90503H25.63C25.9645 7.90503 26.2079 7.98867 26.36 8.15596C26.5272 8.32325 26.6109 8.55897 26.6109 8.86314C26.6109 9.18251 26.5272 9.42584 26.36 9.59313C26.2079 9.74521 25.9645 9.82125 25.63 9.82125H18.8091V15.1137H26.1318C26.4512 15.1137 26.6945 15.1973 26.8618 15.3646C27.0291 15.5319 27.1128 15.7676 27.1128 16.0718C27.1128 16.3911 27.0291 16.6345 26.8618 16.8018C26.6945 16.9538 26.4512 17.0299 26.1318 17.0299H17.8054Z" fill="#3C4858"/>
<path d="M29.7862 17.1896C29.4821 17.1896 29.2387 17.1211 29.0562 16.9843C28.8737 16.8474 28.7673 16.6649 28.7369 16.4368C28.7065 16.2087 28.7521 15.9501 28.8738 15.6612L35.0558 1.79136C35.2079 1.42637 35.398 1.16783 35.6261 1.01575C35.8695 0.86367 36.1356 0.787629 36.4246 0.787629C36.6983 0.787629 36.9493 0.86367 37.1774 1.01575C37.4207 1.16783 37.6184 1.42637 37.7705 1.79136L43.9526 15.6612C44.0895 15.9501 44.1427 16.2163 44.1123 16.4596C44.0819 16.6877 43.983 16.8702 43.8157 17.0071C43.6484 17.1287 43.4127 17.1896 43.1085 17.1896C42.774 17.1896 42.5078 17.1059 42.3101 16.9386C42.1124 16.7714 41.9375 16.5128 41.7854 16.163L40.1886 12.4675L41.2608 13.1062H31.5428L32.5921 12.4675L31.0181 16.163C30.866 16.528 30.6987 16.7942 30.5162 16.9615C30.3337 17.1135 30.0904 17.1896 29.7862 17.1896ZM36.379 3.57071L32.9343 11.7375L32.364 11.19H40.4167L39.892 11.7375L36.4246 3.57071H36.379Z" fill="#3C4858"/>
<path d="M53.7996 17.2352C52.1723 17.2352 50.7808 16.9006 49.625 16.2315C48.4692 15.5623 47.5795 14.6118 46.956 13.3799C46.3476 12.1329 46.0435 10.6653 46.0435 8.9772C46.0435 7.71492 46.2184 6.58192 46.5681 5.57818C46.9179 4.55924 47.4198 3.69238 48.0737 2.9776C48.7429 2.24761 49.5565 1.69251 50.5147 1.31231C51.488 0.932106 52.583 0.742004 53.7996 0.742004C54.6969 0.742004 55.5561 0.86367 56.3774 1.107C57.2138 1.35033 57.9362 1.70012 58.5445 2.15636C58.8031 2.32365 58.9704 2.52896 59.0464 2.77229C59.1377 3.00041 59.1529 3.22093 59.092 3.43384C59.0464 3.64675 58.9475 3.82925 58.7955 3.98133C58.6434 4.11821 58.4457 4.19425 58.2024 4.20945C57.9742 4.22466 57.7233 4.14102 57.4496 3.95852C56.9477 3.57832 56.3926 3.29697 55.7843 3.11447C55.1759 2.93197 54.5372 2.84072 53.868 2.84072C52.7122 2.84072 51.7389 3.08405 50.9481 3.57071C50.1573 4.04216 49.5565 4.73413 49.1459 5.64662C48.7353 6.55911 48.53 7.6693 48.53 8.9772C48.53 10.2851 48.7353 11.4029 49.1459 12.3306C49.5565 13.2431 50.1573 13.9426 50.9481 14.4293C51.7389 14.9008 52.7122 15.1365 53.868 15.1365C54.5372 15.1365 55.1759 15.0452 55.7843 14.8627C56.4078 14.665 56.9933 14.3761 57.5408 13.9959C57.8145 13.8286 58.0579 13.7525 58.2708 13.7678C58.4989 13.783 58.689 13.859 58.8411 13.9959C58.9932 14.1327 59.092 14.3076 59.1376 14.5206C59.1985 14.7183 59.1909 14.9312 59.1148 15.1593C59.054 15.3722 58.9095 15.5547 58.6814 15.7068C58.0579 16.2087 57.3203 16.5889 56.4686 16.8474C55.617 17.1059 54.7273 17.2352 53.7996 17.2352Z" fill="#3C4858"/>
<path d="M63.4213 17.1896C63.0411 17.1896 62.7446 17.0831 62.5317 16.8702C62.334 16.6573 62.2351 16.3607 62.2351 15.9805V1.99667C62.2351 1.60126 62.334 1.3047 62.5317 1.107C62.7446 0.894086 63.0411 0.787629 63.4213 0.787629C63.8015 0.787629 64.0905 0.894086 64.2882 1.107C64.5011 1.3047 64.6076 1.60126 64.6076 1.99667V7.88221H73.6184V1.99667C73.6184 1.60126 73.7172 1.3047 73.9149 1.107C74.1279 0.894086 74.4244 0.787629 74.8046 0.787629C75.1848 0.787629 75.4738 0.894086 75.6715 1.107C75.8692 1.3047 75.968 1.60126 75.968 1.99667V15.9805C75.968 16.3607 75.8692 16.6573 75.6715 16.8702C75.4738 17.0831 75.1848 17.1896 74.8046 17.1896C74.4244 17.1896 74.1279 17.0831 73.9149 16.8702C73.7172 16.6573 73.6184 16.3607 73.6184 15.9805V9.86687H64.6076V15.9805C64.6076 16.3607 64.5087 16.6573 64.311 16.8702C64.1133 17.0831 63.8168 17.1896 63.4213 17.1896Z" fill="#3C4858"/>
<path d="M79.8598 17.1896C79.5557 17.1896 79.3123 17.1211 79.1298 16.9843C78.9473 16.8474 78.8409 16.6649 78.8105 16.4368C78.7801 16.2087 78.8257 15.9501 78.9473 15.6612L85.1294 1.79136C85.2815 1.42637 85.4716 1.16783 85.6997 1.01575C85.9431 0.86367 86.2092 0.787629 86.4982 0.787629C86.7719 0.787629 87.0229 0.86367 87.251 1.01575C87.4943 1.16783 87.692 1.42637 87.8441 1.79136L94.0262 15.6612C94.1631 15.9501 94.2163 16.2163 94.1859 16.4596C94.1554 16.6877 94.0566 16.8702 93.8893 17.0071C93.722 17.1287 93.4863 17.1896 93.1821 17.1896C92.8476 17.1896 92.5814 17.1059 92.3837 16.9386C92.186 16.7714 92.0111 16.5128 91.859 16.163L90.2622 12.4675L91.3344 13.1062H81.6164L82.6657 12.4675L81.0917 16.163C80.9396 16.528 80.7723 16.7942 80.5898 16.9615C80.4073 17.1135 80.164 17.1896 79.8598 17.1896ZM86.4525 3.57071L83.0079 11.7375L82.4376 11.19H90.4903L89.9656 11.7375L86.4982 3.57071H86.4525Z" fill="#3C4858"/>
<path d="M98.2539 17.0299C97.8433 17.0299 97.5239 16.9234 97.2958 16.7105C97.0829 16.4824 96.9764 16.163 96.9764 15.7524V2.22479C96.9764 1.81418 97.0829 1.50241 97.2958 1.2895C97.5239 1.06137 97.8433 0.947314 98.2539 0.947314H103.683C104.793 0.947314 105.736 1.1146 106.512 1.44918C107.303 1.78376 107.903 2.26282 108.314 2.88635C108.74 3.50988 108.953 4.26268 108.953 5.14475C108.953 6.11807 108.664 6.93931 108.086 7.60847C107.508 8.27762 106.725 8.72626 105.736 8.95438V8.6122C106.862 8.76428 107.744 9.19011 108.383 9.88968C109.021 10.574 109.341 11.4713 109.341 12.5815C109.341 14.0111 108.869 15.1137 107.926 15.8893C106.983 16.6497 105.66 17.0299 103.957 17.0299H98.2539ZM99.2577 15.2049H103.683C104.824 15.2049 105.668 14.9844 106.215 14.5434C106.763 14.0871 107.037 13.4028 107.037 12.4903C107.037 11.5778 106.763 10.901 106.215 10.46C105.668 10.019 104.824 9.79843 103.683 9.79843H99.2577V15.2049ZM99.2577 7.97346H103.318C104.413 7.97346 105.242 7.75294 105.805 7.31191C106.367 6.87087 106.649 6.22453 106.649 5.37287C106.649 4.52122 106.367 3.87488 105.805 3.43384C105.242 2.99281 104.413 2.77229 103.318 2.77229H99.2577V7.97346Z" fill="#3C4858"/>
<path d="M113.963 17.0299C113.583 17.0299 113.287 16.9234 113.074 16.7105C112.861 16.4976 112.754 16.201 112.754 15.8208V2.06511C112.754 1.6697 112.853 1.37314 113.051 1.17544C113.264 0.962522 113.56 0.856065 113.94 0.856065C114.321 0.856065 114.61 0.962522 114.807 1.17544C115.02 1.37314 115.127 1.6697 115.127 2.06511V14.9996H122.198C122.533 14.9996 122.792 15.0909 122.974 15.2734C123.157 15.4406 123.248 15.684 123.248 16.0033C123.248 16.3227 123.157 16.5736 122.974 16.7561C122.792 16.9386 122.533 17.0299 122.198 17.0299H113.963Z" fill="#3C4858"/>
<path d="M126.847 17.0299C126.436 17.0299 126.117 16.9234 125.889 16.7105C125.676 16.4824 125.569 16.163 125.569 15.7524V2.22479C125.569 1.81418 125.676 1.50241 125.889 1.2895C126.117 1.06137 126.436 0.947314 126.847 0.947314H135.173C135.492 0.947314 135.736 1.03096 135.903 1.19825C136.07 1.35033 136.154 1.57845 136.154 1.88261C136.154 2.20198 136.07 2.44531 135.903 2.6126C135.736 2.77989 135.492 2.86354 135.173 2.86354H127.85V7.90503H134.671C135.006 7.90503 135.249 7.98867 135.401 8.15596C135.568 8.32325 135.652 8.55897 135.652 8.86314C135.652 9.18251 135.568 9.42584 135.401 9.59313C135.249 9.74521 135.006 9.82125 134.671 9.82125H127.85V15.1137H135.173C135.492 15.1137 135.736 15.1973 135.903 15.3646C136.07 15.5319 136.154 15.7676 136.154 16.0718C136.154 16.3911 136.07 16.6345 135.903 16.8018C135.736 16.9538 135.492 17.0299 135.173 17.0299H126.847Z" fill="#3C4858"/>
<path d="M141.351 17.2124C140.88 17.2124 140.515 17.0831 140.256 16.8246C140.013 16.5508 139.891 16.1783 139.891 15.7068V2.27044C139.891 1.78378 140.013 1.41118 140.256 1.15264C140.515 0.894101 140.88 0.764832 141.351 0.764832C141.823 0.764832 142.18 0.894101 142.423 1.15264C142.682 1.41118 142.811 1.78378 142.811 2.27044V7.65411H151.092V2.27044C151.092 1.78378 151.214 1.41118 151.457 1.15264C151.715 0.894101 152.08 0.764832 152.552 0.764832C153.023 0.764832 153.381 0.894101 153.624 1.15264C153.883 1.41118 154.012 1.78378 154.012 2.27044V15.7068C154.012 16.1783 153.883 16.5508 153.624 16.8246C153.381 17.0831 153.023 17.2124 152.552 17.2124C152.08 17.2124 151.715 17.0831 151.457 16.8246C151.214 16.5508 151.092 16.1783 151.092 15.7068V10.095H142.811V15.7068C142.811 16.1783 142.689 16.5508 142.446 16.8246C142.203 17.0831 141.838 17.2124 141.351 17.2124Z" fill="#FF1154"/>
<path d="M164.447 17.258C163.337 17.258 162.356 17.1136 161.504 16.8246C160.668 16.5356 159.961 16.1098 159.383 15.5471C158.805 14.9692 158.371 14.2544 158.082 13.4028C157.793 12.5511 157.649 11.5626 157.649 10.4372V2.24762C157.649 1.74576 157.771 1.37316 158.014 1.12983C158.272 0.886497 158.637 0.764832 159.109 0.764832C159.58 0.764832 159.938 0.886497 160.181 1.12983C160.44 1.37316 160.569 1.74576 160.569 2.24762V10.4144C160.569 11.8591 160.896 12.9465 161.55 13.6765C162.219 14.3913 163.185 14.7487 164.447 14.7487C165.709 14.7487 166.667 14.3913 167.321 13.6765C167.975 12.9465 168.302 11.8591 168.302 10.4144V2.24762C168.302 1.74576 168.424 1.37316 168.667 1.12983C168.926 0.886497 169.291 0.764832 169.762 0.764832C170.218 0.764832 170.568 0.886497 170.812 1.12983C171.07 1.37316 171.199 1.74576 171.199 2.24762V10.4372C171.199 11.9276 170.941 13.1823 170.424 14.2012C169.922 15.2201 169.169 15.9882 168.165 16.5052C167.162 17.0071 165.922 17.258 164.447 17.258Z" fill="#FF1154"/>
<path d="M176.384 17.0299C175.882 17.0299 175.494 16.9006 175.221 16.6421C174.962 16.3684 174.833 15.9805 174.833 15.4787V2.49856C174.833 1.99669 174.962 1.61649 175.221 1.35795C175.494 1.0842 175.882 0.947329 176.384 0.947329H181.859C182.984 0.947329 183.943 1.11462 184.733 1.4492C185.524 1.78378 186.125 2.26283 186.536 2.88636C186.961 3.5099 187.174 4.25509 187.174 5.12196C187.174 6.09527 186.893 6.91651 186.33 7.58567C185.768 8.25483 185 8.70347 184.026 8.93159V8.5894C185.152 8.75669 186.026 9.18252 186.65 9.86689C187.273 10.5513 187.585 11.4409 187.585 12.5359C187.585 13.9655 187.098 15.0757 186.125 15.8665C185.167 16.6421 183.829 17.0299 182.11 17.0299H176.384ZM177.639 14.8171H181.745C182.779 14.8171 183.54 14.6194 184.026 14.224C184.513 13.8134 184.756 13.2051 184.756 12.399C184.756 11.5778 184.513 10.9695 184.026 10.5741C183.54 10.1787 182.779 9.98095 181.745 9.98095H177.639V14.8171ZM177.639 7.76817H181.357C182.361 7.76817 183.106 7.57807 183.593 7.19786C184.095 6.80245 184.346 6.22454 184.346 5.46414C184.346 4.70373 184.095 4.13343 183.593 3.75323C183.106 3.35781 182.361 3.16011 181.357 3.16011H177.639V7.76817Z" fill="#FF1154"/>
</svg>
