<svg width="198" height="30" viewBox="0 0 198 30" fill="none" xmlns="http://www.w3.org/2000/svg">
<g clip-path="url(#clip0_226_645)">
<path d="M0 9.95559C0 11.5824 1.31884 12.9013 2.94572 12.9013C4.57259 12.9013 5.89143 11.5824 5.89143 9.95559C5.89143 8.32869 4.57259 7.00989 2.94572 7.00989C1.31884 7.00989 0 8.32869 0 9.95559Z" fill="#8B9597"/>
<path d="M0 24.6841C0 26.311 1.31884 27.6299 2.94572 27.6299C4.57259 27.6299 5.89143 26.311 5.89143 24.6841C5.89143 23.0573 4.57259 21.7384 2.94572 21.7384C1.31884 21.7384 0 23.0573 0 24.6841Z" fill="#8B9597"/>
<path d="M1.10449 17.3199C1.10449 18.3368 1.92878 19.161 2.94559 19.161C3.9624 19.161 4.78669 18.3368 4.78669 17.3199C4.78669 16.3031 3.9624 15.4788 2.94559 15.4788C1.92878 15.4788 1.10449 16.3031 1.10449 17.3199Z" fill="#8B9597"/>
<path d="M1.10449 2.59113C1.10449 3.60795 1.92878 4.43224 2.94559 4.43224C3.9624 4.43224 4.78669 3.60795 4.78669 2.59113C4.78669 1.57432 3.9624 0.750031 2.94559 0.750031C1.92878 0.750031 1.10449 1.57432 1.10449 2.59113Z" fill="#8B9597"/>
<path d="M11.3042 20.0445C11.3042 21.6714 12.623 22.9902 14.2499 22.9902C15.8768 22.9902 17.1957 21.6714 17.1957 20.0445C17.1957 18.4176 15.8768 17.0988 14.2499 17.0988C12.623 17.0988 11.3042 18.4176 11.3042 20.0445Z" fill="#8B9597"/>
<path d="M12.4092 27.4089C12.4092 28.4257 13.2335 29.25 14.2503 29.25C15.2671 29.25 16.0914 28.4257 16.0914 27.4089C16.0914 26.3921 15.2671 25.5678 14.2503 25.5678C13.2335 25.5678 12.4092 26.3921 12.4092 27.4089Z" fill="#8B9597"/>
<path d="M12.4092 12.6803C12.4092 13.6971 13.2335 14.5214 14.2503 14.5214C15.2671 14.5214 16.0914 13.6971 16.0914 12.6803C16.0914 11.6635 15.2671 10.8392 14.2503 10.8392C13.2335 10.8392 12.4092 11.6635 12.4092 12.6803Z" fill="#8B9597"/>
<path d="M12.4092 5.31604C12.4092 6.33288 13.2335 7.15713 14.2503 7.15713C15.2671 7.15713 16.0914 6.33288 16.0914 5.31604C16.0914 4.29923 15.2671 3.47495 14.2503 3.47495C13.2335 3.47495 12.4092 4.29923 12.4092 5.31604Z" fill="#8B9597"/>
<path d="M22.6084 9.95559C22.6084 11.5824 23.9272 12.9013 25.5541 12.9013C27.181 12.9013 28.4998 11.5824 28.4998 9.95559C28.4998 8.32869 27.181 7.00989 25.5541 7.00989C23.9272 7.00989 22.6084 8.32869 22.6084 9.95559Z" fill="#8B9597"/>
<path d="M23.7134 2.59113C23.7134 3.60795 24.5376 4.43224 25.5545 4.43224C26.5713 4.43224 27.3956 3.60795 27.3956 2.59113C27.3956 1.57432 26.5713 0.750031 25.5545 0.750031C24.5376 0.750031 23.7134 1.57432 23.7134 2.59113Z" fill="#8B9597"/>
<path d="M23.7134 17.3199C23.7134 18.3368 24.5376 19.161 25.5545 19.161C26.5713 19.161 27.3956 18.3368 27.3956 17.3199C27.3956 16.3031 26.5713 15.4788 25.5545 15.4788C24.5376 15.4788 23.7134 16.3031 23.7134 17.3199Z" fill="#8B9597"/>
<path d="M23.7134 24.6841C23.7134 25.7009 24.5376 26.5252 25.5545 26.5252C26.5713 26.5252 27.3956 25.7009 27.3956 24.6841C27.3956 23.6673 26.5713 22.843 25.5545 22.843C24.5376 22.843 23.7134 23.6673 23.7134 24.6841Z" fill="#8B9597"/>
<path d="M49.9135 21.551H50.8385L54.475 8.14647L56.2825 7.88827V7.00607H51.398V7.88827L53.356 8.16797L50.6235 18.1084L47.4176 8.14647L49.5907 7.88827V7.00607H43.7383V7.88827L45.89 8.14647L42.6195 18.0224L39.973 8.12492L41.9525 7.88827V7.00607H36.1001V7.88827L37.8859 8.10342L41.7588 21.551H42.684L46.1912 10.3841L49.9135 21.551Z" fill="#8B9597"/>
<path d="M60.7277 11.8903C62.0617 11.8903 63.0732 12.9876 63.0732 14.214C63.0732 14.838 62.8362 15.3329 61.8037 15.3329H57.8877C58.1242 12.837 59.5227 11.8903 60.7277 11.8903ZM60.8567 10.9005C58.1672 10.9005 55.9082 13.0952 55.9082 16.3872C55.9082 19.6791 57.8017 21.6801 60.7062 21.6801C62.6642 21.6801 64.0412 20.7119 64.8372 19.1843L64.3212 18.7754C63.5462 19.6791 62.7072 20.2816 61.3302 20.2816C59.2647 20.2816 57.8877 18.883 57.8447 16.2365H64.7082C64.7942 15.9568 64.8587 15.5265 64.8587 15.0316C64.8587 12.4282 63.0947 10.9005 60.8567 10.9005Z" fill="#8B9597"/>
<path d="M69.2002 8.53373C69.9962 8.53373 70.6417 7.95283 70.6417 7.15673C70.6417 6.31758 69.9962 5.77968 69.2002 5.77968C68.3827 5.77968 67.7587 6.31758 67.7587 7.15673C67.7587 7.95283 68.3827 8.53373 69.2002 8.53373ZM71.6532 20.6258L70.1467 20.3246C70.1252 19.2488 70.1037 17.8287 70.1037 16.882V14.0419L70.1682 11.1157L69.8457 10.9005L66.5322 12.213V12.9661L68.2532 13.1597C68.2962 14.0204 68.3182 14.6874 68.3182 15.8708V16.882C68.3182 17.8287 68.2962 19.2488 68.2747 20.3246L66.6612 20.6258V21.4004H71.6532V20.6258Z" fill="#8B9597"/>
<path d="M77.5028 11.7827C78.8368 11.7827 79.6113 12.837 79.6113 14.3646C79.6113 15.9568 78.7938 17.0972 77.4168 17.0972C76.0828 17.0972 75.3298 16.0214 75.3298 14.4507C75.3298 12.88 76.1473 11.7827 77.5028 11.7827ZM73.5868 14.4292C73.5868 15.8923 74.2108 16.9035 75.2438 17.463C74.1678 18.4527 73.7803 19.1843 73.7803 19.8513C73.7803 20.6904 74.2538 21.2283 75.2003 21.4865C73.6083 22.2611 73.0918 23.0141 73.0918 23.9393C73.0918 25.467 74.4258 26.5428 77.5458 26.5428C81.0743 26.5428 82.8603 24.6924 82.8603 22.8205C82.8603 21.0777 81.7628 20.0449 79.3963 20.0449H76.5778C75.5663 20.0449 75.3298 19.6791 75.3298 19.0982C75.3298 18.6033 75.5018 18.1945 75.8673 17.7212C76.3408 17.8718 76.8788 17.9578 77.4598 17.9578C79.6973 17.9578 81.3543 16.6884 81.3543 14.4292C81.3543 13.6546 81.1818 12.9876 80.8593 12.4712H82.9678V11.1157L82.6453 10.9005L80.2138 11.7397C79.5253 11.1802 78.5788 10.9005 77.4813 10.9005C75.2438 10.9005 73.5868 12.17 73.5868 14.4292ZM77.6318 25.553C75.9323 25.553 74.8563 24.9936 74.8563 23.5951C74.8563 22.885 75.0928 22.3041 75.6953 21.6586C75.9753 21.6801 76.2763 21.7017 76.5778 21.7017H79.0948C80.6443 21.7017 81.2468 22.4332 81.2468 23.3799C81.2468 24.5848 79.9773 25.553 77.6318 25.553Z" fill="#8B9597"/>
<path d="M85.5458 16.882C85.5458 17.8287 85.5243 19.2488 85.5028 20.3246L83.8887 20.6258V21.4004H88.8808V20.6258L87.3963 20.3246C87.3748 19.2488 87.3532 17.8287 87.3532 16.882V13.8482C88.4502 12.8585 89.3327 12.4497 90.3867 12.4497C91.6562 12.4497 92.1513 13.0737 92.1513 15.0532V16.882C92.1513 17.8718 92.1298 19.2703 92.1083 20.3461L90.5373 20.6258V21.4004H95.5293V20.6258L94.0233 20.3246C94.0018 19.2488 93.9803 17.8718 93.9803 16.882V14.881C93.9803 12.0624 93.0763 10.9005 91.2262 10.9005C89.8702 10.9005 88.3427 11.7181 87.2887 12.9015V8.72738L87.3747 5.6721L87.0732 5.49997L83.7812 6.46818V7.22128L85.5458 7.43643V16.882Z" fill="#8B9597"/>
<path d="M99.8689 18.9906V12.3206H102.795V11.1802H99.9119L100.019 8.25403H98.7284L98.1689 11.1372L96.2539 11.3739V12.3206H98.0399V17.3984C98.0399 18.2375 98.0184 18.6894 98.0184 19.2273C98.0184 20.9056 98.9649 21.6801 100.471 21.6801C101.568 21.6801 102.451 21.2713 103.01 20.5398L102.494 19.9804C101.956 20.3676 101.525 20.5613 101.052 20.5613C100.32 20.5613 99.8689 20.0879 99.8689 18.9906Z" fill="#8B9597"/>
<path d="M107.36 21.6801C110.136 21.6801 111.556 20.2386 111.556 18.6033C111.556 17.2478 110.739 16.2365 108.587 15.4404L107.92 15.2038C106.457 14.6659 105.94 14.3001 105.94 13.3534C105.94 12.4712 106.629 11.8903 107.941 11.8903C108.458 11.8903 108.953 12.0194 109.426 12.256L109.77 13.9773H110.889L110.975 11.7827C110.05 11.2233 109.125 10.9005 107.963 10.9005C105.553 10.9005 104.219 12.3636 104.219 13.9343C104.219 15.3974 105.252 16.2581 106.823 16.839L107.812 17.2048C109.168 17.6781 109.813 18.1515 109.813 19.0767C109.813 20.0449 109.039 20.7119 107.404 20.7119C106.736 20.7119 106.177 20.6043 105.661 20.3676L105.252 18.4957H104.068L104.155 20.8625C105.209 21.4004 106.156 21.6801 107.36 21.6801Z" fill="#8B9597"/>
<path d="M122.185 11.8688C121.389 10.879 121.217 10.212 121.217 9.43743C121.217 8.29708 122.077 7.43643 123.175 7.43643C124.229 7.43643 125.047 8.21103 125.047 9.45893C125.047 10.7069 124.1 11.6536 122.766 12.5788C122.572 12.3636 122.379 12.1269 122.185 11.8688ZM131.824 21.465L131.91 20.5183L129.823 20.2386C129.156 19.55 128.597 18.9261 128.059 18.3666C129.049 16.882 129.802 15.2898 130.297 13.3319L131.932 13.0306V12.17H127.564V13.0306L129.264 13.3103C128.876 15.0101 128.274 16.4087 127.478 17.7427C126.639 16.839 125.864 16.0214 125.004 15.0747C124.251 14.2571 123.734 13.6761 123.282 13.1597C125.477 11.9763 126.467 10.922 126.467 9.43743C126.467 7.82373 125.326 6.68338 123.196 6.68338C121.174 6.68338 119.668 7.84523 119.668 9.73868C119.668 10.879 120.076 11.9763 121.152 13.2028C121.174 13.2458 121.217 13.2673 121.238 13.3103C119.087 14.3861 117.989 15.8277 117.989 17.7642C117.989 19.9373 119.84 21.6801 122.529 21.6801C124.595 21.6801 125.972 20.884 126.919 19.8513C127.155 20.131 127.413 20.3892 127.672 20.6904C128.382 21.4219 129.049 21.6801 130.189 21.6801C130.748 21.6801 131.179 21.6156 131.824 21.465ZM124.1 16.6884C124.831 17.506 125.52 18.2806 126.295 19.1627C125.477 19.8943 124.315 20.3031 123.11 20.3031C121.023 20.3031 119.861 18.7539 119.861 17.1833C119.861 16.1074 120.27 14.8165 121.755 13.9128C122.465 14.7304 123.132 15.505 124.1 16.6884Z" fill="#8B9597"/>
<path d="M140.886 14.7304C140.886 16.6023 140.886 18.4742 140.843 20.2816L138.863 20.5183V21.4004H144.78C148.911 21.4004 150.525 19.4209 150.525 17.463C150.525 15.7202 149.32 14.3216 146.458 13.9128C148.847 13.4179 149.793 12.0409 149.793 10.5132C149.793 8.46917 148.094 7.00607 145.103 7.00607H138.863V7.88827L140.843 8.12492C140.886 9.97532 140.886 11.8257 140.886 13.6761V14.7304ZM144.113 14.4507C147.082 14.4507 148.373 15.462 148.373 17.463C148.373 19.3564 147.039 20.3892 144.285 20.3892H142.973C142.93 18.5603 142.93 16.7099 142.93 14.4507H144.113ZM144.457 7.99582C146.652 7.99582 147.771 8.70587 147.771 10.6638C147.771 12.6218 146.652 13.461 144.049 13.461H142.93C142.93 11.7612 142.93 9.84622 142.973 7.99582H144.457Z" fill="#8B9597"/>
<path d="M154.74 8.53373C155.536 8.53373 156.182 7.95283 156.182 7.15673C156.182 6.31758 155.536 5.77968 154.74 5.77968C153.922 5.77968 153.299 6.31758 153.299 7.15673C153.299 7.95283 153.922 8.53373 154.74 8.53373ZM157.193 20.6258L155.687 20.3246C155.665 19.2488 155.644 17.8287 155.644 16.882V14.0419L155.708 11.1157L155.386 10.9005L152.072 12.213V12.9661L153.793 13.1597C153.836 14.0204 153.858 14.6874 153.858 15.8708V16.882C153.858 17.8287 153.836 19.2488 153.815 20.3246L152.201 20.6258V21.4004H157.193V20.6258Z" fill="#8B9597"/>
<path d="M166.807 21.6156C167.56 21.6156 168.163 21.3359 168.679 20.4967L168.249 20.0234C168.012 20.3031 167.775 20.4967 167.409 20.4967C166.936 20.4967 166.635 20.1525 166.635 19.2273V14.6443C166.635 11.9333 165.559 10.9005 163.3 10.9005C161.105 10.9005 159.513 11.9333 159.104 13.5685C159.169 14.128 159.513 14.4507 160.115 14.4507C160.696 14.4507 161.041 14.0849 161.234 13.4179L161.643 12.0194C162.095 11.9118 162.482 11.8903 162.805 11.8903C164.225 11.8903 164.828 12.4067 164.828 14.4937V15.0316C163.967 15.2253 163.063 15.505 162.396 15.7417C159.491 16.796 158.824 17.7642 158.824 18.9906C158.824 20.7765 160.137 21.6801 161.708 21.6801C162.977 21.6801 163.687 21.1207 164.871 19.9588C165.043 20.9701 165.774 21.6156 166.807 21.6156ZM160.739 18.6679C160.739 18.0224 160.976 17.2048 162.848 16.4732C163.3 16.3011 164.074 16.0429 164.828 15.8277V19.1412C163.601 20.0019 163.192 20.2601 162.461 20.2601C161.471 20.2601 160.739 19.8082 160.739 18.6679Z" fill="#8B9597"/>
<path d="M173.107 21.6801C175.882 21.6801 177.302 20.2386 177.302 18.6033C177.302 17.2478 176.485 16.2365 174.333 15.4404L173.666 15.2038C172.203 14.6659 171.687 14.3001 171.687 13.3534C171.687 12.4712 172.375 11.8903 173.688 11.8903C174.204 11.8903 174.699 12.0194 175.172 12.256L175.517 13.9773H176.635L176.721 11.7827C175.796 11.2233 174.871 10.9005 173.709 10.9005C171.299 10.9005 169.965 12.3636 169.965 13.9343C169.965 15.3974 170.998 16.2581 172.569 16.839L173.559 17.2048C174.914 17.6781 175.56 18.1515 175.56 19.0767C175.56 20.0449 174.785 20.7119 173.15 20.7119C172.483 20.7119 171.923 20.6043 171.407 20.3676L170.998 18.4957H169.815L169.901 20.8625C170.955 21.4004 171.902 21.6801 173.107 21.6801Z" fill="#8B9597"/>
<path d="M183.921 11.8903C185.255 11.8903 186.266 12.9876 186.266 14.214C186.266 14.838 186.03 15.3329 184.997 15.3329H181.081C181.318 12.837 182.716 11.8903 183.921 11.8903ZM184.05 10.9005C181.361 10.9005 179.101 13.0952 179.101 16.3872C179.101 19.6791 180.995 21.6801 183.9 21.6801C185.858 21.6801 187.235 20.7119 188.031 19.1843L187.514 18.7754C186.74 19.6791 185.901 20.2816 184.524 20.2816C182.458 20.2816 181.081 18.883 181.038 16.2365H187.902C187.988 15.9568 188.052 15.5265 188.052 15.0316C188.052 12.4282 186.288 10.9005 184.05 10.9005Z" fill="#8B9597"/>
<path d="M193.404 21.6801C196.18 21.6801 197.6 20.2386 197.6 18.6033C197.6 17.2478 196.782 16.2365 194.631 15.4404L193.964 15.2038C192.501 14.6659 191.984 14.3001 191.984 13.3534C191.984 12.4712 192.673 11.8903 193.985 11.8903C194.502 11.8903 194.996 12.0194 195.47 12.256L195.814 13.9773H196.933L197.019 11.7827C196.094 11.2233 195.169 10.9005 194.007 10.9005C191.597 10.9005 190.263 12.3636 190.263 13.9343C190.263 15.3974 191.296 16.2581 192.866 16.839L193.856 17.2048C195.212 17.6781 195.857 18.1515 195.857 19.0767C195.857 20.0449 195.082 20.7119 193.447 20.7119C192.78 20.7119 192.221 20.6043 191.704 20.3676L191.296 18.4957H190.112L190.198 20.8625C191.253 21.4004 192.199 21.6801 193.404 21.6801Z" fill="#8B9597"/>
</g>
<defs>
<clipPath id="clip0_226_645">
<rect width="198" height="28.5" fill="white" transform="translate(0 0.750031)"/>
</clipPath>
</defs>
</svg>
