<svg width="194" height="40" viewBox="0 0 194 40" fill="none" xmlns="http://www.w3.org/2000/svg">
<g clip-path="url(#clip0_214_630)">
<path d="M0.306152 10.4567V29.5204L17.004 39.0751V20.0115L0.306152 10.4567ZM7.26599 30.3166L3.09009 27.9279V15.2456L7.26599 17.6228V30.3166ZM14.223 34.2978L10.0442 31.912V27.1718L14.223 29.5662V34.2978ZM14.223 26.3756L10.0442 23.9898V19.2153L14.2172 21.6011L14.223 26.3756Z" fill="#303E45"/>
<path d="M5.95972 7.25751L3.17578 8.84996L19.8221 18.3703V37.4369L22.6061 35.8444V16.7779L5.95972 7.25751Z" fill="#00B1D4"/>
<path d="M11.5251 4.07259L8.74121 5.66504L25.3245 15.151V34.2892L28.1085 32.6967V13.5586L11.5251 4.07259Z" fill="#FFB700"/>
<path d="M17.0266 0.924911L14.2427 2.51737L30.889 12.0406V31.1043L33.6729 29.5118V10.4482L17.0266 0.924911Z" fill="#E60C96"/>
</g>
<path d="M55.2507 19.6107C56.3259 19.963 57.1786 20.5561 57.8089 21.3903C58.4391 22.206 58.7543 23.2255 58.7543 24.449C58.7543 26.1359 58.1055 27.4428 56.8079 28.3696C55.5103 29.2779 53.6195 29.7321 51.1355 29.7321H41.459V10.2679H50.5793C52.878 10.2679 54.6483 10.7221 55.8903 11.6304C57.1323 12.5202 57.7533 13.753 57.7533 15.3286C57.7533 16.2926 57.5308 17.1453 57.0859 17.8868C56.641 18.6283 56.0293 19.2029 55.2507 19.6107ZM45.0738 13.1041V18.4707H50.1901C51.4506 18.4707 52.4145 18.2483 53.0819 17.8034C53.7678 17.3399 54.1107 16.6726 54.1107 15.8013C54.1107 14.9115 53.7678 14.2442 53.0819 13.7993C52.4145 13.3359 51.4506 13.1041 50.1901 13.1041H45.0738ZM50.913 26.8959C53.7121 26.8959 55.1117 25.9598 55.1117 24.0875C55.1117 22.2152 53.7121 21.2791 50.913 21.2791H45.0738V26.8959H50.913Z" fill="#29383E"/>
<path d="M78.8786 26.7013V29.7321H64.2805V10.2679H78.4893V13.2988H67.8953V18.3595H77.2937V21.3347H67.8953V26.7013H78.8786Z" fill="#29383E"/>
<path d="M101.872 10.2679V29.7321H98.8967L88.1636 16.5521V29.7321H84.5767V10.2679H87.5519L98.285 23.448V10.2679H101.872Z" fill="#29383E"/>
<path d="M112.704 13.3266H106.253V10.2679H122.77V13.3266H116.319V29.7321H112.704V13.3266Z" fill="#29383E"/>
<path d="M135.972 30.0102C133.989 30.0102 132.2 29.5838 130.606 28.7311C129.012 27.8598 127.76 26.6642 126.852 25.1441C125.944 23.6055 125.489 21.8908 125.489 20C125.489 18.1092 125.944 16.4038 126.852 14.8837C127.76 13.3451 129.012 12.1495 130.606 11.2968C132.2 10.4255 133.989 9.98988 135.972 9.98988C137.956 9.98988 139.745 10.4255 141.339 11.2968C142.933 12.1495 144.184 13.3359 145.093 14.8559C146.001 16.376 146.455 18.0907 146.455 20C146.455 21.9094 146.001 23.6241 145.093 25.1441C144.184 26.6642 142.933 27.8598 141.339 28.7311C139.745 29.5838 137.956 30.0102 135.972 30.0102ZM135.972 26.8403C137.27 26.8403 138.438 26.553 139.476 25.9783C140.514 25.3851 141.33 24.5695 141.923 23.5314C142.516 22.4748 142.813 21.2976 142.813 20C142.813 18.7024 142.516 17.5346 141.923 16.4965C141.33 15.4398 140.514 14.6242 139.476 14.0496C138.438 13.4564 137.27 13.1598 135.972 13.1598C134.675 13.1598 133.507 13.4564 132.469 14.0496C131.431 14.6242 130.615 15.4398 130.022 16.4965C129.429 17.5346 129.132 18.7024 129.132 20C129.132 21.2976 129.429 22.4748 130.022 23.5314C130.615 24.5695 131.431 25.3851 132.469 25.9783C133.507 26.553 134.675 26.8403 135.972 26.8403Z" fill="#29383E"/>
<path d="M172.726 10.2679V29.7321H170.752V14.1608L163.105 27.2574H162.132L154.485 14.2442V29.7321H152.511V10.2679H154.207L162.66 24.6992L171.03 10.2679H172.726Z" fill="#29383E"/>
<path d="M180.736 10.2679H182.794V27.9525H193.694V29.7321H180.736V10.2679Z" fill="#29383E"/>
<defs>
<clipPath id="clip0_214_630">
<rect width="33.3671" height="38.1502" fill="white" transform="translate(0.306152 0.924911)"/>
</clipPath>
</defs>
</svg>
