<svg width="84" height="68" viewBox="0 0 84 68" fill="none" xmlns="http://www.w3.org/2000/svg">
<g clip-path="url(#clip0_226_694)">
<path d="M17.4996 24.9657L31.4363 36.7575C32.5182 37.6729 34.1041 37.6729 35.1859 36.7575L49.1227 24.9657C50.151 24.0953 49.5355 22.4138 48.1857 22.4138H18.4352C17.0854 22.4138 16.4699 24.0953 17.4996 24.9657Z" fill="url(#paint0_linear_226_694)"/>
<path d="M74.7585 10.6625C73.2668 10.0137 71.0843 9.48942 68.6164 9.48942C60.6379 9.48942 55.0128 15.5316 55.0128 22.24C55.0128 26.5154 57.8818 28.9122 61.2114 28.9122C64.6554 28.9122 67.297 26.7587 69.3058 23.8621H69.5346C69.3623 26.7587 71.4869 28.9122 73.7824 28.9122C79.1787 28.9122 84 24.44 84 16.3253C84 7.29094 77.2843 0.689697 67.297 0.689697C57.0432 0.689697 49.7338 6.93032 47.2674 15.1725H7.24138C3.24848 15.1725 0 18.4209 0 22.4138V60.069C0 64.0619 3.24848 67.3104 7.24138 67.3104H59.3793C63.3722 67.3104 66.6207 64.0619 66.6207 60.069V38.2145C69.2508 37.9669 71.6201 37.3412 73.9548 36.1811L73.0366 33.8552C70.6831 35.0993 67.6403 35.7496 64.3686 35.7496C55.873 35.7496 49.6165 30.1751 49.6165 21.1408C49.6165 10.1585 57.4806 3.17784 66.8365 3.17784C75.7332 3.17784 80.7283 8.80149 80.7283 16.6482C80.7283 22.9236 77.4552 26.5993 74.5283 26.5443C72.6339 26.4907 71.9445 24.5877 72.8063 20.476L74.7585 10.6625ZM7.24138 18.069H46.6258C46.4534 19.1813 46.3448 20.3109 46.3448 21.4652C46.3448 25.1163 47.347 28.2736 49.0343 30.85L36.0621 41.463C34.4661 42.7665 32.1532 42.7665 30.5572 41.463L3.9089 19.6592C4.7069 18.6961 5.89593 18.069 7.24138 18.069ZM20.4019 36.8966L2.89655 51.22V22.5731L20.4019 36.8966ZM59.3793 64.4138H7.24138C4.84593 64.4138 2.89655 62.4645 2.89655 60.069V54.9624L22.6901 38.7678L28.7251 43.7064C30.0532 44.7926 31.681 45.3357 33.3103 45.3357C34.9382 45.3357 36.5675 44.7926 37.8956 43.7064L43.932 38.7678L63.7241 54.9624V60.069C63.7241 62.4645 61.7748 64.4138 59.3793 64.4138ZM63.7241 38.3449V51.22L46.2188 36.8966L50.8403 33.1151C54.0511 36.4549 58.674 38.3405 63.7241 38.3449ZM69.5925 18.9235C68.9611 22.2777 65.9183 26.2807 62.5901 26.2807C60.0643 26.2807 58.8014 24.55 58.8014 22.1691C58.8014 16.9205 62.8769 12.4309 67.9285 12.4309C69.2493 12.4309 70.2254 12.6481 70.799 12.8103L69.5925 18.9235Z" fill="url(#paint1_linear_226_694)"/>
<path d="M44.8965 58.6207H21.7241V61.5172H44.8965V58.6207Z" fill="url(#paint2_linear_226_694)"/>
</g>
<defs>
<linearGradient id="paint0_linear_226_694" x1="33.3104" y1="21.207" x2="33.3104" y2="37.8639" gradientUnits="userSpaceOnUse">
<stop stop-color="#6DC7FF"/>
<stop offset="1" stop-color="#E6ABFF"/>
</linearGradient>
<linearGradient id="paint1_linear_226_694" x1="42" y1="-2.93099" x2="42" y2="71.0197" gradientUnits="userSpaceOnUse">
<stop stop-color="#1A6DFF"/>
<stop offset="1" stop-color="#C822FF"/>
</linearGradient>
<linearGradient id="paint2_linear_226_694" x1="33.3103" y1="-2.93105" x2="33.3103" y2="71.0196" gradientUnits="userSpaceOnUse">
<stop stop-color="#1A6DFF"/>
<stop offset="1" stop-color="#C822FF"/>
</linearGradient>
<clipPath id="clip0_226_694">
<rect width="84" height="66.6207" fill="white" transform="translate(0 0.689636)"/>
</clipPath>
</defs>
</svg>
