<svg width="142" height="72" viewBox="0 0 142 72" fill="none" xmlns="http://www.w3.org/2000/svg">
<path d="M17.9964 10.7089C17.3324 10.0253 16.4106 9.60442 15.3837 9.60442C14.3592 9.60442 13.4449 10.0253 12.7893 10.7089H12.7721C12.1102 11.3872 11.6994 12.3339 11.6994 13.3801C11.6994 14.4325 12.1102 15.3733 12.7721 16.0449L12.7893 16.0636C13.4449 16.7411 14.3592 17.1562 15.3837 17.1562C16.4106 17.1562 17.3324 16.7411 17.9964 16.0636L18.0039 16.0449C18.6688 15.3733 19.0741 14.4325 19.0741 13.3801C19.0741 12.3339 18.6688 11.3872 18.0039 10.7089H17.9964ZM15.3837 62.3954C16.4106 62.3954 17.3324 61.9667 17.9964 61.2958L18.0039 61.2764C18.6688 60.6066 19.0741 59.6598 19.0741 58.6193C19.0741 57.5672 18.6688 56.6246 18.0039 55.9428H17.9964C17.3324 55.2529 16.4106 54.8358 15.3837 54.8358C14.3592 54.8358 13.4449 55.2529 12.7893 55.9428H12.7721C12.1102 56.6246 11.6994 57.5672 11.6994 58.6193C11.6994 59.6598 12.1102 60.6066 12.7721 61.2764L12.7893 61.2958C13.4449 61.9667 14.3592 62.3954 15.3837 62.3954ZM35.4573 50.9552C36.3698 50.7092 37.1962 50.1091 37.7004 49.2013L37.7684 49.0686C38.217 48.209 38.2993 47.215 38.0593 46.3333C37.8175 45.3914 37.2254 44.5559 36.3413 44.0363L36.2895 44.0004C35.4281 43.5154 34.4475 43.4098 33.5467 43.6615C32.6304 43.8959 31.8067 44.5213 31.3053 45.4214C30.7972 46.3158 30.6912 47.3439 30.934 48.2904C31.1853 49.2217 31.7727 50.0626 32.6512 50.5882H32.6568C33.537 51.1073 34.5327 51.1999 35.4572 50.9552H35.4573ZM19.1628 32.1305C18.1956 31.1422 16.8609 30.5227 15.3837 30.5227C13.9085 30.5227 12.5777 31.1422 11.6125 32.1305C10.6499 33.1178 10.0567 34.4797 10.0567 35.9935C10.0567 37.5074 10.6499 38.8752 11.6125 39.8741C12.5777 40.8565 13.9085 41.4703 15.3837 41.4703C16.8609 41.4703 18.1956 40.8565 19.1628 39.8741C20.1272 38.8752 20.7203 37.5074 20.7203 35.9935C20.7203 34.4797 20.1272 33.1178 19.1628 32.1305ZM17.0377 25.6955C19.1816 26.0575 21.1074 27.1098 22.5791 28.6294H22.5904C22.8246 28.8684 23.0523 29.1316 23.2639 29.395L26.9426 27.2144C26.4477 25.6829 26.425 24.0818 26.8225 22.5795C27.3469 20.5693 28.6191 18.7689 30.5259 17.6412L30.5884 17.6004C32.4747 16.5068 34.6186 16.2793 36.5539 16.8165C38.5137 17.3547 40.2818 18.6644 41.3822 20.6157V20.6214C42.4778 22.5622 42.6997 24.7895 42.1773 26.7941C41.656 28.8046 40.379 30.6166 38.4739 31.7385L37.9714 32.0422H37.9205C36.158 32.902 34.2209 33.0365 32.4414 32.5564C30.9803 32.1594 29.6402 31.3231 28.5906 30.1373L24.9176 32.3114C25.3397 33.4565 25.573 34.6898 25.573 35.9935C25.573 37.2906 25.3397 38.5422 24.9176 39.6929L28.5906 41.8614C29.6402 40.657 30.9803 39.8393 32.4414 39.4415C34.4022 38.8925 36.5745 39.1258 38.4739 40.2602L38.5958 40.3183V40.324C40.4301 41.4644 41.6618 43.2232 42.1773 45.2103C42.6997 47.2035 42.4778 49.4315 41.3822 51.3762L41.316 51.5118L41.3083 51.5001C40.2082 53.3751 38.4738 54.6451 36.5594 55.1822C34.5958 55.7126 32.4224 55.486 30.5259 54.368V54.3526C28.619 53.223 27.3468 51.4188 26.8224 49.4121C26.425 47.9169 26.4477 46.3158 26.9426 44.7843L23.2638 42.6094C23.0522 42.8727 22.8245 43.1243 22.5903 43.3633L22.579 43.375C21.1074 44.8889 19.1815 45.9413 17.0377 46.2915V50.6473C18.5658 50.9746 19.9334 51.7578 21.0054 52.8563L21.0112 52.8679C22.4479 54.3332 23.3375 56.3747 23.3375 58.6193C23.3375 60.8565 22.4479 62.8863 21.0112 64.3594L21.0054 64.3824C19.5584 65.8547 17.5742 66.7666 15.3837 66.7666C13.2048 66.7666 11.2148 65.8547 9.77156 64.3824H9.76577V64.3594C8.32739 62.8863 7.43579 60.8565 7.43579 58.6193C7.43579 56.3747 8.32739 54.3332 9.76577 52.8679V52.8563H9.77156C10.8425 51.7578 12.2129 50.9746 13.7357 50.6473V46.2915C11.5916 45.9413 9.66956 44.8889 8.19991 43.375L8.18482 43.3633C6.34971 41.476 5.2002 38.8751 5.2002 35.9935C5.2002 33.1178 6.34971 30.5167 8.18482 28.6294H8.19991C9.66956 27.1098 11.5916 26.0574 13.7357 25.6955V21.3581C12.2129 21.0195 10.8425 20.2363 9.77161 19.1434H9.76583V19.1318C8.32745 17.6528 7.43585 15.625 7.43585 13.3801C7.43585 11.1471 8.32745 9.10153 9.76583 7.62864L9.77161 7.62269C11.2148 6.1445 13.2048 5.23328 15.3837 5.23328C17.5742 5.23328 19.5584 6.1445 21.0054 7.62269V7.62864H21.0112C22.4479 9.10153 23.3375 11.1471 23.3375 13.3801C23.3375 15.625 22.4479 17.6528 21.0112 19.1318L21.0054 19.1434C19.9335 20.2363 18.5658 21.0195 17.0377 21.3581V25.6955ZM37.7004 22.8023L37.6694 22.7548C37.1622 21.879 36.3527 21.2944 35.4573 21.0424C34.5327 20.791 33.537 20.8963 32.6512 21.4172H32.6568C31.7727 21.9312 31.1816 22.7723 30.934 23.714C30.6911 24.6491 30.7972 25.6829 31.3052 26.5832L31.3221 26.6065C31.8314 27.4949 32.6416 28.0912 33.5466 28.3312C34.4551 28.5945 35.4686 28.4833 36.3413 27.9624L36.3887 27.9391C37.248 27.4136 37.8205 26.5832 38.0593 25.6713C38.3031 24.7305 38.2056 23.7023 37.7004 22.8023" fill="#231F20"/>
<path d="M54.0225 24.0762H58.1271V36.9171L64.0464 30.2073H68.968L61.8219 37.9808L68.9977 47.8345H64.2979L58.1271 39.0329V47.8345H54.0225V24.0762Z" fill="#231F20"/>
<path d="M73.7363 39.0969C73.7363 41.2834 75.2709 44.4622 78.9681 44.4622C81.2558 44.4622 82.7613 43.2405 83.5422 41.6396C83.9509 40.8625 84.1392 40.0318 84.2024 39.1673C84.2308 38.331 84.0767 37.4609 83.7298 36.6887C83.0102 35.0235 81.4131 33.5796 78.9378 33.5796C75.6185 33.5796 73.7363 36.3381 73.7363 39.0677V39.0969ZM88.2742 47.8345H84.1676V45.2985C83.0747 47.3495 80.7864 48.3784 78.373 48.3784C72.8582 48.3784 69.6323 43.9771 69.6323 39.004C69.6323 33.4508 73.5481 29.6631 78.373 29.6631C81.506 29.6631 83.4164 31.3646 84.1676 32.7789V30.2072H88.2742V47.8345Z" fill="#231F20"/>
<path d="M92.9216 33.4508H90.7944V30.2073H92.9216V29.214C92.9216 23.9765 96.8077 23.6608 99.7543 23.626V26.8638C98.7181 26.8638 97.0282 26.8638 97.0282 29.3418V30.2073H99.7543V33.4508H97.0282V47.8345H92.9216V33.4508Z" fill="#231F20"/>
<path d="M102.545 24.0762H106.649V36.9171L112.569 30.2073H117.491L110.345 37.9808L117.519 47.8345H112.819L106.649 39.0329V47.8345H102.545V24.0762Z" fill="#231F20"/>
<path d="M122.259 39.0969C122.259 41.2834 123.793 44.4622 127.491 44.4622C129.775 44.4622 131.281 43.2405 132.063 41.6396C132.473 40.8625 132.662 40.0318 132.724 39.1673C132.752 38.331 132.598 37.4609 132.251 36.6887C131.532 35.0235 129.935 33.5796 127.461 33.5796C124.141 33.5796 122.259 36.3381 122.259 39.0677V39.0969ZM136.796 47.8345H132.69V45.2985C131.594 47.3495 129.308 48.3784 126.896 48.3784C121.381 48.3784 118.158 43.9771 118.158 39.004C118.158 33.4508 122.072 29.6631 126.896 29.6631C130.027 29.6631 131.939 31.3646 132.69 32.7789V30.2072H136.796V47.8345Z" fill="#231F20"/>
</svg>
