<svg width="168" height="54" viewBox="0 0 168 54" fill="none" xmlns="http://www.w3.org/2000/svg">
<g clip-path="url(#clip0_226_889)">
<path d="M26.5469 44.1651C25.2307 44.9549 23.9801 45.6789 22.6639 46.4028C22.1374 46.7319 21.6767 46.7319 21.1502 46.4028C18.1885 44.6258 15.161 42.9147 12.1994 41.1376C11.6071 40.8086 11.4096 40.2821 11.4096 39.624C11.4096 38.3077 11.4096 36.9914 11.4096 35.7409C11.4096 35.2802 11.278 34.9512 10.8831 34.6879C9.83007 33.8981 8.77705 33.0425 7.65821 32.2527C7.06589 31.7921 6.73682 31.2656 6.73682 30.4758C6.80264 28.0406 6.80264 25.6055 6.73682 23.1704C6.73682 22.4464 7.00007 21.9857 7.5266 21.525C8.57963 20.7352 9.63266 19.8797 10.6857 19.0899C11.1464 18.7608 11.3438 18.3659 11.3438 17.7736C11.278 16.5231 11.3438 15.2727 11.3438 14.0222C11.3438 13.364 11.6071 12.9034 12.1336 12.5743C14.7004 10.9289 17.2671 9.21778 19.768 7.57237C20.0313 7.37496 20.3604 7.24333 20.6894 7.1117C21.0844 6.98007 21.4134 7.1117 21.8083 7.37495C23.1904 8.29637 24.6383 9.21778 26.0204 10.1391C26.3495 10.4024 26.6127 10.3366 26.9418 10.1391C28.3239 9.21778 29.706 8.36217 31.0223 7.44077C31.7462 6.98007 32.3386 6.98007 33.0626 7.44077C35.6951 9.15191 38.3277 10.8631 40.9603 12.5743C41.4209 12.8375 41.6184 13.2324 41.6184 13.7589C41.6184 15.0752 41.6842 16.3915 41.6184 17.7078C41.6184 18.3001 41.8816 18.695 42.2765 19.0241C43.3954 19.8139 44.4484 20.7352 45.5014 21.525C46.0279 21.9199 46.2912 22.4464 46.2254 23.1046C46.2254 25.5397 46.2254 27.9748 46.2254 30.41C46.2254 31.1339 46.0279 31.5946 45.4356 32.0553C44.3168 32.8451 43.2637 33.7006 42.2107 34.5563C41.75 34.8853 41.5526 35.2802 41.5526 35.8725C41.6184 37.123 41.5526 38.3077 41.5526 39.5581C41.5526 40.2821 41.2893 40.7428 40.6312 41.1376C37.8012 42.7831 34.9711 44.4284 32.1411 46.1396C31.3513 46.6003 30.6932 46.6003 29.9034 46.1396C28.9163 45.5472 27.7315 44.889 26.5469 44.1651ZM41.75 31.9237C40.8944 31.3972 40.2363 30.9365 39.4465 30.6074C39.1174 30.4758 38.6567 30.5416 38.2618 30.4758C37.6037 30.3441 37.0772 29.9492 36.8798 29.2911C36.6165 28.633 36.6823 27.9748 37.143 27.4483C38.1302 26.2636 39.9072 26.5269 40.4996 27.909C40.6312 28.1065 40.697 28.4355 40.8286 28.5671C41.75 29.1595 42.6714 29.686 43.6586 30.2783C43.6586 30.1467 43.7244 30.0809 43.7244 30.0151C43.7244 27.9748 43.7244 25.9346 43.7244 23.8285C43.7244 23.4995 43.5928 23.3679 43.3954 23.2362C42.2107 22.3148 41.0919 21.3934 39.973 20.5378C39.3807 20.0771 39.0516 19.5506 39.1174 18.8266C39.1174 18.4976 39.1174 18.1026 39.1174 17.7078C38.8542 17.7078 38.6567 17.7078 38.3935 17.7078C37.2088 17.7078 35.9584 17.7078 34.7737 17.7078C34.2472 17.7078 33.8523 17.7736 33.3916 18.1026C32.7335 18.5634 31.812 18.4975 31.1539 18.0368C30.4958 17.5103 30.2325 16.6548 30.4958 15.9308C30.8906 14.7461 32.3386 14.2196 33.3916 14.8778C33.8523 15.141 34.2472 15.2727 34.7079 15.2727C35.8925 15.2727 37.143 15.2727 38.3277 15.2727C38.5909 15.2727 38.7883 15.2727 39.0516 15.2727C39.249 14.812 39.0516 14.5487 38.6567 14.3512C38.2618 14.088 37.867 13.8247 37.4721 13.5615C35.8267 12.5085 34.1814 11.3896 32.4702 10.3366C32.2069 10.2049 32.0095 10.0075 31.7462 10.2049C30.5616 10.9947 29.3111 11.7845 28.0606 12.5743C27.7974 12.7717 27.7315 12.9692 27.7315 13.2324C27.7315 15.865 27.7315 18.4975 27.7315 21.1301C27.7315 21.4592 27.8632 21.6566 28.1264 21.7883C28.7188 22.1173 29.2453 22.4464 29.8376 22.7755C30.2983 23.0388 30.759 23.302 31.3513 23.1704C32.3386 23.0388 33.5232 23.9602 33.3258 25.408C33.1942 26.2636 32.4702 26.9218 31.6804 26.9876C30.759 27.1193 29.9034 26.6585 29.5744 25.8029C29.4428 25.408 29.1795 25.2106 28.8504 25.0132C27.9948 24.4867 27.1392 23.9602 26.2837 23.4995C25.4939 23.1046 25.2307 22.5122 25.2965 21.6566C25.3623 18.8925 25.2965 16.0625 25.2965 13.2982C25.2965 12.8375 25.1648 12.5743 24.7699 12.3769C23.5852 11.6529 22.4006 10.8631 21.2818 10.1391C21.0185 9.94172 20.8211 10.0075 20.6236 10.1391C20.1629 10.4682 19.6364 10.7973 19.1099 11.1264C18.715 11.3896 18.5834 11.6529 18.5834 12.1136C18.5834 13.8247 18.5834 15.5359 18.5834 17.2471C18.5834 18.1026 18.0569 18.7608 17.3329 18.695C16.7406 18.695 16.0824 18.1685 16.0824 17.2471C16.1482 16.1283 16.0824 15.0094 16.0824 13.8905C16.0824 13.6273 16.0824 13.4299 16.0166 13.1008C15.2927 13.5615 14.7004 13.9564 14.108 14.3512C13.9764 14.4829 13.8448 14.7461 13.8448 14.9436C13.8448 16.0625 13.8448 17.1155 13.8448 18.2343C13.8448 18.4317 13.9764 18.695 14.108 18.8266C15.0952 19.5506 16.0824 20.2088 17.0697 20.9327C17.2671 21.0643 17.4646 21.0643 17.7278 20.9327C18.5834 20.472 19.439 19.9455 20.2945 19.4848C20.5578 19.3532 20.6894 19.1557 20.6894 18.8266C20.6894 17.971 20.6894 17.1155 20.6894 16.3257C20.6894 15.7992 20.6894 15.3385 20.6894 14.812C20.7553 14.0222 21.3476 13.4957 22.0057 13.5615C22.6639 13.6273 23.1246 14.1538 23.1246 14.8778C23.1246 16.5231 23.1246 18.1026 23.1246 19.7481C23.1246 20.5378 22.8613 20.9985 22.2032 21.3276C21.0844 21.9199 20.0313 22.5122 18.9783 23.1046C18.7808 23.2362 18.5834 23.302 18.5834 23.6311C18.5834 24.7499 18.5834 25.8687 18.5834 26.9876C18.8466 27.1193 19.0441 27.2509 19.2415 27.3167C20.1629 27.7774 21.0844 28.2381 22.0057 28.6988C22.5981 28.962 22.8613 29.4227 22.8613 30.0809C22.8613 30.4758 22.8613 30.8707 22.8613 31.3314C22.8613 32.0553 22.8613 32.7134 22.8613 33.5032C23.5194 33.1083 24.1118 32.8451 24.7041 32.516C24.8358 32.4502 24.9674 32.3844 25.0332 32.3186C25.1648 32.1211 25.2307 31.9237 25.2965 31.7262C25.2965 30.9365 25.2965 30.1467 25.2965 29.4227C25.2965 28.8962 25.1648 28.633 24.7041 28.3697C24.0459 27.9748 23.4536 27.58 22.8613 27.1851C22.0716 26.5927 22.1374 25.6055 22.9271 25.079C23.4536 24.7499 23.9143 24.8815 24.3092 25.2106C25.1648 25.7371 26.0204 26.3295 26.876 26.856C27.4683 27.1851 27.6657 27.7116 27.6657 28.3697C27.6657 30.41 27.6657 32.4502 27.6657 34.5563C27.6657 34.8195 27.6657 35.0828 27.6657 35.4119C28.5872 35.4119 29.3769 35.4119 30.1667 35.4119C30.2983 35.4119 30.4299 35.4119 30.5616 35.4119C30.6932 35.346 30.8906 35.2802 30.9565 35.2144C31.4171 34.8853 31.8779 34.7537 32.4044 34.7537C33.6549 34.8195 34.5104 36.07 34.1156 37.2546C33.6549 38.5051 32.2728 39.0316 31.0881 38.2419C30.759 37.9786 30.43 37.9128 30.0351 37.9128C29.4428 37.9128 28.7846 37.9128 28.1923 37.9128C27.9948 37.9128 27.8632 37.9786 27.6657 37.9786C27.6657 39.2949 27.6657 40.6111 27.6657 41.9274C27.6657 42.1907 27.8632 42.3224 28.0606 42.454C28.9163 42.9805 29.7718 43.4412 30.6274 43.9677C30.8906 44.1651 31.1539 44.1651 31.4171 43.9677C33.7865 42.5856 36.1558 41.1376 38.5251 39.7556C38.8541 39.5581 38.9858 39.3607 38.9858 38.9658C38.9858 37.847 39.0516 36.7939 38.9858 35.6751C38.92 34.5563 39.3149 33.7665 40.2363 33.2399C40.8286 32.7792 41.2235 32.3844 41.75 31.9237ZM12.7259 20.8011C11.6071 21.6566 10.5541 22.4464 9.50104 23.302C9.43517 23.3679 9.30356 23.4995 9.30356 23.6311C9.30356 24.2234 9.30356 24.8157 9.30356 25.5397C9.63266 25.3422 9.83007 25.2764 10.0934 25.1448C10.8173 24.7499 11.6071 24.2892 12.331 23.8285C13.1208 23.4337 13.9106 23.7627 14.1739 24.6183C14.3055 25.1448 14.108 25.6713 13.5157 26.0662C12.3968 26.7244 11.278 27.4483 10.0934 28.0406C9.50104 28.3697 9.30356 28.6988 9.30356 29.3569C9.30356 30.1467 9.50104 30.6732 10.1592 31.1997C11.278 31.9895 12.331 32.9109 13.4499 33.7006C13.7132 33.569 13.9106 33.5032 14.108 33.3716C15.0294 32.8451 15.9508 32.3186 16.8722 31.7921C17.662 31.3314 18.6492 31.8579 18.715 32.7134C18.7808 33.3716 18.386 33.7665 17.8595 34.0955C16.7406 34.6879 15.6217 35.346 14.5029 35.9383C14.0422 36.2016 13.8448 36.4648 13.8448 36.9255C13.8448 37.5837 13.8448 38.176 13.8448 38.8342C13.8448 39.2291 13.9764 39.4265 14.3055 39.624C15.0952 40.0846 15.885 40.5453 16.6748 41.006C17.1355 41.3351 17.5304 41.3351 18.0569 41.006C19.2415 40.2821 20.4262 39.624 21.6109 38.9658C22.269 38.6368 22.9929 38.8342 23.322 39.4923C23.6511 40.0846 23.3878 40.8086 22.7297 41.2035C22.0057 41.5984 21.2818 42.0591 20.5578 42.454C20.3604 42.5856 20.1629 42.7172 19.8996 42.8489C20.492 43.1779 20.9527 43.4412 21.4134 43.7702C21.7425 43.9677 22.0057 43.9677 22.3348 43.7702C23.1246 43.3096 23.9143 42.7831 24.7699 42.3224C25.1648 42.1249 25.2965 41.8616 25.2965 41.4009C25.2965 39.4265 25.2965 37.4521 25.2965 35.5435C25.2965 35.346 25.2965 35.1486 25.2307 34.9512C25.0332 35.017 24.9016 35.0828 24.7041 35.1486C23.1904 36.0042 21.6767 36.8597 20.0971 37.7153C19.3731 38.1102 18.6492 38.5051 17.9253 38.9C17.3329 39.2291 16.7406 39.0975 16.3457 38.7026C15.7534 38.0444 15.9508 37.1888 16.7406 36.7281C17.7278 36.1358 18.7808 35.6093 19.768 35.017C20.0971 34.8195 20.2945 34.6221 20.2945 34.1614C20.2287 33.1083 20.2945 31.9895 20.2945 30.9365C20.2945 30.6074 20.1629 30.41 19.8338 30.2783C19.3073 30.0809 18.8466 29.8176 18.386 29.5543C17.3329 29.0278 17.3329 29.0278 16.3457 29.686C15.5559 30.2125 14.7662 30.739 13.9764 31.1997C13.3841 31.5946 12.6601 31.3972 12.2652 30.8707C11.8703 30.3441 12.0019 29.6201 12.5943 29.1595C12.7259 29.0278 12.9234 28.8962 13.1208 28.8304C13.9106 28.3039 14.7662 27.7774 15.5559 27.2509C15.7534 27.1193 15.9508 26.9218 15.9508 26.7244C16.0166 25.5397 15.9508 24.355 15.9508 23.1704C14.9636 22.3806 13.8448 21.5908 12.7259 20.8011Z" fill="#A55AFF"/>
<path d="M69.9466 23.0582L68.9075 19.7081H63.8834L62.887 23.0582H59.5586L64.7314 8.3645H68.2295L73.4026 23.0582H69.9466ZM64.5618 17.4182H68.2507L66.385 11.2692L64.5618 17.4182Z" fill="#222E3F"/>
<path d="M88.2849 23.0585V15.7222C88.2849 14.761 87.8541 14.2803 86.992 14.2802C86.1901 14.2893 85.4008 14.4777 84.6811 14.8316V23.0585H81.5857V15.7222C81.5857 14.761 81.1542 14.2803 80.2927 14.2802C79.4809 14.2851 78.6817 14.4812 77.96 14.8529V23.0585H74.8652V12.2236H77.4093L77.685 13.2626C78.3133 12.8296 78.9932 12.477 79.7096 12.213C80.3066 12.0088 80.9336 11.9049 81.5644 11.9056C82.8362 11.9056 83.7341 12.3579 84.257 13.2626C84.8866 12.8281 85.5711 12.4786 86.2921 12.2235C86.9277 12.0116 87.5937 11.9043 88.2637 11.9056C88.6832 11.8795 89.1033 11.9395 89.4989 12.0816C89.8946 12.2238 90.2571 12.4452 90.5639 12.7324C90.8475 13.0435 91.0656 13.4083 91.206 13.8053C91.3465 14.2023 91.4055 14.6234 91.3803 15.0437V23.0585H88.2849Z" fill="#222E3F"/>
<path d="M100.369 23.0586L100.115 22.1044C99.6689 22.5053 99.1553 22.8247 98.5986 23.048C98.0724 23.2717 97.5071 23.3905 96.9346 23.3979C96.0128 23.443 95.1102 23.1231 94.4223 22.5074C94.1062 22.2009 93.8583 21.8307 93.696 21.4213C93.5329 21.0119 93.4594 20.5726 93.4793 20.1326C93.4667 19.498 93.6436 18.8742 93.9875 18.3409C94.3507 17.8049 94.8577 17.3822 95.4501 17.1215C96.1579 16.8102 96.9253 16.6582 97.698 16.6764C98.4548 16.6859 99.2083 16.7783 99.9452 16.952V15.8918C99.9452 15.2419 99.8107 14.7967 99.5423 14.5562C99.2732 14.3159 98.7789 14.1957 98.0585 14.1956C96.7536 14.2199 95.4594 14.4416 94.2208 14.853V12.7963C94.8464 12.4934 95.5091 12.276 96.1923 12.1496C96.9876 11.9867 97.7974 11.905 98.6092 11.9058C100.064 11.9058 101.128 12.199 101.8 12.7856C102.471 13.3723 102.807 14.2946 102.807 15.5525V23.0586H100.369ZM97.804 21.3199C98.1798 21.3152 98.5509 21.236 98.8955 21.0867C99.2752 20.9281 99.6291 20.7138 99.9452 20.4507V18.6058C99.3912 18.5129 98.8312 18.4633 98.2699 18.4575C97.0406 18.4575 96.4256 18.9522 96.4256 19.9417C96.4064 20.1275 96.4283 20.3153 96.4906 20.4914C96.5535 20.6674 96.6542 20.8273 96.7861 20.9594C96.9187 21.0915 97.0784 21.1924 97.254 21.2548C97.4303 21.3171 97.6178 21.3394 97.804 21.3199Z" fill="#222E3F"/>
<path d="M104.778 23.0584V20.8532L110.354 14.5135H104.99V12.2235H113.767V14.4288L108.128 20.7684H113.873V23.0584H104.778Z" fill="#222E3F"/>
<path d="M120.487 23.3767C118.805 23.3767 117.491 22.8714 116.545 21.8607C115.597 20.8502 115.123 19.4401 115.124 17.6305C115.124 15.8355 115.597 14.4326 116.545 13.4218C117.491 12.4113 118.805 11.906 120.487 11.9058C122.17 11.9058 123.484 12.4111 124.431 13.4218C125.378 14.4325 125.851 15.8354 125.852 17.6305C125.852 19.4402 125.378 20.8503 124.431 21.8607C123.484 22.8714 122.169 23.3767 120.487 23.3767ZM120.487 21.002C121.972 21.002 122.714 19.8782 122.714 17.6305C122.714 15.3973 121.972 14.2806 120.487 14.2804C119.003 14.2804 118.262 15.3971 118.261 17.6305C118.261 19.8781 119.003 21.0018 120.487 21.0019V21.002Z" fill="#222E3F"/>
<path d="M135.074 23.0582V15.9551C135.113 15.4979 134.977 15.0429 134.692 14.6829C134.536 14.5389 134.352 14.4287 134.151 14.3593C133.951 14.29 133.738 14.263 133.526 14.2801C132.703 14.2942 131.901 14.5444 131.216 15.001V23.0582H128.12V12.2233H130.664L130.961 13.3895C132.109 12.445 133.545 11.9213 135.031 11.9054C135.454 11.8783 135.876 11.9365 136.275 12.0768C136.674 12.217 137.041 12.4364 137.353 12.7217C137.638 13.0339 137.857 13.4005 137.998 13.7994C138.138 14.1984 138.196 14.6215 138.169 15.0435V23.0582H135.074Z" fill="#222E3F"/>
<path d="M63.9897 38.5682C62.7315 38.1019 61.8269 37.533 61.276 36.8614C60.7061 36.1347 60.4132 35.2291 60.4493 34.3063C60.4277 33.6976 60.5498 33.0925 60.8058 32.5398C61.0618 31.9872 61.4444 31.5028 61.9227 31.1257C62.9048 30.3342 64.2227 29.9384 65.8764 29.9384C67.2684 29.9397 68.6488 30.1986 69.9471 30.702V33.1189C68.7138 32.7172 67.4275 32.5028 66.131 32.4827C64.4631 32.4827 63.6292 33.0198 63.6292 34.0942C63.6245 34.279 63.661 34.4625 63.7361 34.6313C63.8113 34.8 63.9233 34.9499 64.0638 35.0699C64.5548 35.4285 65.1033 35.7008 65.6857 35.8753L67.2545 36.448C68.5693 36.9288 69.505 37.4908 70.0637 38.1337C70.6436 38.839 70.9418 39.7341 70.9007 40.6463C70.9285 41.3035 70.8013 41.958 70.5289 42.5567C70.2559 43.1553 69.8463 43.6813 69.3321 44.0917C68.2863 44.9328 66.8516 45.3534 65.0285 45.3534C64.2318 45.3529 63.4369 45.2784 62.654 45.1307C61.9543 45.0098 61.2712 44.807 60.6189 44.5263V42.1093C61.3627 42.3298 62.1206 42.4997 62.8873 42.618C63.6091 42.7381 64.3392 42.802 65.071 42.8091C65.7448 42.8495 66.4157 42.6909 67 42.3531C67.2174 42.2138 67.3937 42.0202 67.513 41.7914C67.6323 41.5627 67.6893 41.3067 67.6787 41.049C67.6879 40.8563 67.6561 40.6639 67.5852 40.4846C67.5136 40.3053 67.4043 40.1435 67.2651 40.0102C66.7626 39.635 66.1998 39.3481 65.6009 39.1619L63.9897 38.5682Z" fill="#222E3F"/>
<path d="M78.9567 44.993L78.7022 44.0387C78.2562 44.4397 77.7433 44.759 77.1866 44.9824C76.6598 45.2062 76.0945 45.325 75.5226 45.3322C74.6001 45.3774 73.6975 45.0575 73.0103 44.4418C72.6935 44.1354 72.4457 43.7652 72.2833 43.3558C72.121 42.9464 72.0468 42.5071 72.0666 42.067C72.054 41.4324 72.231 40.8085 72.5756 40.2752C72.9387 39.7392 73.4457 39.3166 74.0382 39.0561C74.7459 38.7446 75.5127 38.5927 76.2854 38.6108C77.0422 38.6203 77.7963 38.7128 78.5326 38.8865V37.8265C78.5326 37.1764 78.3987 36.7311 78.1297 36.4906C77.8613 36.2504 77.3669 36.1302 76.6459 36.13C75.341 36.1544 74.0474 36.376 72.8089 36.7873V34.7305C73.4338 34.4278 74.0971 34.2103 74.7804 34.084C75.5756 33.9211 76.3854 33.8394 77.1972 33.8402C78.6525 33.8402 79.7162 34.1334 80.3881 34.7199C81.0588 35.3068 81.3948 36.2292 81.3948 37.487V44.993H78.9567ZM76.3914 43.2544C76.7672 43.2498 77.1383 43.1705 77.4835 43.0213C77.8626 42.8625 78.2165 42.6481 78.5326 42.3851V40.5405C77.9792 40.4475 77.4193 40.3978 76.8579 40.392C75.6286 40.392 75.0137 40.8867 75.0137 41.876C74.9938 42.0619 75.0163 42.2497 75.0786 42.4257C75.1409 42.6018 75.2416 42.7618 75.3742 42.8939C75.506 43.026 75.6658 43.1269 75.842 43.1893C76.0183 43.2517 76.2058 43.2739 76.3914 43.2544Z" fill="#222E3F"/>
<path d="M90.7864 43.6784C90.0117 44.3875 88.9957 44.7742 87.9454 44.7598C87.3417 44.7805 86.7413 44.6577 86.1939 44.4015C85.6471 44.1453 85.168 43.7631 84.7976 43.286C84.0129 42.3036 83.6206 40.9926 83.6206 39.3529C83.6206 37.685 84.0162 36.3492 84.8075 35.3456C85.1793 34.8594 85.6624 34.4692 86.2151 34.2073C86.7684 33.9454 87.3761 33.8195 87.9878 33.8401C88.5617 33.8363 89.1303 33.9442 89.6624 34.1578C90.1873 34.3713 90.6631 34.6887 91.062 35.091L91.2946 34.1578H93.8388V44.1447C93.8388 45.8694 93.3583 47.2122 92.3974 48.1734C91.4358 49.1345 90.1071 49.6151 88.4119 49.6151C87.058 49.6192 85.7227 49.307 84.5113 48.7036V46.6255C85.6803 47.0234 86.9016 47.245 88.1362 47.2828C89.0693 47.2828 89.7439 47.0672 90.1608 46.6362C90.5776 46.2049 90.7857 45.5016 90.7864 44.5263V43.6784ZM88.8997 42.4696C89.2343 42.4681 89.567 42.4144 89.8851 42.3107C90.2052 42.2104 90.5087 42.0639 90.7864 41.8759V36.66C90.1707 36.2971 89.4656 36.1135 88.7512 36.1299C87.394 36.1299 86.7154 37.1759 86.7154 39.268C86.7154 40.3568 86.8923 41.1626 87.2456 41.6853C87.4298 41.9478 87.679 42.1582 87.9692 42.2956C88.2588 42.4331 88.5796 42.493 88.8997 42.4696Z" fill="#222E3F"/>
<path d="M98.9689 40.3284C99.0253 41.2612 99.3083 41.9362 99.8172 42.3533C100.326 42.7703 101.125 42.9788 102.213 42.9788C103.334 42.9518 104.447 42.7735 105.52 42.4487V44.5053C104.96 44.7824 104.364 44.9821 103.75 45.0991C103.049 45.2418 102.335 45.3128 101.619 45.3111C99.8238 45.3111 98.4567 44.8234 97.517 43.8481C96.5766 42.8728 96.1068 41.4451 96.1074 39.5651C96.1074 37.7558 96.5733 36.3493 97.5064 35.3457C98.4388 34.3418 99.7324 33.8399 101.386 33.8402C102.785 33.8402 103.863 34.2253 104.619 34.9955C105.375 35.7662 105.753 36.8654 105.754 38.2927C105.751 38.6471 105.73 39.001 105.689 39.3531C105.658 39.6806 105.609 40.0062 105.542 40.3284H98.9689ZM101.28 35.9815C100.978 35.9659 100.675 36.0135 100.392 36.1212C100.11 36.2288 99.8523 36.3943 99.6369 36.607C99.1996 37.1104 98.9557 37.753 98.9484 38.4199H103.104V38.0596C103.104 36.6744 102.496 35.9817 101.28 35.9815Z" fill="#222E3F"/>
<path d="M120.318 44.9928V34.8153L117.074 41.4096H114.233L110.989 34.8153V44.9928H108.191V30.2988H111.668L115.675 38.6531L119.703 30.2988H123.116V44.9928H120.318Z" fill="#222E3F"/>
<path d="M132.36 44.993L132.105 44.0387C131.659 44.4397 131.146 44.759 130.589 44.9823C130.063 45.2062 129.497 45.325 128.925 45.3322C128.003 45.3774 127.1 45.0575 126.413 44.4418C126.096 44.1354 125.849 43.7651 125.686 43.3558C125.524 42.9464 125.45 42.5071 125.469 42.067C125.457 41.4324 125.634 40.8085 125.978 40.2752C126.342 39.7393 126.849 39.3168 127.441 39.0561C128.148 38.7446 128.915 38.5927 129.688 38.6108C130.445 38.6203 131.198 38.7128 131.935 38.8865V37.8265C131.935 37.1764 131.801 36.7311 131.532 36.4906C131.264 36.2504 130.769 36.1302 130.049 36.13C128.744 36.1544 127.45 36.3759 126.212 36.7873V34.7305C126.837 34.4278 127.5 34.2103 128.183 34.084C128.978 33.9211 129.788 33.8394 130.6 33.8402C132.055 33.8402 133.119 34.1334 133.79 34.7199C134.462 35.3068 134.797 36.2292 134.798 37.487V44.993H132.36ZM129.794 43.2544C130.17 43.2498 130.541 43.1705 130.886 43.0213C131.265 42.8625 131.619 42.6481 131.935 42.3851V40.5405C131.382 40.4475 130.822 40.3978 130.261 40.392C129.031 40.392 128.416 40.8867 128.416 41.876C128.397 42.0619 128.419 42.2497 128.481 42.4257C128.544 42.6018 128.644 42.7617 128.777 42.8939C128.909 43.0259 129.069 43.1269 129.245 43.1892C129.421 43.2517 129.609 43.2739 129.794 43.2544Z" fill="#222E3F"/>
<path d="M137.574 44.993V29.3026H140.648V38.7804L144.401 34.1579H148.09L143.616 39.3316L148.429 44.993H144.655L140.648 40.0527V44.993H137.574Z" fill="#222E3F"/>
<path d="M151.334 40.3284C151.391 41.2612 151.673 41.9362 152.182 42.3533C152.691 42.7703 153.489 42.9788 154.578 42.9788C155.699 42.9518 156.812 42.7735 157.885 42.4487V44.5053C157.324 44.7824 156.729 44.9821 156.114 45.0991C155.413 45.2418 154.7 45.3128 153.984 45.3111C152.189 45.3111 150.821 44.8234 149.882 43.8481C148.941 42.8728 148.472 41.4451 148.472 39.5651C148.472 37.7558 148.938 36.3493 149.871 35.3457C150.804 34.3418 152.097 33.8399 153.751 33.8402C155.15 33.8402 156.228 34.2253 156.984 34.9955C157.74 35.7662 158.118 36.8654 158.118 38.2927C158.116 38.6471 158.095 39.001 158.054 39.3531C158.022 39.6806 157.973 40.0062 157.906 40.3284H151.334ZM153.645 35.9815C153.342 35.9659 153.04 36.0135 152.757 36.1212C152.475 36.2288 152.217 36.3943 152.002 36.607C151.564 37.1104 151.32 37.753 151.313 38.4199H155.468V38.0596C155.468 36.6744 154.861 35.9817 153.645 35.9815Z" fill="#222E3F"/>
<path d="M160.344 44.9929V34.1578H162.888L163.27 35.7694C163.723 35.2387 164.264 34.7904 164.87 34.4442C165.364 34.1847 165.913 34.05 166.47 34.0518C166.755 34.053 167.038 34.0744 167.319 34.1157V36.9782C166.886 36.8896 166.445 36.8468 166.004 36.8507C165.125 36.8432 164.254 37.0089 163.439 37.3384V44.9929H160.344Z" fill="#222E3F"/>
</g>
<defs>
<clipPath id="clip0_226_889">
<rect width="167" height="52.3532" fill="white" transform="translate(0.5 0.823364)"/>
</clipPath>
</defs>
</svg>
