<svg width="160" height="36" viewBox="0 0 160 36" fill="none" xmlns="http://www.w3.org/2000/svg">
<g clip-path="url(#clip0_226_861)">
<path d="M22.4048 9.94351C24.9937 9.94351 27.1005 7.82583 27.1005 5.22224C27.1005 2.61865 24.9946 0.500031 22.4048 0.500031C21.121 0.500031 19.8753 1.04272 18.9873 1.98753L13.3906 7.99897L21.4862 9.85136C21.6132 9.87091 22.0795 9.94351 22.4048 9.94351ZM21.1006 3.98607C21.4427 3.62397 21.9173 3.41639 22.4048 3.41639C23.3947 3.41639 24.2002 4.22623 24.2002 5.22131C24.2002 6.21639 23.3947 7.02623 22.4141 7.02716C22.352 7.0253 22.1925 7.00761 22.0303 6.98434L18.9623 6.28248L21.1006 3.98607Z" fill="#8B9597"/>
<path d="M24.417 20.0851L15.5585 16.9631L12.4719 8.11252C11.6294 5.59085 9.28801 3.89856 6.6454 3.89856C3.25662 3.89856 0.5 6.67063 0.5 10.0766C0.5 12.6765 2.1397 15.0157 4.57839 15.8963L13.4962 19.0379L16.5225 27.7116C17.3067 30.3003 19.7241 32.1015 22.4056 32.1015C25.7944 32.1015 28.551 29.3294 28.551 25.9225C28.5501 23.2919 26.8891 20.9462 24.417 20.0851ZM5.54979 13.1484C4.26417 12.6793 3.40029 11.4468 3.40029 10.0766C3.40029 8.27821 4.85554 6.81492 6.64447 6.81492C8.03947 6.81492 9.27596 7.70946 9.72088 9.04151L9.72737 9.06013L9.73386 9.07875L11.938 15.3992L5.54979 13.1484ZM22.4047 29.1842C20.9893 29.1842 19.7111 28.2301 19.2968 26.8627L19.2792 26.8049L19.2597 26.7472L17.1167 20.6036L23.4669 22.8404C24.772 23.2956 25.6489 24.5337 25.6489 25.9234C25.6489 27.7209 24.1936 29.1842 22.4047 29.1842Z" fill="#8B9597"/>
<path d="M6.64542 26.0565C4.05564 26.0565 1.94971 28.1742 1.94971 30.7778C1.94971 33.3814 4.05564 35.5 6.64542 35.5C7.92919 35.5 9.17495 34.9573 10.0629 34.0116L15.6596 28.002L7.66409 26.1701C7.3165 26.0938 6.97818 26.0565 6.64542 26.0565ZM7.95051 32.013C7.60848 32.3761 7.13298 32.5827 6.64542 32.5827C5.65548 32.5827 4.85 31.7738 4.85 30.7787C4.85 29.7836 5.65548 28.9747 6.64542 28.9747C6.76963 28.9747 6.89661 28.9887 7.03194 29.0185L10.088 29.7185L7.95051 32.013Z" fill="#8B9597"/>
<path d="M106.244 9.19789H99.9757C99.1668 9.19789 98.5113 9.85507 98.5113 10.6658V25.3463C98.5113 26.1571 99.1668 26.8142 99.9757 26.8142H106.244C109.112 26.8142 111.58 25.9374 113.383 24.2767C115.127 22.6692 116.087 20.4426 116.087 18.0056C116.087 15.5686 115.127 13.3411 113.383 11.7345C111.58 10.0757 109.111 9.19789 106.244 9.19789ZM106.244 23.8783H101.44V12.1347H106.244C110.379 12.1347 113.158 14.4944 113.158 18.0065C113.157 21.5186 110.379 23.8783 106.244 23.8783ZM154.537 8.97728C151.839 8.97728 150.917 11.2653 149.644 14.4293L147.192 20.4807C146.03 23.3701 145.61 24.098 144.925 24.098C144.318 24.098 143.917 23.5702 143.917 22.9196V10.6658C143.917 9.85507 143.261 9.19789 142.453 9.19789C141.643 9.19789 140.988 9.85507 140.988 10.6658V22.9205C140.988 25.1899 142.794 27.0349 145.016 27.0349C147.716 27.0349 148.636 24.7468 149.909 21.5838L152.36 15.5323C153.523 12.642 153.944 11.915 154.629 11.915C155.234 11.915 155.636 12.4428 155.636 13.0935V25.3482C155.636 26.1589 156.291 26.8161 157.1 26.8161C157.909 26.8161 158.565 26.1571 158.565 25.3463V13.0916C158.565 10.8232 156.758 8.97728 154.537 8.97728ZM128.355 8.81903C123.105 8.81903 118.834 12.9343 118.834 17.9944C118.834 23.0536 123.105 27.1689 128.355 27.1689C133.604 27.1689 137.875 23.0527 137.875 17.9944C137.875 12.9343 133.603 8.81903 128.355 8.81903ZM128.355 24.2339C124.72 24.2339 121.764 21.4339 121.764 17.9944C121.764 14.554 124.72 11.7549 128.355 11.7549C131.989 11.7549 134.946 14.554 134.946 17.9944C134.946 21.4339 131.989 24.2339 128.355 24.2339ZM73.976 23.8783H61.5251V19.0835H70.1304C70.9393 19.0835 71.5948 18.4263 71.5948 17.6156C71.5948 16.8048 70.9384 16.1476 70.1304 16.1476H61.5251V12.1347H73.0601C73.8691 12.1347 74.5255 11.4766 74.5255 10.6668C74.5255 9.856 73.8691 9.19882 73.0601 9.19882H60.0607C59.2518 9.19882 58.5954 9.856 58.5954 10.6668V25.3472C58.5954 26.158 59.2518 26.8152 60.0607 26.8152H73.976C74.7849 26.8152 75.4404 26.158 75.4404 25.3472C75.4404 24.5365 74.7849 23.8783 73.976 23.8783ZM49.714 17.8734L43.6759 15.4169C40.7927 14.2515 40.0665 13.8307 40.0665 13.1438C40.0665 12.5359 40.5937 12.1347 41.2417 12.1347H53.4685C54.2774 12.1347 54.9339 11.4766 54.9339 10.6668C54.9339 9.856 54.2774 9.19882 53.4685 9.19882H41.2417C38.9786 9.19882 37.1367 11.0103 37.1367 13.2359C37.1367 15.9419 39.4203 16.8644 42.5769 18.1396L48.615 20.5971C51.4992 21.7625 52.2244 22.1833 52.2244 22.8702C52.2244 23.4771 51.6973 23.8793 51.0492 23.8793H38.8224C38.0135 23.8793 37.358 24.5365 37.358 25.3472C37.358 26.158 38.0135 26.8152 38.8224 26.8152H51.0492C53.3132 26.8152 55.1542 25.0047 55.1542 22.7781C55.1542 20.0721 52.8706 19.1496 49.714 17.8734ZM93.933 23.8783H81.8485V10.6658C81.8485 9.85507 81.193 9.19789 80.3841 9.19789C79.5752 9.19789 78.9197 9.85507 78.9197 10.6658V25.3463C78.9197 26.1571 79.5752 26.8142 80.3841 26.8142H93.933C94.741 26.8142 95.3974 26.1571 95.3974 25.3463C95.3974 24.5355 94.741 23.8783 93.933 23.8783Z" fill="#8B9597"/>
</g>
<defs>
<clipPath id="clip0_226_861">
<rect width="159" height="35" fill="white" transform="translate(0.5 0.500031)"/>
</clipPath>
</defs>
</svg>
