<svg width="162" height="42" viewBox="0 0 162 42" fill="none" xmlns="http://www.w3.org/2000/svg">
<g clip-path="url(#clip0_226_672)">
<path d="M137.643 18.0794V0.976318H144.474L144.561 10.9931L144.647 21.0112L148.528 16.3691L152.409 11.727H156.591C158.891 11.727 160.773 11.8132 160.773 11.9166C160.773 12.0213 158.636 14.5837 156.023 17.6103L151.273 23.113L154.622 26.9486L159.894 32.9846L161.818 35.1837H152.723L148.848 30.3151C146.717 27.6369 144.862 25.439 144.728 25.4279C144.594 25.4181 144.484 27.6086 144.484 30.2966V35.1837H137.643V18.0794Z" fill="black"/>
<path d="M74.439 18.0794V0.976318H81.2814V35.1825H74.439V18.0794Z" fill="black"/>
<path d="M121.811 35.4989C114.267 34.0029 109.874 25.5659 113.041 18.6495C115.212 13.9065 119.147 11.349 124.276 11.349C127.833 11.349 130.059 12.2663 132.659 14.8016C133.787 15.9037 134.709 17.018 134.706 17.279C134.704 17.5401 133.524 18.3872 132.084 19.1617L129.466 20.5692L128.198 19.424C125.169 16.688 120.81 17.4207 119.101 20.9533C117.033 25.2236 120.461 29.8681 125.159 29.1638C126.247 29.0013 127.006 28.6023 128.043 27.6456L129.45 26.3477L131.836 27.6948C133.148 28.4361 134.356 29.1724 134.519 29.3312C134.901 29.7043 133.439 31.816 132.02 32.9415C129.04 35.3019 125.408 36.2119 121.812 35.4989H121.811Z" fill="black"/>
<path d="M95.2308 11.3467C91.9905 11.3727 88.5685 12.8665 86.7027 15.5688C84.8125 18.3064 84.375 19.7884 84.375 23.4515C84.375 26.6132 84.4525 27.0361 85.4012 29.0387C87.0064 32.4262 89.6768 34.7119 92.9219 35.4762C95.5715 36.1007 98.1736 35.6058 100.512 34.0319L102.13 32.9432V35.1797H108.972V11.7233H102.13V14.4569L101.071 13.4356C99.5806 11.9976 97.448 11.3287 95.2308 11.3467V11.3467ZM96.8574 17.7262C97.6839 17.7317 98.5339 17.9187 99.361 18.3236C99.7194 18.4992 100.489 19.0935 101.071 19.6447C102.112 20.6299 102.13 20.697 102.13 23.5587C102.13 26.4402 102.119 26.4796 101.036 27.501C100.434 28.0685 99.3545 28.7093 98.6365 28.9246C95.1685 29.9636 91.927 28.2506 91.093 24.9393C90.1241 21.0915 93.2751 17.703 96.8574 17.7265V17.7262Z" fill="black"/>
<path d="M58.9268 35.5297C55.7254 35.0212 51.96 33.4057 51.96 32.5413C51.96 32.2618 53.4252 28.6466 53.7626 28.0925C53.7922 28.0457 54.4608 28.3634 55.2501 28.7981C57.1217 29.8324 59.0598 30.3274 61.3673 30.3606C63.3817 30.3889 64.4591 29.9875 64.98 29.016C65.5981 27.8598 64.4801 27.1148 60.7565 26.2012C55.3313 24.8714 53.4302 23.5637 52.6384 20.6221C51.5056 16.4146 54.9582 12.1062 60.0153 11.4155C62.3671 11.0953 65.6473 11.4893 67.9512 12.3697C70.9679 13.5235 70.9667 13.5186 69.9459 16.2484C69.3007 17.9673 68.9325 18.5596 68.5754 18.4463C68.307 18.3601 67.1767 17.9107 66.0635 17.4453C62.4927 15.9504 58.8012 16.3777 58.8012 18.285C58.8012 19.1482 60.0719 19.85 63.2586 20.7477C69.2921 22.4469 71.5158 24.4244 71.4998 28.0814C71.4875 31.1819 69.8523 33.5239 66.7334 34.9103C65.1634 35.6085 61.334 35.9114 58.9268 35.5297V35.5297Z" fill="black"/>
<path d="M32.4131 17.4169C32.4131 14.4507 32.9795 12.9448 34.43 12.0607C38.2102 9.75564 42.5284 14.0739 40.2234 17.8541C39.3405 19.3033 37.8334 19.871 34.8671 19.871H32.4131V17.4169Z" fill="#2EB67D"/>
<path d="M23.9425 19.3009C21.9034 18.2826 21.6633 17.3098 21.6646 10.098C21.6646 4.37107 21.7261 3.64214 22.2999 2.70141C23.7246 0.365593 27.0073 -0.0185845 28.9503 1.92321L29.9698 2.94151L30.0597 9.85908C30.1447 16.3494 30.109 16.8432 29.4822 17.8541C28.7976 18.961 27.1464 19.871 25.8252 19.871C25.4176 19.871 24.5692 19.6136 23.9413 19.3009H23.9425Z" fill="#2EB67D"/>
<path d="M13.9515 8.7632C12.6524 8.38641 11.3263 6.83495 11.0517 5.36968C10.6429 3.19023 12.847 0.650024 15.1458 0.650024C16.4264 0.650024 18.1293 1.7262 18.7856 2.95013C19.2166 3.75295 19.3816 4.76263 19.3816 6.58991V9.12029L17.1824 9.09074C15.9733 9.07473 14.5191 8.92697 13.9515 8.7632V8.7632Z" fill="#36C5F0"/>
<path d="M2.92873 19.4117C-0.402003 17.9304 -0.670433 13.675 2.46082 11.9954C3.42372 11.4783 4.38784 11.4007 9.77119 11.4007C16.8181 11.4007 17.7083 11.6359 18.83 13.7981C19.9111 15.8815 18.8744 18.4586 16.5681 19.4215C15.0819 20.0434 4.3312 20.0347 2.92873 19.4105V19.4117Z" fill="#36C5F0"/>
<path d="M24.0399 30.0934C21.0638 28.6257 21.0182 24.3259 23.9623 22.7473C24.9252 22.2302 25.8881 22.1514 31.1963 22.1514C38.0893 22.1514 39.1371 22.3853 40.2231 24.1683C41.532 26.3145 40.6664 29.2241 38.4439 30.1525C36.7607 30.8568 25.4928 30.8088 24.0399 30.0934Z" fill="#ECB22E"/>
<path d="M24.04 40.8613C22.347 39.9994 21.8766 38.9565 21.719 35.7193L21.5786 32.8344L24.5289 32.9501C28.0037 33.0855 29.0417 33.6446 29.7965 35.7821C30.7076 38.3642 29.0971 40.9241 26.3574 41.2443C25.5558 41.3379 24.6963 41.1963 24.04 40.8626V40.8613Z" fill="#ECB22E"/>
<path d="M2.21204 29.9826C1.73914 29.6966 1.32734 29.3201 1.00023 28.8746C0.67313 28.4292 0.437158 27.9235 0.305839 27.3867C0.174521 26.8499 0.150437 26.2924 0.234974 25.7462C0.31951 25.2001 0.511002 24.676 0.798474 24.204C1.75398 22.6353 2.98285 22.1514 6.00698 22.1514H8.62969V24.8393C8.62846 26.9301 8.48686 27.7588 7.99187 28.5703C7.70586 29.0433 7.32928 29.4553 6.88373 29.7825C6.43817 30.1097 5.93241 30.3457 5.39544 30.4771C4.85846 30.6084 4.30085 30.6324 3.75457 30.5478C3.20829 30.4631 2.68409 30.2715 2.21204 29.9838V29.9826Z" fill="#E01E5A"/>
<path d="M12.963 40.7345C11.0779 39.5857 10.9116 38.8555 10.9116 31.7618C10.9116 24.6694 11.0779 23.9392 12.963 22.7904C13.6217 22.3925 14.3766 22.1822 15.1461 22.1822C15.9157 22.1822 16.6706 22.3925 17.3293 22.7904C19.2181 23.9417 19.3819 24.662 19.3807 31.8283C19.3794 37.65 19.3179 38.3789 18.7428 39.3209C18.4568 39.794 18.0803 40.2059 17.6347 40.5331C17.1891 40.8604 16.6834 41.0964 16.1464 41.2277C15.6094 41.359 15.0518 41.3831 14.5055 41.2984C13.9593 41.2138 13.4351 41.0221 12.963 40.7345V40.7345Z" fill="#E01E5A"/>
</g>
<defs>
<clipPath id="clip0_226_672">
<rect width="161.634" height="40.6999" fill="white" transform="translate(0.182617 0.650024)"/>
</clipPath>
</defs>
</svg>
