<svg width="136" height="72" viewBox="0 0 136 72" fill="none" xmlns="http://www.w3.org/2000/svg">
<path fill-rule="evenodd" clip-rule="evenodd" d="M119.757 36.2678C119.649 36.0347 119.6 35.9175 119.541 35.8056C117.972 32.8054 116.408 29.8051 114.823 26.8049C114.664 26.504 114.684 26.3264 114.901 26.067C117.398 23.1356 119.862 20.1881 122.362 17.2689C122.451 17.1659 122.529 17.0569 122.563 16.8732C121.837 17.0634 121.111 17.2515 120.381 17.4449C117.368 18.2477 114.331 19.0464 111.346 19.8613C111.066 19.9371 110.939 19.8548 110.798 19.6205C109.088 16.7459 107.366 13.8632 105.635 11.0252C105.547 10.8764 105.451 10.732 105.262 10.6076C105.123 11.3738 104.983 12.1361 104.847 12.9023C104.367 15.6066 103.887 18.2947 103.411 21.0111C103.359 21.3026 103.288 21.595 103.263 21.8869C103.239 22.1658 103.096 22.2688 102.843 22.3491C99.29 23.4721 95.7449 24.6033 92.1957 25.7345C92.04 25.7836 91.8872 25.8484 91.7198 26.0005C94.6237 27.16 97.5275 28.3196 100.472 29.4994C100.364 29.585 100.293 29.6515 100.215 29.7021C98.3999 30.882 96.581 32.0618 94.7701 33.2457C94.5527 33.3884 94.3809 33.4087 94.1369 33.298C91.967 32.3168 89.7811 31.3519 87.6032 30.3788C86.6271 29.9409 85.7519 29.3612 85.0703 28.5178C83.5256 26.6204 83.8322 24.4634 85.8891 23.1255C86.5626 22.6917 87.3289 22.3714 88.0912 22.12C91.5718 20.9807 95.0685 19.882 98.537 18.7792C98.8298 18.6855 98.9646 18.5542 99.021 18.2359C99.4889 15.5276 99.9688 12.803 100.457 10.1271C100.717 8.67969 100.854 7.19984 101.554 5.87C101.822 5.35914 102.143 4.86045 102.53 4.43474C103.917 2.88596 105.849 2.8292 107.329 4.30176C107.825 4.80045 108.249 5.38428 108.616 5.98838C110.229 8.6359 111.818 11.2996 113.415 13.9755C113.603 14.2906 113.771 14.3538 114.117 14.2622C118.009 13.2121 121.901 12.1782 125.813 11.1444C126.62 10.9307 127.431 10.8533 128.257 11.0085C130.052 11.3459 130.839 12.7195 130.23 14.4669C129.954 15.2616 129.475 15.9306 128.939 16.5671C126.221 19.7822 123.494 23.0136 120.792 26.2166C120.57 26.4793 120.565 26.6666 120.719 26.9626C122.349 30.048 123.962 33.1253 125.599 36.2471C125.987 36.985 126.285 37.7554 126.293 38.6027C126.312 40.5326 124.906 42.1139 122.998 42.3977C121.929 42.5546 120.937 42.3251 119.933 42.0145C117.493 41.2564 115.053 40.5103 112.593 39.7684C112.366 39.7003 112.279 39.6099 112.238 39.3646C111.957 37.6333 111.649 35.9062 111.351 34.1749C111.343 34.1275 111.357 34.0768 111.365 33.9706C114.152 34.745 116.931 35.5072 119.795 36.3059" fill="#E25A1C"/>
<path fill-rule="evenodd" clip-rule="evenodd" d="M114.917 61.6079C112.715 61.6046 110.521 61.5937 108.303 61.6034C108.011 61.6034 107.847 61.5195 107.686 61.2705C105.08 57.281 102.443 53.2834 99.8613 49.3101C99.7778 49.1836 99.6895 49.0615 99.5415 48.8479C98.9809 53.1455 98.4283 57.3621 97.8758 61.5787H92.1084C92.1762 61.0151 92.2362 60.4678 92.3072 59.9245C92.8678 55.5863 93.4365 51.2886 94.0012 46.9504C94.5416 42.8149 95.078 38.6794 95.6265 34.544C95.6422 34.4219 95.7241 34.265 95.8233 34.2001C97.8076 32.8987 99.8 31.6094 101.792 30.3201C101.821 30.301 101.862 30.2994 101.964 30.2694C101.363 34.8914 100.766 39.4729 100.165 44.0544C100.189 44.0702 100.213 44.0876 100.236 44.1034C103.362 40.6247 106.488 37.1299 109.674 33.6025C109.766 34.1377 109.846 34.5959 109.924 35.054C110.148 36.3636 110.364 37.6812 110.602 38.9908C110.651 39.2552 110.58 39.4165 110.405 39.603C108.385 41.7275 106.372 43.8601 104.355 46.009C104.267 46.1026 104.184 46.1991 104.083 46.3102C104.147 46.4128 104.203 46.5129 104.267 46.6046C107.74 51.5104 111.204 56.4162 114.673 61.322C114.736 61.4108 114.827 61.4805 114.904 61.5596V61.637" fill="#3C3A3E"/>
<path fill-rule="evenodd" clip-rule="evenodd" d="M46.757 48.6338C46.6687 48.1838 46.6058 47.5189 46.4057 46.8985C45.4378 43.9023 42.3847 42.2765 39.2267 43.0023C35.7542 43.8131 33.2577 46.558 32.935 50.138C32.6688 52.7733 34.0804 55.3276 36.702 56.2601C38.8154 57.0264 40.8561 56.7061 42.7517 55.5668C45.2563 54.0586 46.6114 51.8165 46.7849 48.6338H46.757ZM31.5117 59.7834C31.3415 61.0727 31.1778 62.285 31.0197 63.5013C30.8087 65.1149 30.5962 66.7326 30.3945 68.3666C30.3711 68.5551 30.3143 68.639 30.1126 68.6374C28.5276 68.6313 26.9426 68.6329 25.3535 68.6297C25.3172 68.6297 25.2809 68.6106 25.1958 68.5855C25.2918 67.8233 25.385 67.057 25.4842 66.2948C25.8338 63.6189 26.1819 60.943 26.5368 58.2671C26.9442 55.2019 27.2628 52.1449 27.7831 49.1041C28.7026 43.7118 33.2682 39.0898 38.5919 37.914C41.6853 37.241 44.6416 37.5527 47.3439 39.3046C50.038 41.048 51.5787 43.6023 51.9417 46.7647C52.4418 51.2651 50.7922 54.9952 47.6262 58.117C45.537 60.1483 43.0284 61.4376 40.1648 61.8755C37.1924 62.3255 34.3974 61.828 31.8969 60.0672C31.8053 60.0023 31.7061 59.9456 31.5488 59.8458" fill="#3C3A3E"/>
<path fill-rule="evenodd" clip-rule="evenodd" d="M28.8499 34.2405C27.0753 35.5704 25.3612 36.8516 23.6471 38.1368C23.3701 37.6989 23.1228 37.2611 22.8324 36.8516C22.0863 35.8015 21.1587 35.019 19.8116 34.9257C18.6904 34.8463 17.7305 35.2168 16.9682 36.0488C16.2866 36.7907 16.1979 37.8489 16.8343 38.6882C17.5361 39.6126 18.3024 40.4884 19.0889 41.3438C20.3916 42.7629 21.7508 44.1251 23.0414 45.5604C24.215 46.8578 25.1547 48.3093 25.4451 50.1013C25.7904 52.2096 25.3713 54.1963 24.3804 56.0613C22.5453 59.4873 19.6616 61.4942 15.8301 62.1023C14.1442 62.376 12.4664 62.3225 10.829 61.836C8.64704 61.1913 7.12654 59.752 6.15052 57.741C5.80568 57.0234 5.54151 56.2652 5.23096 55.4949C7.13864 54.4691 8.99792 53.4677 10.8774 52.4581C10.9419 52.6151 10.9891 52.7464 11.0492 52.8717C11.3706 53.5163 11.634 54.2015 12.0292 54.7975C13.211 56.5612 15.1146 57.0964 17.0303 56.2247C17.5264 55.9997 18.0064 55.6854 18.4137 55.3205C19.6559 54.2096 19.8899 52.6609 18.9703 51.2662C18.442 50.4634 17.7805 49.7417 17.1352 49.0241C15.5945 47.305 13.9894 45.6387 12.4971 43.875C11.4606 42.6668 10.7548 41.264 10.5289 39.6584C10.2849 37.8907 10.6362 36.2284 11.5493 34.7526C13.82 31.0591 17.115 29.1575 21.4709 29.2792C23.9593 29.3696 25.9477 30.5401 27.4802 32.4862C27.936 33.0619 28.3635 33.6579 28.8273 34.2823" fill="#3C3A3E"/>
<path fill-rule="evenodd" clip-rule="evenodd" d="M70.956 53.9044C70.666 56.1303 70.3913 58.2426 70.109 60.3509C70.0933 60.4588 70.0098 60.6043 69.9198 60.6457C65.6044 62.6486 59.9579 62.3688 56.4491 58.3387C54.5535 56.1737 53.759 53.5951 53.876 50.757C54.1514 44.1483 59.603 38.3506 66.1367 37.5397C69.9481 37.0694 73.2754 38.1032 75.8566 41.0832C77.6151 43.1104 78.4298 45.5431 78.3088 48.219C78.2301 49.9867 77.9543 51.7422 77.7361 53.4897C77.4255 55.9791 77.0868 58.4766 76.7601 60.9498C76.7476 61.0365 76.7302 61.1253 76.7097 61.238H71.5875C71.6553 60.6664 71.7182 60.1069 71.7908 59.5473C72.1627 56.6728 72.5732 53.7901 72.8999 50.9115C73.1032 49.1194 72.9753 47.3396 72.1578 45.6813C71.2907 43.9177 69.8388 42.9811 67.923 42.7784C63.9625 42.3567 60.1794 45.1218 59.3727 49.0221C58.8162 51.6088 59.6942 54.0901 61.7442 55.4686C63.7406 56.8025 65.858 56.8066 68.0359 55.943C69.141 55.5051 70.0767 54.8078 70.9721 53.8712" fill="#3C3A3E"/>
<path fill-rule="evenodd" clip-rule="evenodd" d="M92.735 38.2139C92.5003 40.0059 92.2672 41.7696 92.0332 43.5657C90.9443 43.5657 89.8795 43.5596 88.8148 43.5673C87.9517 43.5738 87.1652 44.1349 86.9031 44.9458C86.8022 45.2624 86.7647 45.6026 86.7204 45.9351C86.1799 50.0706 85.6435 54.1655 85.1071 58.2604C84.9716 59.2984 84.8409 60.3363 84.7054 61.3904H79.3413C79.4405 60.5998 79.5349 59.8335 79.6341 59.0673C79.9822 56.3995 80.3319 53.7155 80.6827 51.0801C80.9868 48.7731 81.2595 46.4581 81.6184 44.1471C82.0984 41.0657 85.1474 38.3088 88.2328 38.1871C89.7089 38.1223 91.1891 38.1762 92.7096 38.1762" fill="#3C3A3E"/>
<path d="M121.371 61.6077V59.3372H121.358L120.471 61.6077H120.189L119.302 59.3372H119.288V61.6077H118.844V58.8872H119.534L120.34 60.955L121.135 58.8872H121.82V61.6077H121.371ZM117.442 59.2521V61.6077H116.999V59.2521H116.152V58.8876H118.293V59.2521H117.446" fill="#3C3A3E"/>
<path d="M35.9884 30.4296H37.3153L37.0015 28.4105L35.9884 30.4296ZM37.525 31.7351H35.3189L34.6171 33.1176H33.0522L36.5006 26.6306H38.009L39.1826 33.1176H37.7347L37.5266 31.7351" fill="#3C3A3E"/>
<path d="M45.426 27.9564H44.6396L44.375 29.4524H45.1614C45.6374 29.4524 46.0124 29.139 46.0124 28.5483C46.0124 28.157 45.7761 27.9564 45.4236 27.9564H45.426ZM43.5224 26.6508H45.5873C46.6682 26.6508 47.4224 27.2995 47.4224 28.4104C47.4224 29.8133 46.4383 30.7539 45.0348 30.7539H44.1435L43.724 33.1257H42.377L43.5143 26.6387" fill="#3C3A3E"/>
<path d="M52.0002 30.4296H53.3271L53.0138 28.4105L52.0002 30.4296ZM53.5328 31.7351H51.3267L50.6249 33.1176H49.0601L52.5084 26.6306H54.0168L55.1905 33.1176H53.7425L53.5344 31.7351" fill="#3C3A3E"/>
<path d="M62.083 32.9026C61.6272 33.1118 61.1271 33.2367 60.623 33.2367C58.9169 33.2367 57.8481 31.9515 57.8481 30.3419C57.8481 28.2823 59.5703 26.551 61.6191 26.551C62.1314 26.551 62.5952 26.6747 62.9743 26.8835L62.7851 28.4363C62.5016 28.1213 62.043 27.9011 61.4784 27.9011C60.3047 27.9011 59.2602 28.9674 59.2602 30.204C59.2602 31.1447 59.849 31.8826 60.7766 31.8826C61.3453 31.8826 61.8938 31.6624 62.2649 31.3595L62.0854 32.9002" fill="#3C3A3E"/>
<path d="M70.553 30.5107H67.75L67.2942 33.1176H65.9512L67.0885 26.6306H68.4356L67.9839 29.193H70.7869L71.2427 26.6306H72.5897L71.4524 33.1176H70.1053L70.557 30.5107" fill="#3C3A3E"/>
<path d="M75.3926 33.1053L76.5299 26.6183H80.1033L79.8762 27.9238H77.6499L77.4229 29.1807H79.4677L79.2406 30.4862H77.1958L76.9687 31.7917H79.195L78.968 33.0972H75.3946" fill="#3C3A3E"/>
</svg>
