<svg width="148" height="48" viewBox="0 0 148 48" fill="none" xmlns="http://www.w3.org/2000/svg">
<g clip-path="url(#clip0_127_2161)">
<path d="M51.0743 12.1968C53.5751 12.1977 55.815 13.791 56.6364 16.153L60.9995 28.7199H61.0597L65.5798 16.0991C66.4168 13.7638 68.6436 12.1967 71.1243 12.1968L62.8326 33.8313H59.2266L50.9399 12.2005L51.0743 12.1968Z" fill="#003B49"/>
<path d="M84.1333 33.8313H82.2499C81.3065 33.8319 80.5293 33.0571 80.5273 32.1137V32.0886H80.4683C79.4161 33.4107 77.5541 34.1314 75.6608 34.1314C72.4767 34.1314 69.9229 32.4489 69.9229 29.2949C69.9229 26.4411 71.9656 24.6381 75.5729 24.4573L80.4105 24.2175V23.4968C80.4105 21.5142 78.8185 20.5525 77.136 20.5525C75.4536 20.5525 74.1315 21.4238 73.9206 23.1892H70.2531C70.6134 19.7992 73.2275 17.6019 77.1335 17.6019C81.2492 17.6019 84.0127 20.216 84.0127 23.9714V28.6571C84.0127 31.845 83.9826 32.7754 84.1333 33.8313ZM76.2019 27.2522C74.4893 27.3413 73.6481 28.0331 73.6481 29.1744C73.6481 30.4362 74.64 31.1268 75.9081 31.1268C78.8813 31.1268 80.4143 29.2949 80.4143 27.6426V27.0412L76.2019 27.2522Z" fill="#003B49"/>
<path d="M92.1309 25.8962C92.1309 21.2394 95.6753 17.6648 100.272 17.6648C104.869 17.6648 108.413 21.2394 108.413 25.8962C108.413 30.5531 104.869 34.1277 100.272 34.1277C95.6753 34.1277 92.1309 30.5531 92.1309 25.8962ZM104.686 25.8962C104.686 23.0424 102.794 21.0297 100.271 21.0297C97.747 21.0297 95.8548 23.0386 95.8548 25.8962C95.8548 28.7539 97.747 30.7628 100.271 30.7628C102.794 30.7628 104.686 28.7501 104.686 25.8962Z" fill="#003B49"/>
<path d="M140.555 33.8313H138.671C137.728 33.8285 136.955 33.0523 136.955 32.1099V32.0848H136.895C135.844 33.4069 133.982 34.1276 132.088 34.1276C128.904 34.1276 126.351 32.4451 126.351 29.2912C126.351 26.4373 128.393 24.6343 132.001 24.4535L136.829 24.2137V23.493C136.829 21.5105 135.236 20.5487 133.554 20.5487C131.871 20.5487 130.55 21.4201 130.34 23.1854H126.675C127.035 19.7954 129.649 17.5981 133.554 17.5981C137.671 17.5981 140.434 20.2122 140.434 23.9676V28.6533C140.434 31.845 140.404 32.7753 140.555 33.8313ZM132.623 27.2521C130.911 27.3413 130.07 28.0331 130.07 29.1744C130.07 30.4362 131.061 31.1268 132.322 31.1268C135.296 31.1268 136.829 29.2949 136.829 27.6426V27.0412L132.623 27.2521Z" fill="#003B49"/>
<path d="M142.537 13.849C142.537 12.5312 143.621 11.4471 144.94 11.4471C146.258 11.4471 147.343 12.5319 147.343 13.8503C147.343 15.1686 146.258 16.2534 144.94 16.2534C144.933 16.2534 144.928 16.2535 144.922 16.2535C143.614 16.2535 142.537 15.1767 142.537 13.868C142.537 13.8616 142.537 13.8553 142.537 13.849ZM146.743 17.9045V33.8312H143.138V17.9045H146.743Z" fill="#003B49"/>
<path d="M86.3247 11.5964V33.8311H89.9294V16.4693C89.8541 14.9048 88.9802 12.2456 86.3247 11.5964Z" fill="#003B49"/>
<path d="M124.089 24.0641V33.8311H120.484V24.4847C120.484 22.0803 119.434 20.8788 117.751 20.8788C115.617 20.8788 114.116 22.501 114.116 24.815V33.8311H110.51V11.5964C113.166 12.2456 114.04 14.9048 114.115 16.4693V19.8593H114.174C114.927 18.6878 116.518 17.5993 118.621 17.5993C121.511 17.6043 124.089 19.4977 124.089 24.0641Z" fill="#003B49"/>
<path d="M39.7852 40.12C48.6768 31.2284 48.6768 16.8123 39.7852 7.92076C30.8936 -0.970816 16.4775 -0.970812 7.58595 7.92076C-1.30563 16.8123 -1.30563 31.2284 7.58595 40.12C16.4775 49.0116 30.8936 49.0116 39.7852 40.12Z" fill="#003B49"/>
<path d="M23.6863 9.12329C19.7551 9.12329 9.2373 25.6402 9.2373 35.2665C9.2373 35.7872 9.25651 36.3027 9.29506 36.8134C12.944 40.9277 18.1876 43.286 23.6869 43.286C29.1863 43.286 34.4298 40.9277 38.0787 36.8134C38.1164 36.3036 38.1356 35.788 38.1365 35.2665C38.1428 25.6402 27.6187 9.12329 23.6863 9.12329Z" fill="#2DCCD3"/>
<path d="M23.6863 9.12329H23.6323V43.2858H23.6863C29.1862 43.2878 34.4308 40.9294 38.0788 36.8134C38.1164 36.3036 38.1357 35.788 38.1365 35.2665C38.1428 25.6402 27.6187 9.12329 23.6863 9.12329Z" fill="#B1E4E3"/>
<path d="M23.6872 17.8369C16.4326 17.8369 10.5503 25.885 10.5503 35.8102C10.5503 36.6238 10.5917 37.4236 10.6671 38.2083C17.9868 44.9424 29.3851 44.9424 36.7048 38.2083C36.7818 37.424 36.8207 36.6247 36.8216 35.8102C36.8216 25.885 30.9406 17.8369 23.6872 17.8369Z" fill="white"/>
<path d="M23.686 27.6415C28.4684 27.6415 32.5038 31.7848 33.7769 37.4449C34.056 36.1931 34.1963 34.9143 34.195 33.6318C34.195 26.1122 29.4904 20.0165 23.686 20.0165C17.8816 20.0165 13.1782 26.1122 13.1782 33.6318C13.177 34.9143 13.3172 36.1931 13.5963 37.4449C14.8695 31.7811 18.9048 27.6415 23.686 27.6415Z" fill="#003B49"/>
</g>
<defs>
<clipPath id="clip0_127_2161">
<rect width="146.688" height="46.0196" fill="white" transform="translate(0.65625 0.990234)"/>
</clipPath>
</defs>
</svg>
