<svg width="60" height="56" viewBox="0 0 60 56" fill="none" xmlns="http://www.w3.org/2000/svg">
<g clip-path="url(#clip0)">
<path fill-rule="evenodd" clip-rule="evenodd" d="M5.46667 49.0624H2.86667C2.38827 49.0624 2 49.4498 2 49.929C2 50.4083 2.38827 50.7957 2.86667 50.7957H5.46667C5.94507 50.7957 6.33333 50.4083 6.33333 49.929C6.33333 49.4498 5.94507 49.0624 5.46667 49.0624Z" fill="#18B7B7"/>
<path fill-rule="evenodd" clip-rule="evenodd" d="M11.5333 49.0624H8.06662C7.58822 49.0624 7.19995 49.4498 7.19995 49.929C7.19995 50.4083 7.58822 50.7957 8.06662 50.7957H11.5333C12.0117 50.7957 12.4 50.4083 12.4 49.929C12.4 49.4498 12.0117 49.0624 11.5333 49.0624Z" fill="#C5FCFF"/>
<path fill-rule="evenodd" clip-rule="evenodd" d="M17.6 49.0624H15C14.5216 49.0624 14.1333 49.4498 14.1333 49.929C14.1333 50.4083 14.5216 50.7957 15 50.7957H17.6C18.0784 50.7957 18.4666 50.4083 18.4666 49.929C18.4666 49.4498 18.0784 49.0624 17.6 49.0624Z" fill="#18B7B7"/>
<path fill-rule="evenodd" clip-rule="evenodd" d="M46.2001 49.0624H43.6001C43.1217 49.0624 42.7334 49.4498 42.7334 49.929C42.7334 50.4083 43.1217 50.7957 43.6001 50.7957H46.2001C46.6785 50.7957 47.0667 50.4083 47.0667 49.929C47.0667 49.4498 46.6785 49.0624 46.2001 49.0624Z" fill="#C5FCFF"/>
<path fill-rule="evenodd" clip-rule="evenodd" d="M40.1334 49.0624H36.6667C36.1883 49.0624 35.8 49.4498 35.8 49.929C35.8 50.4083 36.1883 50.7957 36.6667 50.7957H40.1334C40.6118 50.7957 41 50.4083 41 49.929C41 49.4498 40.6118 49.0624 40.1334 49.0624Z" fill="#18B7B7"/>
<path fill-rule="evenodd" clip-rule="evenodd" d="M53.1334 49.0624H49.6667C49.1883 49.0624 48.8 49.4498 48.8 49.929C48.8 50.4083 49.1883 50.7957 49.6667 50.7957H53.1334C53.6118 50.7957 54 50.4083 54 49.929C54 49.4498 53.6118 49.0624 53.1334 49.0624Z" fill="#18B7B7"/>
<path fill-rule="evenodd" clip-rule="evenodd" d="M34.0666 49.0624H32.2457C31.9 47.3672 30.5618 46.029 28.8666 45.6832V42.9957C28.8666 42.5164 28.4784 42.129 28 42.129C27.5216 42.129 27.1333 42.5164 27.1333 42.9957V45.6832C25.4381 46.029 24.1 47.3672 23.7542 49.0624H21.0666C20.5882 49.0624 20.2 49.4498 20.2 49.929C20.2 50.4083 20.5882 50.7957 21.0666 50.7957H23.7542C24.1572 52.7708 25.9078 54.2624 28 54.2624C30.0921 54.2624 31.8427 52.7708 32.2457 50.7957H34.0666C34.545 50.7957 34.9333 50.4083 34.9333 49.929C34.9333 49.4498 34.545 49.0624 34.0666 49.0624Z" fill="#C5FCFF"/>
<path fill-rule="evenodd" clip-rule="evenodd" d="M28 36.0624C27.5216 36.0624 27.1333 36.4498 27.1333 36.929V39.529C27.1333 40.0083 27.5216 40.3957 28 40.3957C28.4784 40.3957 28.8666 40.0083 28.8666 39.529V36.929C28.8666 36.4498 28.4784 36.0624 28 36.0624Z" fill="#18B7B7"/>
<path fill-rule="evenodd" clip-rule="evenodd" d="M28.8667 31.6415C30.8419 31.2385 32.3334 29.4887 32.3334 27.3957C32.3334 25.0063 30.3895 23.0624 28.0001 23.0624C25.6107 23.0624 23.6667 25.0063 23.6667 27.3957C23.6667 29.4887 25.1583 31.2385 27.1334 31.6415V33.4624C27.1334 33.9416 27.5217 34.329 28.0001 34.329C28.4785 34.329 28.8667 33.9416 28.8667 33.4624V31.6415Z" fill="#18B7B7"/>
<path fill-rule="evenodd" clip-rule="evenodd" d="M24.5341 39.5291C24.5341 39.0498 24.1458 38.6624 23.6674 38.6624H13.1331C7.9504 38.6624 3.73407 34.4461 3.73407 29.2625C3.73407 25.6624 6.0784 21.9253 9.30847 20.3766L9.80073 20.1417V19.5957C9.80073 19.4891 9.8068 19.3799 9.81373 19.2707L9.82153 19.1208L9.81113 18.9457C9.80593 18.8738 9.80073 18.8019 9.80073 18.7291C9.80073 15.3846 12.5221 12.6624 15.8674 12.6624C16.1343 12.6624 16.3995 12.6858 16.6613 12.7205C16.7297 12.7291 16.7965 12.7404 16.8641 12.7517C17.0946 12.7898 17.3234 12.8392 17.5479 12.9042C17.5782 12.9129 17.6094 12.9189 17.6389 12.9276C17.8867 13.0039 18.1268 13.0992 18.3634 13.2058C18.4241 13.2335 18.4839 13.2639 18.5437 13.2933C18.7525 13.3965 18.9571 13.51 19.1547 13.6383C20.8239 14.7199 21.9341 16.5962 21.9341 18.7291C21.9341 19.2083 22.3215 19.5957 22.8007 19.5957C23.2791 19.5957 23.6674 19.2083 23.6674 18.7291C23.6674 16.3423 22.5875 14.2059 20.8932 12.7742C23.3779 9.5242 27.4695 7.4624 31.5402 7.4624C38.2517 7.4624 43.8278 12.7794 44.4085 19.4987C43.5227 19.4363 42.1959 19.4042 40.8699 19.6061C40.3967 19.6781 40.0717 20.1192 40.1436 20.5924C40.2086 21.0223 40.5778 21.3291 40.999 21.3291C41.0423 21.3291 41.0865 21.3256 41.1307 21.3187C43.0582 21.0275 45.068 21.3005 45.1902 21.3169C49.2254 22.0848 52.2674 25.8019 52.2674 29.9715C52.2674 34.7633 48.3683 38.6624 43.5756 38.6624H32.3341C31.8548 38.6624 31.4674 39.0498 31.4674 39.5291C31.4674 40.0083 31.8548 40.3957 32.3341 40.3957H43.5756C49.3242 40.3957 54.0007 35.7192 54.0007 29.9715C54.0007 25.2143 50.6831 20.9477 46.1791 19.7639C45.7215 11.9639 39.2917 5.72906 31.5402 5.72906C26.8342 5.72906 22.2773 8.037 19.4537 11.8027C19.3887 11.7689 19.3193 11.7455 19.2535 11.7134C19.0836 11.6311 18.912 11.5531 18.7352 11.4829C18.6329 11.4421 18.5298 11.4049 18.4258 11.3693C18.2551 11.3095 18.0817 11.2567 17.9058 11.209C17.8018 11.1804 17.6978 11.1518 17.5929 11.1284C17.4023 11.0851 17.2081 11.0521 17.0123 11.0227C16.9213 11.0097 16.8311 10.9915 16.7393 10.9811C16.4524 10.949 16.1621 10.9291 15.8674 10.9291C11.5661 10.9291 8.0674 14.4278 8.0674 18.7291C8.0674 18.8409 8.07347 18.9501 8.08127 19.0593C4.4768 21.024 2.00073 25.1415 2.00073 29.2625C2.00073 35.4011 6.99447 40.3957 13.1331 40.3957H23.6674C24.1458 40.3957 24.5341 40.0083 24.5341 39.5291Z" fill="#18B7B7"/>
<circle cx="28" cy="50" r="2" fill="#18B7B7"/>
</g>
<defs>
<clipPath id="clip0">
<rect width="52" height="52" fill="white" transform="translate(2 4)"/>
</clipPath>
</defs>
</svg>
