<svg width="59" height="55" viewBox="0 0 59 55" fill="none" xmlns="http://www.w3.org/2000/svg">
<path d="M29.4999 16.6793C29.0751 16.6793 28.7329 17.0215 28.7329 17.4345V19.8299C28.7329 20.2547 29.0751 20.5851 29.4999 20.5851C29.9247 20.5851 30.2669 20.2429 30.2669 19.8299V17.4345C30.2669 17.0215 29.9247 16.6793 29.4999 16.6793Z" fill="#C5FCFF"/>
<path d="M29.4999 5.7998C29.0751 5.7998 28.7329 6.142 28.7329 6.555V8.9504C28.7329 9.3752 29.0751 9.7056 29.4999 9.7056C29.9247 9.7056 30.2669 9.3634 30.2669 8.9504V6.5668C30.2669 6.142 29.9247 5.7998 29.4999 5.7998Z" fill="#C5FCFF"/>
<path d="M28.7329 2.93241V3.51061C28.7329 3.93541 29.0751 4.26581 29.4999 4.26581C29.9247 4.26581 30.2669 3.92361 30.2669 3.51061V2.93241C30.3967 3.02681 30.5501 3.07401 30.7035 3.07401C30.9041 3.07401 31.0929 3.00321 31.2463 2.84981C31.5413 2.55481 31.5413 2.07101 31.2463 1.77601L30.0427 0.572407C30.0427 0.572407 30.0427 0.572407 30.0309 0.572407C29.9955 0.537007 29.9601 0.513406 29.9247 0.478006C29.9011 0.466206 29.8893 0.454406 29.8657 0.442606C29.8421 0.430806 29.8185 0.419006 29.7949 0.407206C29.7713 0.395406 29.7477 0.395406 29.7241 0.383606C29.7005 0.371806 29.6769 0.371806 29.6533 0.360006C29.6061 0.348206 29.5589 0.348206 29.5117 0.348206C29.5117 0.348206 29.5117 0.348206 29.4999 0.348206C29.4881 0.348206 29.4999 0.348206 29.4881 0.348206C29.4409 0.348206 29.3937 0.348206 29.3465 0.360006C29.3229 0.360006 29.2993 0.371806 29.2757 0.383606C29.2521 0.395406 29.2285 0.395406 29.2049 0.407206C29.1813 0.419006 29.1577 0.430806 29.1341 0.442606C29.1105 0.454406 29.0987 0.466206 29.0751 0.478006C29.0397 0.501606 29.0043 0.537007 28.9689 0.572407C28.9689 0.572407 28.9689 0.572407 28.9571 0.572407L27.7535 1.77601C27.4585 2.07101 27.4585 2.55481 27.7535 2.84981C28.0249 3.12121 28.4379 3.14481 28.7329 2.93241Z" fill="#18B7B7"/>
<path d="M16.6616 40.6924L14.573 41.896C14.2072 42.1084 14.0774 42.5686 14.2898 42.9344C14.4314 43.1822 14.691 43.312 14.9506 43.312C15.0804 43.312 15.2102 43.2766 15.3282 43.2058L17.4168 42.0022C17.7826 41.7898 17.9124 41.3296 17.7 40.9638C17.4876 40.6098 17.0156 40.48 16.6616 40.6924Z" fill="#C5FCFF"/>
<path d="M7.19798 46.1323L5.10938 47.3359C4.74358 47.5483 4.61378 48.0085 4.82618 48.3743C4.96778 48.6221 5.22738 48.7519 5.48698 48.7519C5.61678 48.7519 5.74658 48.7165 5.86458 48.6457L7.96498 47.4421C8.33078 47.2297 8.46058 46.7695 8.24818 46.4037C8.02398 46.0497 7.56378 45.9199 7.19798 46.1323Z" fill="#C5FCFF"/>
<path d="M2.4662 48.8463L1.9588 49.1413C1.9942 48.7755 1.77 48.4332 1.4042 48.3388C0.9912 48.2327 0.5782 48.4687 0.472 48.8817L0.0236001 50.5101C0.0118001 50.5573 0 50.6044 0 50.6634C0 50.687 0 50.7107 0 50.7343C0 50.7579 0 50.7932 0 50.8168C0 50.8404 0.0118001 50.864 0.0236001 50.8994C0.0236001 50.923 0.0353999 50.9467 0.0353999 50.9703C0.0471999 51.0175 0.0707999 51.0646 0.0943999 51.1118C0.118 51.1472 0.1416 51.1826 0.1652 51.218C0.177 51.2298 0.177 51.2299 0.1888 51.2417C0.2124 51.2653 0.2478 51.3007 0.2714 51.3243L0.2832 51.336C0.3186 51.3596 0.354 51.3832 0.3894 51.4068C0.4012 51.4068 0.413 51.4187 0.413 51.4187C0.4484 51.4423 0.4956 51.454 0.531 51.4658L2.1712 51.9024C2.242 51.9142 2.301 51.926 2.3718 51.926C2.714 51.926 3.0208 51.7018 3.1034 51.3597C3.1978 50.9939 3.0208 50.6281 2.6786 50.4747L3.186 50.1797C3.5518 49.9673 3.6816 49.5071 3.4692 49.1413C3.2922 48.7637 2.832 48.6457 2.4662 48.8463Z" fill="#18B7B7"/>
<path d="M44.4271 41.8842L42.3385 40.6806C41.9727 40.4682 41.5125 40.598 41.3001 40.9638C41.0877 41.3296 41.2175 41.7898 41.5833 42.0022L43.6719 43.2057C43.7899 43.2765 43.9197 43.3119 44.0495 43.3119C44.3091 43.3119 44.5687 43.1703 44.7103 42.9343C44.9227 42.5685 44.7929 42.0966 44.4271 41.8842Z" fill="#C5FCFF"/>
<path d="M37 30L29.5 25.5L22 30V38.5L29.5 43L37 38.5V30Z" fill="#C5FCFF"/>
<path d="M49.1589 44.61L47.3889 43.5952V24.3258C47.3889 24.3022 47.3889 24.2786 47.3889 24.2432C47.3889 24.2314 47.3889 24.2314 47.3889 24.2196C47.3889 24.1724 47.3771 24.137 47.3653 24.0898C47.3653 24.078 47.3535 24.0662 47.3535 24.0544C47.3417 24.0072 47.3181 23.9718 47.2945 23.9364C47.2709 23.901 47.2473 23.8656 47.2119 23.8302C47.2001 23.8184 47.2001 23.8184 47.1883 23.8066C47.1647 23.7712 47.1293 23.7476 47.0939 23.724L47.0821 23.7122C47.0585 23.7004 47.0349 23.6768 47.0113 23.665L30.2671 14.0362V11.9948C30.2671 11.57 29.9249 11.2396 29.5001 11.2396C29.0753 11.2396 28.7331 11.5818 28.7331 11.9948V14.0362L11.9889 23.665C11.9653 23.6768 11.9417 23.6886 11.9181 23.7122L11.9063 23.724C11.8709 23.7476 11.8355 23.783 11.8119 23.8066C11.8001 23.8184 11.8001 23.8184 11.7883 23.8302C11.7647 23.8656 11.7293 23.901 11.7057 23.9364C11.6821 23.9718 11.6703 24.019 11.6467 24.0544C11.6467 24.0662 11.6349 24.078 11.6349 24.0898C11.6231 24.1252 11.6113 24.1724 11.6113 24.2196C11.6113 24.2314 11.6113 24.2314 11.6113 24.2432C11.6113 24.2668 11.6113 24.2904 11.6113 24.3258V43.5834L9.84132 44.5982C9.47551 44.8106 9.34572 45.2708 9.55812 45.6366C9.69972 45.8844 9.95932 46.0142 10.2189 46.0142C10.3487 46.0142 10.4785 45.9788 10.5965 45.908L12.3665 44.8932L29.1107 54.522C29.1343 54.5338 29.1579 54.5456 29.1815 54.5574C29.1815 54.5574 29.1933 54.5574 29.1933 54.5692C29.2287 54.581 29.2759 54.5928 29.3231 54.6046C29.3349 54.6046 29.3467 54.6046 29.3585 54.6164C29.4057 54.6282 29.4529 54.6282 29.4883 54.6282C29.5237 54.6282 29.5827 54.6282 29.6181 54.6164C29.6299 54.6164 29.6417 54.6164 29.6535 54.6046C29.7007 54.5928 29.7361 54.581 29.7833 54.5692C29.7833 54.5692 29.7951 54.5692 29.7951 54.5574C29.8187 54.5456 29.8423 54.5338 29.8659 54.522L46.6101 44.8932L48.3801 45.908C48.4981 45.9788 48.6279 46.0142 48.7577 46.0142C49.0173 46.0142 49.2769 45.8726 49.4185 45.6366C49.6545 45.2826 49.5247 44.8224 49.1589 44.61ZM22.5263 31.0518L28.7331 34.6272V41.7662L22.5263 38.2026V31.0518ZM29.5001 26.1666L35.7069 29.7302L29.5001 33.3056L23.2933 29.7302L29.5001 26.1666ZM30.2671 34.6154L36.4739 31.04V38.179L30.2671 41.7426V34.6154ZM37.2291 28.857L30.2553 24.845V22.8862C30.2553 22.4614 29.9131 22.131 29.4883 22.131C29.0635 22.131 28.7213 22.4732 28.7213 22.8862V24.845L21.7475 28.857L13.8769 24.3376L29.4765 15.3696L45.0761 24.3376L37.2291 28.857ZM13.1335 25.6474L21.0041 30.1668V38.179L19.3049 39.1584C18.9391 39.3708 18.8093 39.831 19.0217 40.1968C19.1633 40.4446 19.4229 40.5744 19.6825 40.5744C19.8123 40.5744 19.9421 40.539 20.0601 40.4682L21.7593 39.4888L28.7331 43.5008V52.5514L13.1335 43.5834V25.6474ZM30.2671 52.5632V43.5126L37.2409 39.5006L38.9401 40.48C39.0581 40.5508 39.1879 40.5862 39.3177 40.5862C39.5773 40.5862 39.8369 40.4446 39.9785 40.2086C40.1909 39.8428 40.0611 39.3826 39.6953 39.1702L37.9961 38.1908V30.1786L45.8667 25.6592V43.607L30.2671 52.5632Z" fill="#18B7B7"/>
<path d="M53.8907 47.3358L51.8021 46.1322C51.4363 45.9198 50.9761 46.0496 50.7637 46.4154C50.5513 46.7812 50.6811 47.2414 51.0469 47.4538L53.1355 48.6574C53.2535 48.7282 53.3833 48.7636 53.5131 48.7636C53.7727 48.7636 54.0323 48.622 54.1739 48.386C54.3745 48.0084 54.2565 47.5364 53.8907 47.3358Z" fill="#C5FCFF"/>
<path d="M58.823 51.1944C58.8466 51.159 58.882 51.1236 58.8938 51.0882C58.9174 51.041 58.941 50.9938 58.9528 50.9466C58.9646 50.923 58.9646 50.8994 58.9646 50.8758C58.9764 50.8522 58.9764 50.8286 58.9882 50.7932C58.9882 50.7696 58.9882 50.7342 58.9882 50.7106C58.9882 50.687 58.9882 50.6634 58.9882 50.6398C58.9882 50.5926 58.9764 50.5454 58.9646 50.4864L58.528 48.8462C58.4218 48.445 57.997 48.1972 57.5958 48.3034C57.23 48.3978 57.0058 48.7518 57.0412 49.1058L56.5338 48.8108C56.168 48.5984 55.7078 48.7282 55.4954 49.094C55.283 49.4598 55.4128 49.92 55.7786 50.1324L56.286 50.4274C55.9556 50.5808 55.7668 50.9466 55.8612 51.3124C55.9556 51.6546 56.2624 51.8788 56.5928 51.8788C56.6636 51.8788 56.7226 51.867 56.7934 51.8552L58.4336 51.4186C58.4808 51.4068 58.5162 51.395 58.5516 51.3714C58.5634 51.3714 58.5752 51.3596 58.5752 51.3596C58.6106 51.336 58.646 51.3124 58.6814 51.2888L58.6932 51.277C58.7168 51.2534 58.7522 51.2298 58.7758 51.1944C58.8112 51.218 58.8112 51.2062 58.823 51.1944Z" fill="#18B7B7"/>
</svg>
