<svg width="58" height="54" viewBox="0 0 58 54" fill="none" xmlns="http://www.w3.org/2000/svg">
<g clip-path="url(#clip0)">
<path d="M16 3C15.6 3.8 15.5 5.33333 15.5 6V19.5C15.5 21.5 17.5 22.6667 18.5 23H22.5C23.3 23 23.8333 23.3333 24 23.5V26.5C24 28.5 25 28 25.5 27.5L31.5 23H39C41.4 23 42 20.6667 42 19.5V4.5C42 2.1 40 1.5 39 1.5H19C18 1.5 16.5 2 16 3Z" fill="#C5FCFF"/>
<path d="M0.92875 46.6704C0.749293 46.6704 0.568443 46.6188 0.408978 46.5104C-0.016417 46.2231 -0.127996 45.6448 0.159785 45.2198L3.62617 40.0946C3.91349 39.6688 4.49277 39.5577 4.91677 39.8455C5.34216 40.1328 5.45374 40.7111 5.16596 41.1361L1.69957 46.2612C1.52058 46.5272 1.22722 46.6704 0.92875 46.6704Z" fill="#18B7B7"/>
<path d="M56.7202 46.6705C56.417 46.6705 56.12 46.5226 55.9414 46.2506L52.5829 41.1259C52.3016 40.6959 52.4211 40.1198 52.8507 39.8381C53.2821 39.5564 53.8568 39.6773 54.1385 40.1059L57.497 45.2306C57.7783 45.6607 57.6588 46.2367 57.2292 46.5184C57.0716 46.6212 56.895 46.6705 56.7202 46.6705Z" fill="#18B7B7"/>
<path d="M54.8466 53.5H2.80249C1.25712 53.5 0 52.2429 0 50.6975V45.7406C0 45.2274 0.416561 44.8108 0.929825 44.8108H56.7193C57.2326 44.8108 57.6491 45.2274 57.6491 45.7406V50.6975C57.6491 52.2429 56.392 53.5 54.8466 53.5ZM1.85965 46.6704V50.6975C1.85965 51.2173 2.28272 51.6404 2.80249 51.6404H54.8462C55.3659 51.6404 55.789 51.2173 55.789 50.6975V46.6704H1.85965V46.6704Z" fill="#18B7B7"/>
<path d="M29.8081 46.121H27.9485V48.9374H29.8081V46.121Z" fill="#18B7B7"/>
<path d="M53.3607 41.5452H4.39613C3.88287 41.5452 3.46631 41.1287 3.46631 40.6154V12.0396C3.46631 10.4635 4.74854 9.18176 6.32412 9.18176H15.5582C16.0715 9.18176 16.488 9.59832 16.488 10.1116C16.488 10.6249 16.0715 11.0414 15.5582 11.0414H6.32459C5.77367 11.0414 5.32642 11.4891 5.32642 12.0396V39.6856H52.4313V12.0396C52.4313 11.4887 51.9836 11.0414 51.4336 11.0414H42.0903C41.577 11.0414 41.1605 10.6249 41.1605 10.1116C41.1605 9.59832 41.577 9.18176 42.0903 9.18176H51.4332C53.0092 9.18176 54.2905 10.464 54.2905 12.0396V40.6154C54.2905 41.1291 53.8744 41.5452 53.3607 41.5452Z" fill="#18B7B7"/>
<path d="M24.4734 28.8978C23.6161 28.8978 22.9188 28.2004 22.9188 27.3431V23.9186H18.8759C16.5341 23.9186 14.6289 22.0134 14.6289 19.6716V4.74744C14.6289 2.40568 16.5341 0.5 18.8759 0.5H38.7802C39.9155 0.5 40.9825 0.943526 41.7849 1.74875C42.5859 2.55259 43.0248 3.61817 43.0206 4.75069V19.6781C43.0206 22.0199 41.115 23.9255 38.7732 23.9255H31.6238L25.3981 28.59C25.1145 28.7946 24.7993 28.8978 24.4734 28.8978ZM18.8759 2.35965C17.5597 2.35965 16.4886 3.43081 16.4886 4.74744V19.6721C16.4886 20.9882 17.5597 22.0594 18.8759 22.0594H23.8486C24.3618 22.0594 24.7784 22.4759 24.7784 22.9892V26.7313L30.7562 22.2518C30.9171 22.1314 31.1128 22.0664 31.3137 22.0664H38.7727C40.0894 22.0664 41.1605 20.9952 41.1605 19.6786V4.74744C41.1628 4.11004 40.9164 3.51217 40.4673 3.0612C40.0164 2.60884 39.4171 2.35965 38.7797 2.35965H18.8759Z" fill="#18B7B7"/>
<path d="M29.6751 14.9867C29.4622 14.7505 29.1683 14.6255 28.8248 14.6255C28.4812 14.6255 28.1874 14.7505 27.974 14.9872C27.775 15.2085 27.6699 15.4833 27.6699 15.7808C27.6699 16.0793 27.775 16.3536 27.974 16.5744C28.1864 16.811 28.4803 16.9361 28.8248 16.9361C29.1693 16.9361 29.4631 16.811 29.6751 16.5749C29.8745 16.354 29.9796 16.0793 29.9796 15.7808C29.9796 15.4833 29.8745 15.2085 29.6751 14.9867Z" fill="#18B7B7"/>
<path d="M28.0489 13.7542L28.1057 14.1833H29.5432L29.5999 13.7542C29.6603 13.2995 29.711 12.8434 29.7505 12.3859C29.791 11.9219 29.8114 11.4017 29.8114 10.8396V8.49182H27.8374V10.8396C27.8374 11.4017 27.8579 11.9219 27.8983 12.3859C27.9378 12.8434 27.9885 13.2995 28.0489 13.7542Z" fill="#18B7B7"/>
<path d="M28.8244 19.8911C24.769 19.8911 21.47 16.5916 21.47 12.5366C21.47 8.48165 24.769 5.1817 28.8244 5.1817C32.8798 5.1817 36.1789 8.48118 36.1789 12.5361C36.1789 16.5911 32.8798 19.8911 28.8244 19.8911ZM28.8244 7.04135C25.7941 7.04135 23.3296 9.50632 23.3296 12.5361C23.3296 15.566 25.7941 18.0314 28.8244 18.0314C31.8547 18.0314 34.3192 15.5664 34.3192 12.5366C34.3192 9.50678 31.8547 7.04135 28.8244 7.04135Z" fill="#18B7B7"/>
</g>
<defs>
<clipPath id="clip0">
<rect width="57.6493" height="53" fill="white" transform="translate(0 0.5)"/>
</clipPath>
</defs>
</svg>
