<svg width="100" height="100" viewBox="0 0 100 100" fill="none" xmlns="http://www.w3.org/2000/svg">
<rect x="0.5" y="0.5" width="99" height="99" rx="3.5" fill="white"/>
<rect x="0.5" y="0.5" width="99" height="99" rx="3.5" stroke="#DBE5E7"/>
<g style="mix-blend-mode:multiply">
<mask id="path-2-inside-1_2660_3" fill="white">
<path d="M50 25C54.1113 25 58.1591 26.0139 61.7849 27.952C65.4107 29.89 68.5026 32.6923 70.7867 36.1107C73.0708 39.5291 74.4766 43.4581 74.8796 47.5496C75.2826 51.641 74.6703 55.7688 73.097 59.5671C71.5237 63.3654 69.0379 66.7171 65.8598 69.3253C62.6818 71.9334 58.9095 73.7176 54.8773 74.5196C50.845 75.3217 46.6771 75.117 42.7429 73.9235C38.8086 72.7301 35.2294 70.5848 32.3223 67.6777L50 50V25Z"/>
</mask>
<path d="M50 25C54.1113 25 58.1591 26.0139 61.7849 27.952C65.4107 29.89 68.5026 32.6923 70.7867 36.1107C73.0708 39.5291 74.4766 43.4581 74.8796 47.5496C75.2826 51.641 74.6703 55.7688 73.097 59.5671C71.5237 63.3654 69.0379 66.7171 65.8598 69.3253C62.6818 71.9334 58.9095 73.7176 54.8773 74.5196C50.845 75.3217 46.6771 75.117 42.7429 73.9235C38.8086 72.7301 35.2294 70.5848 32.3223 67.6777L50 50V25Z" fill="#FFBB94"/>
<path d="M50 25C54.1113 25 58.1591 26.0139 61.7849 27.952C65.4107 29.89 68.5026 32.6923 70.7867 36.1107C73.0708 39.5291 74.4766 43.4581 74.8796 47.5496C75.2826 51.641 74.6703 55.7688 73.097 59.5671C71.5237 63.3654 69.0379 66.7171 65.8598 69.3253C62.6818 71.9334 58.9095 73.7176 54.8773 74.5196C50.845 75.3217 46.6771 75.117 42.7429 73.9235C38.8086 72.7301 35.2294 70.5848 32.3223 67.6777L50 50V25Z" stroke="white" stroke-width="1.2" mask="url(#path-2-inside-1_2660_3)"/>
</g>
<g style="mix-blend-mode:multiply" opacity="0.8">
<mask id="path-3-inside-2_2660_3" fill="white">
<path d="M32.3223 67.6777C30.0009 65.3562 28.1594 62.6002 26.903 59.5671C25.6466 56.5339 25 53.283 25 50C25 46.717 25.6466 43.4661 26.903 40.4329C28.1594 37.3998 30.0009 34.6438 32.3223 32.3223L50 50L32.3223 67.6777Z"/>
</mask>
<path d="M32.3223 67.6777C30.0009 65.3562 28.1594 62.6002 26.903 59.5671C25.6466 56.5339 25 53.283 25 50C25 46.717 25.6466 43.4661 26.903 40.4329C28.1594 37.3998 30.0009 34.6438 32.3223 32.3223L50 50L32.3223 67.6777Z" fill="#EBBEA1"/>
<path d="M32.3223 67.6777C30.0009 65.3562 28.1594 62.6002 26.903 59.5671C25.6466 56.5339 25 53.283 25 50C25 46.717 25.6466 43.4661 26.903 40.4329C28.1594 37.3998 30.0009 34.6438 32.3223 32.3223L50 50L32.3223 67.6777Z" stroke="white" stroke-width="1.2" mask="url(#path-3-inside-2_2660_3)"/>
</g>
<g style="mix-blend-mode:multiply" opacity="0.5">
<mask id="path-4-inside-3_2660_3" fill="white">
<path d="M32.3223 32.3223C34.6438 30.0009 37.3998 28.1594 40.4329 26.903C43.4661 25.6466 46.717 25 50 25V50L32.3223 32.3223Z"/>
</mask>
<path d="M32.3223 32.3223C34.6438 30.0009 37.3998 28.1594 40.4329 26.903C43.4661 25.6466 46.717 25 50 25V50L32.3223 32.3223Z" fill="#EBBEA1"/>
<path d="M32.3223 32.3223C34.6438 30.0009 37.3998 28.1594 40.4329 26.903C43.4661 25.6466 46.717 25 50 25V50L32.3223 32.3223Z" stroke="white" stroke-width="1.2" mask="url(#path-4-inside-3_2660_3)"/>
</g>
</svg>
