<svg width="120" height="18" viewBox="0 0 120 18" fill="none" xmlns="http://www.w3.org/2000/svg">
<path fill-rule="evenodd" clip-rule="evenodd" d="M3.07486 1.44935L8.04048 14.8391C8.19054 15.2394 8.17357 15.6317 7.98958 16.0152C7.80682 16.3982 7.50948 16.6631 7.09754 16.8084C6.68776 16.9544 6.28538 16.9374 5.89226 16.7589C5.49852 16.5801 5.22708 16.29 5.07717 15.8896L0.111245 2.50067L0.100758 2.47197C-0.0488415 2.0717 -0.0318767 1.68029 0.151807 1.29669C0.335336 0.913397 0.631759 0.648952 1.04246 0.502906C1.4544 0.35686 1.85647 0.373989 2.24944 0.552339C2.64364 0.731441 2.91477 1.02098 3.06437 1.42125L3.07486 1.44935Z" fill="#313B3D"/>
<path fill-rule="evenodd" clip-rule="evenodd" d="M10.3765 1.39576L5.41088 14.7856C5.26082 15.1858 5.27778 15.5781 5.46177 15.9616C5.64453 16.3446 5.94188 16.6095 6.35382 16.7548C6.7636 16.9008 7.16597 16.8838 7.5591 16.7053C7.95284 16.5265 8.22427 16.2364 8.37418 15.836L13.3401 2.44708L13.3506 2.41838C13.5002 2.01811 13.4832 1.6267 13.2995 1.2431C13.116 0.859808 12.8196 0.595363 12.4089 0.449317C11.997 0.303271 11.5949 0.3204 11.2019 0.49875C10.8077 0.677852 10.5366 0.96739 10.387 1.36766L10.3765 1.39576Z" fill="#313B3D"/>
<path fill-rule="evenodd" clip-rule="evenodd" d="M20.6419 1.39576L15.6763 14.7856C15.5263 15.1858 15.5432 15.5781 15.7272 15.9616C15.91 16.3446 16.2073 16.6095 16.6193 16.7548C17.029 16.9008 17.4314 16.8838 17.8245 16.7053C18.2183 16.5265 18.4897 16.2364 18.6396 15.836L23.6056 2.44708L23.616 2.41838C23.7656 2.01811 23.7487 1.6267 23.565 1.2431C23.3815 0.859808 23.085 0.595363 22.6743 0.449317C22.2624 0.303271 21.8603 0.3204 21.4674 0.49875C21.0732 0.677852 20.802 0.96739 20.6524 1.36766L20.6419 1.39576Z" fill="#313B3D"/>
<path fill-rule="evenodd" clip-rule="evenodd" d="M58.2465 0C58.6836 0 59.0557 0.152188 59.3623 0.456413C59.6697 0.760338 59.823 1.12541 59.823 1.55117C59.823 1.87583 59.724 2.1745 59.5265 2.44853L53.4384 10.6012V14.9658C53.4384 15.3408 53.311 15.6734 53.0559 15.9623C52.8006 16.251 52.486 16.4259 52.1118 16.4869H52.0803C52.0488 16.4869 52.0228 16.492 52.0023 16.5019H51.7212C51.7001 16.492 51.6741 16.4869 51.6431 16.4869H51.6118C51.2371 16.4259 50.9224 16.251 50.6677 15.9623C50.4125 15.6734 50.2848 15.3408 50.2848 14.9658V14.8136C50.2722 12.016 50.2657 10.6107 50.2655 10.5978L50.2654 10.6085C50.2824 10.2611 50.3292 9.99899 50.4057 9.82211C50.5253 9.5455 51.7356 7.79382 54.0365 4.56705L56.9665 0.638798C57.122 0.446348 57.3097 0.291756 57.5281 0.174873C57.7472 0.0584413 57.986 0 58.2465 0Z" fill="#313B3D"/>
<path fill-rule="evenodd" clip-rule="evenodd" d="M46.9982 1.00138L50.3215 5.63828C50.5704 5.97894 50.6632 6.35772 50.6005 6.77447C50.5382 7.19002 50.3375 7.52366 49.9997 7.77493C49.6618 8.02576 49.2876 8.11963 48.8767 8.05625C48.464 7.99332 48.1337 7.79048 47.886 7.44937L44.5629 2.81322L44.5447 2.789C44.297 2.44804 44.2038 2.06941 44.2668 1.65221C44.3285 1.23696 44.5284 0.903618 44.8659 0.652193C45.2045 0.400619 45.5794 0.306896 45.99 0.370275C46.4033 0.434103 46.7321 0.636946 46.9807 0.977461L46.9982 1.00138Z" fill="#313B3D"/>
<path fill-rule="evenodd" clip-rule="evenodd" d="M13.6941 1.39602L18.6602 14.7858C18.8099 15.186 18.7931 15.5778 18.6093 15.9614C18.4263 16.3444 18.1288 16.6091 17.7173 16.755C17.3068 16.9006 16.9049 16.8841 16.5119 16.7051C16.118 16.5268 15.8464 16.2368 15.6969 15.8363L10.7309 2.44675L10.7196 2.4185C10.5708 2.01837 10.5877 1.62666 10.7716 1.24276C10.9545 0.859912 11.2508 0.595014 11.6617 0.449418C12.0733 0.303371 12.4758 0.320199 12.8688 0.498851C13.2627 0.677804 13.5339 0.967645 13.6839 1.36747L13.6941 1.39602Z" fill="#313B3D"/>
<path fill-rule="evenodd" clip-rule="evenodd" d="M27.2567 1.88627C27.2567 1.46105 27.409 1.09872 27.7141 0.799736C28.0187 0.500899 28.3885 0.351105 28.8227 0.351105C29.2576 0.351105 29.6266 0.500899 29.932 0.799736C30.237 1.09872 30.3891 1.46105 30.3891 1.88627V7.06751L38.2835 7.0676V1.88621C38.2835 1.46099 38.4358 1.09866 38.7413 0.799676C39.046 0.500989 39.4161 0.351195 39.8501 0.351195C40.2844 0.351195 40.6538 0.500989 40.9588 0.799676C41.2638 1.09866 41.4159 1.46099 41.4159 1.88621V15.3183C41.4159 15.7441 41.2638 16.1061 40.9588 16.405C40.6538 16.7039 40.2844 16.853 39.8501 16.853C39.4161 16.853 39.046 16.7039 38.7413 16.405C38.4358 16.1061 38.2835 15.7441 38.2835 15.3183V10.1523H30.3891L30.3891 15.3183C30.3891 15.7441 30.2369 16.1062 29.9319 16.4049C29.6268 16.7038 29.2577 16.853 28.8228 16.853C28.3886 16.853 28.0188 16.7038 27.7141 16.4049C27.4089 16.1062 27.2567 15.7441 27.2567 15.3183L27.2567 1.88627Z" fill="#313B3D"/>
<path fill-rule="evenodd" clip-rule="evenodd" d="M73.8677 14.222C74.1806 14.5261 74.3363 14.8911 74.3363 15.3169C74.3363 15.7431 74.1806 16.1055 73.8677 16.4044C73.5553 16.7039 74.0058 16.853 73.5685 16.853H64.5868C64.1494 16.853 63.7768 16.7039 63.4702 16.4044C63.1623 16.1055 63.0089 15.7431 63.0089 15.3169V1.90257C63.0089 1.47695 63.1623 1.11159 63.4702 0.807514C63.7768 0.503441 64.1494 0.351105 64.5868 0.351105C65.0242 0.351105 65.3968 0.503441 65.7039 0.807514C66.0113 1.11159 66.1649 1.47695 66.1649 1.90257V13.7659H72.7429C73.1803 13.7659 73.5553 13.9179 73.8677 14.222Z" fill="#313B3D"/>
<path fill-rule="evenodd" clip-rule="evenodd" d="M89.2036 15.3183C89.2036 15.7441 89.0515 16.1062 88.747 16.4049C88.4425 16.7038 88.0736 16.853 87.6404 16.853C87.3416 16.853 87.0652 16.7747 86.8126 16.6175C86.5599 16.4604 86.372 16.2552 86.2476 16.0023L86.2323 16.0175L84.623 12.8876H80.8921C80.4584 12.8876 80.0867 12.7352 79.7775 12.4314C79.4681 12.1276 79.3131 11.7629 79.3131 11.3374C79.3131 10.9117 79.4681 10.5497 79.7775 10.2509C80.0867 9.95202 80.4584 9.80283 80.8921 9.80283H83.029L80.7082 5.30511L75.1677 16.0175V16.0023C75.0335 16.2552 74.8429 16.4604 74.5954 16.6175C74.3477 16.7747 74.0742 16.853 73.7749 16.853C73.3417 16.853 72.9727 16.7038 72.6685 16.4049C72.3646 16.1062 72.2124 15.7441 72.2124 15.3183C72.2124 15.0756 72.269 14.8422 72.3822 14.6196H72.3669L79.2532 1.32416C79.3666 1.04049 79.555 0.80724 79.8183 0.624876C80.081 0.442662 80.3774 0.351105 80.7082 0.351105C81.0381 0.351105 81.3319 0.442662 81.5896 0.624876C81.8475 0.80724 82.039 1.04049 82.1622 1.32416L89.0333 14.6196C89.1465 14.8422 89.2036 15.0756 89.2036 15.3183Z" fill="#313B3D"/>
<path fill-rule="evenodd" clip-rule="evenodd" d="M101.313 13.4875C101.627 13.3 101.87 13.0519 102.043 12.7432C102.215 12.4343 102.301 12.1075 102.301 11.7629C102.301 11.3781 102.187 11.0132 101.956 10.6689C101.706 10.3143 101.418 10.0761 101.094 9.95457C100.769 9.83329 100.419 9.77251 100.042 9.77251L99.5086 9.78722L98.2286 9.77251L98.1812 9.78722C97.742 9.78722 97.3682 9.63562 97.0598 9.33183C96.751 9.02804 96.5968 8.66316 96.5968 8.23734C96.5968 7.84245 96.7349 7.49843 97.0123 7.2044C97.2894 6.91111 97.627 6.74346 98.0245 6.70308H98.1812H98.1975H99.4934C100.016 6.69273 100.421 6.52582 100.709 6.20162C100.997 5.87727 101.141 5.49753 101.141 5.06166C101.141 4.63644 101.002 4.26376 100.725 3.94481C100.447 3.62571 100.063 3.4612 99.5715 3.451H94.1429V13.7688H100.246C100.643 13.7688 100.999 13.6751 101.313 13.4875ZM104.985 9.55967C105.319 10.2488 105.487 10.9677 105.487 11.717C105.487 12.5985 105.27 13.4318 104.836 14.2166C104.401 15.0024 103.784 15.6379 102.984 16.1239C102.184 16.6099 101.272 16.853 100.246 16.853H92.5586C92.4854 16.853 92.4324 16.8482 92.4016 16.8382C92.0978 16.8178 91.8291 16.719 91.5931 16.542C91.3583 16.3646 91.183 16.139 91.068 15.8654C91.0051 15.6834 90.9734 15.501 90.9734 15.3183V1.91644V1.90128V1.88627C90.9734 1.46105 91.1277 1.09872 91.4365 0.799736C91.7446 0.501049 92.1192 0.351105 92.5586 0.351105H92.5738H99.4618C100.382 0.351105 101.216 0.571293 101.965 1.01257C102.712 1.45309 103.295 2.03801 103.714 2.76762C104.132 3.49677 104.341 4.27171 104.341 5.09227C104.341 6.02421 104.059 6.8952 103.494 7.70556C103.473 7.72627 103.463 7.74654 103.463 7.7668C104.143 8.27337 104.65 8.87104 104.985 9.55967Z" fill="#313B3D"/>
<path fill-rule="evenodd" clip-rule="evenodd" d="M116.484 7.93022C116.484 7.93022 117.078 8.11063 118.247 8.93202C119.415 9.7531 120 10.9286 120 12.4585C120 13.3925 119.76 14.2469 119.282 15.0223C118.803 15.7978 118.105 16.4135 117.189 16.87C116.272 17.3265 115.186 17.5553 113.93 17.5553C112.766 17.5553 111.677 17.386 110.664 17.0472C109.649 16.7082 108.627 16.2003 107.598 15.5226C107.381 15.3792 107.211 15.1945 107.088 14.968C106.964 14.7424 106.903 14.4959 106.903 14.2291C106.903 13.798 107.054 13.4308 107.358 13.1281C107.662 12.8251 108.03 12.6739 108.463 12.6739C108.792 12.6739 109.075 12.7556 109.312 12.9203V12.9045C110.094 13.4183 110.846 13.8033 111.567 14.0598C112.288 14.3162 113.075 14.4446 113.93 14.4446C114.949 14.4446 115.693 14.2546 116.162 13.875C116.63 13.495 116.864 13.023 116.864 12.4585C116.864 12.0477 116.715 11.7089 116.417 11.4415C116.118 11.1749 115.742 10.9619 115.289 10.8025C114.836 10.6436 114.208 10.4665 113.405 10.2715C112.344 10.0045 111.471 9.74808 110.787 9.50151C110.102 9.25525 109.464 8.8806 108.872 8.37712C108.28 7.87455 107.86 7.21729 107.613 6.40609C107.5 6.06749 107.443 5.66668 107.443 5.20488V5.08198C107.474 3.91149 107.749 2.94651 108.27 2.18703C108.789 1.42739 109.471 0.873108 110.316 0.523865C111.16 0.175078 112.087 0 113.096 0C114.187 0 115.258 0.184813 116.309 0.554743C117.04 0.821695 117.724 1.12454 118.362 1.46284C118.62 1.59654 118.826 1.78668 118.98 2.03264C119.135 2.27906 119.212 2.55148 119.212 2.84901C119.212 3.27994 119.06 3.64758 118.756 3.94982C118.452 4.25328 118.084 4.40448 117.652 4.40448C117.395 4.40448 117.153 4.34805 116.926 4.23473C116.072 3.79391 115.369 3.50141 114.818 3.35721C114.267 3.21331 113.708 3.14167 113.142 3.14167C112.483 3.14167 111.966 3.21848 111.59 3.37272C111.214 3.5265 110.951 3.74813 110.802 4.0347C110.653 4.32264 110.573 4.69683 110.563 5.15879V5.20488C110.573 5.70836 110.877 6.10369 111.474 6.39088C112.071 6.67852 112.782 6.91413 113.606 7.09925C115.531 7.49991 116.484 7.93022 116.484 7.93022Z" fill="#313B3D"/>
</svg>
