<svg width="55" height="56" viewBox="0 0 55 56" fill="none" xmlns="http://www.w3.org/2000/svg">
<g clip-path="url(#clip0_2921_3564)">
<path d="M33.8466 28C33.8466 26.7448 33.4744 25.5179 32.7771 24.4742C32.0798 23.4306 31.0886 22.6172 29.929 22.1369C28.7694 21.6566 27.4934 21.5309 26.2624 21.7758C25.0313 22.0206 23.9006 22.625 23.013 23.5126C22.1255 24.4001 21.5211 25.5309 21.2762 26.7619C21.0314 27.9929 21.157 29.2689 21.6374 30.4285C22.1177 31.5881 22.9311 32.5793 23.9747 33.2766C25.0183 33.9739 26.2453 34.3461 27.5005 34.3461C29.1836 34.3461 30.7977 33.6775 31.9879 32.4874C33.178 31.2972 33.8466 29.6831 33.8466 28ZM27.5005 32.2307C26.6637 32.2307 25.8457 31.9826 25.15 31.5177C24.4542 31.0528 23.9119 30.3921 23.5917 29.619C23.2715 28.8459 23.1877 27.9953 23.351 27.1746C23.5142 26.3539 23.9172 25.6 24.5088 25.0084C25.1005 24.4167 25.8544 24.0137 26.6751 23.8505C27.4958 23.6872 28.3464 23.771 29.1195 24.0912C29.8926 24.4115 30.5533 24.9537 31.0182 25.6495C31.4831 26.3452 31.7312 27.1632 31.7312 28C31.7312 29.122 31.2855 30.1981 30.4921 30.9916C29.6986 31.785 28.6225 32.2307 27.5005 32.2307Z" fill="#A333C8"/>
<path d="M30.6729 37.5192C30.6729 37.2387 30.7843 36.9697 30.9826 36.7713C31.181 36.573 31.45 36.4616 31.7305 36.4616H35.9613V32.2308C35.9613 31.9503 36.0728 31.6812 36.2711 31.4829C36.4695 31.2845 36.7385 31.1731 37.019 31.1731C37.2995 31.1731 37.5686 31.2845 37.7669 31.4829C37.9653 31.6812 38.0767 31.9503 38.0767 32.2308V37.5192C38.0767 37.7998 37.9653 38.0688 37.7669 38.2672C37.5686 38.4655 37.2995 38.5769 37.019 38.5769H31.7305C31.45 38.5769 31.181 38.4655 30.9826 38.2672C30.7843 38.0688 30.6729 37.7998 30.6729 37.5192ZM31.7305 19.5385H35.9613V23.7692C35.9613 24.0498 36.0728 24.3188 36.2711 24.5172C36.4695 24.7155 36.7385 24.8269 37.019 24.8269C37.2995 24.8269 37.5686 24.7155 37.7669 24.5172C37.9653 24.3188 38.0767 24.0498 38.0767 23.7692V18.4808C38.0767 18.2003 37.9653 17.9312 37.7669 17.7329C37.5686 17.5345 37.2995 17.4231 37.019 17.4231H31.7305C31.45 17.4231 31.181 17.5345 30.9826 17.7329C30.7843 17.9312 30.6729 18.2003 30.6729 18.4808C30.6729 18.7613 30.7843 19.0303 30.9826 19.2287C31.181 19.427 31.45 19.5385 31.7305 19.5385ZM23.269 17.4231H17.9805C17.7 17.4231 17.431 17.5345 17.2326 17.7329C17.0343 17.9312 16.9229 18.2003 16.9229 18.4808V23.7692C16.9229 24.0498 17.0343 24.3188 17.2326 24.5172C17.431 24.7155 17.7 24.8269 17.9805 24.8269C18.2611 24.8269 18.5301 24.7155 18.7284 24.5172C18.9268 24.3188 19.0382 24.0498 19.0382 23.7692V19.5385H23.269C23.5495 19.5385 23.8186 19.427 24.0169 19.2287C24.2153 19.0303 24.3267 18.7613 24.3267 18.4808C24.3267 18.2003 24.2153 17.9312 24.0169 17.7329C23.8186 17.5345 23.5495 17.4231 23.269 17.4231ZM23.269 36.4616H19.0382V32.2308C19.0382 31.9503 18.9268 31.6812 18.7284 31.4829C18.5301 31.2845 18.2611 31.1731 17.9805 31.1731C17.7 31.1731 17.431 31.2845 17.2326 31.4829C17.0343 31.6812 16.9229 31.9503 16.9229 32.2308V37.5192C16.9229 37.7998 17.0343 38.0688 17.2326 38.2672C17.431 38.4655 17.7 38.5769 17.9805 38.5769H23.269C23.5495 38.5769 23.8186 38.4655 24.0169 38.2672C24.2153 38.0688 24.3267 37.7998 24.3267 37.5192C24.3267 37.2387 24.2153 36.9697 24.0169 36.7713C23.8186 36.573 23.5495 36.4616 23.269 36.4616Z" fill="#A333C8"/>
<path d="M53.9423 0.5H1.05769C0.777175 0.5 0.508147 0.611435 0.309791 0.809791C0.111435 1.00815 0 1.27717 0 1.55769V54.4423C0 54.7228 0.111435 54.9919 0.309791 55.1902C0.508147 55.3886 0.777175 55.5 1.05769 55.5H53.9423C54.2228 55.5 54.4919 55.3886 54.6902 55.1902C54.8886 54.9919 55 54.7228 55 54.4423V1.55769C55 1.27717 54.8886 1.00815 54.6902 0.809791C54.4919 0.611435 54.2228 0.5 53.9423 0.5ZM52.8846 26.9423H40.1923C39.9118 26.9423 39.6428 27.0537 39.4444 27.2521C39.246 27.4505 39.1346 27.7195 39.1346 28C39.1346 28.2805 39.246 28.5495 39.4444 28.7479C39.6428 28.9463 39.9118 29.0577 40.1923 29.0577H52.8846V53.3846H28.5577V40.6923C28.5577 40.4118 28.4463 40.1428 28.2479 39.9444C28.0495 39.746 27.7805 39.6346 27.5 39.6346C27.2195 39.6346 26.9505 39.746 26.7521 39.9444C26.5537 40.1428 26.4423 40.4118 26.4423 40.6923V53.3846H2.11538V29.0577H14.8077C15.0882 29.0577 15.3572 28.9463 15.5556 28.7479C15.754 28.5495 15.8654 28.2805 15.8654 28C15.8654 27.7195 15.754 27.4505 15.5556 27.2521C15.3572 27.0537 15.0882 26.9423 14.8077 26.9423H2.11538V2.61538H26.4423V15.3077C26.4423 15.5882 26.5537 15.8572 26.7521 16.0556C26.9505 16.254 27.2195 16.3654 27.5 16.3654C27.7805 16.3654 28.0495 16.254 28.2479 16.0556C28.4463 15.8572 28.5577 15.5882 28.5577 15.3077V2.61538H52.8846V26.9423Z" fill="#778183"/>
<path d="M27.5002 25.8848C27.0818 25.8848 26.6728 26.0088 26.3249 26.2413C25.977 26.4737 25.7059 26.8041 25.5458 27.1906C25.3857 27.5772 25.3438 28.0025 25.4254 28.4128C25.507 28.8232 25.7085 29.2001 26.0043 29.496C26.3002 29.7918 26.6771 29.9933 27.0875 30.0749C27.4978 30.1565 27.9231 30.1146 28.3097 29.9545C28.6962 29.7944 29.0266 29.5233 29.259 29.1754C29.4915 28.8275 29.6155 28.4185 29.6155 28.0001C29.6155 27.4391 29.3927 26.9011 28.996 26.5043C28.5992 26.1076 28.0612 25.8848 27.5002 25.8848Z" fill="#A333C8"/>
<path d="M31.7312 45.9807C35.3779 45.9807 38.8753 44.5321 41.4539 41.9534C44.0326 39.3748 45.4812 35.8775 45.4812 32.2307C45.4812 31.9502 45.5927 31.6812 45.791 31.4828C45.9894 31.2845 46.2584 31.173 46.5389 31.173C46.8194 31.173 47.0885 31.2845 47.2868 31.4828C47.4852 31.6812 47.5966 31.9502 47.5966 32.2307C47.5966 36.4385 45.9251 40.4739 42.9497 43.4492C39.9744 46.4246 35.939 48.0961 31.7312 48.0961C31.4507 48.0961 31.1817 47.9847 30.9833 47.7863C30.785 47.588 30.6735 47.3189 30.6735 47.0384C30.6735 46.7579 30.785 46.4889 30.9833 46.2905C31.1817 46.0922 31.4507 45.9807 31.7312 45.9807ZM31.7312 10.0192C35.3779 10.0192 38.8753 11.4678 41.4539 14.0465C44.0326 16.6251 45.4812 20.1225 45.4812 23.7692C45.4812 24.0497 45.5927 24.3187 45.791 24.5171C45.9894 24.7155 46.2584 24.8269 46.5389 24.8269C46.8194 24.8269 47.0885 24.7155 47.2868 24.5171C47.4852 24.3187 47.5966 24.0497 47.5966 23.7692C47.5966 19.5614 45.9251 15.526 42.9497 12.5507C39.9744 9.57534 35.939 7.90381 31.7312 7.90381C31.4507 7.90381 31.1817 8.01524 30.9833 8.2136C30.785 8.41196 30.6735 8.68098 30.6735 8.9615C30.6735 9.24202 30.785 9.51105 30.9833 9.7094C31.1817 9.90776 31.4507 10.0192 31.7312 10.0192ZM24.3274 8.9615C24.3274 8.68098 24.2159 8.41196 24.0176 8.2136C23.8192 8.01524 23.5502 7.90381 23.2697 7.90381C19.0619 7.90381 15.0265 9.57534 12.0512 12.5507C9.07582 15.526 7.4043 19.5614 7.4043 23.7692C7.4043 24.0497 7.51573 24.3187 7.71409 24.5171C7.91244 24.7155 8.18147 24.8269 8.46199 24.8269C8.74251 24.8269 9.01153 24.7155 9.20989 24.5171C9.40825 24.3187 9.51968 24.0497 9.51968 23.7692C9.51968 20.1225 10.9683 16.6251 13.547 14.0465C16.1256 11.4678 19.623 10.0192 23.2697 10.0192C23.5502 10.0192 23.8192 9.90776 24.0176 9.7094C24.2159 9.51105 24.3274 9.24202 24.3274 8.9615ZM23.2697 45.9807C19.623 45.9807 16.1256 44.5321 13.547 41.9534C10.9683 39.3748 9.51968 35.8775 9.51968 32.2307C9.51968 31.9502 9.40825 31.6812 9.20989 31.4828C9.01153 31.2845 8.74251 31.173 8.46199 31.173C8.18147 31.173 7.91244 31.2845 7.71409 31.4828C7.51573 31.6812 7.4043 31.9502 7.4043 32.2307C7.4043 36.4385 9.07582 40.4739 12.0512 43.4492C15.0265 46.4246 19.0619 48.0961 23.2697 48.0961C23.5502 48.0961 23.8192 47.9847 24.0176 47.7863C24.2159 47.588 24.3274 47.3189 24.3274 47.0384C24.3274 46.7579 24.2159 46.4889 24.0176 46.2905C23.8192 46.0922 23.5502 45.9807 23.2697 45.9807Z" fill="#778183"/>
</g>
<defs>
<clipPath id="clip0_2921_3564">
<rect width="55" height="55" fill="white" transform="translate(0 0.5)"/>
</clipPath>
</defs>
</svg>
