<svg xmlns="http://www.w3.org/2000/svg" width="161" height="23" viewBox="0 0 161 23" fill="none">
<path fill-rule="evenodd" clip-rule="evenodd" d="M4.12543 1.42816L10.7876 19.7335C10.989 20.2808 10.9662 20.8171 10.7194 21.3413C10.4742 21.8649 10.0752 22.227 9.52254 22.4257C8.97275 22.6253 8.43289 22.6021 7.90545 22.3581C7.37719 22.1137 7.01301 21.717 6.81188 21.1696L0.149254 2.86544L0.135184 2.8262C-0.0655291 2.27898 -0.0427679 1.74388 0.203674 1.21946C0.449909 0.695455 0.84761 0.333929 1.39864 0.134267C1.95132 -0.0653943 2.49076 -0.0419772 3.018 0.201848C3.54689 0.4467 3.91065 0.842531 4.11136 1.38975L4.12543 1.42816Z" fill="#002B43"/>
<path fill-rule="evenodd" clip-rule="evenodd" d="M13.9214 1.42816L7.25923 19.7335C7.05789 20.2808 7.08066 20.8171 7.32751 21.3413C7.57271 21.8649 7.97165 22.227 8.52434 22.4257C9.07413 22.6253 9.61398 22.6021 10.1414 22.3581C10.6697 22.1137 11.0339 21.717 11.235 21.1696L17.8976 2.86544L17.9117 2.8262C18.1124 2.27898 18.0896 1.74388 17.8432 1.21946C17.597 0.695455 17.1993 0.333929 16.6482 0.134267C16.0956 -0.0653943 15.5561 -0.0419772 15.0289 0.201848C14.5 0.4467 14.1362 0.842531 13.9355 1.38975L13.9214 1.42816Z" fill="#002B43"/>
<path fill-rule="evenodd" clip-rule="evenodd" d="M27.6949 1.42816L21.0327 19.7335C20.8313 20.2808 20.8541 20.8171 21.101 21.3413C21.3462 21.8649 21.7451 22.227 22.2978 22.4257C22.8476 22.6253 23.3874 22.6021 23.9149 22.3581C24.4431 22.1137 24.8073 21.717 25.0084 21.1696L31.6711 2.86544L31.6851 2.8262C31.8858 2.27898 31.8631 1.74388 31.6166 1.21946C31.3704 0.695455 30.9727 0.333929 30.4217 0.134267C29.869 -0.0653943 29.3295 -0.0419772 28.8023 0.201848C28.2734 0.4467 27.9097 0.842531 27.7089 1.38975L27.6949 1.42816Z" fill="#002B43"/>
<path fill-rule="evenodd" clip-rule="evenodd" d="M78.1474 0C78.7339 0 79.2331 0.208058 79.6444 0.623968C80.0569 1.03947 80.2626 1.53856 80.2626 2.12063C80.2626 2.56447 80.1297 2.97278 79.8647 3.34741L71.6964 14.493V20.4599C71.6964 20.9726 71.5256 21.4273 71.1834 21.8222C70.8408 22.217 70.4187 22.4561 69.9166 22.5395H69.8744C69.8322 22.5395 69.7972 22.5464 69.7697 22.56H69.3926C69.3642 22.5464 69.3295 22.5395 69.2879 22.5395H69.2459C68.7432 22.4561 68.3209 22.217 67.9791 21.8222C67.6367 21.4273 67.4654 20.9726 67.4654 20.4599V20.2519C67.4485 16.4272 67.4398 14.5061 67.4395 14.4884L67.4395 14.5031C67.4622 14.0281 67.5249 13.6697 67.6276 13.4279C67.7881 13.0498 69.4119 10.655 72.499 6.24367L76.43 0.873309C76.6387 0.610207 76.8905 0.398863 77.1835 0.239071C77.4775 0.0798959 77.7979 0 78.1474 0Z" fill="#002B43"/>
<path fill-rule="evenodd" clip-rule="evenodd" d="M63.0554 0.888996L67.5142 7.22816C67.8482 7.69388 67.9726 8.21172 67.8885 8.78146C67.8049 9.34957 67.5357 9.80569 67.0825 10.1492C66.629 10.4921 66.127 10.6205 65.5758 10.5338C65.022 10.4478 64.5789 10.1705 64.2465 9.70413L59.7881 3.36598L59.7637 3.33288C59.4313 2.86674 59.3063 2.34911 59.3908 1.77876C59.4736 1.21106 59.7418 0.755347 60.1947 0.411622C60.6489 0.0676923 61.1519 -0.0604384 61.7027 0.0262082C62.2573 0.113468 62.6984 0.390778 63.032 0.856299L63.0554 0.888996Z" fill="#002B43"/>
<path fill-rule="evenodd" clip-rule="evenodd" d="M18.3731 1.42852L25.0359 19.7338C25.2369 20.281 25.2143 20.8166 24.9676 21.341C24.7222 21.8646 24.3231 22.2265 23.771 22.426C23.2202 22.625 22.6809 22.6024 22.1537 22.3578C21.6252 22.114 21.2608 21.7175 21.0603 21.1701L14.3975 2.86498L14.3824 2.82636C14.1827 2.27934 14.2054 1.74383 14.4521 1.21899C14.6975 0.695597 15.095 0.333452 15.6463 0.134405C16.1985 -0.0652579 16.7386 -0.0422515 17.2659 0.201986C17.7944 0.446635 18.1581 0.84288 18.3595 1.38949L18.3731 1.42852Z" fill="#002B43"/>
<path fill-rule="evenodd" clip-rule="evenodd" d="M36.5704 2.09874C36.5704 1.51742 36.7747 1.02208 37.1841 0.613329C37.5927 0.204785 38.0889 0 38.6714 0C39.2549 0 39.7501 0.204785 40.1597 0.613329C40.5689 1.02208 40.773 1.51742 40.773 2.09874V9.18209L46.0689 9.18215L51.3647 9.18221V2.09866C51.3647 1.51734 51.569 1.022 51.9789 0.613247C52.3877 0.204908 52.8843 0.00012311 53.4666 0.00012311C54.0493 0.00012311 54.5448 0.204908 54.9541 0.613247C55.3633 1.022 55.5674 1.51734 55.5674 2.09866V20.4618C55.5674 21.044 55.3633 21.5389 54.9541 21.9474C54.5448 22.3562 54.0493 22.5599 53.4666 22.5599C52.8843 22.5599 52.3877 22.3562 51.9789 21.9474C51.569 21.5389 51.3647 21.044 51.3647 20.4618V13.3994H40.7731L40.773 20.4619C40.773 21.044 40.5689 21.539 40.1597 21.9473C39.7502 22.3561 39.2551 22.56 38.6715 22.56C38.089 22.56 37.5929 22.3561 37.1841 21.9473C36.7746 21.539 36.5703 21.044 36.5703 20.4619L36.5704 2.09874Z" fill="#002B43"/>
<path fill-rule="evenodd" clip-rule="evenodd" d="M99.1061 18.9631C99.5258 19.3788 99.7348 19.8779 99.7348 20.4599C99.7348 21.0426 99.5258 21.538 99.1061 21.9467C98.687 22.3561 99.2914 22.56 98.7046 22.56H86.6542C86.0674 22.56 85.5675 22.3561 85.156 21.9467C84.7429 21.538 84.5371 21.0426 84.5371 20.4599V2.12102C84.5371 1.53916 84.7429 1.03966 85.156 0.623963C85.5675 0.208261 86.0674 0 86.6542 0C87.241 0 87.7409 0.208261 88.153 0.623963C88.5654 1.03966 88.7715 1.53916 88.7715 2.12102V18.3395H97.597C98.1838 18.3395 98.687 18.5474 99.1061 18.9631Z" fill="#002B43"/>
<path fill-rule="evenodd" clip-rule="evenodd" d="M119.681 20.4619C119.681 21.044 119.477 21.539 119.069 21.9473C118.66 22.3561 118.165 22.56 117.584 22.56C117.183 22.56 116.812 22.4529 116.473 22.2381C116.134 22.0232 115.882 21.7427 115.715 21.397L115.695 21.4177L113.536 17.1388H108.53C107.948 17.1388 107.449 16.9305 107.035 16.5152C106.619 16.0998 106.412 15.6012 106.412 15.0195C106.412 14.4376 106.619 13.9426 107.035 13.5341C107.449 13.1255 107.948 12.9216 108.53 12.9216H111.397L108.283 6.77268L100.85 21.4177V21.397C100.67 21.7427 100.414 22.0232 100.082 22.2381C99.7496 22.4529 99.3827 22.56 98.9811 22.56C98.3999 22.56 97.9049 22.3561 97.4967 21.9473C97.089 21.539 96.8848 21.044 96.8848 20.4619C96.8848 20.1301 96.9606 19.811 97.1126 19.5067H97.0921L106.331 1.33028C106.483 0.942463 106.736 0.623589 107.089 0.374277C107.442 0.125169 107.84 0 108.283 0C108.726 0 109.12 0.125169 109.466 0.374277C109.812 0.623589 110.069 0.942463 110.234 1.33028L119.453 19.5067C119.605 19.811 119.681 20.1301 119.681 20.4619Z" fill="#002B43"/>
<path fill-rule="evenodd" clip-rule="evenodd" d="M135.929 17.9589C136.35 17.7026 136.676 17.3634 136.908 16.9414C137.14 16.5191 137.255 16.0723 137.255 15.6012C137.255 15.0751 137.101 14.5763 136.792 14.1055C136.456 13.6209 136.069 13.2952 135.635 13.129C135.199 12.9632 134.729 12.8801 134.224 12.8801L133.508 12.9002L131.791 12.8801L131.727 12.9002C131.138 12.9002 130.636 12.693 130.222 12.2777C129.808 11.8624 129.601 11.3635 129.601 10.7814C129.601 10.2415 129.787 9.7712 130.159 9.36923C130.531 8.96828 130.983 8.73907 131.517 8.68387H131.727H131.749H133.488C134.189 8.66972 134.732 8.44154 135.118 7.99832C135.504 7.55489 135.697 7.03574 135.697 6.43986C135.697 5.85854 135.511 5.34904 135.14 4.913C134.768 4.47675 134.252 4.25186 133.592 4.2379H126.309V18.3435H134.497C135.03 18.3435 135.508 18.2154 135.929 17.9589ZM140.855 12.5892C141.304 13.5312 141.529 14.5141 141.529 15.5384C141.529 16.7435 141.237 17.8828 140.655 18.9558C140.073 20.03 139.245 20.8988 138.171 21.5632C137.097 22.2276 135.873 22.56 134.497 22.56H124.183C124.085 22.56 124.014 22.5534 123.973 22.5397C123.565 22.5118 123.205 22.3768 122.888 22.1349C122.573 21.8923 122.338 21.5839 122.183 21.2098C122.099 20.9609 122.057 20.7116 122.057 20.4619V2.13998V2.11926V2.09874C122.057 1.51742 122.264 1.02208 122.678 0.613329C123.091 0.20499 123.594 0 124.183 0H124.204H133.445C134.68 0 135.799 0.301022 136.803 0.904297C137.806 1.50655 138.588 2.30619 139.15 3.30365C139.71 4.30049 139.991 5.35991 139.991 6.48172C139.991 7.75577 139.613 8.94652 138.855 10.0544C138.827 10.0827 138.813 10.1104 138.813 10.1381C139.726 10.8306 140.405 11.6477 140.855 12.5892Z" fill="#002B43"/>
<path fill-rule="evenodd" clip-rule="evenodd" d="M155.747 10.3898C155.747 10.3898 156.511 10.6261 158.014 11.7023C159.516 12.778 160.268 14.3181 160.268 16.3225C160.268 17.5461 159.96 18.6655 159.344 19.6815C158.728 20.6974 157.832 21.5042 156.653 22.1022C155.474 22.7003 154.078 23 152.463 23C150.967 23 149.567 22.7782 148.264 22.3344C146.959 21.8902 145.645 21.2248 144.321 20.3369C144.043 20.149 143.825 19.9071 143.666 19.6103C143.507 19.3148 143.428 18.9918 143.428 18.6422C143.428 18.0774 143.623 17.5964 144.013 17.1998C144.404 16.8028 144.878 16.6047 145.433 16.6047C145.857 16.6047 146.221 16.7117 146.526 16.9276V16.9068C147.531 17.58 148.498 18.0844 149.425 18.4204C150.351 18.7564 151.364 18.9246 152.463 18.9246C153.774 18.9246 154.73 18.6757 155.333 18.1783C155.935 17.6805 156.236 17.0621 156.236 16.3225C156.236 15.7842 156.045 15.3404 155.66 14.9901C155.276 14.6407 154.793 14.3617 154.211 14.1529C153.628 13.9446 152.821 13.7127 151.788 13.4572C150.424 13.1074 149.302 12.7714 148.422 12.4484C147.542 12.1258 146.721 11.6349 145.96 10.9753C145.198 10.3168 144.659 9.45572 144.341 8.39293C144.195 7.94932 144.123 7.4242 144.123 6.81917V6.65815C144.163 5.12464 144.516 3.86037 145.186 2.86533C145.853 1.8701 146.73 1.1439 147.816 0.686341C148.902 0.229378 150.093 0 151.391 0C152.794 0 154.171 0.242133 155.521 0.726796C156.461 1.07654 157.342 1.47332 158.162 1.91653C158.493 2.09171 158.758 2.34081 158.957 2.66306C159.155 2.9859 159.255 3.34282 159.255 3.73263C159.255 4.2972 159.059 4.77888 158.669 5.17486C158.278 5.57244 157.805 5.77053 157.249 5.77053C156.918 5.77053 156.607 5.69659 156.316 5.54812C155.217 4.97059 154.313 4.58737 153.605 4.39844C152.897 4.20992 152.178 4.11605 151.451 4.11605C150.603 4.11605 149.938 4.21669 149.455 4.41877C148.971 4.62025 148.633 4.91061 148.442 5.28606C148.25 5.66331 148.147 6.15355 148.134 6.75879V6.81917C148.147 7.47881 148.538 7.99675 149.305 8.373C150.073 8.74985 150.987 9.05855 152.046 9.30108C154.522 9.826 155.747 10.3898 155.747 10.3898Z" fill="#002B43"/>
</svg>