<svg width="528" height="562" viewBox="0 0 528 562" fill="none" xmlns="http://www.w3.org/2000/svg">
<path fill-rule="evenodd" clip-rule="evenodd" d="M246.17 730L424.706 465.703L417.17 460.613L238.635 724.91L246.17 730ZM419.475 440.956L231.1 719.82L223.564 714.73L371.775 495.325L364.239 490.234L489.367 305.001L496.902 310.091L411.94 435.866L419.475 440.956L519.769 292.484L527.304 297.574L505.565 329.757L513.1 334.848L453.522 423.044L445.987 417.954L427.01 446.046L419.475 440.956ZM216.029 709.64L364.239 490.235L356.704 485.144L426.363 382.024L418.827 376.934L268.691 599.191L261.156 594.101L193.424 694.369L200.959 699.459L268.69 599.191L276.226 604.281L208.493 704.549L216.029 709.64ZM418.827 376.934L483.808 280.738L476.273 275.648L411.292 371.843L403.757 366.754L313.793 499.932L321.328 505.023L411.292 371.844L418.827 376.934ZM443.477 307.953L485.045 246.418L477.509 241.328L435.942 302.862L443.477 307.953ZM435.942 302.862L356.056 421.122L348.521 416.032L428.406 297.772L435.942 302.862ZM348.521 416.032L209.351 622.053L201.816 616.963L340.986 410.942L348.521 416.032ZM201.816 616.963L163.281 674.008L155.746 668.918L194.281 611.873L201.816 616.963ZM148.21 663.828L286.342 459.342L278.807 454.252L140.675 658.737L148.21 663.828ZM450.829 215.843L376.158 326.382L368.623 321.292L443.293 210.752L450.829 215.843ZM301.062 405.061L406.478 249.008L398.942 243.918L293.527 399.971L301.062 405.061ZM240.592 494.578L133.14 653.647L125.605 648.557L233.057 489.488L240.592 494.578ZM206.402 512.701L335.938 320.941L328.403 315.851L198.867 507.611L206.402 512.701ZM411.328 176.846L310.641 325.9L303.106 320.809L403.793 171.756L411.328 176.846ZM102.999 633.286L180.809 518.098L173.274 513.008L95.4632 628.196L102.999 633.286ZM315.875 285.661L155.659 522.838L148.124 517.748L308.339 280.571L315.875 285.661ZM270.742 319.984L420.5 98.287L412.965 93.1968L263.207 314.893L270.742 319.984ZM121.026 541.617L72.8561 612.926L65.3207 607.835L113.491 536.527L121.026 541.617ZM135.596 487.557L245.614 324.691L238.079 319.601L128.061 482.467L135.596 487.557ZM410.088 48.7188L260.584 270.039L253.049 264.949L402.553 43.6286L410.088 48.7188ZM145.4 408.063L377.15 64.9899L369.615 59.8996L137.865 402.973L145.4 408.063ZM95.3765 482.116L27.6444 582.384L20.1091 577.294L87.8411 477.026L95.3765 482.116ZM42.7154 592.565L190.555 373.708L183.02 368.618L35.18 587.474L42.7154 592.565ZM313.793 499.932L185.887 689.279L178.352 684.188L306.257 494.842L313.793 499.932ZM10.0615 570.507L35.4029 532.993L27.8675 527.903L87.4881 439.642L79.9527 434.552L-5.00957 560.327L2.52583 565.417L27.8675 527.903L2.52608 565.417L10.0615 570.507ZM-12.5447 555.237L72.4176 429.461L79.953 434.552L321.031 77.6696L313.495 72.5794L112.583 370.003L105.047 364.913L-20.0801 550.147L-12.5447 555.237ZM326.06 37.734L105.048 364.913L97.5122 359.822L27.8535 462.943L20.3181 457.852L170.455 235.595L177.991 240.685L318.525 32.6438L326.06 37.734ZM20.3174 457.853L-35.1511 539.966L-42.6865 534.876L12.7821 452.762L20.3174 457.853ZM12.7826 452.762L102.746 319.584L95.2108 314.493L5.24716 447.672L12.7826 452.762ZM-34.4737 506.473L-50.2217 529.785L-57.7571 524.695L-42.0091 501.383L-34.4737 506.473ZM-42.0091 501.383L-49.5444 496.292L30.3412 378.033L37.8766 383.123L-42.0091 501.383ZM169.511 172.012L30.3414 378.033L22.806 372.943L161.976 166.921L169.511 172.012ZM161.976 166.921L254.727 29.6163L247.191 24.5261L154.44 161.831L161.976 166.921ZM209.59 63.9433L47.3072 304.181L39.7718 299.091L202.055 58.8531L209.59 63.9433ZM-87.8986 504.334L-42.5085 437.14L-50.0439 432.05L-95.434 499.244L-87.8986 504.334ZM2.44626 338.101L-102.969 494.154L-110.504 489.064L-5.08908 333.011L2.44626 338.101ZM62.9166 248.584L186.055 66.2945L178.52 61.2043L55.3812 243.493L62.9166 248.584ZM66.965 210.1L-62.5708 401.86L-70.1062 396.77L59.4296 205.01L66.965 210.1ZM-133.111 473.793L-67.4158 376.541L-74.9511 371.45L-140.646 468.702L-133.111 473.793ZM168.216 27.721L62.4167 184.342L54.8814 179.252L160.681 22.6308L168.216 27.721ZM-102.791 396.419L57.4244 159.242L49.889 154.151L-110.327 391.328L-102.791 396.419ZM-87.7993 341.734L-163.252 453.432L-170.788 448.342L-95.3346 336.644L-87.7993 341.734ZM61.9164 120.102L126.595 24.3542L119.06 19.264L54.381 115.012L61.9164 120.102ZM17.2042 153.801L-92.8134 316.667L-100.349 311.577L9.66887 148.711L17.2042 153.801ZM-193.394 433.071L-137.925 350.958L-145.46 345.868L-200.929 427.981L-193.394 433.071ZM-52.8825 192.573L-208.465 422.891L-216 417.801L-60.4179 187.483L-52.8825 192.573ZM-2.85847 118.52L64.8736 18.252L57.3382 13.1618L-10.3939 113.43L-2.85847 118.52ZM86.888 18.154L-67.8955 247.289L-75.4309 242.199L79.3526 13.0637L86.888 18.154ZM95.211 314.493L246.085 91.1454L238.549 86.0552L87.6757 309.403L95.211 314.493ZM288.776 60.4365L170.455 235.595L162.919 230.505L281.241 55.3463L288.776 60.4365ZM392.007 5.09032L104.864 430.165L97.3289 425.075L384.472 4.85483e-05L392.007 5.09032Z" fill="url(#paint0_linear)" fill-opacity="0.5"/>
<defs>
<linearGradient id="paint0_linear" x1="62.3292" y1="417.85" x2="276.966" y2="112.682" gradientUnits="userSpaceOnUse">
<stop stop-color="#C7D1D3"/>
<stop offset="1" stop-color="#F7F7F8" stop-opacity="0"/>
</linearGradient>
</defs>
</svg>
