<svg width="151" height="136" viewBox="0 0 151 136" fill="none" xmlns="http://www.w3.org/2000/svg">
<rect x="16" y="35" width="11" height="11" rx="2" fill="#DBE5E7"/>
<rect x="34" y="35" width="11" height="11" rx="2" fill="#DBE5E7"/>
<rect x="52" y="35" width="11" height="11" rx="2" fill="#DBE5E7"/>
<rect x="70" y="35" width="11" height="11" rx="2" fill="#DBE5E7"/>
<rect x="88" y="35" width="11" height="11" rx="2" fill="#F07028"/>
<rect x="106" y="35" width="11" height="11" rx="2" fill="#DBE5E7"/>
<rect x="124" y="35" width="11" height="11" rx="2" fill="#DBE5E7"/>
<rect x="16" y="53" width="11" height="11" rx="2" fill="#DBE5E7"/>
<rect x="34" y="53" width="11" height="11" rx="2" fill="#DBE5E7"/>
<rect x="52" y="53" width="11" height="11" rx="2" fill="#DBE5E7"/>
<rect x="70" y="53" width="11" height="11" rx="2" fill="#DBE5E7"/>
<rect x="88" y="53" width="11" height="11" rx="2" fill="#DBE5E7"/>
<rect x="106" y="53" width="11" height="11" rx="2" fill="#DBE5E7"/>
<rect x="124" y="53" width="11" height="11" rx="2" fill="#DBE5E7"/>
<rect x="16" y="71" width="11" height="11" rx="2" fill="#DBE5E7"/>
<rect x="34" y="71" width="11" height="11" rx="2" fill="#DBE5E7"/>
<rect x="52" y="71" width="11" height="11" rx="2" fill="#DBE5E7"/>
<rect x="70" y="71" width="11" height="11" rx="2" fill="#F07028"/>
<rect x="88" y="71" width="11" height="11" rx="2" fill="#DBE5E7"/>
<rect x="106" y="71" width="11" height="11" rx="2" fill="#DBE5E7"/>
<rect x="124" y="71" width="11" height="11" rx="2" fill="#DBE5E7"/>
<rect x="16" y="89" width="11" height="11" rx="2" fill="#DBE5E7"/>
<rect x="34" y="89" width="11" height="11" rx="2" fill="#DBE5E7"/>
<rect x="52" y="89" width="11" height="11" rx="2" fill="#DBE5E7"/>
<rect x="70" y="89" width="11" height="11" rx="2" fill="#DBE5E7"/>
<rect x="88" y="89" width="11" height="11" rx="2" fill="#DBE5E7"/>
<rect x="106" y="89" width="11" height="11" rx="2" fill="#DBE5E7"/>
<rect x="124" y="89" width="11" height="11" rx="2" fill="#DBE5E7"/>
<rect x="16" y="107" width="11" height="11" rx="2" fill="#DBE5E7"/>
<rect x="34" y="107" width="11" height="11" rx="2" fill="#DBE5E7"/>
<rect x="52" y="107" width="11" height="11" rx="2" fill="#DBE5E7"/>
<rect x="70" y="107" width="11" height="11" rx="2" fill="#DBE5E7"/>
<rect x="88" y="107" width="11" height="11" rx="2" fill="#DBE5E7"/>
<rect x="106" y="107" width="11" height="11" rx="2" fill="#DBE5E7"/>
<rect x="124" y="107" width="11" height="11" rx="2" fill="#157889"/>
<rect opacity="0.5" x="88" y="35" width="47" height="11" rx="2" fill="#F07028"/>
<rect opacity="0.5" x="16" y="53" width="119" height="11" rx="2" fill="#F07028"/>
<rect opacity="0.5" x="16" y="71" width="65" height="11" rx="2" fill="#F07028"/>
<rect x="1" y="-1" width="149" height="127" rx="1" transform="matrix(1 0 0 -1 0 134)" stroke="#EBF2F3" stroke-width="2"/>
<rect x="25" width="11" height="22" rx="5.5" fill="#DBE5E7"/>
<rect x="115" width="11" height="22" rx="5.5" fill="#DBE5E7"/>
</svg>
