<svg width="49" height="73" viewBox="0 0 49 73" fill="none" xmlns="http://www.w3.org/2000/svg">
<path d="M10.8348 51.58C10.8348 51.708 10.7948 51.824 10.7148 51.928C10.6428 52.024 10.5548 52.1 10.4508 52.156C10.2508 52.012 10.0148 51.88 9.74284 51.76C9.47084 51.64 9.12684 51.58 8.71084 51.58C8.24684 51.58 7.83084 51.688 7.46284 51.904C7.10284 52.112 6.81884 52.424 6.61084 52.84C6.40284 53.248 6.29884 53.756 6.29884 54.364C6.29884 55.276 6.52284 55.964 6.97084 56.428C7.42684 56.892 8.02684 57.124 8.77084 57.124C9.16284 57.124 9.50284 57.068 9.79084 56.956C10.0868 56.844 10.3348 56.716 10.5348 56.572C10.6308 56.628 10.7148 56.708 10.7868 56.812C10.8588 56.908 10.8948 57.024 10.8948 57.16C10.8948 57.272 10.8668 57.376 10.8108 57.472C10.7548 57.56 10.6588 57.644 10.5228 57.724C10.3468 57.836 10.1068 57.936 9.80284 58.024C9.49884 58.12 9.11084 58.168 8.63884 58.168C7.96684 58.168 7.35484 58.028 6.80284 57.748C6.25084 57.468 5.81084 57.048 5.48284 56.488C5.16284 55.92 5.00284 55.212 5.00284 54.364C5.00284 53.524 5.16684 52.82 5.49484 52.252C5.82284 51.684 6.25884 51.256 6.80284 50.968C7.34684 50.68 7.93884 50.536 8.57884 50.536C9.03484 50.536 9.43084 50.588 9.76684 50.692C10.1028 50.788 10.3628 50.916 10.5468 51.076C10.7388 51.236 10.8348 51.404 10.8348 51.58ZM19.1415 54.352C19.1415 55.184 18.9855 55.884 18.6735 56.452C18.3615 57.02 17.9375 57.448 17.4015 57.736C16.8655 58.024 16.2575 58.168 15.5775 58.168C14.9055 58.168 14.2975 58.024 13.7535 57.736C13.2175 57.448 12.7935 57.02 12.4815 56.452C12.1695 55.884 12.0135 55.184 12.0135 54.352C12.0135 53.52 12.1735 52.82 12.4935 52.252C12.8135 51.684 13.2415 51.256 13.7775 50.968C14.3135 50.68 14.9135 50.536 15.5775 50.536C16.2495 50.536 16.8535 50.68 17.3895 50.968C17.9255 51.256 18.3495 51.684 18.6615 52.252C18.9815 52.82 19.1415 53.52 19.1415 54.352ZM17.8455 54.352C17.8455 53.456 17.6375 52.772 17.2215 52.3C16.8135 51.82 16.2655 51.58 15.5775 51.58C14.8975 51.58 14.3495 51.82 13.9335 52.3C13.5175 52.772 13.3095 53.456 13.3095 54.352C13.3095 55.248 13.5135 55.936 13.9215 56.416C14.3375 56.888 14.8895 57.124 15.5775 57.124C16.2735 57.124 16.8255 56.888 17.2335 56.416C17.6415 55.936 17.8455 55.248 17.8455 54.352ZM25.1829 56.128C25.1189 56.176 25.0309 56.22 24.9189 56.26C24.8069 56.3 24.6829 56.32 24.5469 56.32C24.3789 56.32 24.2349 56.296 24.1149 56.248C23.9949 56.2 23.9109 56.12 23.8629 56.008C23.4869 55.16 23.1629 54.404 22.8909 53.74C22.6189 53.068 22.4029 52.508 22.2429 52.06H22.1829C22.1589 52.628 22.1349 53.156 22.1109 53.644C22.0869 54.132 22.0629 54.604 22.0389 55.06C22.0149 55.516 21.9909 55.984 21.9669 56.464C21.9429 56.936 21.9149 57.444 21.8829 57.988C21.8189 58.004 21.7349 58.02 21.6309 58.036C21.5349 58.06 21.4349 58.072 21.3309 58.072C21.1069 58.072 20.9429 58.032 20.8389 57.952C20.7349 57.864 20.6829 57.736 20.6829 57.568C20.6829 57.448 20.6909 57.216 20.7069 56.872C20.7309 56.52 20.7549 56.1 20.7789 55.612C20.8109 55.124 20.8429 54.608 20.8749 54.064C20.9149 53.512 20.9549 52.968 20.9949 52.432C21.0429 51.896 21.0829 51.408 21.1149 50.968C21.1789 50.904 21.2829 50.84 21.4269 50.776C21.5709 50.704 21.7509 50.668 21.9669 50.668C22.2069 50.668 22.4029 50.712 22.5549 50.8C22.7149 50.888 22.8349 51.024 22.9149 51.208C23.0989 51.584 23.2829 51.996 23.4669 52.444C23.6509 52.884 23.8309 53.332 24.0069 53.788C24.1829 54.236 24.3509 54.652 24.5109 55.036H24.5709C24.8829 54.236 25.1909 53.464 25.4949 52.72C25.8069 51.968 26.0709 51.332 26.2869 50.812C26.3749 50.772 26.4829 50.74 26.6109 50.716C26.7469 50.684 26.8789 50.668 27.0069 50.668C27.2389 50.668 27.4269 50.708 27.5709 50.788C27.7149 50.86 27.8029 50.972 27.8349 51.124C27.8669 51.268 27.9029 51.504 27.9429 51.832C27.9829 52.16 28.0229 52.544 28.0629 52.984C28.1029 53.424 28.1389 53.884 28.1709 54.364C28.2109 54.844 28.2469 55.316 28.2789 55.78C28.3189 56.236 28.3509 56.652 28.3749 57.028C28.3989 57.396 28.4149 57.692 28.4229 57.916C28.3349 57.972 28.2429 58.012 28.1469 58.036C28.0509 58.06 27.9349 58.072 27.7989 58.072C27.6389 58.072 27.4949 58.04 27.3669 57.976C27.2469 57.904 27.1789 57.768 27.1629 57.568C27.1229 56.84 27.0829 56.132 27.0429 55.444C27.0029 54.748 26.9709 54.112 26.9469 53.536C26.9229 52.952 26.8989 52.472 26.8749 52.096H26.8269C26.6749 52.504 26.4629 53.028 26.1909 53.668C25.9269 54.3 25.5909 55.12 25.1829 56.128ZM30.3571 53.404H31.6051V57.976C31.5571 57.992 31.4771 58.012 31.3651 58.036C31.2611 58.06 31.1491 58.072 31.0291 58.072C30.7971 58.072 30.6251 58.028 30.5131 57.94C30.4091 57.844 30.3571 57.692 30.3571 57.484V53.404ZM31.6051 54.7H30.3571V50.716C30.4131 50.7 30.4931 50.684 30.5971 50.668C30.7091 50.644 30.8251 50.632 30.9451 50.632C31.1771 50.632 31.3451 50.676 31.4491 50.764C31.5531 50.844 31.6051 50.992 31.6051 51.208V54.7ZM33.7463 51.952L34.8383 51.892C34.8703 52.172 34.8983 52.48 34.9223 52.816C34.9463 53.152 34.9623 53.492 34.9703 53.836C34.9783 54.172 34.9823 54.496 34.9823 54.808V57.976C34.9343 57.992 34.8543 58.012 34.7423 58.036C34.6383 58.06 34.5303 58.072 34.4183 58.072C34.1863 58.072 34.0143 58.028 33.9023 57.94C33.7983 57.852 33.7463 57.708 33.7463 57.508V51.952ZM39.7343 56.752L38.6303 56.8C38.5583 56.16 38.5143 55.52 38.4983 54.88C38.4903 54.232 38.4863 53.608 38.4863 53.008V50.716C38.5503 50.7 38.6343 50.684 38.7383 50.668C38.8423 50.644 38.9503 50.632 39.0623 50.632C39.2943 50.632 39.4623 50.676 39.5663 50.764C39.6783 50.844 39.7343 50.988 39.7343 51.196V56.752ZM39.7343 56.32V57.832C39.6543 57.904 39.5423 57.96 39.3983 58C39.2623 58.048 39.1063 58.072 38.9303 58.072C38.7143 58.072 38.5223 58.036 38.3543 57.964C38.1863 57.884 38.0383 57.724 37.9103 57.484L35.9063 54.004C35.7943 53.796 35.6743 53.576 35.5463 53.344C35.4263 53.112 35.3103 52.888 35.1983 52.672C35.0863 52.456 34.9943 52.268 34.9223 52.108L33.7463 52.384V50.908C33.8263 50.82 33.9383 50.752 34.0823 50.704C34.2263 50.656 34.3823 50.632 34.5503 50.632C34.7663 50.632 34.9583 50.672 35.1263 50.752C35.2943 50.832 35.4423 50.988 35.5703 51.22L37.5863 54.7C37.7063 54.9 37.8263 55.12 37.9463 55.36C38.0663 55.592 38.1783 55.816 38.2823 56.032C38.3943 56.248 38.4863 56.436 38.5583 56.596L39.7343 56.32ZM47.8228 54.508V57.076C47.8228 57.244 47.7788 57.384 47.6908 57.496C47.6108 57.6 47.4828 57.696 47.3068 57.784C47.0988 57.888 46.8108 57.976 46.4428 58.048C46.0748 58.128 45.7028 58.168 45.3268 58.168C44.5748 58.168 43.9028 58.036 43.3108 57.772C42.7268 57.5 42.2668 57.084 41.9308 56.524C41.6028 55.956 41.4388 55.236 41.4388 54.364C41.4388 53.516 41.6108 52.808 41.9548 52.24C42.2988 51.672 42.7548 51.248 43.3228 50.968C43.8988 50.68 44.5268 50.536 45.2068 50.536C45.6788 50.536 46.0908 50.588 46.4428 50.692C46.7948 50.788 47.0668 50.916 47.2588 51.076C47.4508 51.228 47.5468 51.392 47.5468 51.568C47.5468 51.696 47.5108 51.812 47.4388 51.916C47.3668 52.02 47.2788 52.096 47.1748 52.144C46.9668 52.008 46.7108 51.88 46.4068 51.76C46.1108 51.64 45.7388 51.58 45.2908 51.58C44.8108 51.58 44.3748 51.688 43.9828 51.904C43.5988 52.112 43.2948 52.424 43.0708 52.84C42.8468 53.256 42.7348 53.764 42.7348 54.364C42.7348 54.996 42.8468 55.516 43.0708 55.924C43.3028 56.332 43.6148 56.636 44.0068 56.836C44.3988 57.028 44.8428 57.124 45.3388 57.124C45.6028 57.124 45.8468 57.104 46.0708 57.064C46.2948 57.016 46.4708 56.96 46.5988 56.896V54.952H44.9188C44.8868 54.904 44.8548 54.836 44.8228 54.748C44.7988 54.66 44.7868 54.568 44.7868 54.472C44.7868 54.296 44.8268 54.164 44.9068 54.076C44.9868 53.988 45.0988 53.944 45.2428 53.944H47.2468C47.4148 53.944 47.5508 53.996 47.6548 54.1C47.7668 54.196 47.8228 54.332 47.8228 54.508ZM12.2285 69.136C12.7245 69.136 13.0965 69.028 13.3445 68.812C13.5925 68.596 13.7165 68.324 13.7165 67.996C13.7165 67.708 13.6205 67.472 13.4285 67.288C13.2365 67.104 12.9405 66.952 12.5405 66.832L11.6285 66.556C11.2605 66.444 10.9405 66.304 10.6685 66.136C10.3965 65.968 10.1845 65.756 10.0325 65.5C9.88048 65.244 9.80448 64.936 9.80448 64.576C9.80448 63.944 10.0365 63.448 10.5005 63.088C10.9725 62.72 11.6045 62.536 12.3965 62.536C12.8365 62.536 13.2285 62.584 13.5725 62.68C13.9245 62.768 14.1965 62.888 14.3885 63.04C14.5885 63.192 14.6885 63.364 14.6885 63.556C14.6885 63.684 14.6565 63.8 14.5925 63.904C14.5285 64 14.4445 64.08 14.3405 64.144C14.1485 63.992 13.8885 63.86 13.5605 63.748C13.2325 63.636 12.8725 63.58 12.4805 63.58C12.0485 63.58 11.7085 63.672 11.4605 63.856C11.2125 64.032 11.0885 64.272 11.0885 64.576C11.0885 64.816 11.1765 65.012 11.3525 65.164C11.5285 65.308 11.8045 65.436 12.1805 65.548L12.8885 65.764C13.5525 65.956 14.0685 66.228 14.4365 66.58C14.8125 66.924 15.0005 67.396 15.0005 67.996C15.0005 68.644 14.7605 69.168 14.2805 69.568C13.8005 69.968 13.1205 70.168 12.2405 70.168C11.7525 70.168 11.3205 70.112 10.9445 70C10.5765 69.896 10.2885 69.76 10.0805 69.592C9.87248 69.416 9.76848 69.228 9.76848 69.028C9.76848 68.868 9.81648 68.736 9.91248 68.632C10.0085 68.52 10.1165 68.436 10.2365 68.38C10.4365 68.556 10.7005 68.728 11.0285 68.896C11.3645 69.056 11.7645 69.136 12.2285 69.136ZM23.4378 66.352C23.4378 67.184 23.2818 67.884 22.9698 68.452C22.6578 69.02 22.2338 69.448 21.6978 69.736C21.1618 70.024 20.5538 70.168 19.8738 70.168C19.2018 70.168 18.5938 70.024 18.0498 69.736C17.5138 69.448 17.0898 69.02 16.7778 68.452C16.4658 67.884 16.3098 67.184 16.3098 66.352C16.3098 65.52 16.4698 64.82 16.7898 64.252C17.1098 63.684 17.5378 63.256 18.0738 62.968C18.6098 62.68 19.2098 62.536 19.8738 62.536C20.5458 62.536 21.1498 62.68 21.6858 62.968C22.2218 63.256 22.6458 63.684 22.9578 64.252C23.2778 64.82 23.4378 65.52 23.4378 66.352ZM22.1418 66.352C22.1418 65.456 21.9338 64.772 21.5178 64.3C21.1098 63.82 20.5618 63.58 19.8738 63.58C19.1938 63.58 18.6458 63.82 18.2298 64.3C17.8138 64.772 17.6058 65.456 17.6058 66.352C17.6058 67.248 17.8098 67.936 18.2178 68.416C18.6338 68.888 19.1858 69.124 19.8738 69.124C20.5698 69.124 21.1218 68.888 21.5298 68.416C21.9378 67.936 22.1418 67.248 22.1418 66.352ZM31.8781 66.352C31.8781 67.184 31.7221 67.884 31.4101 68.452C31.0981 69.02 30.6741 69.448 30.1381 69.736C29.6021 70.024 28.9941 70.168 28.3141 70.168C27.6421 70.168 27.0341 70.024 26.4901 69.736C25.9541 69.448 25.5301 69.02 25.2181 68.452C24.9061 67.884 24.7501 67.184 24.7501 66.352C24.7501 65.52 24.9101 64.82 25.2301 64.252C25.5501 63.684 25.9781 63.256 26.5141 62.968C27.0501 62.68 27.6501 62.536 28.3141 62.536C28.9861 62.536 29.5901 62.68 30.1261 62.968C30.6621 63.256 31.0861 63.684 31.3981 64.252C31.7181 64.82 31.8781 65.52 31.8781 66.352ZM30.5821 66.352C30.5821 65.456 30.3741 64.772 29.9581 64.3C29.5501 63.82 29.0021 63.58 28.3141 63.58C27.6341 63.58 27.0861 63.82 26.6701 64.3C26.2541 64.772 26.0461 65.456 26.0461 66.352C26.0461 67.248 26.2501 67.936 26.6581 68.416C27.0741 68.888 27.6261 69.124 28.3141 69.124C29.0101 69.124 29.5621 68.888 29.9701 68.416C30.3781 67.936 30.5821 67.248 30.5821 66.352ZM33.5984 63.952L34.6904 63.892C34.7224 64.172 34.7504 64.48 34.7744 64.816C34.7984 65.152 34.8144 65.492 34.8224 65.836C34.8304 66.172 34.8344 66.496 34.8344 66.808V69.976C34.7864 69.992 34.7064 70.012 34.5944 70.036C34.4904 70.06 34.3824 70.072 34.2704 70.072C34.0384 70.072 33.8664 70.028 33.7544 69.94C33.6504 69.852 33.5984 69.708 33.5984 69.508V63.952ZM39.5864 68.752L38.4824 68.8C38.4104 68.16 38.3664 67.52 38.3504 66.88C38.3424 66.232 38.3384 65.608 38.3384 65.008V62.716C38.4024 62.7 38.4864 62.684 38.5904 62.668C38.6944 62.644 38.8024 62.632 38.9144 62.632C39.1464 62.632 39.3144 62.676 39.4184 62.764C39.5304 62.844 39.5864 62.988 39.5864 63.196V68.752ZM39.5864 68.32V69.832C39.5064 69.904 39.3944 69.96 39.2504 70C39.1144 70.048 38.9584 70.072 38.7824 70.072C38.5664 70.072 38.3744 70.036 38.2064 69.964C38.0384 69.884 37.8904 69.724 37.7624 69.484L35.7584 66.004C35.6464 65.796 35.5264 65.576 35.3984 65.344C35.2784 65.112 35.1624 64.888 35.0504 64.672C34.9384 64.456 34.8464 64.268 34.7744 64.108L33.5984 64.384V62.908C33.6784 62.82 33.7904 62.752 33.9344 62.704C34.0784 62.656 34.2344 62.632 34.4024 62.632C34.6184 62.632 34.8104 62.672 34.9784 62.752C35.1464 62.832 35.2944 62.988 35.4224 63.22L37.4384 66.7C37.5584 66.9 37.6784 67.12 37.7984 67.36C37.9184 67.592 38.0304 67.816 38.1344 68.032C38.2464 68.248 38.3384 68.436 38.4104 68.596L39.5864 68.32ZM42.8869 63.088C42.8869 63.312 42.8829 63.612 42.8749 63.988C42.8749 64.356 42.8669 64.756 42.8509 65.188C42.8349 65.62 42.8149 66.052 42.7909 66.484C42.7749 66.908 42.7549 67.288 42.7309 67.624C42.6749 67.664 42.5989 67.696 42.5029 67.72C42.4149 67.744 42.3269 67.756 42.2389 67.756C42.1029 67.756 41.9869 67.728 41.8909 67.672C41.7949 67.616 41.7389 67.524 41.7229 67.396C41.7069 67.18 41.6869 66.876 41.6629 66.484C41.6469 66.092 41.6309 65.664 41.6149 65.2C41.6069 64.728 41.5989 64.268 41.5909 63.82C41.5829 63.372 41.5789 62.984 41.5789 62.656C41.7949 62.528 42.0269 62.464 42.2749 62.464C42.4669 62.464 42.6149 62.516 42.7189 62.62C42.8309 62.724 42.8869 62.88 42.8869 63.088ZM41.4589 69.364C41.4589 69.14 41.5269 68.956 41.6629 68.812C41.8069 68.66 42.0029 68.584 42.2509 68.584C42.4909 68.584 42.6829 68.66 42.8269 68.812C42.9709 68.956 43.0429 69.14 43.0429 69.364C43.0429 69.588 42.9709 69.776 42.8269 69.928C42.6829 70.08 42.4909 70.156 42.2509 70.156C42.0029 70.156 41.8069 70.08 41.6629 69.928C41.5269 69.776 41.4589 69.588 41.4589 69.364Z" fill="#778183"/>
<g clip-path="url(#clip0_3164_3920)">
<path d="M26.2375 13.3059V11.8673C26.2375 11.6766 26.1618 11.4938 26.0269 11.359C25.8921 11.2242 25.7093 11.1484 25.5186 11.1484C25.328 11.1484 25.1452 11.2242 25.0103 11.359C24.8755 11.4938 24.7998 11.6766 24.7998 11.8673V13.3059C24.7998 13.4965 24.8755 13.6794 25.0103 13.8142C25.1452 13.949 25.328 14.0247 25.5186 14.0247C25.7093 14.0247 25.8921 13.949 26.0269 13.8142C26.1618 13.6794 26.2375 13.4965 26.2375 13.3059Z" fill="#C7D1D3"/>
<path d="M24.7998 34.8853V36.324C24.7998 36.5146 24.8755 36.6975 25.0103 36.8323C25.1452 36.9671 25.328 37.0428 25.5186 37.0428C25.7093 37.0428 25.8921 36.9671 26.0269 36.8323C26.1618 36.6975 26.2375 36.5146 26.2375 36.324V34.8853C26.2375 34.6947 26.1618 34.5119 26.0269 34.377C25.8921 34.2422 25.7093 34.1665 25.5186 34.1665C25.328 34.1665 25.1452 34.2422 25.0103 34.377C24.8755 34.5119 24.7998 34.6947 24.7998 34.8853Z" fill="#C7D1D3"/>
<path d="M36.3017 24.8148H37.7394C37.9299 24.8144 38.1124 24.7384 38.247 24.6036C38.3815 24.4687 38.4571 24.286 38.4571 24.0955C38.4571 23.905 38.3815 23.7223 38.247 23.5875C38.1124 23.4526 37.9299 23.3766 37.7394 23.3762H36.3017C36.1112 23.3766 35.9286 23.4526 35.7941 23.5875C35.6595 23.7223 35.584 23.905 35.584 24.0955C35.584 24.286 35.6595 24.4687 35.7941 24.6036C35.9286 24.7384 36.1112 24.8144 36.3017 24.8148Z" fill="#C7D1D3"/>
<path d="M13.2988 24.8148H14.7364C14.9269 24.8144 15.1095 24.7384 15.244 24.6036C15.3786 24.4687 15.4541 24.286 15.4541 24.0955C15.4541 23.905 15.3786 23.7223 15.244 23.5875C15.1095 23.4526 14.9269 23.3766 14.7364 23.3762H13.2988C13.1083 23.3766 12.9257 23.4526 12.7912 23.5875C12.6566 23.7223 12.5811 23.905 12.5811 24.0955C12.5811 24.286 12.6566 24.4687 12.7912 24.6036C12.9257 24.7384 13.1083 24.8144 13.2988 24.8148Z" fill="#C7D1D3"/>
<path d="M33.6519 14.9404L32.6354 15.9576C32.5006 16.0924 32.4248 16.2754 32.4248 16.4661C32.4248 16.6568 32.5005 16.8397 32.6353 16.9746C32.7719 17.1061 32.9541 17.1795 33.1436 17.1795C33.3331 17.1795 33.5153 17.1061 33.6519 16.9747L34.6684 15.9576C34.7352 15.8908 34.7881 15.8116 34.8243 15.7243C34.8605 15.6371 34.8791 15.5436 34.8791 15.4492C34.8792 15.3548 34.8606 15.2613 34.8245 15.174C34.7884 15.0868 34.7354 15.0075 34.6687 14.9407C34.602 14.8739 34.5227 14.821 34.4355 14.7848C34.3483 14.7486 34.2548 14.73 34.1604 14.73C34.0659 14.7299 33.9724 14.7485 33.8852 14.7846C33.798 14.8207 33.7187 14.8737 33.6519 14.9404V14.9404Z" fill="#C7D1D3"/>
<path d="M16.3698 33.2511C16.5053 33.3845 16.6879 33.4594 16.8781 33.4594C17.0684 33.4594 17.2509 33.3845 17.3865 33.2511L18.4029 32.2336C18.4697 32.1668 18.5227 32.0875 18.5589 32.0003C18.595 31.913 18.6136 31.8195 18.6137 31.7251C18.6137 31.6307 18.5951 31.5371 18.559 31.4499C18.5228 31.3626 18.4699 31.2833 18.4031 31.2166C18.3363 31.1498 18.2571 31.0968 18.1698 31.0606C18.0826 31.0245 17.9891 31.0059 17.8946 31.0059C17.8002 31.0058 17.7067 31.0244 17.6194 31.0606C17.5322 31.0967 17.4529 31.1496 17.3861 31.2164L16.3696 32.2339C16.2348 32.3689 16.1591 32.5518 16.1592 32.7425C16.1592 32.9332 16.235 33.1162 16.3698 33.2511Z" fill="#C7D1D3"/>
<path d="M32.6354 31.2163C32.5006 31.3512 32.4248 31.5342 32.4248 31.7249C32.4248 31.9156 32.5005 32.0986 32.6352 32.2335L33.6517 33.251C33.7866 33.3858 33.9695 33.4616 34.1603 33.4615C34.351 33.4615 34.5339 33.3857 34.6687 33.2508C34.8036 33.116 34.8793 32.933 34.8793 32.7423C34.8792 32.5516 34.8035 32.3687 34.6686 32.2338L33.6521 31.2164C33.5854 31.1495 33.5061 31.0965 33.4189 31.0604C33.3317 31.0242 33.2382 31.0056 33.1438 31.0056C33.0493 31.0056 32.9558 31.0242 32.8686 31.0604C32.7814 31.0965 32.7022 31.1495 32.6354 31.2163Z" fill="#C7D1D3"/>
<path d="M17.3864 16.9747C17.5231 17.1059 17.7052 17.1792 17.8947 17.1792C18.0841 17.1792 18.2662 17.1059 18.4029 16.9747C18.5378 16.8398 18.6135 16.6569 18.6135 16.4661C18.6135 16.2754 18.5378 16.0925 18.4029 15.9576L17.3864 14.9404C17.3196 14.8737 17.2404 14.8207 17.1531 14.7846C17.0659 14.7485 16.9724 14.7299 16.8779 14.73C16.7835 14.73 16.69 14.7486 16.6028 14.7848C16.5156 14.821 16.4363 14.8739 16.3696 14.9407C16.3029 15.0075 16.2499 15.0868 16.2138 15.174C16.1777 15.2613 16.1591 15.3548 16.1592 15.4492C16.1592 15.5436 16.1778 15.6371 16.214 15.7243C16.2502 15.8116 16.3031 15.8908 16.3699 15.9576L17.3864 16.9747Z" fill="#C7D1D3"/>
<path d="M21.8394 33.3961C22.0168 33.4647 22.2141 33.4607 22.3886 33.3853C22.5632 33.3098 22.7011 33.1688 22.7727 32.9926L25.3063 26.6027C25.3747 26.6084 25.4432 26.6131 25.5189 26.6133C26.0605 26.6123 26.5873 26.4369 27.0214 26.1129C27.4555 25.789 27.7736 25.3339 27.9287 24.815H33.2466C33.4371 24.8146 33.6196 24.7386 33.7542 24.6038C33.8887 24.4689 33.9643 24.2862 33.9643 24.0957C33.9643 23.9052 33.8887 23.7225 33.7542 23.5876C33.6196 23.4528 33.4371 23.3768 33.2466 23.3764H27.9294C27.774 22.8576 27.4556 22.4025 27.0215 22.0787C26.5874 21.7548 26.0605 21.5793 25.5189 21.5781C24.9953 21.5782 24.4847 21.7417 24.0583 22.0458C23.632 22.3499 23.3111 22.7794 23.1405 23.2745C22.9698 23.7695 22.9579 24.3055 23.1063 24.8077C23.2548 25.3099 23.5562 25.7533 23.9685 26.076L21.4365 32.4622C21.3661 32.6395 21.3691 32.8375 21.4446 33.0126C21.5202 33.1877 21.6622 33.3257 21.8394 33.3961ZM25.5219 23.0167C25.6636 23.0171 25.8038 23.0454 25.9346 23.1C26.0653 23.1545 26.184 23.2343 26.284 23.3348C26.3839 23.4352 26.4631 23.5544 26.5169 23.6855C26.5708 23.8165 26.5983 23.9569 26.598 24.0986C26.5976 24.2403 26.5693 24.3805 26.5147 24.5113C26.4602 24.642 26.3804 24.7608 26.2799 24.8607C26.1795 24.9606 26.0603 25.0398 25.9293 25.0936C25.7982 25.1475 25.6578 25.175 25.5161 25.1747C25.232 25.1679 24.9614 25.0515 24.761 24.8499C24.5606 24.6484 24.4459 24.3771 24.4408 24.0929C24.4419 23.807 24.5564 23.5332 24.759 23.3315C24.9616 23.1298 25.236 23.0166 25.5219 23.0167Z" fill="#778183"/>
<path d="M26.9814 43.1013C26.8667 43.1101 26.7515 43.118 26.6359 43.1249C26.5416 43.1304 26.4494 43.1545 26.3644 43.1957C26.2794 43.2369 26.2034 43.2944 26.1406 43.365C26.0779 43.4355 26.0297 43.5178 25.9987 43.607C25.9678 43.6962 25.9547 43.7906 25.9602 43.8849C25.975 44.0739 26.0623 44.2498 26.2039 44.3758C26.3455 44.5017 26.5304 44.568 26.7198 44.5607C26.844 44.5537 26.9679 44.5453 27.0913 44.5357C27.2812 44.5208 27.4574 44.4311 27.5813 44.2863C27.7051 44.1416 27.7665 43.9537 27.752 43.7637C27.7374 43.5738 27.6481 43.3974 27.5037 43.2732C27.3592 43.149 27.1714 43.0872 26.9814 43.1013Z" fill="#B3BDBF"/>
<path d="M23.8678 43.0865C23.7532 43.077 23.6388 43.0661 23.5247 43.0538C23.3357 43.0351 23.1469 43.0919 22.9996 43.2118C22.8523 43.3317 22.7584 43.5051 22.7384 43.6939C22.7184 43.8828 22.7739 44.072 22.8928 44.2201C23.0117 44.3683 23.1843 44.4634 23.3731 44.4847C23.4971 44.4977 23.6212 44.5093 23.7456 44.5202C23.9358 44.5364 24.1245 44.4764 24.2704 44.3534C24.4163 44.2304 24.5074 44.0545 24.5236 43.8644C24.5398 43.6743 24.4798 43.4855 24.3568 43.3396C24.2338 43.1937 24.0579 43.1027 23.8678 43.0865H23.8678Z" fill="#B3BDBF"/>
<path d="M30.0559 42.6114C29.9441 42.6388 29.8319 42.6652 29.7193 42.6905C29.5332 42.7324 29.3715 42.8464 29.2695 43.0076C29.1676 43.1688 29.1339 43.3639 29.1758 43.5499C29.2212 43.7338 29.3359 43.8931 29.496 43.9945C29.6561 44.0959 29.8491 44.1315 30.0348 44.094C30.1563 44.0666 30.2772 44.0381 30.3978 44.0086C30.4895 43.9862 30.5759 43.9459 30.6521 43.89C30.7282 43.8342 30.7927 43.7639 30.8417 43.6831C30.8907 43.6024 30.9233 43.5128 30.9376 43.4194C30.952 43.3261 30.9479 43.2308 30.9254 43.1391C30.903 43.0473 30.8627 42.9609 30.8068 42.8848C30.751 42.8086 30.6807 42.7442 30.5999 42.6952C30.5192 42.6462 30.4296 42.6136 30.3362 42.5992C30.2429 42.5848 30.1476 42.589 30.0559 42.6114Z" fill="#B3BDBF"/>
<path d="M20.8004 42.5657C20.6879 42.5369 20.5758 42.5072 20.4642 42.4765C20.2804 42.4266 20.0843 42.4517 19.9189 42.5462C19.7536 42.6408 19.6325 42.797 19.5822 42.9807C19.5319 43.1644 19.5565 43.3606 19.6507 43.5261C19.7448 43.6917 19.9008 43.8132 20.0844 43.8639C20.2034 43.8965 20.3228 43.9284 20.4428 43.9594C20.6274 44.0064 20.8232 43.9782 20.9871 43.881C21.151 43.7838 21.2696 43.6256 21.317 43.441C21.3644 43.2565 21.3366 43.0606 21.2397 42.8965C21.1429 42.7324 20.9849 42.6135 20.8004 42.5657L20.8004 42.5657Z" fill="#B3BDBF"/>
<path d="M33.0048 41.6235C32.8991 41.6692 32.7929 41.7136 32.6861 41.757C32.5095 41.8293 32.369 41.9687 32.2952 42.1446C32.2215 42.3205 32.2206 42.5185 32.2928 42.6951C32.3677 42.8692 32.5073 43.0075 32.682 43.0809C32.8568 43.1543 33.0533 43.1572 33.2301 43.0888C33.3447 43.0417 33.4586 42.9943 33.572 42.9455C33.747 42.8701 33.8849 42.7283 33.9554 42.5513C34.026 42.3743 34.0234 42.1765 33.9483 42.0013C33.8732 41.8262 33.7316 41.6881 33.5547 41.6172C33.3778 41.5464 33.18 41.5486 33.0048 41.6235V41.6235Z" fill="#B3BDBF"/>
<path d="M17.8575 41.5469C17.7518 41.5002 17.6466 41.4525 17.5418 41.4039C17.3688 41.3242 17.1712 41.3163 16.9924 41.3821C16.8136 41.4479 16.6682 41.5819 16.5881 41.7547C16.508 41.9276 16.4998 42.1251 16.5652 42.3041C16.6306 42.483 16.7643 42.6286 16.937 42.7091C17.05 42.7614 17.1636 42.8128 17.2776 42.8633C17.4524 42.9373 17.6492 42.9403 17.8262 42.8716C18.0032 42.8029 18.1464 42.6678 18.2253 42.4952C18.3022 42.3206 18.3067 42.1227 18.2377 41.9449C18.1687 41.7671 18.032 41.6239 17.8575 41.5469Z" fill="#B3BDBF"/>
<path d="M35.7514 40.166C35.6551 40.2278 35.5581 40.2887 35.4605 40.3486C35.2979 40.4483 35.1816 40.6085 35.1371 40.794C35.0926 40.9794 35.1235 41.175 35.223 41.3376C35.3248 41.4977 35.4848 41.612 35.6693 41.6563C35.8538 41.7006 36.0482 41.6715 36.2116 41.5751C36.318 41.5101 36.4235 41.4438 36.5282 41.3763C36.6885 41.2732 36.8013 41.1107 36.8418 40.9245C36.8823 40.7382 36.8473 40.5436 36.7443 40.3832C36.6414 40.2228 36.479 40.1098 36.2928 40.0691C36.1067 40.0284 35.912 40.0632 35.7515 40.166L35.7514 40.166Z" fill="#B3BDBF"/>
<path d="M15.1217 40.0588C15.0256 39.996 14.93 39.932 14.8352 39.8671C14.6777 39.7605 14.4845 39.7206 14.2977 39.7561C14.1109 39.7916 13.9458 39.8996 13.8384 40.0566C13.7311 40.2135 13.6903 40.4066 13.7249 40.5935C13.7596 40.7805 13.8669 40.9461 14.0233 41.0542C14.1263 41.1248 14.2302 41.1943 14.3348 41.2628C14.4951 41.3646 14.6888 41.3998 14.8747 41.3609C15.0605 41.322 15.2239 41.2121 15.3299 41.0545C15.4342 40.8949 15.4709 40.7003 15.4319 40.5136C15.3929 40.3269 15.2813 40.1633 15.1217 40.0588Z" fill="#B3BDBF"/>
<path d="M38.2278 38.2773C38.1422 38.3545 38.0559 38.4309 37.969 38.5063C37.8248 38.6312 37.7362 38.8083 37.7226 38.9985C37.7089 39.1888 37.7713 39.3767 37.8961 39.5209C38.0231 39.6615 38.1995 39.7475 38.3885 39.7611C38.5774 39.7746 38.7643 39.7147 38.91 39.5937C39.0039 39.5125 39.0969 39.43 39.1892 39.3471C39.3311 39.2196 39.4165 39.041 39.4267 38.8505C39.4369 38.6601 39.3709 38.4734 39.2435 38.3315C39.116 38.1896 38.9374 38.1042 38.7469 38.094C38.5564 38.0839 38.3697 38.1498 38.2279 38.2773H38.2278Z" fill="#B3BDBF"/>
<path d="M12.4112 37.9086C12.3429 37.8433 12.2624 37.7921 12.1743 37.7579C12.0861 37.7237 11.9921 37.7072 11.8976 37.7094C11.8031 37.7116 11.71 37.7324 11.6235 37.7707C11.537 37.8089 11.459 37.8638 11.3938 37.9322C11.3286 38.0007 11.2775 38.0813 11.2435 38.1695C11.2095 38.2577 11.1932 38.3518 11.1955 38.4463C11.1979 38.5408 11.2189 38.6339 11.2573 38.7202C11.2957 38.8066 11.3508 38.8846 11.4193 38.9497C11.509 39.0354 11.5997 39.1202 11.6913 39.2043C11.8328 39.331 12.0183 39.3974 12.208 39.3894C12.3978 39.3813 12.5769 39.2994 12.7071 39.1611C12.8361 39.0206 12.904 38.8347 12.8959 38.6441C12.8878 38.4536 12.8044 38.2741 12.664 38.145C12.5788 38.0667 12.4946 37.9879 12.4112 37.9086Z" fill="#B3BDBF"/>
<path d="M41.3777 35.9013C41.3041 35.8421 41.2196 35.798 41.1289 35.7715C41.0383 35.745 40.9433 35.7367 40.8495 35.7469C40.7556 35.7572 40.6647 35.7859 40.5819 35.8314C40.4991 35.8769 40.4262 35.9382 40.3672 36.0119C40.2947 36.1022 40.2214 36.1919 40.1473 36.281C40.0255 36.4278 39.9669 36.6169 39.9845 36.8068C40.0021 36.9968 40.0943 37.172 40.241 37.2939C40.3887 37.4131 40.5771 37.47 40.7661 37.4526C40.9551 37.4351 41.1298 37.3447 41.2532 37.2005C41.3324 37.1049 41.4107 37.0089 41.4882 36.9125C41.6076 36.7637 41.663 36.5736 41.6422 36.384C41.6215 36.1944 41.5263 36.0208 41.3777 35.9013Z" fill="#B3BDBF"/>
<path d="M10.3375 35.5838C10.2805 35.5083 10.2093 35.4449 10.1278 35.3971C10.0463 35.3492 9.95617 35.3179 9.86256 35.3049C9.76896 35.2919 9.67372 35.2975 9.58228 35.3214C9.49084 35.3453 9.40501 35.3869 9.32969 35.444C9.25436 35.501 9.19103 35.5724 9.14331 35.654C9.09559 35.7355 9.06442 35.8257 9.05159 35.9193C9.03875 36.0129 9.0445 36.1082 9.0685 36.1996C9.0925 36.291 9.13429 36.3767 9.19148 36.452C9.26623 36.551 9.34186 36.6493 9.41839 36.7467C9.53832 36.8934 9.7104 36.988 9.89856 37.0107C10.0867 37.0334 10.2763 36.9823 10.4277 36.8682C10.5776 36.7503 10.6746 36.5776 10.6973 36.3882C10.7201 36.1988 10.6667 36.0081 10.549 35.858C10.4777 35.7671 10.4072 35.6757 10.3375 35.5838Z" fill="#B3BDBF"/>
<path d="M43.0915 33.1569C42.9254 33.0634 42.7289 33.0397 42.5453 33.0909C42.3617 33.1422 42.206 33.2642 42.1122 33.4301C42.0553 33.5309 41.9976 33.6313 41.939 33.7311C41.8424 33.8956 41.815 34.0916 41.8629 34.2762C41.9108 34.4608 42.03 34.6189 42.1943 34.7156C42.3593 34.8094 42.5544 34.8352 42.7381 34.7875C42.9219 34.7399 43.0798 34.6225 43.1784 34.4603C43.2414 34.3528 43.3035 34.2453 43.3646 34.1368C43.4582 33.9706 43.4821 33.7741 43.4309 33.5903C43.3797 33.4066 43.2576 33.2507 43.0915 33.1569Z" fill="#B3BDBF"/>
<path d="M8.66738 32.9566C8.62337 32.873 8.56335 32.799 8.49074 32.7387C8.41812 32.6783 8.33434 32.6329 8.24416 32.605C8.15399 32.577 8.0592 32.5671 7.9652 32.5758C7.87119 32.5845 7.77982 32.6116 7.6963 32.6556C7.61278 32.6996 7.53874 32.7596 7.47842 32.8323C7.41809 32.9049 7.37266 32.9887 7.34472 33.0788C7.31677 33.169 7.30686 33.2638 7.31555 33.3578C7.32424 33.4518 7.35136 33.5432 7.39536 33.6267C7.45293 33.7363 7.51166 33.8454 7.57156 33.954C7.66687 34.1175 7.82136 34.2381 8.00308 34.2908C8.18479 34.3436 8.37983 34.3245 8.54786 34.2375C8.7149 34.1455 8.83855 33.9909 8.89164 33.8077C8.94472 33.6245 8.92289 33.4278 8.83094 33.2607C8.77566 33.1599 8.72114 33.0585 8.66738 32.9566Z" fill="#B3BDBF"/>
<path d="M44.336 30.1687C44.1568 30.1034 43.9591 30.112 43.7863 30.1925C43.6134 30.2729 43.4796 30.4188 43.4143 30.5979C43.3746 30.7068 43.3339 30.8156 43.2923 30.9235C43.2237 31.1015 43.2286 31.2994 43.3058 31.4738C43.3831 31.6482 43.5264 31.7848 43.7044 31.8535C43.8824 31.9199 44.0794 31.9139 44.2532 31.8369C44.4269 31.7598 44.5635 31.6178 44.6338 31.4412C44.6786 31.3249 44.7223 31.2082 44.7649 31.091C44.8302 30.9118 44.8217 30.714 44.7413 30.5411C44.6609 30.3681 44.5151 30.2342 44.336 30.1687Z" fill="#B3BDBF"/>
<path d="M45.0771 27.0174C44.8896 26.9823 44.6959 27.0232 44.5385 27.1309C44.3812 27.2387 44.2731 27.4045 44.238 27.592C44.2168 27.7054 44.1945 27.8188 44.1711 27.932C44.1325 28.1187 44.1697 28.3132 44.2744 28.4725C44.3791 28.6319 44.5428 28.7432 44.7296 28.7819C44.9161 28.8181 45.1094 28.7799 45.2682 28.6754C45.4269 28.5709 45.5385 28.4084 45.579 28.2228C45.6041 28.1012 45.6281 27.9793 45.6511 27.8568C45.6862 27.6694 45.6455 27.4757 45.5378 27.3183C45.4302 27.1609 45.2644 27.0527 45.0771 27.0174Z" fill="#B3BDBF"/>
<path d="M45.2977 23.791C45.2032 23.7885 45.1091 23.8047 45.0209 23.8386C44.9327 23.8726 44.8521 23.9237 44.7837 23.9889C44.7154 24.0542 44.6606 24.1324 44.6226 24.2189C44.5845 24.3054 44.564 24.3986 44.5622 24.4931C44.5595 24.6087 44.5558 24.724 44.5509 24.8391C44.5472 25.0242 44.6138 25.2038 44.7375 25.3415C44.8612 25.4793 45.0326 25.5649 45.217 25.5811C45.3127 25.5887 45.4089 25.577 45.4999 25.5467C45.5909 25.5163 45.6749 25.4679 45.7468 25.4043C45.8187 25.3408 45.877 25.2634 45.9183 25.1767C45.9596 25.0901 45.9831 24.9961 45.9872 24.9002C45.9925 24.7759 45.9966 24.6514 45.9995 24.5269C46.0017 24.4325 45.9854 24.3385 45.9513 24.2505C45.9173 24.1624 45.8662 24.0819 45.801 24.0136C45.7358 23.9452 45.6578 23.8904 45.5715 23.8522C45.4851 23.814 45.3921 23.7932 45.2977 23.791Z" fill="#B3BDBF"/>
<path d="M45.0017 20.5698C44.8127 20.596 44.6419 20.6961 44.5268 20.8481C44.4116 21.0001 44.3616 21.1917 44.3876 21.3806C44.4034 21.4949 44.4181 21.6094 44.4318 21.7242C44.4604 21.9108 44.5588 22.0796 44.7071 22.1964C44.8554 22.3132 45.0426 22.3693 45.2307 22.3533C45.42 22.3307 45.5926 22.2337 45.7105 22.0838C45.8284 21.9339 45.8819 21.7433 45.8593 21.5539C45.8446 21.4303 45.8288 21.3071 45.8119 21.1843C45.7992 21.0907 45.7681 21.0005 45.7205 20.9189C45.6728 20.8374 45.6096 20.766 45.5343 20.7089C45.459 20.6518 45.3732 20.6102 45.2818 20.5863C45.1904 20.5624 45.0952 20.5568 45.0017 20.5698Z" fill="#B3BDBF"/>
<path d="M43.7129 18.3405C43.7469 18.4504 43.78 18.5608 43.8122 18.6716C43.8706 18.8512 43.9953 19.0018 44.1607 19.0928C44.3262 19.1838 44.5201 19.2084 44.7031 19.1616C44.8862 19.1083 45.0406 18.9845 45.1324 18.8173C45.2243 18.6502 45.2459 18.4534 45.1927 18.2702C45.1583 18.1513 45.1228 18.0329 45.0863 17.9148C45.0584 17.8246 45.0129 17.7408 44.9526 17.6682C44.8923 17.5956 44.8182 17.5356 44.7347 17.4916C44.6512 17.4475 44.5598 17.4204 44.4658 17.4117C44.3718 17.4031 44.277 17.413 44.1868 17.4409C44.0966 17.4689 44.0128 17.5143 43.9402 17.5746C43.8676 17.635 43.8075 17.709 43.7635 17.7926C43.7195 17.8761 43.6924 17.9675 43.6837 18.0615C43.675 18.1555 43.6849 18.2503 43.7129 18.3405Z" fill="#B3BDBF"/>
<path d="M42.7041 15.7621C42.7894 15.9312 42.9368 16.0608 43.1155 16.1238C43.2942 16.1868 43.4903 16.1783 43.6628 16.1001C43.8348 16.0177 43.967 15.8703 44.0303 15.6904C44.0937 15.5105 44.083 15.3128 44.0007 15.1408C43.9473 15.0291 43.8929 14.9179 43.8374 14.8071C43.7952 14.7226 43.7367 14.6473 43.6654 14.5854C43.594 14.5235 43.5111 14.4763 43.4215 14.4465C43.3319 14.4166 43.2372 14.4048 43.143 14.4115C43.0488 14.4183 42.9568 14.4435 42.8724 14.4859C42.7879 14.5282 42.7126 14.5867 42.6508 14.6582C42.589 14.7296 42.5419 14.8125 42.5122 14.9022C42.4824 14.9918 42.4706 15.0865 42.4775 15.1807C42.4843 15.2749 42.5097 15.3668 42.5521 15.4512C42.6037 15.5545 42.6543 15.6581 42.7041 15.7621Z" fill="#B3BDBF"/>
<path d="M42.3163 12.2471C42.2454 12.1454 42.1736 12.0444 42.1009 11.944C42.0455 11.8675 41.9756 11.8027 41.8951 11.7533C41.8147 11.7039 41.7253 11.6708 41.632 11.6559C41.5388 11.6411 41.4435 11.6447 41.3517 11.6667C41.2599 11.6886 41.1732 11.7284 41.0968 11.7838C41.0204 11.8393 40.9556 11.9092 40.9062 11.9896C40.8567 12.0701 40.8236 12.1595 40.8088 12.2527C40.7939 12.346 40.7975 12.4412 40.8195 12.5331C40.8414 12.6249 40.8813 12.7115 40.9367 12.788C41.0044 12.8815 41.0713 12.9757 41.1372 13.0703C41.2492 13.2229 41.4156 13.3266 41.602 13.3598C41.7884 13.393 41.9803 13.3531 42.1381 13.2486C42.2945 13.1394 42.4011 12.9725 42.4345 12.7847C42.4679 12.5969 42.4254 12.4035 42.3163 12.2471Z" fill="#B3BDBF"/>
<path d="M39.1549 10.6674C39.2896 10.8008 39.4708 10.8767 39.6604 10.8793C39.8499 10.8818 40.0331 10.8108 40.1714 10.6811C40.308 10.548 40.3862 10.3661 40.3887 10.1754C40.3913 9.98464 40.318 9.80069 40.185 9.66396C40.0987 9.57527 40.0117 9.48729 39.9239 9.40001C39.7886 9.26563 39.6055 9.19051 39.4148 9.19117C39.2241 9.19182 39.0415 9.2682 38.9071 9.4035C38.7727 9.5388 38.6976 9.72194 38.6982 9.91263C38.6989 10.1033 38.7753 10.2859 38.9106 10.4203C38.9927 10.502 39.0741 10.5843 39.1549 10.6674Z" fill="#B3BDBF"/>
<path d="M36.5296 8.4126C36.6235 8.4795 36.7168 8.54728 36.8095 8.61594C36.9636 8.72671 37.1548 8.77307 37.3426 8.74517C37.5303 8.71727 37.6998 8.61731 37.815 8.46651C37.9286 8.31329 37.9767 8.12122 37.9487 7.93254C37.9207 7.74387 37.8189 7.57404 37.6656 7.46043C37.5656 7.38614 37.4649 7.31297 37.3636 7.24091C37.2082 7.13032 37.0153 7.08598 36.8272 7.11765C36.6392 7.14932 36.4714 7.2544 36.3608 7.40977C36.2502 7.56515 36.2059 7.75809 36.2375 7.94616C36.2692 8.13423 36.3743 8.30201 36.5296 8.4126Z" fill="#B3BDBF"/>
<path d="M33.854 6.81827C33.9582 6.86937 34.062 6.92134 34.1653 6.97419C34.3356 7.05788 34.5319 7.07197 34.7124 7.01346C34.893 6.95495 35.0436 6.82845 35.1325 6.66075C35.2192 6.49086 35.235 6.29348 35.1762 6.112C35.1175 5.93052 34.9891 5.77979 34.8192 5.69295C34.7089 5.63658 34.5981 5.58109 34.4869 5.52647C34.3155 5.44255 34.1179 5.43011 33.9374 5.4919C33.757 5.55369 33.6084 5.68464 33.5245 5.85594C33.4406 6.02725 33.4282 6.22487 33.4899 6.40535C33.5517 6.58582 33.6827 6.73435 33.854 6.81828L33.854 6.81827Z" fill="#B3BDBF"/>
<path d="M6.86608 20.1394C7.85071 15.3328 10.6498 11.0906 14.6816 8.2946C18.7133 5.49858 23.6675 4.36389 28.5143 5.12638L27.3116 5.50843C27.1298 5.56622 26.9785 5.6938 26.8908 5.86314C26.8031 6.03247 26.7862 6.2297 26.8438 6.41148C26.9058 6.59017 27.034 6.73829 27.2019 6.82537C27.3698 6.91245 27.5647 6.93186 27.7465 6.87961L31.7671 5.60239C31.8893 5.56355 31.9988 5.49278 32.0844 5.39742C32.1701 5.30205 32.2287 5.18555 32.2542 5.05995C32.2797 4.93434 32.2712 4.80421 32.2296 4.68299C32.1879 4.56177 32.1147 4.45388 32.0174 4.37045L28.7979 1.61035C28.653 1.48631 28.4647 1.42491 28.2746 1.43965C28.0844 1.4544 27.9079 1.54408 27.7838 1.68898C27.6598 1.83388 27.5984 2.02211 27.6131 2.21228C27.6279 2.40245 27.7176 2.57897 27.8625 2.70301L29.1017 3.76533C23.7889 2.83205 18.3223 4.02942 13.8861 7.09805C9.44984 10.1667 6.40115 14.8595 5.40039 20.16C5.42922 20.015 6.84312 20.2506 6.86608 20.1394Z" fill="#778183"/>
<path d="M5.69524 23.0167H10.7824C10.9729 23.0163 11.1554 22.9403 11.29 22.8055C11.4245 22.6706 11.5001 22.4879 11.5001 22.2974C11.5001 22.1069 11.4245 21.9242 11.29 21.7894C11.1554 21.6545 10.9729 21.5786 10.7824 21.5781H5.69524C5.50475 21.5786 5.3222 21.6545 5.18765 21.7894C5.0531 21.9242 4.97754 22.1069 4.97754 22.2974C4.97754 22.4879 5.0531 22.6706 5.18765 22.8055C5.3222 22.9403 5.50475 23.0163 5.69524 23.0167Z" fill="#778183"/>
<path d="M11.5012 29.4903C11.5013 29.2996 11.4256 29.1167 11.2908 28.9818C11.156 28.8469 10.9731 28.7711 10.7824 28.771H5.69524C5.50475 28.7714 5.3222 28.8474 5.18765 28.9822C5.0531 29.1171 4.97754 29.2998 4.97754 29.4903C4.97754 29.6808 5.0531 29.8635 5.18765 29.9984C5.3222 30.1332 5.50475 30.2092 5.69524 30.2096H10.7824C10.9731 30.2095 11.156 30.1337 11.2908 29.9988C11.4256 29.8639 11.5013 29.681 11.5012 29.4903Z" fill="#778183"/>
<path d="M11.5013 25.8939C11.5013 25.7032 11.4256 25.5202 11.2908 25.3853C11.156 25.2505 10.9731 25.1746 10.7824 25.1746H0.718679C0.528185 25.175 0.345639 25.251 0.21109 25.3858C0.0765403 25.5207 0.000976563 25.7034 0.000976562 25.8939C0.000976563 26.0844 0.0765403 26.2671 0.21109 26.4019C0.345639 26.5368 0.528185 26.6128 0.718679 26.6132H10.7824C10.9731 26.6131 11.156 26.5373 11.2908 26.4024C11.4256 26.2675 11.5013 26.0846 11.5013 25.8939Z" fill="#778183"/>
<path d="M41.3336 24.0955C41.3361 20.2448 39.9336 16.5255 37.3891 13.6353C34.8446 10.745 31.333 8.88247 27.5131 8.39698C23.6931 7.9115 19.8273 8.83644 16.6407 10.9983C13.4542 13.1602 11.1659 16.4104 10.2051 20.1393C10.6925 20.1102 11.1803 20.1904 11.6328 20.374C12.5024 17.1204 14.4855 14.2749 17.2368 12.3327C19.9882 10.3906 23.3335 9.47481 26.6904 9.74487C30.0473 10.0149 33.2032 11.4537 35.6087 13.8107C38.0142 16.1678 39.5169 19.2937 39.8552 22.6445C40.1935 25.9952 39.3459 29.3584 37.4602 32.1487C35.5744 34.939 32.7698 36.9796 29.5346 37.9152C26.2994 38.8508 22.8385 38.6222 19.7545 37.2692C16.6705 35.9162 14.1586 33.5245 12.6562 30.5104C12.3935 30.9413 11.9971 31.2746 11.5275 31.4595C13.171 34.5902 15.8165 37.0795 19.0413 38.5296C22.2661 39.9798 25.884 40.3069 29.3166 39.4588C32.7492 38.6108 35.7984 36.6364 37.9769 33.8514C40.1553 31.0663 41.3372 27.6313 41.3336 24.0955L41.3336 24.0955Z" fill="#778183"/>
</g>
<defs>
<clipPath id="clip0_3164_3920">
<rect width="46" height="46" fill="white"/>
</clipPath>
</defs>
</svg>
