<svg width="50" height="37" viewBox="0 0 50 37" fill="none" xmlns="http://www.w3.org/2000/svg">
<g clip-path="url(#clip0_1202_211)">
<rect x="5" y="25" width="7" height="5" fill="#C5FCFF"/>
<rect x="16" y="25" width="7" height="5" fill="#C5FCFF"/>
<rect x="27" y="25" width="7" height="5" fill="#C5FCFF"/>
<rect x="38" y="25" width="7" height="5" fill="#C5FCFF"/>
<path d="M46.4542 0.010376H3.51439C1.57402 0.010376 0 1.58443 0 3.52476V33.1479C0 35.0801 1.57406 36.6542 3.51439 36.6542H46.4626C48.4031 36.6542 49.9769 35.0801 49.9769 33.1398L49.9771 3.52497C49.9688 1.5846 48.3948 0.0105844 46.4544 0.0105844L46.4542 0.010376ZM48.303 33.1397C48.303 34.1556 47.4785 34.9884 46.4542 34.9884H3.51439C2.49011 34.9884 1.66563 34.1639 1.66563 33.1397V3.52485C1.66563 2.50057 2.49015 1.67608 3.51439 1.67608H46.4626C47.4787 1.67608 48.3032 2.50061 48.3032 3.52485L48.303 33.1397Z" fill="#18B7B7"/>
<path d="M4.16406 30.8245H13.325V24.162H4.16406V30.8245ZM5.82969 25.8276H11.6594V29.1589H5.82969V25.8276Z" fill="#18B7B7"/>
<path d="M14.9905 30.8245H24.1514V24.162H14.9905V30.8245ZM16.6561 25.8276H22.4858V29.1589H16.6561V25.8276Z" fill="#18B7B7"/>
<path d="M25.8171 30.8245H34.9781V24.162H25.8171V30.8245ZM27.4828 25.8276H33.3125V29.1589H27.4828V25.8276Z" fill="#18B7B7"/>
<path d="M36.6438 30.8245H45.8047V24.162H36.6438V30.8245ZM38.3094 25.8276H44.1391V29.1589H38.3094V25.8276Z" fill="#18B7B7"/>
<path d="M6.03789 16.6666H17.2725C18.3053 16.6666 19.1464 15.8255 19.1464 14.7928V6.88103C19.1547 5.8483 18.3136 5.0072 17.2808 5.0072H6.04618C5.00516 5.0072 4.16406 5.8483 4.16406 6.88103V14.7844C4.16406 15.8254 5.00516 16.6666 6.03789 16.6666ZM9.16094 11.6697H5.82969V10.0041H9.16094V11.6697ZM5.82969 14.7928V13.3353H9.16094V14.7928C9.16094 14.8677 9.17753 14.9343 9.18599 15.001H6.03787C5.92125 15.001 5.82969 14.9094 5.82969 14.7928ZM17.4891 11.6697H14.1578V10.2123C14.1578 10.0957 14.2494 10.0041 14.366 10.0041H17.2726C17.3476 10.0041 17.4141 9.98749 17.4808 9.97903V11.6697L17.4891 11.6697ZM17.2809 15.001H14.1412C14.1495 14.9343 14.1663 14.8594 14.1663 14.7928L14.1661 13.3353H17.4974V14.7928C17.4891 14.9094 17.3975 15.001 17.2809 15.001ZM17.2809 6.67283C17.3975 6.67283 17.4891 6.7644 17.4891 6.88103V8.12196C17.4891 8.24689 17.3975 8.33846 17.2809 8.33846H14.3743C13.3333 8.33846 12.4922 9.17956 12.4922 10.2123V14.7844C12.4922 14.9011 12.4006 14.9926 12.284 14.9926H11.0431C10.9181 15.0009 10.8266 14.9094 10.8266 14.7927V6.88101C10.8266 6.76438 10.9181 6.6728 11.0348 6.6728L17.2809 6.67283ZM6.03789 6.67283H9.17751C9.17751 6.73952 9.16092 6.81434 9.16092 6.88103V8.33845H5.82967V6.88103C5.82967 6.7644 5.92126 6.67283 6.03789 6.67283Z" fill="#18B7B7"/>
<path d="M26.65 6.67283H34.1453C34.6033 6.67283 34.9781 6.29806 34.9781 5.84002C34.9781 5.38197 34.6033 5.0072 34.1453 5.0072H26.65C26.1919 5.0072 25.8171 5.38197 25.8171 5.84002C25.8171 6.29806 26.1919 6.67283 26.65 6.67283Z" fill="#C5FCFF"/>
<path d="M44.9719 5.0072H37.4766C37.0186 5.0072 36.6438 5.38197 36.6438 5.84002C36.6438 6.29806 37.0186 6.67283 37.4766 6.67283H44.9719C45.43 6.67283 45.8047 6.29806 45.8047 5.84002C45.8047 5.38197 45.43 5.0072 44.9719 5.0072Z" fill="#C5FCFF"/>
<path d="M26.65 10.8369H27.4828C27.9408 10.8369 28.3156 10.4621 28.3156 10.0041C28.3156 9.54603 27.9408 9.17126 27.4828 9.17126H26.65C26.1919 9.17126 25.8171 9.54603 25.8171 10.0041C25.8171 10.4621 26.1919 10.8369 26.65 10.8369Z" fill="#C5FCFF"/>
<path d="M30.814 9.17126C30.356 9.17126 29.9812 9.54603 29.9812 10.0041C29.9812 10.4621 30.356 10.8369 30.814 10.8369H32.4796C32.9377 10.8369 33.3125 10.4621 33.3125 10.0041C33.3125 9.54603 32.9377 9.17126 32.4796 9.17126H30.814Z" fill="#C5FCFF"/>
<path d="M37.4765 10.0041C37.4765 9.54603 37.1017 9.17126 36.6437 9.17126H35.8108C35.3528 9.17126 34.978 9.54603 34.978 10.0041C34.978 10.4621 35.3528 10.8369 35.8108 10.8369H36.6437C37.1017 10.8369 37.4765 10.4621 37.4765 10.0041Z" fill="#C5FCFF"/>
<path d="M41.6405 10.8369C42.0986 10.8369 42.4733 10.4621 42.4733 10.0041C42.4733 9.54603 42.0986 9.17126 41.6405 9.17126H39.9749C39.5169 9.17126 39.1421 9.54603 39.1421 10.0041C39.1421 10.4621 39.5169 10.8369 39.9749 10.8369H41.6405Z" fill="#C5FCFF"/>
<path d="M44.3805 9.41282C44.2305 9.57109 44.1389 9.78758 44.1389 10.0041C44.1389 10.2206 44.2305 10.4371 44.3805 10.5953C44.5387 10.7453 44.7469 10.8369 44.9717 10.8369C45.1882 10.8369 45.4047 10.7453 45.563 10.5953C45.713 10.4371 45.8045 10.2206 45.8045 10.0041C45.8045 9.78758 45.713 9.57109 45.563 9.41282C45.2466 9.10458 44.6885 9.10458 44.3805 9.41282Z" fill="#C5FCFF"/>
</g>
<defs>
<clipPath id="clip0_1202_211">
<rect width="50" height="36.6646" fill="white"/>
</clipPath>
</defs>
</svg>
