<svg width="35" height="34" viewBox="0 0 35 34" fill="none" xmlns="http://www.w3.org/2000/svg">
<path d="M12.1 16.8313H16.1501C16.2123 16.8313 16.2626 16.781 16.2626 16.7188V12.6687C16.2626 12.6068 16.2123 12.5562 16.1501 12.5562H12.1C12.0381 12.5562 11.9878 12.6068 11.9878 12.6687V16.7188C11.9878 16.7807 12.0385 16.8313 12.1 16.8313Z" fill="#DBE5E7"/>
<path d="M18.85 16.8313H22.9001C22.962 16.8313 23.0123 16.781 23.0123 16.7188V12.6687C23.0123 12.6068 22.962 12.5562 22.9001 12.5562H18.85C18.7878 12.5562 18.7378 12.6068 18.7378 12.6687V16.7188C18.7378 16.7807 18.7878 16.8313 18.85 16.8313Z" fill="#DBE5E7"/>
<path d="M25.5998 16.8313H29.6496C29.7121 16.8313 29.7625 16.781 29.7625 16.7188V12.6687C29.7625 12.6068 29.7121 12.5562 29.6496 12.5562H25.5998C25.5376 12.5562 25.4873 12.6068 25.4873 12.6687V16.7188C25.4873 16.7807 25.5386 16.8313 25.5998 16.8313Z" fill="#DBE5E7"/>
<path d="M5.35033 23.0185H9.40041C9.46229 23.0185 9.51295 22.9682 9.51295 22.9059V18.8562C9.51295 18.794 9.46229 18.7437 9.40041 18.7437H5.35033C5.28811 18.7437 5.23779 18.794 5.23779 18.8562V22.9059C5.23779 22.9682 5.28811 23.0185 5.35033 23.0185Z" fill="#DBE5E7"/>
<path d="M12.1 23.0185H16.1501C16.2123 23.0185 16.2626 22.9682 16.2626 22.9059V18.8562C16.2626 18.794 16.2123 18.7437 16.1501 18.7437H12.1C12.0381 18.7437 11.9878 18.794 11.9878 18.8562V22.9059C11.9878 22.9682 12.0385 23.0185 12.1 23.0185Z" fill="#DBE5E7"/>
<path d="M18.85 23.0185H22.9001C22.962 23.0185 23.0123 22.9682 23.0123 22.9059V18.8562C23.0123 18.794 22.962 18.7437 22.9001 18.7437H18.85C18.7878 18.7437 18.7378 18.794 18.7378 18.8562V22.9059C18.7378 22.9682 18.7878 23.0185 18.85 23.0185Z" fill="#DBE5E7"/>
<path d="M25.5998 23.0185H29.6496C29.7121 23.0185 29.7625 22.9682 29.7625 22.9059V18.8562C29.7625 18.794 29.7121 18.7437 29.6496 18.7437H25.5998C25.5376 18.7437 25.4873 18.794 25.4873 18.8562V22.9059C25.4873 22.9682 25.5386 23.0185 25.5998 23.0185Z" fill="#DBE5E7"/>
<path d="M5.35033 29.206H9.40041C9.46229 29.206 9.51295 29.1557 9.51295 29.0938V25.0437C9.51295 24.9811 9.46229 24.9312 9.40041 24.9312H5.35033C5.28811 24.9312 5.23779 24.9811 5.23779 25.0437V29.0938C5.23779 29.1557 5.28811 29.206 5.35033 29.206Z" fill="#DBE5E7"/>
<path d="M12.1 29.206H16.1501C16.2123 29.206 16.2626 29.1557 16.2626 29.0938V25.0437C16.2626 24.9811 16.2123 24.9312 16.1501 24.9312H12.1C12.0381 24.9312 11.9878 24.9811 11.9878 25.0437V29.0938C11.9878 29.1557 12.0385 29.206 12.1 29.206Z" fill="#DBE5E7"/>
<path d="M18.85 29.206H22.9001C22.962 29.206 23.0123 29.1557 23.0123 29.0938V25.0437C23.0123 24.9811 22.962 24.9312 22.9001 24.9312H18.85C18.7878 24.9312 18.7378 24.9811 18.7378 25.0437V29.0938C18.7378 29.1557 18.7878 29.206 18.85 29.206Z" fill="#DBE5E7"/>
<path d="M25.5998 29.206H29.6496C29.7121 29.206 29.7625 29.1557 29.7625 29.0938V25.0437C29.7625 24.9811 29.7121 24.9312 29.6496 24.9312H25.5998C25.5376 24.9312 25.4873 24.9811 25.4873 25.0437V29.0938C25.4873 29.1557 25.5386 29.206 25.5998 29.206Z" fill="#F5843C"/>
<path d="M32.1256 5.01904H27.8841V5.97546C27.8841 7.0485 27.011 7.92196 25.9376 7.92196C24.8643 7.92196 23.9908 7.04884 23.9908 5.97546V5.01904H19.4467V5.97546C19.4467 7.0485 18.5739 7.92196 17.5002 7.92196C16.4265 7.92196 15.5537 7.04884 15.5537 5.97546V5.01904H11.0089V5.97546C11.0089 7.0485 10.1358 7.92196 9.06242 7.92196C7.98904 7.92196 7.11592 7.04884 7.11592 5.97546V5.01904H2.8751C2.5028 5.01904 2.2002 5.3213 2.2002 5.69394V31.5693C2.2002 31.9423 2.5028 32.2442 2.8751 32.2442H32.125C32.4976 32.2442 32.7999 31.9416 32.7999 31.5693V5.69394C32.8002 5.3213 32.4973 5.01904 32.1256 5.01904ZM31.4504 30.8941H3.55034V10.8691H31.4504V30.8941Z" fill="#778183"/>
<path d="M17.5 7.38165C18.2769 7.38165 18.9062 6.75163 18.9062 5.97507V3.16293C18.9062 2.38603 18.2769 1.75635 17.5 1.75635C16.7231 1.75635 16.0938 2.38603 16.0938 3.16293V5.97507C16.0938 6.75163 16.7231 7.38165 17.5 7.38165Z" fill="#778183"/>
<path d="M25.9373 7.38165C26.7136 7.38165 27.3436 6.75163 27.3436 5.97507V3.16293C27.3436 2.38603 26.7136 1.75635 25.9373 1.75635C25.1608 1.75635 24.5308 2.38603 24.5308 3.16293V5.97507C24.5311 6.75163 25.1608 7.38165 25.9373 7.38165Z" fill="#778183"/>
<path d="M9.06249 7.38165C9.83939 7.38165 10.4691 6.75163 10.4691 5.97507V3.16293C10.4691 2.38603 9.83939 1.75635 9.06249 1.75635C8.28559 1.75635 7.65625 2.38603 7.65625 3.16293V5.97507C7.65625 6.75163 8.28525 7.38165 9.06249 7.38165Z" fill="#778183"/>
</svg>
