<svg width="54" height="54" viewBox="0 0 54 54" fill="none" xmlns="http://www.w3.org/2000/svg">
<rect x="18" y="31" width="34" height="8" rx="2" fill="#CDE6EA"/>
<rect x="18" y="40" width="34" height="8" rx="2" fill="#CDE6EA"/>
<path d="M21.3206 6C16.435 6 12.0144 6.53427 8.74656 7.4276C7.11263 7.87425 5.76673 8.40362 4.76286 9.05244C3.75898 9.70125 3 10.5511 3 11.6301C3 11.684 3.00302 11.7363 3.00673 11.7889V20.8409C3.00725 20.846 3.00781 20.8511 3.00841 20.8562C3.00783 20.8595 3.00727 20.8628 3.00673 20.8662V30.1606C3.0067 30.1645 3.0067 30.1683 3.00673 30.1722C3.00672 30.1745 3.00672 30.1768 3.00673 30.179V39.4734C3.00672 39.5092 3.00897 39.5449 3.01346 39.5804C3.09814 40.271 3.50023 40.8547 4.03717 41.3373C4.57412 41.8199 5.27242 42.2284 6.11321 42.6011C7.79478 43.3463 10.071 43.9391 12.838 44.3513C12.95 44.3679 13.0642 44.3624 13.1741 44.3352C13.284 44.3079 13.3874 44.2595 13.4784 44.1925C13.5694 44.1256 13.6462 44.0416 13.7045 43.9451C13.7627 43.8487 13.8013 43.7419 13.818 43.6306C13.8517 43.4063 13.7945 43.1779 13.6587 42.9954C13.523 42.813 13.3198 42.6916 13.0939 42.6577C10.4319 42.2612 8.26923 41.6854 6.81196 41.0396C6.08333 40.7166 5.53523 40.3719 5.19558 40.0667C4.85948 39.7646 4.75145 39.5321 4.73087 39.3779V32.5509C5.13497 32.8156 5.59682 33.0592 6.11322 33.2881C7.79476 34.0334 10.0711 34.6262 12.838 35.0383C12.9501 35.0552 13.0645 35.0499 13.1746 35.0228C13.2846 34.9956 13.3882 34.9472 13.4794 34.8803C13.5706 34.8134 13.6476 34.7292 13.706 34.6327C13.7643 34.5362 13.803 34.4292 13.8196 34.3178C13.8364 34.2067 13.8308 34.0933 13.8034 33.9842C13.776 33.8751 13.7272 33.7725 13.6598 33.6821C13.5924 33.5918 13.5077 33.5155 13.4107 33.4576C13.3136 33.3998 13.2059 33.3615 13.0939 33.3449C10.4318 32.9484 8.26921 32.3659 6.81196 31.7201C6.08334 31.3972 5.53523 31.0591 5.19558 30.7539C4.85946 30.4518 4.75144 30.2126 4.73087 30.0585V23.2364C4.80622 23.2855 4.88159 23.3329 4.95985 23.3802C5.98644 24.0006 7.33899 24.512 8.96377 24.9415C12.2133 25.8006 16.552 26.3123 21.3223 26.3123C26.0927 26.3123 30.4297 25.8006 33.6792 24.9415C35.304 24.512 36.6565 24.0006 37.6831 23.3802C37.7614 23.3329 37.8367 23.2855 37.9121 23.2364V25.9027C37.9117 26.0151 37.9335 26.1265 37.9764 26.2305C38.0194 26.3345 38.0825 26.4291 38.1622 26.5089C38.242 26.5887 38.3367 26.6521 38.4412 26.6955C38.5456 26.739 38.6576 26.7615 38.7708 26.762C38.8846 26.7624 38.9973 26.7405 39.1025 26.6975C39.2077 26.6544 39.3033 26.5912 39.3838 26.5113C39.4642 26.4314 39.5279 26.3365 39.5713 26.2321C39.6146 26.1276 39.6367 26.0157 39.6362 25.9027V20.8844C39.6362 20.8839 39.6362 20.8833 39.6362 20.8827C39.6363 20.8816 39.6362 20.8805 39.6362 20.8795C39.6363 20.8756 39.6363 20.8718 39.6362 20.8679C39.6405 20.8064 39.6431 20.7451 39.6431 20.684C39.6425 20.6527 39.6403 20.6214 39.6362 20.5904V11.7891C39.6398 11.7365 39.6431 11.6841 39.6431 11.6303C39.6431 10.5513 38.8841 9.70144 37.8802 9.05263C36.8763 8.40381 35.5305 7.87443 33.8965 7.42778C30.6286 6.53427 26.2063 6 21.3206 6ZM21.3206 7.71178C26.078 7.71178 30.387 8.24335 33.4384 9.07751C34.9642 9.4946 36.174 9.99179 36.9372 10.485C37.6342 10.9355 37.8755 11.3183 37.9121 11.5633V11.697C37.8752 11.9411 37.6336 12.3168 36.9372 12.7669C36.174 13.2601 34.9642 13.759 33.4384 14.1761C30.387 15.0102 26.078 15.5468 21.3206 15.5468C16.5633 15.5468 12.256 15.0102 9.20453 14.1761C7.6788 13.759 6.46894 13.2601 5.70575 12.7669C5.00934 12.3168 4.76779 11.9411 4.73087 11.697V11.5633C4.76747 11.3183 5.00875 10.9355 5.70575 10.4851C6.46894 9.9918 7.6788 9.4946 9.20453 9.07752C12.256 8.24336 16.5633 7.71178 21.3206 7.71178V7.71178ZM4.73087 14.1794C4.74172 14.1865 4.75195 14.194 4.76287 14.2011C5.76674 14.8499 7.11263 15.3843 8.74656 15.8309C12.0144 16.7243 16.435 17.2585 21.3207 17.2585C26.2063 17.2585 30.6286 16.7243 33.8964 15.8309C35.5304 15.3843 36.8762 14.8499 37.8801 14.2011C37.8909 14.194 37.9013 14.1865 37.912 14.1794V20.7457C37.8798 20.9875 37.585 21.4378 36.7856 21.9209C35.9818 22.4066 34.7629 22.8844 33.2414 23.2866C30.1984 24.091 25.9655 24.6005 21.3206 24.6005C16.6757 24.6005 12.4512 24.091 9.40821 23.2866C7.88679 22.8844 6.66109 22.4066 5.85728 21.9209C5.05788 21.4378 4.76315 20.9875 4.73087 20.7457V14.1794ZM19.9282 30.0902C18.2305 30.0902 16.8419 31.4747 16.8419 33.1611V37.2683C16.8419 38.1697 17.2386 38.985 17.8673 39.5485C17.2382 40.112 16.8419 40.9285 16.8419 41.8303V45.9308C16.8419 47.6172 18.2305 49 19.9282 49H49.9137C51.6114 49 53 47.6172 53 45.9308V41.8303C53 40.9281 52.6025 40.112 51.9729 39.5485C52.6021 38.9849 53 38.1702 53 37.2683V33.1611C53 31.4747 51.6114 30.0902 49.9137 30.0902H19.9282ZM19.9282 31.6766H49.9137C50.7552 31.6766 51.4089 32.3216 51.4089 33.1611V37.2683C51.4089 38.1078 50.7552 38.7594 49.9137 38.7594H19.9282C19.0867 38.7594 18.4331 38.1078 18.4331 37.2683V33.1611C18.4331 32.3216 19.0867 31.6766 19.9282 31.6766ZM23.326 34.4248C23.115 34.4252 22.9129 34.5087 22.7639 34.6569C22.6148 34.8052 22.5312 35.0061 22.5312 35.2155C22.5316 35.4247 22.6155 35.6251 22.7644 35.773C22.9134 35.9209 23.1153 36.0042 23.326 36.0045H25.1646C25.3755 36.0046 25.5779 35.9215 25.7272 35.7736C25.8765 35.6257 25.9606 35.425 25.961 35.2155C25.961 35.1117 25.9404 35.0089 25.9004 34.9129C25.8604 34.817 25.8018 34.7298 25.7278 34.6564C25.6538 34.5829 25.566 34.5247 25.4694 34.485C25.3728 34.4452 25.2692 34.4248 25.1646 34.4248H23.326ZM36.2435 34.4248C36.0326 34.4252 35.8304 34.5087 35.6814 34.6569C35.5324 34.8052 35.4488 35.0061 35.4488 35.2155C35.4492 35.4247 35.5331 35.6251 35.682 35.773C35.831 35.9209 36.0329 36.0042 36.2435 36.0045H46.516C46.7266 36.0042 46.9285 35.9209 47.0775 35.773C47.2264 35.6251 47.3103 35.4247 47.3107 35.2155C47.3107 35.0061 47.2271 34.8052 47.0781 34.6569C46.9291 34.5087 46.7269 34.4252 46.516 34.4248H36.2435ZM19.9282 40.3391H49.9137C50.7552 40.3391 51.4089 40.9908 51.4089 41.8303V45.9308C51.4089 46.7703 50.7552 47.422 49.9137 47.422H19.9282C19.0867 47.422 18.4331 46.7703 18.4331 45.9308V41.8303C18.4331 40.9908 19.0867 40.3391 19.9282 40.3391ZM23.326 43.0874C23.1153 43.0877 22.9134 43.171 22.7644 43.3189C22.6155 43.4668 22.5316 43.6672 22.5312 43.8764C22.5303 43.9806 22.5502 44.084 22.5897 44.1807C22.6292 44.2773 22.6876 44.3652 22.7615 44.4393C22.8353 44.5134 22.9232 44.5723 23.0201 44.6125C23.117 44.6527 23.2209 44.6736 23.326 44.6738H25.1646C25.2698 44.6738 25.3739 44.6531 25.471 44.613C25.568 44.5728 25.6561 44.514 25.7302 44.4399C25.8042 44.3657 25.8628 44.2778 25.9024 44.181C25.942 44.0843 25.9619 43.9808 25.961 43.8764C25.9606 43.6669 25.8765 43.4662 25.7272 43.3183C25.5779 43.1704 25.3755 43.0873 25.1646 43.0874H23.326ZM36.2435 43.0874C36.0329 43.0877 35.831 43.171 35.682 43.3189C35.5331 43.4668 35.4492 43.6672 35.4488 43.8764C35.4479 43.9806 35.4678 44.084 35.5073 44.1807C35.5468 44.2773 35.6052 44.3652 35.679 44.4393C35.7529 44.5134 35.8408 44.5723 35.9377 44.6125C36.0346 44.6527 36.1385 44.6736 36.2435 44.6738H46.516C46.621 44.6736 46.7249 44.6527 46.8218 44.6125C46.9187 44.5723 47.0066 44.5134 47.0805 44.4393C47.1543 44.3652 47.2127 44.2773 47.2522 44.1807C47.2917 44.084 47.3116 43.9806 47.3107 43.8764C47.3103 43.6672 47.2264 43.4668 47.0775 43.3189C46.9285 43.171 46.7266 43.0877 46.516 43.0874H36.2435Z" fill="#369BAC"/>
</svg>
