<svg width="54" height="46" viewBox="0 0 54 46" fill="none" xmlns="http://www.w3.org/2000/svg">
<path d="M0.682861 4.98668C0.682861 2.66519 2.5648 0.783249 4.88629 0.783249H49.0828C51.4043 0.783249 53.2863 2.66519 53.2863 4.98667V31.759C53.2863 34.0805 51.4043 35.9625 49.0828 35.9625H4.88629C2.5648 35.9625 0.682861 34.0805 0.682861 31.759V4.98668Z" fill="#369BAC"/>
<path fill-rule="evenodd" clip-rule="evenodd" d="M0.713745 17.5628V15.2256H3.27215C4.94761 15.2256 6.54731 14.5274 7.6867 13.299L8.03633 12.9221C10.5999 10.1583 15.1984 11.2475 16.2498 14.8676C16.8886 17.0673 19.8968 17.3351 20.9142 15.2829L22.6543 11.7728C24.4703 8.1097 29.6191 7.90548 31.7195 11.4132L33.0325 13.606C33.8341 14.9446 35.7292 15.0627 36.6907 13.8339C38.2638 11.8235 41.1808 11.4959 43.1607 13.1072L43.4275 13.3243C44.9387 14.5541 46.8275 15.2256 48.7759 15.2256H53.3171V17.5628H48.7759C46.2901 17.5628 43.8802 16.7061 41.9522 15.1371L41.6854 14.92C40.7202 14.1345 39.2982 14.2942 38.5314 15.2743C36.559 17.7949 32.6715 17.5527 31.0273 14.8067L29.7143 12.6139C28.5637 10.6924 25.7431 10.8043 24.7483 12.8109L23.0082 16.321C21.0446 20.282 15.2383 19.7651 14.0053 15.5195C13.4606 13.6439 11.0781 13.0796 9.74992 14.5115L9.4003 14.8885C7.81863 16.5937 5.59797 17.5628 3.27215 17.5628H0.713745Z" fill="#9BCDD5"/>
<path fill-rule="evenodd" clip-rule="evenodd" d="M0.682861 24.97V22.4367C2.44196 23.3862 4.70983 23.0517 6.10579 21.4529L6.47441 21.0307C7.97824 19.3083 10.6245 19.2148 12.2461 20.8268L16.3298 24.8864C17.6355 26.1843 19.759 26.1346 21.0025 24.777L23.217 22.3593C25.5847 19.7743 29.7362 20.0428 31.7513 22.9112L33.8491 25.8973C34.0844 26.2323 34.5934 26.1899 34.7701 25.8206L37.1466 20.853C38.2594 18.5268 41.2446 17.8367 43.2656 19.4384C45.9007 21.5269 49.4261 22.11 52.5934 20.9812L53.2863 20.7343V23.2151C49.3834 24.5709 45.0553 23.8392 41.8138 21.2701C40.9687 20.6003 39.7203 20.8889 39.255 21.8617L36.8785 26.8292C35.9305 28.8109 33.1994 29.0384 31.9366 27.2408L29.8388 24.2547C28.6823 22.6084 26.2995 22.4543 24.9405 23.938L22.726 26.3556C20.5853 28.6928 16.9297 28.7783 14.682 26.5439L10.5984 22.4844C9.93437 21.8243 8.85079 21.8626 8.23502 22.5679L7.8664 22.9901C6.0155 25.11 3.16232 25.7765 0.682861 24.97Z" fill="#CDE6EA"/>
<path d="M11.1917 43.39C11.1917 42.3811 12.0095 41.5633 13.0184 41.5633H40.9512C41.96 41.5633 42.7779 42.3811 42.7779 43.39V43.39C42.7779 44.3989 41.96 45.2168 40.9512 45.2168H13.0184C12.0095 45.2168 11.1917 44.3989 11.1917 43.39V43.39Z" fill="#9BCDD5"/>
<path d="M18.9261 38.8217C18.9261 37.8128 19.744 36.9949 20.7529 36.9949H32.8136C33.8224 36.9949 34.6403 37.8128 34.6403 38.8217V38.8217C34.6403 39.8306 33.8224 40.6485 32.8135 40.6485H20.7529C19.744 40.6485 18.9261 39.8306 18.9261 38.8217V38.8217Z" fill="#9BCDD5"/>
</svg>
