<?xml version="1.0" encoding="UTF-8" standalone="no"?>
<svg
   width="250"
   height="400"
   viewBox="0 0 250 400"
   fill="none"
   version="1.1"
   id="svg11"
   sodipodi:docname="DiagonalPatterns3.svg"
   inkscape:version="1.1 (c4e8f9e, 2021-05-24)"
   xmlns:inkscape="http://www.inkscape.org/namespaces/inkscape"
   xmlns:sodipodi="http://sodipodi.sourceforge.net/DTD/sodipodi-0.dtd"
   xmlns="http://www.w3.org/2000/svg"
   xmlns:svg="http://www.w3.org/2000/svg">
  <sodipodi:namedview
     id="namedview13"
     pagecolor="#ffffff"
     bordercolor="#666666"
     borderopacity="1.0"
     inkscape:pageshadow="2"
     inkscape:pageopacity="0.0"
     inkscape:pagecheckerboard="0"
     showgrid="false"
     width="250px"
     inkscape:zoom="1.3089232"
     inkscape:cx="123.38386"
     inkscape:cy="205.89444"
     inkscape:window-width="1296"
     inkscape:window-height="1003"
     inkscape:window-x="79"
     inkscape:window-y="25"
     inkscape:window-maximized="0"
     inkscape:current-layer="svg11" />
  <path
     fill-rule="evenodd"
     clip-rule="evenodd"
     d="m 119.353,479.628 85.508,-126.583 -3.609,-2.438 -85.508,126.583 z m 83.003,-138.435 -90.221,133.559 -3.609,-2.438 70.984,-105.082 -3.609,-2.438 59.929,-88.716 3.609,2.438 -40.692,60.239 z m 0,0 48.035,-71.11 3.609,2.438 -10.412,15.414 3.609,2.438 -28.535,42.241 -3.609,-2.438 -9.088,13.454 z m -97.439,128.683 70.984,-105.082 -3.609,-2.438 33.363,-49.388 -3.609,-2.438 -71.907,106.448 -3.609,-2.438 -32.44,48.023 3.609,2.437 32.44,-48.022 3.609,2.438 -32.44,48.022 z m 97.129,-159.347 31.122,-46.072 -3.609,-2.438 -31.122,46.072 -3.609,-2.437 -43.088,63.785 3.609,2.438 43.088,-63.785 z m 11.806,-33.038 19.908,-29.471 -3.609,-2.438 -19.908,29.472 z m -3.61,-2.437 -38.26,56.639 -3.609,-2.438 -66.654,98.672 -3.609,-2.437 66.654,-98.673 3.609,2.438 38.26,-56.639 z M 98.11,425.49 79.654,452.811 76.045,450.373 94.501,423.052 Z m -25.674,22.445 66.157,-97.937 -3.609,-2.438 -66.157,97.937 z m 144.937,-214.559 -35.763,52.942 -3.609,-2.438 35.763,-52.942 z m -71.73,90.625 50.488,-74.74 -3.609,-2.438 -50.488,74.74 z m -28.962,42.873 -51.463,76.185 -3.609,-2.438 51.463,-76.185 z m -16.375,8.68 62.041,-91.842 -3.61,-2.438 -62.04,91.842 z m 98.148,-160.855 -48.223,71.388 -3.609,-2.438 48.223,-71.3879 z M 50.782,433.307 88.049,378.139 84.44,375.701 47.173,430.869 Z M 152.737,266.815 76.003,380.409 72.394,377.971 149.128,264.377 Z m -21.616,16.439 71.726,-106.1803 -3.609,-2.4379 -71.726,106.1802 z m -71.705,106.149 -23.071,34.153 -3.609,-2.438 23.071,-34.153 z m 6.978,-25.891 52.693,-78.004 -3.61,-2.438 -52.692,78.004 z M 197.86,153.3334 126.256,259.333 122.647,256.895 194.251,150.8955 Z M 71.09,325.439 182.085,161.1263 178.476,158.6884 67.481,323.001 Z m -23.959,35.467 -32.439,48.022 -3.609,-2.437 32.439,-48.023 z M 21.91,413.804 92.716,308.985 89.107,306.547 18.301,411.366 Z m 129.83,-44.365 -61.259,90.686 -3.609,-2.438 61.259,-90.686 z M 6.27,403.24 l 12.137,-17.967 -3.609,-2.438 28.555,-42.272 -3.609,-2.438 -40.692,60.239 3.609,2.438 12.137,-17.967 -12.137,17.967 z m -10.8267,-7.314 40.6917,-60.239 3.609,2.438 115.463,-170.9258 -3.609,-2.4379 L 55.372,307.21 51.763,304.772 -8.1657,393.488 Z M 157.616,148.0723 51.763,304.772 l -3.609,-2.438 -33.362,49.389 -3.609,-2.438 71.907,-106.448 3.609,2.437 67.308,-99.6395 z M 11.182,349.285 l -26.5658,39.328 -3.609,-2.438 26.5658,-39.328 z m -3.608,-2.438 43.087,-63.785 -3.609,-2.438 -43.087,63.785 z m -22.6334,25.724 -7.5423,11.166 -3.609,-2.438 7.5423,-11.166 z m -3.609,-2.438 -3.609,-2.438 38.2604,-56.639 3.609,2.438 z M 82.637,212.3836 15.983,311.056 12.374,308.618 79.028,209.9457 Z m -3.608,-2.438 44.422,-65.7611 -3.609,-2.438 -44.422,65.7611 z M 101.833,160.625 24.109,275.685 20.5,273.247 98.224,158.1871 Z m -142.4798,210.922 21.7392,-32.182 -3.609,-2.438 -21.7392,32.182 z m 43.2698,-79.616 -50.4877,74.74 -3.609,-2.438 50.4877,-74.74 z m 28.962,-42.874 58.976,-87.3059 -3.609,-2.4379 -58.976,87.3058 z m 1.939,-18.431 -62.0403,91.842 -3.609,-2.438 62.0403,-91.8421 z m -95.8248,126.293 31.4641,-46.578 -3.609,-2.438 -31.4641,46.578 z M 82.017,143.2767 31.346,218.2892 27.737,215.8513 78.408,140.8388 Z M -47.7796,319.862 28.954,206.2674 25.345,203.8295 -51.3886,317.424 Z m 7.1804,-26.191 -36.1376,53.497 -3.609,-2.438 36.1376,-53.497 z M 31.106,187.5219 62.083,141.6642 58.474,139.22624 27.497,185.084 Z M 9.691,203.6618 -43.0007,281.665 -46.6098,279.227 6.082,201.2238 Z m -100.8639,133.7542 26.5663,-39.328 -3.6091,-2.437 -26.56618,39.327 z M -23.8761,222.2315 -98.39098,332.54 -101.99999,330.102 -27.4851,219.7935 Z M 0.082,186.7641 32.522,138.74153 28.913,136.30363 -3.5265,184.3262 Z M 43.066,138.69462 -31.0665,248.437 -34.6755,245.999 39.457,136.2567 Z m 3.986,141.92938 72.26,-106.9707 -3.609,-2.4379 -72.26,106.9706 z M 139.759,158.9455 83.09,242.836 79.481,240.398 136.15,156.5075 Z M 189.2,132.43786 51.676,336.024 48.066,333.586 185.591,129.99993 Z"
     fill="url(#paint0_linear)"
     fill-opacity="0.5"
     id="path2"
     style="fill:url(#paint0_linear)" />
  <defs
     id="defs9">
    <linearGradient
       id="paint0_linear"
       x1="133.304"
       y1="200.12601"
       x2="236.10201"
       y2="53.968102"
       gradientUnits="userSpaceOnUse"
       gradientTransform="translate(-102,130)">
      <stop
         stop-color="#C7D1D3"
         id="stop4" />
      <stop
         offset="1"
         stop-color="#F7F7F8"
         stop-opacity="0"
         id="stop6" />
    </linearGradient>
  </defs>
</svg>
