<svg width="541" height="500" fill="none" xmlns="http://www.w3.org/2000/svg"><path fill-rule="evenodd" clip-rule="evenodd" d="M281.134-230L102.599 34.297l7.535 5.09L288.669-224.91l-7.535-5.09zM107.829 59.044L296.205-219.82l7.535 5.09L155.53 4.675l7.535 5.09L37.938 195l-7.536-5.09 84.963-125.775-7.535-5.09L7.535 207.516 0 202.426l21.74-32.183-7.535-5.09 59.577-88.197 7.536 5.09 18.976-28.092 7.535 5.09zM311.276-209.64L163.065 9.766l7.536 5.09-69.659 103.12 7.535 5.09L258.613-99.191l7.536 5.09 67.732-100.268-7.535-5.09-67.732 100.268-7.535-5.09 67.732-100.268-7.535-5.09zM108.477 123.067l-64.98 96.195 7.534 5.091 64.982-96.196 7.535 5.089L213.512.068l-7.536-5.09-89.963 133.178-7.536-5.089zm-24.65 68.98L42.26 253.582l7.535 5.09 41.568-61.534-7.536-5.091zm7.536 5.091l79.885-118.26 7.536 5.09-79.886 118.26-7.535-5.09zm87.421-113.17l139.169-206.021 7.535 5.09L186.319 89.059l-7.535-5.09zm146.705-200.931l38.534-57.045 7.536 5.09-38.535 57.045-7.535-5.09zm53.605-46.865L240.962 40.658l7.535 5.09L386.63-158.737l-7.536-5.091zM76.476 284.157l74.67-110.539 7.536 5.09-74.671 110.54-7.535-5.091zM226.242 94.939L120.827 250.992l7.535 5.09 105.416-156.053-7.536-5.09zm60.47-89.517l107.452-159.069 7.536 5.091L294.247 10.512l-7.535-5.09zm34.19-18.123l-129.536 191.76 7.536 5.09L328.438-7.611l-7.536-5.09zM115.976 323.154L216.663 174.1l7.536 5.091-100.688 149.053-7.535-5.09zm308.33-456.44L346.495-18.098l7.536 5.09 77.81-115.188-7.535-5.09zM211.43 214.339L371.646-22.838l7.535 5.09L218.965 219.43l-7.535-5.09zm45.133-34.322L106.804 401.713l7.536 5.09 149.758-221.696-7.535-5.09zM406.279-41.617l48.169-71.309 7.536 5.091-48.17 71.308-7.535-5.09zm-14.571 54.06L281.69 175.31l7.536 5.09L399.243 17.533l-7.535-5.09zM117.216 451.281l149.504-221.32 7.536 5.09-149.505 221.321-7.535-5.091zM381.904 91.937L150.155 435.01l7.535 5.09L389.44 97.027l-7.536-5.09zm50.024-74.053L499.66-82.384l7.535 5.09-67.732 100.268-7.535-5.09zm52.661-110.448l-147.84 218.856 7.536 5.09L492.124-87.474l-7.535-5.09zM213.512.068L341.417-189.28l7.536 5.091L221.047 5.158l-7.535-5.09zm303.731-70.575l-25.341 37.514 7.535 5.09-59.621 88.261 7.536 5.09 84.962-125.775-7.535-5.09-25.342 37.514 25.341-37.514-7.535-5.09zm22.606 15.27L454.887 70.54l-7.536-5.09L206.274 422.33l7.535 5.09 200.913-297.424 7.535 5.09L547.385-50.147l-7.536-5.09zM201.244 462.266l221.013-327.179 7.535 5.091 69.659-103.12 7.535 5.09-150.137 222.257-7.535-5.09L208.78 467.356l-7.536-5.09zM506.987 42.147l55.469-82.113 7.535 5.09-55.469 82.114-7.535-5.09zm7.535 5.09l-89.964 133.18 7.536 5.09 89.963-133.179-7.535-5.09zm47.256-53.71l15.748-23.312 7.536 5.09-15.748 23.313-7.536-5.09zm7.536 5.09l7.535 5.09-79.886 118.26-7.535-5.09 79.886-118.26zm-211.52 329.371l139.169-206.021 7.535 5.09-139.169 206.022-7.535-5.091zm7.535 5.091l-92.751 137.305 7.535 5.09 92.751-137.305-7.535-5.09zm-47.615 102.978l162.283-240.238 7.536 5.09L325.25 441.147l-7.536-5.09zM615.203-4.333l-45.39 67.193 7.535 5.09L622.738.756l-7.535-5.09zm-90.345 166.232L630.273 5.846l7.536 5.09L532.394 166.99l-7.536-5.09zm-60.47 89.517L341.25 433.706l7.535 5.09 123.138-182.289-7.535-5.091zm-4.049 38.484L589.875 98.14l7.536 5.09-129.536 191.76-7.536-5.09zM660.415 26.207L594.72 123.46l7.536 5.09 65.695-97.252-7.536-5.09zM359.089 472.28l105.799-156.621 7.535 5.09-105.799 156.621-7.535-5.09zm271.007-368.698L469.88 340.759l7.535 5.09 160.216-237.177-7.535-5.091zm-14.992 54.685l75.453-111.698 7.535 5.09-75.453 111.698-7.535-5.09zM465.388 379.898l-64.679 95.748 7.536 5.09 64.678-95.748-7.535-5.09zm44.712-33.699l110.018-162.866 7.535 5.091-110.017 162.865-7.536-5.09zm210.598-279.27l-55.468 82.113 7.535 5.091 55.469-82.114-7.536-5.09zM580.187 307.427L735.769 77.109l7.535 5.09-155.582 230.318-7.535-5.09zm-50.024 74.053l-67.732 100.268 7.535 5.09 67.732-100.268-7.535-5.09zm-89.746 100.366L595.2 252.711l7.535 5.09-154.783 229.135-7.535-5.09zm-8.324-296.339L281.22 408.855l7.535 5.09 150.874-223.348-7.536-5.09zM238.528 439.564L356.85 264.405l7.535 5.09-118.322 175.159-7.535-5.09zM135.297 494.91L422.44 69.835l7.536 5.09L142.833 500l-7.536-5.09z" fill="url(#paint0_linear)" fill-opacity=".5"/><defs><linearGradient id="paint0_linear" x1="464.975" y1="82.15" x2="250.339" y2="387.318" gradientUnits="userSpaceOnUse"><stop stop-color="#C7D1D3"/><stop offset="1" stop-color="#F7F7F8" stop-opacity="0"/></linearGradient></defs></svg>