<svg width="512" height="453" fill="none" xmlns="http://www.w3.org/2000/svg"><path fill-rule="evenodd" clip-rule="evenodd" d="M230.17 730l178.536-264.297-7.536-5.09L222.635 724.91l7.535 5.09zm173.305-289.044L215.1 719.82l-7.536-5.09 148.211-219.405-7.536-5.091 125.128-185.233 7.535 5.09-84.962 125.775 7.535 5.09 100.294-148.472 7.535 5.09-21.739 32.183 7.535 5.091-59.578 88.196-7.535-5.09-18.977 28.092-7.535-5.09zM200.029 709.64l148.21-219.405-7.535-5.091 69.659-103.12-7.536-5.09-150.136 222.257-7.535-5.09-67.732 100.268 7.535 5.09 67.731-100.268 7.536 5.09-67.733 100.268 7.536 5.091zm202.798-332.706l64.981-96.196-7.535-5.09-64.981 96.195-7.535-5.089-89.964 133.178 7.535 5.091 89.964-133.179 7.535 5.09zm24.65-68.981l41.568-61.535-7.536-5.09-41.567 61.534 7.535 5.091zm-7.535-5.091l-79.886 118.26-7.535-5.09 79.885-118.26 7.536 5.09zm-87.421 113.17l-139.17 206.021-7.535-5.09 139.17-206.021 7.535 5.09zM185.816 616.963l-38.535 57.045-7.535-5.09 38.535-57.045 7.535 5.09zm-53.606 46.865l138.132-204.486-7.535-5.09-138.132 204.485 7.535 5.091zm302.619-447.985l-74.671 110.539-7.535-5.09 74.67-110.54 7.536 5.091zM285.062 405.061l105.416-156.053-7.536-5.09-105.415 156.053 7.535 5.09zm-60.47 89.517L117.14 653.647l-7.535-5.09 107.452-159.069 7.535 5.09zm-34.19 18.123l129.536-191.76-7.535-5.09-129.536 191.76 7.535 5.09zm204.926-335.855L294.641 325.9l-7.535-5.091 100.687-149.053 7.535 5.09zm-308.33 456.44l77.811-115.188-7.535-5.09-77.81 115.188 7.535 5.09zm212.877-347.625L139.659 522.838l-7.535-5.09 160.215-237.177 7.536 5.09zm-45.133 34.323L404.5 98.287l-7.535-5.09-149.758 221.696 7.535 5.091zM105.026 541.617l-48.17 71.309-7.535-5.091 48.17-71.308 7.535 5.09zm14.57-54.06l110.018-162.866-7.535-5.09-110.018 162.866 7.535 5.09zM394.088 48.719l-149.504 221.32-7.535-5.09 149.504-221.32 7.535 5.09zM129.4 408.063L361.15 64.99l-7.535-5.09-231.75 343.073 7.535 5.09zm-50.024 74.053L11.644 582.384l-7.535-5.09 67.732-100.268 7.535 5.09zm-52.66 110.449l147.839-218.857-7.535-5.09L19.18 587.474l7.535 5.091zm271.077-92.633L169.887 689.279l-7.535-5.091 127.905-189.346 7.536 5.09zM-5.939 570.507l25.342-37.514-7.535-5.09 59.62-88.261-7.535-5.09-84.963 125.775 7.536 5.09 25.341-37.514-25.34 37.514 7.534 5.09zm-22.606-15.27l84.963-125.776 7.535 5.091L305.031 77.67l-7.536-5.09L96.583 370.002l-7.536-5.09L-36.08 550.147l7.535 5.09zM310.06 37.734L89.048 364.913l-7.536-5.091-69.659 103.121-7.535-5.091 150.137-222.257 7.536 5.09L302.525 32.644l7.535 5.09zM4.317 457.853l-55.468 82.113-7.535-5.09 55.468-82.114 7.535 5.091zm-7.534-5.091l89.963-133.178-7.535-5.091-89.964 133.179 7.536 5.09zm-47.257 53.711l-15.748 23.312-7.535-5.09 15.748-23.312 7.535 5.09zm-7.535-5.09l-7.535-5.091L14.34 378.033l7.536 5.09-79.886 118.26zm211.52-329.371L14.341 378.033l-7.535-5.09 139.17-206.022 7.535 5.091zm-7.535-5.091l92.751-137.305-7.536-5.09-92.751 137.305 7.536 5.09zM193.59 63.943L31.307 304.181l-7.535-5.09L186.055 58.853l7.535 5.09zm-297.489 440.391l45.39-67.194-7.535-5.09-45.39 67.194 7.535 5.09zm90.345-166.233l-105.415 156.053-7.535-5.09 105.415-156.053 7.535 5.09zm60.47-89.517l123.139-182.29-7.535-5.09L39.381 243.493l7.536 5.091zm4.049-38.484L-78.571 401.86l-7.535-5.09L43.43 205.01l7.535 5.09zm-200.076 263.693l65.695-97.252-7.535-5.091-65.695 97.252 7.535 5.091zM152.216 27.721l-105.8 156.621-7.535-5.09 105.8-156.621 7.535 5.09zm-271.007 368.698L41.424 159.242l-7.535-5.091-160.216 237.177 7.536 5.091zm14.992-54.685l-75.453 111.698-7.536-5.09 75.453-111.698 7.536 5.09zM45.916 120.102l64.679-95.748-7.535-5.09-64.679 95.748 7.535 5.09zM1.204 153.801l-110.017 162.866-7.536-5.09L-6.331 148.711l7.535 5.09zm-210.598 279.27l55.469-82.113-7.535-5.09-55.469 82.113 7.535 5.09zm140.512-240.498l-155.583 230.318-7.535-5.09 155.582-230.318 7.536 5.09zm50.024-74.053L48.873 18.252l-7.536-5.09-67.732 100.268 7.535 5.09zM70.887 18.154L-83.896 247.289l-7.535-5.09L63.353 13.064l7.535 5.09zm8.323 296.339L230.085 91.145l-7.536-5.09L71.676 309.403l7.535 5.09zM272.776 60.437L154.455 235.594l-7.536-5.09L265.241 55.346l7.535 5.09zM376.007 5.09L88.864 430.165l-7.535-5.09L368.472 0l7.535 5.09z" fill="url(#paint0_linear)" fill-opacity=".5"/><defs><linearGradient id="paint0_linear" x1="46.329" y1="417.85" x2="260.966" y2="112.682" gradientUnits="userSpaceOnUse"><stop stop-color="#C7D1D3"/><stop offset="1" stop-color="#F7F7F8" stop-opacity="0"/></linearGradient></defs></svg>