<svg width="180" height="106" viewBox="0 0 180 106" fill="none" xmlns="http://www.w3.org/2000/svg">
<g clip-path="url(#clip0_340_13)">
<path d="M19 106H0L5.57318e-06 72C5.84477e-06 70.3431 1.34316 69 3.00001 69H16C17.6569 69 19 70.3431 19 72V106Z" fill="#EBF2F3"/>
<path d="M42 106H23V33C23 31.3431 24.3431 30 26 30H39C40.6569 30 42 31.3431 42 33V106Z" fill="#EBF2F3"/>
<path d="M65 106H46V51C46 49.3431 47.3431 48 49 48H62C63.6569 48 65 49.3431 65 51V106Z" fill="#EBF2F3"/>
<path d="M88 106H69V12C69 10.3431 70.3431 9 72 9H85C86.6569 9 88 10.3431 88 12V106Z" fill="#EBF2F3"/>
<path d="M111 106H92V44C92 42.3431 93.3431 41 95 41H108C109.657 41 111 42.3431 111 44V106Z" fill="#EBF2F3"/>
<path d="M134 106H115V65C115 63.3431 116.343 62 118 62H131C132.657 62 134 63.3431 134 65V106Z" fill="#EBF2F3"/>
<path d="M157 106H138V88C138 86.3431 139.343 85 141 85H154C155.657 85 157 86.3431 157 88V106Z" fill="#EBF2F3"/>
<path d="M180 106H161V75C161 73.3431 162.343 72 164 72H177C178.657 72 180 73.3431 180 75V106Z" fill="#EBF2F3"/>
<path d="M43.5228 15.0839C41.9828 15.0839 40.8441 14.6826 40.1068 13.8799C39.3788 13.0679 39.0148 11.8079 39.0148 10.0999C39.0148 6.77725 40.5268 5.11592 43.5508 5.11592C44.0081 5.11592 44.4468 5.16725 44.8668 5.26992C45.2961 5.36325 45.6368 5.47992 45.8888 5.61992C46.1128 5.75059 46.2248 5.87192 46.2248 5.98392C46.2248 6.11459 46.1641 6.28259 46.0428 6.48792C45.9308 6.69325 45.8328 6.79592 45.7488 6.79592C45.7208 6.79592 45.5995 6.73992 45.3848 6.62792C45.1795 6.50659 44.9228 6.40392 44.6148 6.31992C44.3161 6.22659 43.9708 6.17992 43.5788 6.17992C42.4495 6.17992 41.6188 6.49259 41.0868 7.11792C40.5548 7.74325 40.2888 8.74192 40.2888 10.1139C40.2888 11.4579 40.5501 12.4472 41.0728 13.0819C41.6048 13.7072 42.4215 14.0199 43.5228 14.0199C43.9801 14.0199 44.3721 13.9686 44.6988 13.8659C45.0255 13.7539 45.3475 13.6139 45.6648 13.4459C45.7955 13.3619 45.8841 13.3199 45.9308 13.3199C46.0148 13.3199 46.1175 13.4226 46.2388 13.6279C46.3601 13.8332 46.4208 13.9826 46.4208 14.0759C46.4208 14.2159 46.2715 14.3699 45.9728 14.5379C45.6928 14.6966 45.3381 14.8272 44.9088 14.9299C44.4795 15.0326 44.0175 15.0839 43.5228 15.0839ZM49.8388 15.0839C49.3721 15.0839 48.9521 14.9439 48.5788 14.6639C48.2148 14.3746 48.0328 13.8706 48.0328 13.1519V4.77992C48.0328 4.57459 48.2194 4.47192 48.5928 4.47192H48.6488C49.0221 4.47192 49.2088 4.57459 49.2088 4.77992V13.0399C49.2088 13.4319 49.2741 13.7026 49.4048 13.8519C49.5448 14.0012 49.7314 14.0759 49.9648 14.0759C50.1421 14.0759 50.2728 14.0666 50.3568 14.0479C50.4501 14.0199 50.5201 14.0059 50.5668 14.0059C50.6508 14.0059 50.7208 14.0946 50.7768 14.2719C50.8328 14.4399 50.8608 14.5706 50.8608 14.6639C50.8608 14.9439 50.5201 15.0839 49.8388 15.0839ZM52.875 15.0279C52.5017 15.0279 52.315 14.9252 52.315 14.7199V7.95792C52.315 7.75259 52.5017 7.64992 52.875 7.64992H52.931C53.3043 7.64992 53.491 7.75259 53.491 7.95792V14.7199C53.491 14.9252 53.3043 15.0279 52.931 15.0279H52.875ZM52.903 6.66992C52.4923 6.66992 52.287 6.56725 52.287 6.36192V5.52192C52.287 5.31659 52.4923 5.21392 52.903 5.21392C53.3137 5.21392 53.519 5.31659 53.519 5.52192V6.36192C53.519 6.56725 53.3137 6.66992 52.903 6.66992ZM58.9181 15.0839C57.7608 15.0839 56.8974 14.7852 56.3281 14.1879C55.7588 13.5906 55.4741 12.6292 55.4741 11.3039C55.4741 9.96925 55.7914 9.01725 56.4261 8.44792C57.0608 7.87859 57.8494 7.59392 58.7921 7.59392C59.3334 7.59392 59.8188 7.65925 60.2481 7.78992C60.6774 7.92059 60.8921 8.06992 60.8921 8.23792C60.8921 8.35925 60.8361 8.51792 60.7241 8.71392C60.6214 8.90059 60.5281 8.99392 60.4441 8.99392C60.4254 8.99392 60.4021 8.98925 60.3741 8.97992C60.3554 8.96125 60.3274 8.94725 60.2901 8.93792C59.7861 8.71392 59.2774 8.60192 58.7641 8.60192C57.4108 8.60192 56.7341 9.49325 56.7341 11.2759C56.7341 12.2652 56.8974 12.9792 57.2241 13.4179C57.5601 13.8566 58.1201 14.0759 58.9041 14.0759C59.4734 14.0759 60.0008 13.9546 60.4861 13.7119L60.6401 13.6559C60.7334 13.6559 60.8361 13.7492 60.9481 13.9359C61.0601 14.1132 61.1161 14.2579 61.1161 14.3699C61.1161 14.4819 61.0134 14.5939 60.8081 14.7059C60.6121 14.8086 60.3461 14.8972 60.0101 14.9719C59.6741 15.0466 59.3101 15.0839 58.9181 15.0839ZM68.191 14.6079C68.275 14.7012 68.317 14.7759 68.317 14.8319C68.317 14.9066 68.2703 14.9579 68.177 14.9859C68.0837 15.0139 67.925 15.0279 67.701 15.0279H67.645C67.449 15.0279 67.2903 15.0186 67.169 14.9999C67.0477 14.9719 66.9543 14.9206 66.889 14.8459L64.089 11.5279H64.033V14.7199C64.033 14.9252 63.8463 15.0279 63.473 15.0279H63.417C63.0437 15.0279 62.857 14.9252 62.857 14.7199V4.77992C62.857 4.57459 63.0437 4.47192 63.417 4.47192H63.473C63.8463 4.47192 64.033 4.57459 64.033 4.77992V11.0379H64.089L66.763 7.84592C66.8657 7.71525 67.113 7.64992 67.505 7.64992H67.561C67.7197 7.64992 67.841 7.66859 67.925 7.70592C68.009 7.73392 68.051 7.77592 68.051 7.83192C68.051 7.91592 68.0043 8.00925 67.911 8.11192L65.307 11.1919L68.191 14.6079ZM76.2231 15.0839C75.1684 15.0839 74.3611 14.7666 73.8011 14.1319C73.2504 13.4972 72.9751 12.5779 72.9751 11.3739C72.9751 10.1606 73.2551 9.22725 73.8151 8.57392C74.3751 7.92059 75.1777 7.59392 76.2231 7.59392C77.2497 7.59392 78.0337 7.92059 78.5751 8.57392C79.1257 9.21792 79.4011 10.1512 79.4011 11.3739C79.4011 12.5872 79.1304 13.5112 78.5891 14.1459C78.0571 14.7712 77.2684 15.0839 76.2231 15.0839ZM76.1811 14.0759C76.8624 14.0759 77.3664 13.8566 77.6931 13.4179C78.0197 12.9699 78.1831 12.2792 78.1831 11.3459C78.1831 10.4126 78.0197 9.72192 77.6931 9.27392C77.3664 8.82592 76.8624 8.60192 76.1811 8.60192C75.4997 8.60192 75.0004 8.82592 74.6831 9.27392C74.3657 9.71259 74.2071 10.4032 74.2071 11.3459C74.2071 12.2792 74.3657 12.9699 74.6831 13.4179C75.0004 13.8566 75.4997 14.0759 76.1811 14.0759ZM81.9398 15.0279C81.5664 15.0279 81.3798 14.9252 81.3798 14.7199V9.80592C81.3798 9.18992 81.3518 8.75125 81.2958 8.48992C81.2398 8.21925 81.2118 8.06992 81.2118 8.04192C81.2118 7.92992 81.3004 7.85059 81.4778 7.80392C81.6551 7.74792 81.8184 7.71992 81.9678 7.71992C82.0984 7.71992 82.1918 7.78992 82.2478 7.92992C82.3131 8.06059 82.3598 8.20059 82.3878 8.34992C82.4251 8.49925 82.4484 8.59725 82.4578 8.64392C82.7564 8.31725 83.0971 8.06059 83.4798 7.87392C83.8624 7.68725 84.2498 7.59392 84.6418 7.59392C85.3511 7.59392 85.9064 7.79459 86.3078 8.19592C86.7184 8.59725 86.9238 9.15259 86.9238 9.86192V14.7199C86.9238 14.9252 86.7371 15.0279 86.3638 15.0279H86.3078C85.9344 15.0279 85.7478 14.9252 85.7478 14.7199V9.97392C85.7478 9.54459 85.6218 9.21325 85.3698 8.97992C85.1271 8.73725 84.7771 8.61592 84.3198 8.61592C84.0024 8.61592 83.6851 8.70459 83.3678 8.88192C83.0598 9.05925 82.7891 9.29725 82.5558 9.59592V14.7199C82.5558 14.9252 82.3691 15.0279 81.9958 15.0279H81.9398ZM94.412 15.0839C93.6934 15.0839 93.1147 14.9066 92.676 14.5519C92.2374 14.1972 92.018 13.6746 92.018 12.9839C92.018 12.2466 92.2374 11.6959 92.676 11.3319C93.124 10.9586 93.67 10.7206 94.314 10.6179C94.958 10.5059 95.742 10.4452 96.666 10.4359V9.77792C96.666 9.43259 96.5447 9.15259 96.302 8.93792C96.0594 8.71392 95.6674 8.60192 95.126 8.60192C94.7154 8.60192 94.356 8.65325 94.048 8.75592C93.74 8.84925 93.4834 8.94725 93.278 9.04992C93.0727 9.14325 92.9607 9.18992 92.942 9.18992C92.8487 9.18992 92.7414 9.09659 92.62 8.90992C92.508 8.72325 92.452 8.58325 92.452 8.48992C92.452 8.36859 92.5734 8.23792 92.816 8.09792C93.068 7.95792 93.3994 7.84125 93.81 7.74792C94.2207 7.64525 94.6454 7.59392 95.084 7.59392C95.952 7.59392 96.6287 7.78992 97.114 8.18192C97.5994 8.56459 97.842 9.10125 97.842 9.79192V12.9279C97.842 13.5439 97.87 13.9872 97.926 14.2579C97.982 14.5192 98.01 14.6639 98.01 14.6919C98.01 14.8039 97.9214 14.8879 97.744 14.9439C97.5667 14.9906 97.4034 15.0139 97.254 15.0139C97.1234 15.0139 97.0254 14.9439 96.96 14.8039C96.904 14.6546 96.8574 14.5006 96.82 14.3419C96.792 14.1832 96.7734 14.0806 96.764 14.0339C96.1294 14.7339 95.3454 15.0839 94.412 15.0839ZM94.468 14.0619C94.9254 14.0619 95.3174 13.9779 95.644 13.8099C95.98 13.6419 96.3207 13.4039 96.666 13.0959V11.4439C95.966 11.4532 95.392 11.4812 94.944 11.5279C94.5054 11.5746 94.118 11.7052 93.782 11.9199C93.446 12.1346 93.278 12.4659 93.278 12.9139C93.278 13.2872 93.376 13.5719 93.572 13.7679C93.7774 13.9639 94.076 14.0619 94.468 14.0619ZM106.818 15.0839C106.006 15.0839 105.264 14.7339 104.592 14.0339C104.536 14.3979 104.462 14.6732 104.368 14.8599C104.322 14.9719 104.196 15.0279 103.99 15.0279H103.934C103.654 15.0279 103.514 14.9252 103.514 14.7199V4.77992C103.514 4.57459 103.701 4.47192 104.074 4.47192H104.13C104.504 4.47192 104.69 4.57459 104.69 4.77992V8.30792C104.989 8.07459 105.292 7.89725 105.6 7.77592C105.918 7.65459 106.282 7.59392 106.692 7.59392C107.252 7.59392 107.747 7.73859 108.176 8.02792C108.606 8.31725 108.937 8.74192 109.17 9.30192C109.413 9.86192 109.534 10.5386 109.534 11.3319C109.534 12.0599 109.422 12.7086 109.198 13.2779C108.984 13.8472 108.671 14.2906 108.26 14.6079C107.85 14.9252 107.369 15.0839 106.818 15.0839ZM106.58 14.0619C107.131 14.0619 107.556 13.8192 107.854 13.3339C108.153 12.8392 108.302 12.1392 108.302 11.2339C108.302 10.3939 108.144 9.74992 107.826 9.30192C107.509 8.85392 107.042 8.62992 106.426 8.62992C106.118 8.62992 105.81 8.68592 105.502 8.79792C105.204 8.90059 104.933 9.05459 104.69 9.25992V13.0959C104.97 13.4039 105.274 13.6419 105.6 13.8099C105.936 13.9779 106.263 14.0619 106.58 14.0619ZM113.375 15.0839C112.656 15.0839 112.078 14.9066 111.639 14.5519C111.2 14.1972 110.981 13.6746 110.981 12.9839C110.981 12.2466 111.2 11.6959 111.639 11.3319C112.087 10.9586 112.633 10.7206 113.277 10.6179C113.921 10.5059 114.705 10.4452 115.629 10.4359V9.77792C115.629 9.43259 115.508 9.15259 115.265 8.93792C115.022 8.71392 114.63 8.60192 114.089 8.60192C113.678 8.60192 113.319 8.65325 113.011 8.75592C112.703 8.84925 112.446 8.94725 112.241 9.04992C112.036 9.14325 111.924 9.18992 111.905 9.18992C111.812 9.18992 111.704 9.09659 111.583 8.90992C111.471 8.72325 111.415 8.58325 111.415 8.48992C111.415 8.36859 111.536 8.23792 111.779 8.09792C112.031 7.95792 112.362 7.84125 112.773 7.74792C113.184 7.64525 113.608 7.59392 114.047 7.59392C114.915 7.59392 115.592 7.78992 116.077 8.18192C116.562 8.56459 116.805 9.10125 116.805 9.79192V12.9279C116.805 13.5439 116.833 13.9872 116.889 14.2579C116.945 14.5192 116.973 14.6639 116.973 14.6919C116.973 14.8039 116.884 14.8879 116.707 14.9439C116.53 14.9906 116.366 15.0139 116.217 15.0139C116.086 15.0139 115.988 14.9439 115.923 14.8039C115.867 14.6546 115.82 14.5006 115.783 14.3419C115.755 14.1832 115.736 14.0806 115.727 14.0339C115.092 14.7339 114.308 15.0839 113.375 15.0839ZM113.431 14.0619C113.888 14.0619 114.28 13.9779 114.607 13.8099C114.943 13.6419 115.284 13.4039 115.629 13.0959V11.4439C114.929 11.4532 114.355 11.4812 113.907 11.5279C113.468 11.5746 113.081 11.7052 112.745 11.9199C112.409 12.1346 112.241 12.4659 112.241 12.9139C112.241 13.2872 112.339 13.5719 112.535 13.7679C112.74 13.9639 113.039 14.0619 113.431 14.0619ZM121.228 15.0839C120.761 15.0839 120.341 14.9439 119.968 14.6639C119.604 14.3746 119.422 13.8706 119.422 13.1519V8.68592H118.722C118.628 8.68592 118.558 8.65325 118.512 8.58792C118.465 8.52259 118.442 8.41525 118.442 8.26592V8.09792C118.442 7.94859 118.465 7.84125 118.512 7.77592C118.558 7.71059 118.628 7.67792 118.722 7.67792H119.422L119.59 6.20792C119.618 6.00259 119.767 5.89992 120.038 5.89992H120.178C120.458 5.89992 120.598 6.00259 120.598 6.20792V7.67792H121.774C121.876 7.67792 121.946 7.71059 121.984 7.77592C122.03 7.84125 122.054 7.94859 122.054 8.09792V8.26592C122.054 8.41525 122.03 8.52259 121.984 8.58792C121.946 8.65325 121.876 8.68592 121.774 8.68592H120.598V13.0399C120.598 13.4319 120.663 13.7026 120.794 13.8519C120.934 14.0012 121.12 14.0759 121.354 14.0759C121.531 14.0759 121.662 14.0666 121.746 14.0479C121.839 14.0199 121.909 14.0059 121.956 14.0059C122.04 14.0059 122.11 14.0946 122.166 14.2719C122.222 14.4399 122.25 14.5706 122.25 14.6639C122.25 14.9439 121.909 15.0839 121.228 15.0839ZM126.881 15.0839C125.724 15.0839 124.86 14.7852 124.291 14.1879C123.722 13.5906 123.437 12.6292 123.437 11.3039C123.437 9.96925 123.754 9.01725 124.389 8.44792C125.024 7.87859 125.812 7.59392 126.755 7.59392C127.296 7.59392 127.782 7.65925 128.211 7.78992C128.64 7.92059 128.855 8.06992 128.855 8.23792C128.855 8.35925 128.799 8.51792 128.687 8.71392C128.584 8.90059 128.491 8.99392 128.407 8.99392C128.388 8.99392 128.365 8.98925 128.337 8.97992C128.318 8.96125 128.29 8.94725 128.253 8.93792C127.749 8.71392 127.24 8.60192 126.727 8.60192C125.374 8.60192 124.697 9.49325 124.697 11.2759C124.697 12.2652 124.86 12.9792 125.187 13.4179C125.523 13.8566 126.083 14.0759 126.867 14.0759C127.436 14.0759 127.964 13.9546 128.449 13.7119L128.603 13.6559C128.696 13.6559 128.799 13.7492 128.911 13.9359C129.023 14.1132 129.079 14.2579 129.079 14.3699C129.079 14.4819 128.976 14.5939 128.771 14.7059C128.575 14.8086 128.309 14.8972 127.973 14.9719C127.637 15.0466 127.273 15.0839 126.881 15.0839ZM131.352 15.0279C130.979 15.0279 130.792 14.9252 130.792 14.7199V4.77992C130.792 4.57459 130.979 4.47192 131.352 4.47192H131.408C131.781 4.47192 131.968 4.57459 131.968 4.77992V8.55992C132.248 8.27992 132.57 8.05125 132.934 7.87392C133.307 7.68725 133.699 7.59392 134.11 7.59392C134.698 7.59392 135.216 7.76192 135.664 8.09792C136.112 8.42459 136.336 9.01259 136.336 9.86192V14.7199C136.336 14.9252 136.149 15.0279 135.776 15.0279H135.72C135.347 15.0279 135.16 14.9252 135.16 14.7199V9.97392C135.16 9.55392 135.039 9.22259 134.796 8.97992C134.553 8.73725 134.199 8.61592 133.732 8.61592C133.387 8.61592 133.06 8.71392 132.752 8.90992C132.444 9.09659 132.183 9.32525 131.968 9.59592V14.7199C131.968 14.9252 131.781 15.0279 131.408 15.0279H131.352ZM14.7308 35.0839C14.2641 35.0839 13.8441 34.9439 13.4708 34.6639C13.1068 34.3746 12.9248 33.8706 12.9248 33.1519V28.6859H12.2248C12.1314 28.6859 12.0614 28.6532 12.0148 28.5879C11.9681 28.5226 11.9448 28.4152 11.9448 28.2659V28.0979C11.9448 27.9486 11.9681 27.8412 12.0148 27.7759C12.0614 27.7106 12.1314 27.6779 12.2248 27.6779H12.9248L13.0928 26.2079C13.1208 26.0026 13.2701 25.8999 13.5408 25.8999H13.6808C13.9608 25.8999 14.1008 26.0026 14.1008 26.2079V27.6779H15.2768C15.3794 27.6779 15.4494 27.7106 15.4868 27.7759C15.5334 27.8412 15.5568 27.9486 15.5568 28.0979V28.2659C15.5568 28.4152 15.5334 28.5226 15.4868 28.5879C15.4494 28.6532 15.3794 28.6859 15.2768 28.6859H14.1008V33.0399C14.1008 33.4319 14.1661 33.7026 14.2968 33.8519C14.4368 34.0012 14.6234 34.0759 14.8568 34.0759C15.0341 34.0759 15.1648 34.0666 15.2488 34.0479C15.3421 34.0199 15.4121 34.0059 15.4588 34.0059C15.5428 34.0059 15.6128 34.0946 15.6688 34.2719C15.7248 34.4399 15.7528 34.5706 15.7528 34.6639C15.7528 34.9439 15.4121 35.0839 14.7308 35.0839ZM20.2299 35.0839C19.1752 35.0839 18.3679 34.7666 17.8079 34.1319C17.2572 33.4972 16.9819 32.5779 16.9819 31.3739C16.9819 30.1606 17.2619 29.2272 17.8219 28.5739C18.3819 27.9206 19.1846 27.5939 20.2299 27.5939C21.2566 27.5939 22.0406 27.9206 22.5819 28.5739C23.1326 29.2179 23.4079 30.1512 23.4079 31.3739C23.4079 32.5872 23.1372 33.5112 22.5959 34.1459C22.0639 34.7712 21.2752 35.0839 20.2299 35.0839ZM20.1879 34.0759C20.8692 34.0759 21.3732 33.8566 21.6999 33.4179C22.0266 32.9699 22.1899 32.2792 22.1899 31.3459C22.1899 30.4126 22.0266 29.7219 21.6999 29.2739C21.3732 28.8259 20.8692 28.6019 20.1879 28.6019C19.5066 28.6019 19.0072 28.8259 18.6899 29.2739C18.3726 29.7126 18.2139 30.4032 18.2139 31.3459C18.2139 32.2792 18.3726 32.9699 18.6899 33.4179C19.0072 33.8566 19.5066 34.0759 20.1879 34.0759ZM30.3179 35.1259C29.9166 35.1259 29.5432 35.0792 29.1979 34.9859C28.8619 34.8832 28.5912 34.7619 28.3859 34.6219C28.1899 34.4819 28.0919 34.3559 28.0919 34.2439C28.0919 34.1506 28.1479 34.0106 28.2599 33.8239C28.3812 33.6372 28.4886 33.5439 28.5819 33.5439C28.6006 33.5439 28.6892 33.5952 28.8479 33.6979C29.0066 33.8006 29.2026 33.8939 29.4359 33.9779C29.6786 34.0619 29.9446 34.1039 30.2339 34.1039C30.6819 34.1039 31.0226 34.0152 31.2559 33.8379C31.4892 33.6606 31.6059 33.4039 31.6059 33.0679C31.6059 32.7319 31.4892 32.4752 31.2559 32.2979C31.0319 32.1206 30.6819 31.9526 30.2059 31.7939C29.8046 31.6632 29.4686 31.5232 29.1979 31.3739C28.9272 31.2152 28.7032 30.9959 28.5259 30.7159C28.3486 30.4266 28.2599 30.0579 28.2599 29.6099C28.2599 29.2179 28.3579 28.8679 28.5539 28.5599C28.7592 28.2519 29.0346 28.0139 29.3799 27.8459C29.7346 27.6686 30.1359 27.5799 30.5839 27.5799C31.0599 27.5799 31.4846 27.6406 31.8579 27.7619C32.2406 27.8832 32.4319 28.0232 32.4319 28.1819C32.4319 28.3032 32.3759 28.4619 32.2639 28.6579C32.1612 28.8446 32.0679 28.9379 31.9839 28.9379C31.9559 28.9286 31.8299 28.8679 31.6059 28.7559C31.3912 28.6346 31.0926 28.5739 30.7099 28.5739C30.3459 28.5739 30.0472 28.6579 29.8139 28.8259C29.5806 28.9939 29.4639 29.2226 29.4639 29.5119C29.4639 29.7826 29.5386 29.9926 29.6879 30.1419C29.8466 30.2912 30.1359 30.4359 30.5559 30.5759C31.2839 30.8186 31.8392 31.1126 32.2219 31.4579C32.6046 31.8032 32.7959 32.2979 32.7959 32.9419C32.7959 33.3526 32.6839 33.7259 32.4599 34.0619C32.2452 34.3886 31.9466 34.6499 31.5639 34.8459C31.1906 35.0326 30.7752 35.1259 30.3179 35.1259ZM37.5291 35.0839C36.3624 35.0839 35.4991 34.7806 34.9391 34.1739C34.3791 33.5672 34.0991 32.6386 34.0991 31.3879C34.0991 30.1466 34.3744 29.2039 34.9251 28.5599C35.4758 27.9159 36.2878 27.5939 37.3611 27.5939C38.3131 27.5939 39.0318 27.9066 39.5171 28.5319C40.0024 29.1479 40.2451 30.0532 40.2451 31.2479C40.2451 31.3319 40.1891 31.4486 40.0771 31.5979C39.9651 31.7472 39.8671 31.8219 39.7831 31.8219H35.3591C35.4151 32.5966 35.6158 33.1659 35.9611 33.5299C36.3064 33.8939 36.8244 34.0759 37.5151 34.0759C37.9071 34.0759 38.2431 34.0292 38.5231 33.9359C38.8124 33.8332 39.0504 33.7352 39.2371 33.6419C39.4238 33.5392 39.5311 33.4879 39.5591 33.4879C39.6524 33.4879 39.7551 33.5812 39.8671 33.7679C39.9884 33.9546 40.0491 34.0946 40.0491 34.1879C40.0491 34.2999 39.9324 34.4306 39.6991 34.5799C39.4658 34.7199 39.1531 34.8412 38.7611 34.9439C38.3784 35.0372 37.9678 35.0839 37.5291 35.0839ZM38.9991 30.8139C38.9991 29.3392 38.4391 28.6019 37.3191 28.6019C36.1151 28.6019 35.4618 29.3392 35.3591 30.8139H38.9991ZM44.9393 35.0839C43.7726 35.0839 42.9093 34.7806 42.3493 34.1739C41.7893 33.5672 41.5093 32.6386 41.5093 31.3879C41.5093 30.1466 41.7846 29.2039 42.3353 28.5599C42.8859 27.9159 43.6979 27.5939 44.7713 27.5939C45.7233 27.5939 46.4419 27.9066 46.9273 28.5319C47.4126 29.1479 47.6553 30.0532 47.6553 31.2479C47.6553 31.3319 47.5993 31.4486 47.4873 31.5979C47.3753 31.7472 47.2773 31.8219 47.1933 31.8219H42.7693C42.8253 32.5966 43.0259 33.1659 43.3713 33.5299C43.7166 33.8939 44.2346 34.0759 44.9253 34.0759C45.3173 34.0759 45.6533 34.0292 45.9333 33.9359C46.2226 33.8332 46.4606 33.7352 46.6473 33.6419C46.8339 33.5392 46.9413 33.4879 46.9693 33.4879C47.0626 33.4879 47.1653 33.5812 47.2773 33.7679C47.3986 33.9546 47.4593 34.0946 47.4593 34.1879C47.4593 34.2999 47.3426 34.4306 47.1093 34.5799C46.8759 34.7199 46.5633 34.8412 46.1713 34.9439C45.7886 35.0372 45.3779 35.0839 44.9393 35.0839ZM46.4093 30.8139C46.4093 29.3392 45.8493 28.6019 44.7293 28.6019C43.5253 28.6019 42.8719 29.3392 42.7693 30.8139H46.4093ZM55.0934 35.0839C54.5427 35.0839 54.0621 34.9252 53.6514 34.6079C53.2407 34.2906 52.9234 33.8472 52.6994 33.2779C52.4847 32.7086 52.3774 32.0646 52.3774 31.3459C52.3774 30.5526 52.4941 29.8759 52.7274 29.3159C52.9701 28.7466 53.3061 28.3172 53.7354 28.0279C54.1647 27.7386 54.6594 27.5939 55.2194 27.5939C55.6301 27.5939 55.9894 27.6546 56.2974 27.7759C56.6147 27.8972 56.9227 28.0746 57.2214 28.3079V24.7799C57.2214 24.5746 57.4081 24.4719 57.7814 24.4719H57.8374C58.2107 24.4719 58.3974 24.5746 58.3974 24.7799V32.9279C58.3974 33.5439 58.4254 33.9872 58.4814 34.2579C58.5374 34.5192 58.5654 34.6639 58.5654 34.6919C58.5654 34.8039 58.4767 34.8879 58.2994 34.9439C58.1221 34.9906 57.9587 35.0139 57.8094 35.0139C57.6787 35.0139 57.5807 34.9439 57.5154 34.8039C57.4594 34.6546 57.4127 34.5006 57.3754 34.3419C57.3474 34.1832 57.3287 34.0806 57.3194 34.0339C56.6474 34.7339 55.9054 35.0839 55.0934 35.0839ZM55.3314 34.0619C55.6487 34.0619 55.9707 33.9779 56.2974 33.8099C56.6334 33.6419 56.9414 33.4039 57.2214 33.0959V29.2599C56.7174 28.8399 56.1434 28.6299 55.4994 28.6299C54.8741 28.6299 54.4027 28.8539 54.0854 29.3019C53.7681 29.7499 53.6094 30.3939 53.6094 31.2339C53.6094 32.1392 53.7587 32.8392 54.0574 33.3339C54.3561 33.8192 54.7807 34.0619 55.3314 34.0619ZM61.3994 35.0279C61.0261 35.0279 60.8394 34.9252 60.8394 34.7199V27.9579C60.8394 27.7526 61.0261 27.6499 61.3994 27.6499H61.4554C61.8288 27.6499 62.0154 27.7526 62.0154 27.9579V34.7199C62.0154 34.9252 61.8288 35.0279 61.4554 35.0279H61.3994ZM61.4274 26.6699C61.0168 26.6699 60.8114 26.5672 60.8114 26.3619V25.5219C60.8114 25.3166 61.0168 25.2139 61.4274 25.2139C61.8381 25.2139 62.0434 25.3166 62.0434 25.5219V26.3619C62.0434 26.5672 61.8381 26.6699 61.4274 26.6699ZM66.0425 35.1259C65.6412 35.1259 65.2678 35.0792 64.9225 34.9859C64.5865 34.8832 64.3158 34.7619 64.1105 34.6219C63.9145 34.4819 63.8165 34.3559 63.8165 34.2439C63.8165 34.1506 63.8725 34.0106 63.9845 33.8239C64.1058 33.6372 64.2132 33.5439 64.3065 33.5439C64.3252 33.5439 64.4138 33.5952 64.5725 33.6979C64.7312 33.8006 64.9272 33.8939 65.1605 33.9779C65.4032 34.0619 65.6692 34.1039 65.9585 34.1039C66.4065 34.1039 66.7472 34.0152 66.9805 33.8379C67.2138 33.6606 67.3305 33.4039 67.3305 33.0679C67.3305 32.7319 67.2138 32.4752 66.9805 32.2979C66.7565 32.1206 66.4065 31.9526 65.9305 31.7939C65.5292 31.6632 65.1932 31.5232 64.9225 31.3739C64.6518 31.2152 64.4278 30.9959 64.2505 30.7159C64.0732 30.4266 63.9845 30.0579 63.9845 29.6099C63.9845 29.2179 64.0825 28.8679 64.2785 28.5599C64.4838 28.2519 64.7592 28.0139 65.1045 27.8459C65.4592 27.6686 65.8605 27.5799 66.3085 27.5799C66.7845 27.5799 67.2092 27.6406 67.5825 27.7619C67.9652 27.8832 68.1565 28.0232 68.1565 28.1819C68.1565 28.3032 68.1005 28.4619 67.9885 28.6579C67.8858 28.8446 67.7925 28.9379 67.7085 28.9379C67.6805 28.9286 67.5545 28.8679 67.3305 28.7559C67.1158 28.6346 66.8172 28.5739 66.4345 28.5739C66.0705 28.5739 65.7718 28.6579 65.5385 28.8259C65.3052 28.9939 65.1885 29.2226 65.1885 29.5119C65.1885 29.7826 65.2632 29.9926 65.4125 30.1419C65.5712 30.2912 65.8605 30.4359 66.2805 30.5759C67.0085 30.8186 67.5638 31.1126 67.9465 31.4579C68.3292 31.8032 68.5205 32.2979 68.5205 32.9419C68.5205 33.3526 68.4085 33.7259 68.1845 34.0619C67.9698 34.3886 67.6712 34.6499 67.2885 34.8459C66.9152 35.0326 66.4998 35.1259 66.0425 35.1259ZM72.3577 35.0839C71.891 35.0839 71.471 34.9439 71.0977 34.6639C70.7337 34.3746 70.5517 33.8706 70.5517 33.1519V28.6859H69.8517C69.7584 28.6859 69.6884 28.6532 69.6417 28.5879C69.595 28.5226 69.5717 28.4152 69.5717 28.2659V28.0979C69.5717 27.9486 69.595 27.8412 69.6417 27.7759C69.6884 27.7106 69.7584 27.6779 69.8517 27.6779H70.5517L70.7197 26.2079C70.7477 26.0026 70.897 25.8999 71.1677 25.8999H71.3077C71.5877 25.8999 71.7277 26.0026 71.7277 26.2079V27.6779H72.9037C73.0064 27.6779 73.0764 27.7106 73.1137 27.7759C73.1604 27.8412 73.1837 27.9486 73.1837 28.0979V28.2659C73.1837 28.4152 73.1604 28.5226 73.1137 28.5879C73.0764 28.6532 73.0064 28.6859 72.9037 28.6859H71.7277V33.0399C71.7277 33.4319 71.793 33.7026 71.9237 33.8519C72.0637 34.0012 72.2504 34.0759 72.4837 34.0759C72.661 34.0759 72.7917 34.0666 72.8757 34.0479C72.969 34.0199 73.039 34.0059 73.0857 34.0059C73.1697 34.0059 73.2397 34.0946 73.2957 34.2719C73.3517 34.4399 73.3797 34.5706 73.3797 34.6639C73.3797 34.9439 73.039 35.0839 72.3577 35.0839ZM75.6589 35.0279C75.2855 35.0279 75.0989 34.9252 75.0989 34.7199V29.8059C75.0989 29.1899 75.0709 28.7512 75.0149 28.4899C74.9589 28.2192 74.9309 28.0699 74.9309 28.0419C74.9309 27.9299 75.0195 27.8506 75.1969 27.8039C75.3742 27.7479 75.5375 27.7199 75.6869 27.7199C75.8175 27.7199 75.9109 27.7899 75.9669 27.9299C76.0322 28.0606 76.0789 28.2006 76.1069 28.3499C76.1442 28.4992 76.1675 28.5972 76.1769 28.6439C76.6715 27.9439 77.2129 27.5939 77.8009 27.5939C78.0715 27.5939 78.2722 27.6406 78.4029 27.7339C78.5429 27.8179 78.6129 27.9532 78.6129 28.1399C78.6129 28.2986 78.5849 28.4666 78.5289 28.6439C78.4729 28.8119 78.4075 28.8959 78.3329 28.8959C78.2862 28.8959 78.1929 28.8726 78.0529 28.8259C77.9222 28.7699 77.7589 28.7419 77.5629 28.7419C77.3202 28.7419 77.0869 28.8259 76.8629 28.9939C76.6389 29.1526 76.4429 29.3532 76.2749 29.5959V34.7199C76.2749 34.9252 76.0882 35.0279 75.7149 35.0279H75.6589ZM80.7998 35.0279C80.4265 35.0279 80.2398 34.9252 80.2398 34.7199V27.9579C80.2398 27.7526 80.4265 27.6499 80.7998 27.6499H80.8558C81.2292 27.6499 81.4158 27.7526 81.4158 27.9579V34.7199C81.4158 34.9252 81.2292 35.0279 80.8558 35.0279H80.7998ZM80.8278 26.6699C80.4172 26.6699 80.2118 26.5672 80.2118 26.3619V25.5219C80.2118 25.3166 80.4172 25.2139 80.8278 25.2139C81.2385 25.2139 81.4438 25.3166 81.4438 25.5219V26.3619C81.4438 26.5672 81.2385 26.6699 80.8278 26.6699ZM87.1649 35.0839C86.3529 35.0839 85.6109 34.7339 84.9389 34.0339C84.8829 34.3979 84.8082 34.6732 84.7149 34.8599C84.6682 34.9719 84.5422 35.0279 84.3369 35.0279H84.2809C84.0009 35.0279 83.8609 34.9252 83.8609 34.7199V24.7799C83.8609 24.5746 84.0476 24.4719 84.4209 24.4719H84.4769C84.8502 24.4719 85.0369 24.5746 85.0369 24.7799V28.3079C85.3356 28.0746 85.6389 27.8972 85.9469 27.7759C86.2642 27.6546 86.6282 27.5939 87.0389 27.5939C87.5989 27.5939 88.0936 27.7386 88.5229 28.0279C88.9522 28.3172 89.2836 28.7419 89.5169 29.3019C89.7596 29.8619 89.8809 30.5386 89.8809 31.3319C89.8809 32.0599 89.7689 32.7086 89.5449 33.2779C89.3302 33.8472 89.0176 34.2906 88.6069 34.6079C88.1962 34.9252 87.7156 35.0839 87.1649 35.0839ZM86.9269 34.0619C87.4776 34.0619 87.9022 33.8192 88.2009 33.3339C88.4996 32.8392 88.6489 32.1392 88.6489 31.2339C88.6489 30.3939 88.4902 29.7499 88.1729 29.3019C87.8556 28.8539 87.3889 28.6299 86.7729 28.6299C86.4649 28.6299 86.1569 28.6859 85.8489 28.7979C85.5502 28.9006 85.2796 29.0546 85.0369 29.2599V33.0959C85.3169 33.4039 85.6202 33.6419 85.9469 33.8099C86.2829 33.9779 86.6096 34.0619 86.9269 34.0619ZM93.9736 35.0839C93.2643 35.0839 92.7043 34.8832 92.2936 34.4819C91.8923 34.0806 91.6916 33.5252 91.6916 32.8159V27.9579C91.6916 27.7526 91.8783 27.6499 92.2516 27.6499H92.3076C92.6809 27.6499 92.8676 27.7526 92.8676 27.9579V32.7039C92.8676 33.1332 92.9889 33.4692 93.2316 33.7119C93.4836 33.9452 93.8383 34.0619 94.2956 34.0619C94.6129 34.0619 94.9256 33.9732 95.2336 33.7959C95.5509 33.6186 95.8263 33.3806 96.0596 33.0819V27.9579C96.0596 27.7526 96.2463 27.6499 96.6196 27.6499H96.6756C97.0489 27.6499 97.2356 27.7526 97.2356 27.9579V32.9279C97.2356 33.5439 97.2636 33.9872 97.3196 34.2579C97.3756 34.5192 97.4036 34.6639 97.4036 34.6919C97.4036 34.8039 97.3149 34.8879 97.1376 34.9439C96.9603 34.9906 96.7969 35.0139 96.6476 35.0139C96.5169 35.0139 96.4189 34.9439 96.3536 34.8039C96.2976 34.6546 96.2509 34.5006 96.2136 34.3419C96.1856 34.1832 96.1669 34.0806 96.1576 34.0339C95.8589 34.3606 95.5183 34.6172 95.1356 34.8039C94.7529 34.9906 94.3656 35.0839 93.9736 35.0839ZM101.739 35.0839C101.272 35.0839 100.852 34.9439 100.479 34.6639C100.115 34.3746 99.9326 33.8706 99.9326 33.1519V28.6859H99.2326C99.1392 28.6859 99.0692 28.6532 99.0226 28.5879C98.9759 28.5226 98.9526 28.4152 98.9526 28.2659V28.0979C98.9526 27.9486 98.9759 27.8412 99.0226 27.7759C99.0692 27.7106 99.1392 27.6779 99.2326 27.6779H99.9326L100.101 26.2079C100.129 26.0026 100.278 25.8999 100.549 25.8999H100.689C100.969 25.8999 101.109 26.0026 101.109 26.2079V27.6779H102.285C102.387 27.6779 102.457 27.7106 102.495 27.7759C102.541 27.8412 102.565 27.9486 102.565 28.0979V28.2659C102.565 28.4152 102.541 28.5226 102.495 28.5879C102.457 28.6532 102.387 28.6859 102.285 28.6859H101.109V33.0399C101.109 33.4319 101.174 33.7026 101.305 33.8519C101.445 34.0012 101.631 34.0759 101.865 34.0759C102.042 34.0759 102.173 34.0666 102.257 34.0479C102.35 34.0199 102.42 34.0059 102.467 34.0059C102.551 34.0059 102.621 34.0946 102.677 34.2719C102.733 34.4399 102.761 34.5706 102.761 34.6639C102.761 34.9439 102.42 35.0839 101.739 35.0839ZM105.054 35.0279C104.68 35.0279 104.494 34.9252 104.494 34.7199V27.9579C104.494 27.7526 104.68 27.6499 105.054 27.6499H105.11C105.483 27.6499 105.67 27.7526 105.67 27.9579V34.7199C105.67 34.9252 105.483 35.0279 105.11 35.0279H105.054ZM105.082 26.6699C104.671 26.6699 104.466 26.5672 104.466 26.3619V25.5219C104.466 25.3166 104.671 25.2139 105.082 25.2139C105.492 25.2139 105.698 25.3166 105.698 25.5219V26.3619C105.698 26.5672 105.492 26.6699 105.082 26.6699ZM110.943 35.0839C109.888 35.0839 109.081 34.7666 108.521 34.1319C107.97 33.4972 107.695 32.5779 107.695 31.3739C107.695 30.1606 107.975 29.2272 108.535 28.5739C109.095 27.9206 109.897 27.5939 110.943 27.5939C111.969 27.5939 112.753 27.9206 113.295 28.5739C113.845 29.2179 114.121 30.1512 114.121 31.3739C114.121 32.5872 113.85 33.5112 113.309 34.1459C112.777 34.7712 111.988 35.0839 110.943 35.0839ZM110.901 34.0759C111.582 34.0759 112.086 33.8566 112.413 33.4179C112.739 32.9699 112.903 32.2792 112.903 31.3459C112.903 30.4126 112.739 29.7219 112.413 29.2739C112.086 28.8259 111.582 28.6019 110.901 28.6019C110.219 28.6019 109.72 28.8259 109.403 29.2739C109.085 29.7126 108.927 30.4032 108.927 31.3459C108.927 32.2792 109.085 32.9699 109.403 33.4179C109.72 33.8566 110.219 34.0759 110.901 34.0759ZM116.66 35.0279C116.286 35.0279 116.1 34.9252 116.1 34.7199V29.8059C116.1 29.1899 116.072 28.7512 116.016 28.4899C115.96 28.2192 115.932 28.0699 115.932 28.0419C115.932 27.9299 116.02 27.8506 116.198 27.8039C116.375 27.7479 116.538 27.7199 116.688 27.7199C116.818 27.7199 116.912 27.7899 116.968 27.9299C117.033 28.0606 117.08 28.2006 117.108 28.3499C117.145 28.4992 117.168 28.5972 117.178 28.6439C117.476 28.3172 117.817 28.0606 118.2 27.8739C118.582 27.6872 118.97 27.5939 119.362 27.5939C120.071 27.5939 120.626 27.7946 121.028 28.1959C121.438 28.5972 121.644 29.1526 121.644 29.8619V34.7199C121.644 34.9252 121.457 35.0279 121.084 35.0279H121.028C120.654 35.0279 120.468 34.9252 120.468 34.7199V29.9739C120.468 29.5446 120.342 29.2132 120.09 28.9799C119.847 28.7372 119.497 28.6159 119.04 28.6159C118.722 28.6159 118.405 28.7046 118.088 28.8819C117.78 29.0592 117.509 29.2972 117.276 29.5959V34.7199C117.276 34.9252 117.089 35.0279 116.716 35.0279H116.66ZM129.496 35.0839C128.945 35.0839 128.464 34.9252 128.054 34.6079C127.643 34.2906 127.326 33.8472 127.102 33.2779C126.887 32.7086 126.78 32.0646 126.78 31.3459C126.78 30.5526 126.896 29.8759 127.13 29.3159C127.372 28.7466 127.708 28.3172 128.138 28.0279C128.567 27.7386 129.062 27.5939 129.622 27.5939C130.032 27.5939 130.392 27.6546 130.7 27.7759C131.017 27.8972 131.325 28.0746 131.624 28.3079V24.7799C131.624 24.5746 131.81 24.4719 132.184 24.4719H132.24C132.613 24.4719 132.8 24.5746 132.8 24.7799V32.9279C132.8 33.5439 132.828 33.9872 132.884 34.2579C132.94 34.5192 132.968 34.6639 132.968 34.6919C132.968 34.8039 132.879 34.8879 132.702 34.9439C132.524 34.9906 132.361 35.0139 132.212 35.0139C132.081 35.0139 131.983 34.9439 131.918 34.8039C131.862 34.6546 131.815 34.5006 131.778 34.3419C131.75 34.1832 131.731 34.0806 131.722 34.0339C131.05 34.7339 130.308 35.0839 129.496 35.0839ZM129.734 34.0619C130.051 34.0619 130.373 33.9779 130.7 33.8099C131.036 33.6419 131.344 33.4039 131.624 33.0959V29.2599C131.12 28.8399 130.546 28.6299 129.902 28.6299C129.276 28.6299 128.805 28.8539 128.488 29.3019C128.17 29.7499 128.012 30.3939 128.012 31.2339C128.012 32.1392 128.161 32.8392 128.46 33.3339C128.758 33.8192 129.183 34.0619 129.734 34.0619ZM138.168 35.0839C137.001 35.0839 136.138 34.7806 135.578 34.1739C135.018 33.5672 134.738 32.6386 134.738 31.3879C134.738 30.1466 135.013 29.2039 135.564 28.5599C136.114 27.9159 136.926 27.5939 138 27.5939C138.952 27.5939 139.67 27.9066 140.156 28.5319C140.641 29.1479 140.884 30.0532 140.884 31.2479C140.884 31.3319 140.828 31.4486 140.716 31.5979C140.604 31.7472 140.506 31.8219 140.422 31.8219H135.998C136.054 32.5966 136.254 33.1659 136.6 33.5299C136.945 33.8939 137.463 34.0759 138.154 34.0759C138.546 34.0759 138.882 34.0292 139.162 33.9359C139.451 33.8332 139.689 33.7352 139.876 33.6419C140.062 33.5392 140.17 33.4879 140.198 33.4879C140.291 33.4879 140.394 33.5812 140.506 33.7679C140.627 33.9546 140.688 34.0946 140.688 34.1879C140.688 34.2999 140.571 34.4306 140.338 34.5799C140.104 34.7199 139.792 34.8412 139.4 34.9439C139.017 35.0372 138.606 35.0839 138.168 35.0839ZM139.638 30.8139C139.638 29.3392 139.078 28.6019 137.958 28.6019C136.754 28.6019 136.1 29.3392 135.998 30.8139H139.638ZM144.819 35.0839C144.352 35.0839 143.932 34.9439 143.559 34.6639C143.195 34.3746 143.013 33.8706 143.013 33.1519V28.6859H142.313C142.219 28.6859 142.149 28.6532 142.103 28.5879C142.056 28.5226 142.033 28.4152 142.033 28.2659V28.0979C142.033 27.9486 142.056 27.8412 142.103 27.7759C142.149 27.7106 142.219 27.6779 142.313 27.6779H143.013L143.181 26.2079C143.209 26.0026 143.358 25.8999 143.629 25.8999H143.769C144.049 25.8999 144.189 26.0026 144.189 26.2079V27.6779H145.365C145.467 27.6779 145.537 27.7106 145.575 27.7759C145.621 27.8412 145.645 27.9486 145.645 28.0979V28.2659C145.645 28.4152 145.621 28.5226 145.575 28.5879C145.537 28.6532 145.467 28.6859 145.365 28.6859H144.189V33.0399C144.189 33.4319 144.254 33.7026 144.385 33.8519C144.525 34.0012 144.711 34.0759 144.945 34.0759C145.122 34.0759 145.253 34.0666 145.337 34.0479C145.43 34.0199 145.5 34.0059 145.547 34.0059C145.631 34.0059 145.701 34.0946 145.757 34.2719C145.813 34.4399 145.841 34.5706 145.841 34.6639C145.841 34.9439 145.5 35.0839 144.819 35.0839ZM149.38 35.0839C148.661 35.0839 148.082 34.9066 147.644 34.5519C147.205 34.1972 146.986 33.6746 146.986 32.9839C146.986 32.2466 147.205 31.6959 147.644 31.3319C148.092 30.9586 148.638 30.7206 149.282 30.6179C149.926 30.5059 150.71 30.4452 151.634 30.4359V29.7779C151.634 29.4326 151.512 29.1526 151.27 28.9379C151.027 28.7139 150.635 28.6019 150.094 28.6019C149.683 28.6019 149.324 28.6532 149.016 28.7559C148.708 28.8492 148.451 28.9472 148.246 29.0499C148.04 29.1432 147.928 29.1899 147.91 29.1899C147.816 29.1899 147.709 29.0966 147.588 28.9099C147.476 28.7232 147.42 28.5832 147.42 28.4899C147.42 28.3686 147.541 28.2379 147.784 28.0979C148.036 27.9579 148.367 27.8412 148.778 27.7479C149.188 27.6452 149.613 27.5939 150.052 27.5939C150.92 27.5939 151.596 27.7899 152.082 28.1819C152.567 28.5646 152.81 29.1012 152.81 29.7919V32.9279C152.81 33.5439 152.838 33.9872 152.894 34.2579C152.95 34.5192 152.978 34.6639 152.978 34.6919C152.978 34.8039 152.889 34.8879 152.712 34.9439C152.534 34.9906 152.371 35.0139 152.222 35.0139C152.091 35.0139 151.993 34.9439 151.928 34.8039C151.872 34.6546 151.825 34.5006 151.788 34.3419C151.76 34.1832 151.741 34.0806 151.732 34.0339C151.097 34.7339 150.313 35.0839 149.38 35.0839ZM149.436 34.0619C149.893 34.0619 150.285 33.9779 150.612 33.8099C150.948 33.6419 151.288 33.4039 151.634 33.0959V31.4439C150.934 31.4532 150.36 31.4812 149.912 31.5279C149.473 31.5746 149.086 31.7052 148.75 31.9199C148.414 32.1346 148.246 32.4659 148.246 32.9139C148.246 33.2872 148.344 33.5719 148.54 33.7679C148.745 33.9639 149.044 34.0619 149.436 34.0619ZM155.763 35.0279C155.389 35.0279 155.203 34.9252 155.203 34.7199V27.9579C155.203 27.7526 155.389 27.6499 155.763 27.6499H155.819C156.192 27.6499 156.379 27.7526 156.379 27.9579V34.7199C156.379 34.9252 156.192 35.0279 155.819 35.0279H155.763ZM155.791 26.6699C155.38 26.6699 155.175 26.5672 155.175 26.3619V25.5219C155.175 25.3166 155.38 25.2139 155.791 25.2139C156.201 25.2139 156.407 25.3166 156.407 25.5219V26.3619C156.407 26.5672 156.201 26.6699 155.791 26.6699ZM160.588 35.0839C160.121 35.0839 159.701 34.9439 159.328 34.6639C158.964 34.3746 158.782 33.8706 158.782 33.1519V24.7799C158.782 24.5746 158.968 24.4719 159.342 24.4719H159.398C159.771 24.4719 159.958 24.5746 159.958 24.7799V33.0399C159.958 33.4319 160.023 33.7026 160.154 33.8519C160.294 34.0012 160.48 34.0759 160.714 34.0759C160.891 34.0759 161.022 34.0666 161.106 34.0479C161.199 34.0199 161.269 34.0059 161.316 34.0059C161.4 34.0059 161.47 34.0946 161.526 34.2719C161.582 34.4399 161.61 34.5706 161.61 34.6639C161.61 34.9439 161.269 35.0839 160.588 35.0839ZM164.562 35.1259C164.161 35.1259 163.787 35.0792 163.442 34.9859C163.106 34.8832 162.835 34.7619 162.63 34.6219C162.434 34.4819 162.336 34.3559 162.336 34.2439C162.336 34.1506 162.392 34.0106 162.504 33.8239C162.625 33.6372 162.733 33.5439 162.826 33.5439C162.845 33.5439 162.933 33.5952 163.092 33.6979C163.251 33.8006 163.447 33.8939 163.68 33.9779C163.923 34.0619 164.189 34.1039 164.478 34.1039C164.926 34.1039 165.267 34.0152 165.5 33.8379C165.733 33.6606 165.85 33.4039 165.85 33.0679C165.85 32.7319 165.733 32.4752 165.5 32.2979C165.276 32.1206 164.926 31.9526 164.45 31.7939C164.049 31.6632 163.713 31.5232 163.442 31.3739C163.171 31.2152 162.947 30.9959 162.77 30.7159C162.593 30.4266 162.504 30.0579 162.504 29.6099C162.504 29.2179 162.602 28.8679 162.798 28.5599C163.003 28.2519 163.279 28.0139 163.624 27.8459C163.979 27.6686 164.38 27.5799 164.828 27.5799C165.304 27.5799 165.729 27.6406 166.102 27.7619C166.485 27.8832 166.676 28.0232 166.676 28.1819C166.676 28.3032 166.62 28.4619 166.508 28.6579C166.405 28.8446 166.312 28.9379 166.228 28.9379C166.2 28.9286 166.074 28.8679 165.85 28.7559C165.635 28.6346 165.337 28.5739 164.954 28.5739C164.59 28.5739 164.291 28.6579 164.058 28.8259C163.825 28.9939 163.708 29.2226 163.708 29.5119C163.708 29.7826 163.783 29.9926 163.932 30.1419C164.091 30.2912 164.38 30.4359 164.8 30.5759C165.528 30.8186 166.083 31.1126 166.466 31.4579C166.849 31.8032 167.04 32.2979 167.04 32.9419C167.04 33.3526 166.928 33.7259 166.704 34.0619C166.489 34.3886 166.191 34.6499 165.808 34.8459C165.435 35.0326 165.019 35.1259 164.562 35.1259Z" fill="#636D6F"/>
</g>
<defs>
<clipPath id="clip0_340_13">
<rect width="180" height="106" fill="white"/>
</clipPath>
</defs>
</svg>
