<svg width="60" height="60" viewBox="0 0 60 60" fill="none" xmlns="http://www.w3.org/2000/svg">
<path d="M36.9231 30C36.9231 28.6307 36.517 27.2922 35.7563 26.1537C34.9956 25.0152 33.9144 24.1279 32.6493 23.6039C31.3843 23.0799 29.9923 22.9428 28.6494 23.2099C27.3064 23.4771 26.0729 24.1364 25.1046 25.1046C24.1364 26.0728 23.4771 27.3064 23.2099 28.6494C22.9428 29.9923 23.0799 31.3843 23.6039 32.6493C24.1279 33.9144 25.0153 34.9956 26.1537 35.7563C27.2922 36.517 28.6307 36.9231 30 36.9231C31.8361 36.9231 33.597 36.1937 34.8954 34.8953C36.1937 33.597 36.9231 31.8361 36.9231 30ZM30 34.6154C29.0872 34.6154 28.1948 34.3447 27.4358 33.8375C26.6768 33.3304 26.0853 32.6096 25.7359 31.7662C25.3866 30.9229 25.2952 29.9949 25.4733 29.0996C25.6514 28.2043 26.091 27.3819 26.7364 26.7364C27.3819 26.0909 28.2043 25.6514 29.0996 25.4733C29.9949 25.2952 30.9229 25.3866 31.7662 25.7359C32.6096 26.0853 33.3304 26.6768 33.8376 27.4358C34.3447 28.1948 34.6154 29.0871 34.6154 30C34.6154 31.2241 34.1291 32.398 33.2636 33.2636C32.398 34.1291 31.2241 34.6154 30 34.6154Z" fill="#A333C8"/>
<path d="M33.4615 40.3845C33.4615 40.0785 33.5831 39.785 33.7995 39.5686C34.0159 39.3522 34.3094 39.2307 34.6154 39.2307H39.2308V34.6153C39.2308 34.3093 39.3523 34.0158 39.5687 33.7994C39.7851 33.583 40.0786 33.4614 40.3846 33.4614C40.6906 33.4614 40.9841 33.583 41.2005 33.7994C41.4169 34.0158 41.5385 34.3093 41.5385 34.6153V40.3845C41.5385 40.6905 41.4169 40.984 41.2005 41.2004C40.9841 41.4168 40.6906 41.5384 40.3846 41.5384H34.6154C34.3094 41.5384 34.0159 41.4168 33.7995 41.2004C33.5831 40.984 33.4615 40.6905 33.4615 40.3845ZM34.6154 20.7691H39.2308V25.3845C39.2308 25.6905 39.3523 25.984 39.5687 26.2004C39.7851 26.4168 40.0786 26.5383 40.3846 26.5383C40.6906 26.5383 40.9841 26.4168 41.2005 26.2004C41.4169 25.984 41.5385 25.6905 41.5385 25.3845V19.6153C41.5385 19.3093 41.4169 19.0158 41.2005 18.7994C40.9841 18.583 40.6906 18.4614 40.3846 18.4614H34.6154C34.3094 18.4614 34.0159 18.583 33.7995 18.7994C33.5831 19.0158 33.4615 19.3093 33.4615 19.6153C33.4615 19.9213 33.5831 20.2148 33.7995 20.4312C34.0159 20.6476 34.3094 20.7691 34.6154 20.7691ZM25.3846 18.4614H19.6154C19.3094 18.4614 19.0159 18.583 18.7995 18.7994C18.5831 19.0158 18.4615 19.3093 18.4615 19.6153V25.3845C18.4615 25.6905 18.5831 25.984 18.7995 26.2004C19.0159 26.4168 19.3094 26.5383 19.6154 26.5383C19.9214 26.5383 20.2149 26.4168 20.4313 26.2004C20.6477 25.984 20.7692 25.6905 20.7692 25.3845V20.7691H25.3846C25.6906 20.7691 25.9841 20.6476 26.2005 20.4312C26.4169 20.2148 26.5385 19.9213 26.5385 19.6153C26.5385 19.3093 26.4169 19.0158 26.2005 18.7994C25.9841 18.583 25.6906 18.4614 25.3846 18.4614ZM25.3846 39.2307H20.7692V34.6153C20.7692 34.3093 20.6477 34.0158 20.4313 33.7994C20.2149 33.583 19.9214 33.4614 19.6154 33.4614C19.3094 33.4614 19.0159 33.583 18.7995 33.7994C18.5831 34.0158 18.4615 34.3093 18.4615 34.6153V40.3845C18.4615 40.6905 18.5831 40.984 18.7995 41.2004C19.0159 41.4168 19.3094 41.5384 19.6154 41.5384H25.3846C25.6906 41.5384 25.9841 41.4168 26.2005 41.2004C26.4169 40.984 26.5385 40.6905 26.5385 40.3845C26.5385 40.0785 26.4169 39.785 26.2005 39.5686C25.9841 39.3522 25.6906 39.2307 25.3846 39.2307Z" fill="#778183"/>
<path d="M58.8462 0H1.15385C0.847827 0 0.554342 0.121566 0.337954 0.337954C0.121566 0.554342 0 0.847827 0 1.15385V58.8462C0 59.1522 0.121566 59.4457 0.337954 59.662C0.554342 59.8784 0.847827 60 1.15385 60H58.8462C59.1522 60 59.4457 59.8784 59.662 59.662C59.8784 59.4457 60 59.1522 60 58.8462V1.15385C60 0.847827 59.8784 0.554342 59.662 0.337954C59.4457 0.121566 59.1522 0 58.8462 0ZM57.6923 28.8462H43.8462C43.5401 28.8462 43.2466 28.9677 43.0303 29.1841C42.8139 29.4005 42.6923 29.694 42.6923 30C42.6923 30.306 42.8139 30.5995 43.0303 30.8159C43.2466 31.0323 43.5401 31.1538 43.8462 31.1538H57.6923V57.6923H31.1538V43.8462C31.1538 43.5401 31.0323 43.2466 30.8159 43.0303C30.5995 42.8139 30.306 42.6923 30 42.6923C29.694 42.6923 29.4005 42.8139 29.1841 43.0303C28.9677 43.2466 28.8462 43.5401 28.8462 43.8462V57.6923H2.30769V31.1538H16.1538C16.4599 31.1538 16.7534 31.0323 16.9697 30.8159C17.1861 30.5995 17.3077 30.306 17.3077 30C17.3077 29.694 17.1861 29.4005 16.9697 29.1841C16.7534 28.9677 16.4599 28.8462 16.1538 28.8462H2.30769V2.30769H28.8462V16.1538C28.8462 16.4599 28.9677 16.7534 29.1841 16.9697C29.4005 17.1861 29.694 17.3077 30 17.3077C30.306 17.3077 30.5995 17.1861 30.8159 16.9697C31.0323 16.7534 31.1538 16.4599 31.1538 16.1538V2.30769H57.6923V28.8462Z" fill="#A333C8"/>
<path d="M30 27.6924C29.5435 27.6924 29.0974 27.8277 28.7179 28.0813C28.3384 28.3349 28.0426 28.6953 27.8679 29.117C27.6933 29.5386 27.6476 30.0026 27.7366 30.4503C27.8256 30.8979 28.0454 31.3091 28.3682 31.6319C28.6909 31.9546 29.1021 32.1744 29.5497 32.2634C29.9974 32.3525 30.4614 32.3068 30.8831 32.1321C31.3047 31.9574 31.6652 31.6617 31.9187 31.2822C32.1723 30.9027 32.3076 30.4565 32.3076 30.0001C32.3076 29.388 32.0645 28.8011 31.6317 28.3683C31.199 27.9355 30.612 27.6924 30 27.6924Z" fill="#A333C8"/>
<path d="M34.6154 49.6154C38.5936 49.6154 42.4089 48.035 45.222 45.222C48.035 42.4089 49.6154 38.5936 49.6154 34.6154C49.6154 34.3093 49.7369 34.0159 49.9533 33.7995C50.1697 33.5831 50.4632 33.4615 50.7692 33.4615C51.0752 33.4615 51.3687 33.5831 51.5851 33.7995C51.8015 34.0159 51.9231 34.3093 51.9231 34.6154C51.9231 39.2057 50.0996 43.6079 46.8538 46.8538C43.6079 50.0996 39.2057 51.9231 34.6154 51.9231C34.3093 51.9231 34.0159 51.8015 33.7995 51.5851C33.5831 51.3687 33.4615 51.0752 33.4615 50.7692C33.4615 50.4632 33.5831 50.1697 33.7995 49.9533C34.0159 49.7369 34.3093 49.6154 34.6154 49.6154ZM34.6154 10.3846C38.5936 10.3846 42.4089 11.9649 45.222 14.778C48.035 17.591 49.6154 21.4063 49.6154 25.3846C49.6154 25.6906 49.7369 25.9841 49.9533 26.2005C50.1697 26.4169 50.4632 26.5384 50.7692 26.5384C51.0752 26.5384 51.3687 26.4169 51.5851 26.2005C51.8015 25.9841 51.9231 25.6906 51.9231 25.3846C51.9231 20.7943 50.0996 16.392 46.8538 13.1462C43.6079 9.90039 39.2057 8.0769 34.6154 8.0769C34.3093 8.0769 34.0159 8.19847 33.7995 8.41486C33.5831 8.63125 33.4615 8.92473 33.4615 9.23075C33.4615 9.53677 33.5831 9.83025 33.7995 10.0466C34.0159 10.263 34.3093 10.3846 34.6154 10.3846ZM26.5384 9.23075C26.5384 8.92473 26.4169 8.63125 26.2005 8.41486C25.9841 8.19847 25.6906 8.0769 25.3846 8.0769C20.7943 8.0769 16.392 9.90039 13.1462 13.1462C9.90039 16.392 8.0769 20.7943 8.0769 25.3846C8.0769 25.6906 8.19847 25.9841 8.41486 26.2005C8.63125 26.4169 8.92473 26.5384 9.23075 26.5384C9.53677 26.5384 9.83025 26.4169 10.0466 26.2005C10.263 25.9841 10.3846 25.6906 10.3846 25.3846C10.3846 21.4063 11.9649 17.591 14.778 14.778C17.591 11.9649 21.4063 10.3846 25.3846 10.3846C25.6906 10.3846 25.9841 10.263 26.2005 10.0466C26.4169 9.83025 26.5384 9.53677 26.5384 9.23075ZM25.3846 49.6154C21.4063 49.6154 17.591 48.035 14.778 45.222C11.9649 42.4089 10.3846 38.5936 10.3846 34.6154C10.3846 34.3093 10.263 34.0159 10.0466 33.7995C9.83025 33.5831 9.53677 33.4615 9.23075 33.4615C8.92473 33.4615 8.63125 33.5831 8.41486 33.7995C8.19847 34.0159 8.0769 34.3093 8.0769 34.6154C8.0769 39.2057 9.90039 43.6079 13.1462 46.8538C16.392 50.0996 20.7943 51.9231 25.3846 51.9231C25.6906 51.9231 25.9841 51.8015 26.2005 51.5851C26.4169 51.3687 26.5384 51.0752 26.5384 50.7692C26.5384 50.4632 26.4169 50.1697 26.2005 49.9533C25.9841 49.7369 25.6906 49.6154 25.3846 49.6154Z" fill="#778183"/>
</svg>
