<svg width="63" height="56" viewBox="0 0 63 56" fill="none" xmlns="http://www.w3.org/2000/svg">
<path d="M18.8606 49.908C12.2732 46.0479 6.64703 36.7287 3.73922 28.5546C2.57125 25.0086 2.1712 21.207 0.665516 17.798C-0.909502 15.3222 0.935484 12.6155 3.64744 11.8286C4.85493 11.5968 6.97811 10.4579 4.41525 11.2719C2.1177 12.9576 1.89534 9.7417 4.25131 9.538C5.85921 9.32448 6.45118 8.00814 5.9013 6.82323C4.17535 5.69771 10.0865 4.46064 7.11223 2.78119C4.01373 -0.561505 11.4462 -1.20513 9.6125 2.59135C9.17356 5.51069 14.806 2.05633 13.4992 5.42737C14.8274 7.04632 18.4731 5.79588 18.3827 8.06717C20.3176 8.20019 20.9817 9.82809 22.7981 9.95326C24.6805 10.8033 28.0933 11.4732 28.7338 13.5946C26.8662 15.0733 22.5414 10.5403 22.3336 14.6333C23.1217 29.0709 23.8684 34.0489 30.8401 41.6123C35.5361 46.9258 41.9888 49.4314 47.4362 50.3234C48.6096 49.4259 50.6813 46.0892 52.5116 47.4961C52.5987 49.0772 48.8786 50.801 52.3368 50.6264C54.3673 50.0138 55.7758 52.1968 57.4479 50.2276C58.9885 52.0526 63.851 49.0618 62.755 52.7918C61.2728 53.748 59.111 53.1701 57.6264 54.4857C55.1786 53.2631 53.2296 55.5797 50.5198 55.2867C40.0729 57.1151 26.4591 55.4658 18.8606 49.908ZM31.1394 54.4264C35.6937 55.0599 40.3971 56.0342 44.9678 55.1455C42.8991 54.2113 40.7604 55.5094 38.6996 54.4775C36.2279 55.0095 33.5755 54.342 31.0627 54.0135C28.2052 52.7406 25.1214 51.8654 22.4456 50.2133C19.1019 48.992 24.1748 51.7795 25.0777 52.0053C27.168 53.1917 22.7793 51.397 22.1605 50.9039C20.4099 49.9218 20.1425 50.1508 21.9429 51.148C24.7503 52.8873 28.2688 54.0664 31.1394 54.4264ZM18.1039 48.2173C20.642 49.1575 18.0926 46.4323 16.9295 46.5907C16.4141 45.6967 14.9607 45.1319 15.986 44.6516C14.1416 45.292 14.054 42.2168 13.1869 42.6561C11.2357 42.0401 12.4275 39.8575 10.1034 38.5171C9.89118 37.1049 7.79414 35.88 7.12536 33.7497C6.82987 32.659 4.75615 29.5269 6.03003 32.4418C7.11481 35.2478 9.02324 37.6509 10.6114 40.0513C11.8446 42.3365 13.3008 44.725 15.5466 46.1507C16.3038 46.8769 17.0347 47.9897 18.1039 48.2173ZM21.3727 43.7944C19.9839 43.054 16.9605 42.6709 19.094 44.3645C20.4636 44.9179 23.9542 45.1864 21.3728 43.7944H21.3727ZM23.7005 46.7375C26.6832 47.5813 21.1923 44.8513 22.9645 46.427L23.7004 46.7375H23.7005ZM23.7257 45.157C25.8926 45.4364 21.1475 43.6832 23.2503 45.0001L23.7257 45.157ZM31.2566 49.7875C33.2796 48.5781 32.6127 52.6197 34.6889 50.1289C36.7367 48.6337 32.9203 51.9776 35.4443 50.3956C37.2695 49.1747 39.9656 50.9743 41.6688 51.5613C42.8937 51.5012 44.0844 52.6206 45.3399 51.9397C47.7571 51.2886 40.6133 50.9739 42.486 49.8189C40.2742 50.4626 38.6402 49.0515 37.5519 47.6349C35.071 47.062 32.2026 45.7936 30.9644 43.5981C30.4596 42.7738 31.6937 43.7142 30.5288 42.3668C29.0338 41.0371 28.2873 39.5278 27.2838 37.9115C26.0848 37.2719 25.9452 35.3895 25.824 37.8484C25.8335 36.2966 24.3766 35.2521 24.0209 35.6862C24.0146 34.1916 25.5801 34.9409 24.4842 33.835C24.2483 32.286 23.4716 30.6718 23.2382 28.9229C22.8754 28.0799 23.1871 26.2743 22.0001 28.1827C21.5677 30.1998 21.8565 25.7042 22.529 27.1865C23.4117 25.6739 22.2122 25.8518 22.1631 26.0619C22.738 24.7854 22.527 22.975 22.013 23.6657C22.3194 22.313 22.4971 18.6872 21.5545 19.3296C22.1259 17.9151 22.6381 12.8568 20.1578 14.7853C19.1526 14.7994 17.4119 15.1503 16.5891 15.5594C19.169 16.9816 16.3296 16.0731 15.2794 15.847C15.1424 17.1629 14.1023 16.5937 12.8028 16.6066C14.8784 16.8635 11.792 18.7296 10.6013 18.0047C9.05477 18.7438 11.9358 20.5888 10.6322 21.1591C10.7925 22.0191 8.26315 20.8487 8.4617 22.8347C6.96043 22.2031 8.25505 25.1905 9.00618 24.1802C11.5596 24.8712 10.8037 26.4467 10.8687 27.9434C10.4527 28.8156 8.81462 25.8935 10.5039 26.0289C9.17123 23.864 9.02974 25.2463 7.92226 26.2521C7.66468 26.3251 10.7471 27.6829 8.81266 28.3545C10.5146 28.6171 10.5629 30.1064 10.9095 31.0488C11.9323 32.1142 11.723 29.8724 12.9469 31.1526C12.1724 30.012 8.84444 27.9388 11.5239 28.6038C11.5095 27.4557 11.0392 26.5299 11.8601 26.5524C12.6731 25.0802 11.0087 30.1822 12.8412 28.3112C13.3484 28.0897 13.474 26.8372 14.3858 28.4295C15.7101 29.7322 14.8641 30.6763 12.9961 29.4834C13.3303 30.6172 15.495 31.0223 15.0883 32.7954C15.5195 34.3546 16.1228 33.7803 16.6487 33.6901C17.0613 35.2052 17.2955 34.0911 17.3151 33.3702C19.2042 33.7745 18.7617 34.8912 19.3528 35.6713C20.6544 36.2588 17.4897 31.6888 19.7244 34.2971C22.0756 36.4198 20.619 37.1516 18.4962 36.9659C20.2618 37.1104 20.2988 38.6831 21.9327 38.7041C23.3528 39.4363 24.472 42.1835 21.8463 41.025C20.3658 40.1064 17.7284 39.2194 20.3605 40.7812C20.9836 41.1756 24.7224 42.5805 27.067 43.9935C28.3652 44.881 29.47 46.5635 30.106 46.8351C28.6957 47.5088 25.856 46.2972 27.9647 45.9259C26.6493 45.6864 25.2157 45.0117 26.4298 46.66C27.4738 47.6145 30.2251 47.4597 30.7133 47.5609C30.2994 48.473 29.589 48.5456 30.7304 48.6162C29.4571 49.2948 31.1386 49.3999 31.2566 49.7875ZM28.5155 41.428C27.6781 40.1076 27.8784 41.625 28.653 42.4351C29.8912 43.9076 28.9449 41.6004 28.5155 41.428ZM23.8927 34.598C23.8927 34.598 24.0991 33.2052 23.4624 33.0512C22.8255 32.8971 23.1764 33.1536 23.6859 34.2561C23.8074 34.5191 23.8825 34.6103 23.8815 34.6043L23.8927 34.598ZM16.9223 29.3188C16.2897 27.9021 17.2233 28.6714 17.0873 28.0671C16.7952 27.4597 13.9571 24.2341 15.2499 26.6693C16.4199 29.5743 14.5139 26.3046 14.3151 25.3148C14.0953 25.9226 14.778 27.9134 15.1907 28.5919C16.2412 30.2098 15.7686 27.7059 16.9221 29.3188H16.9223ZM11.1102 23.7324C9.46758 22.3507 11.6166 24.4135 10.9496 24.3875C9.21847 23.1232 9.92616 24.0188 10.9039 24.9905C11.9632 26.5645 12.8375 24.0473 11.1102 23.7324ZM11.9536 23.97C15.0609 24.8237 8.64663 20.9714 11.4891 23.501L11.9536 23.97ZM20.5528 27.6428C19.661 27.6608 20.9227 25.7006 19.727 26.0874C19.3074 23.0407 18.4034 27.4954 19.6335 28.2329C20.0133 29.3242 20.4122 28.8796 20.5528 27.6427V27.6428ZM13.2165 23.3087C17.354 25.2184 10.2207 20.1502 12.0468 22.6697C12.2638 23.1553 12.784 23.1957 13.2165 23.3087ZM13.6906 22.3189C16.8243 23.6143 13.4118 21.476 12.3265 21.7082C12.6002 22.1086 13.3424 21.9335 13.6906 22.3189ZM14.1103 21.1464C15.1276 20.9432 13.9753 20.617 13.3674 20.134C11.9605 18.0205 13.5766 20.3046 13.1345 20.9534C13.7199 21.5289 15.7102 22.5578 14.1102 21.1464H14.1103ZM21.307 17.8674C20.8916 20.0628 20.4679 19.1473 21.0634 17.5103C20.921 15.4094 19.6443 18.7968 20.2085 19.7911C21.1414 21.2771 22.0742 16.1395 21.307 17.8674ZM22.5475 44.0072C24.1633 44.4218 24.1551 43.7558 22.6948 43.558C21.9092 42.8273 19.4307 42.0522 21.6491 43.4672C21.796 43.8394 22.2603 43.8308 22.5474 44.0072H22.5475ZM16.8107 40.1969C17.7009 40.8607 20.1636 42.0781 18.0788 40.4495C18.7817 39.6329 16.7335 39.1982 17.413 38.652C15.6847 37.5944 16.0496 37.6884 17.2603 37.7218C15.1834 36.7934 17.5602 36.8628 17.4483 36.3871C16.6474 36.2289 13.4703 34.9749 15.3394 36.4901C13.4393 35.5213 14.8866 36.8509 14.3123 36.7104C12.3694 36.1807 16.0425 38.1902 14.0038 37.6914C15.1184 38.5747 17.004 39.9539 14.475 38.6261C14.1417 39.1058 16.2848 39.8328 16.8107 40.1968V40.1969ZM36.9988 52.0361C37.851 51.2103 37.0336 53.3516 38.411 51.8339C38.4258 50.7475 38.3685 50.1059 36.8282 51.4255C36.4036 51.6611 36.214 52.6623 36.9988 52.0361ZM23.0427 43.0756C23.9906 43.9178 27.3968 43.6936 24.1941 43.1793C23.7197 42.478 21.1821 42.6468 23.0427 43.0758V43.0756ZM7.42772 32.5869C6.05052 30.622 6.57168 29.7387 5.24356 28.1345C4.99224 26.9076 2.9654 24.1236 4.19523 27.073C5.32173 28.798 5.65661 31.4689 7.42772 32.5869ZM48.23 51.9793C49.5699 51.7077 52.6231 52.6613 53.1165 51.6241C51.4895 51.5847 47.4873 50.4762 47.2978 51.8886L48.23 51.9794V51.9793ZM2.60536 18.1221C2.36116 16.7223 2.06591 14.2653 4.40163 15.0955C1.28387 15.7145 6.55941 18.9707 5.8932 16.3999C7.20414 16.464 8.45778 15.625 7.76985 16.8983C10.3527 16.613 12.1435 14.3731 14.6384 14.687C16.582 14.4298 18.7069 14.2348 20.8011 13.4525C22.5231 13.3285 24.1807 11.4744 23.2369 10.3756C20.8887 10.177 18.4305 10.4707 15.8351 10.9867C12.959 11.5846 10.3466 12.7206 7.44466 13.2081C4.61613 13.588 8.01368 14.255 7.20341 14.4036C5.72742 14.9156 8.9636 15.2611 7.01197 15.8009C5.80693 15.5718 4.55232 15.1576 5.0671 13.8876C2.3576 14.2391 -0.0231476 15.3637 2.11745 18.1209L2.60536 18.1221ZM9.84676 15.1079C12.209 16.7228 9.44083 12.4567 8.80554 14.7971C9.10067 14.7245 9.56464 14.8967 9.84676 15.1079ZM10.5192 14.0257C12.7585 14.251 10.1761 12.604 10.0934 13.6381L10.5192 14.0259V14.0257ZM14.2722 12.6543C17.5774 12.0251 13.0617 11.6041 12.0934 12.7678C12.7069 13.0476 13.3862 11.9873 14.2722 12.6543ZM19.9415 11.5283C22.031 11.2074 20.27 10.2483 19.6586 11.8502C19.8802 12.3552 19.9869 11.6987 19.9415 11.5283ZM8.7016 20.0642C9.88259 19.9832 10.5493 18.7615 8.47311 18.8316C5.25546 18.4986 11.3121 19.9335 8.06043 19.5231C7.62345 19.8125 8.6762 20.1443 8.7016 20.0643V20.0642ZM7.04781 10.7356C9.15552 10.0185 11.8164 9.40952 13.0027 11.1388C12.1103 9.87988 12.6244 8.66956 13.5809 10.4518C14.9337 12.2552 15.419 9.9886 14.731 9.02678C15.3856 10.0621 17.8157 12.3165 15.4022 9.10556C17.0015 7.18179 12.2001 9.35749 11.1089 9.33552C10.5837 9.57113 5.68778 10.5841 7.04781 10.7357V10.7356ZM8.28303 8.3699C9.48513 7.46256 12.4405 8.90959 10.544 7.4682C10.3587 7.30438 6.39092 8.56121 8.28303 8.3699ZM12.6655 8.55078C14.0723 8.58673 12.0585 6.66088 13.735 7.53349C13.4597 6.634 11.7832 6.46564 10.9636 6.10634C10.5 6.92864 11.9072 8.56182 12.6655 8.55078ZM7.49816 2.38446C5.90204 0.300553 10.5003 2.73468 8.87843 0.55285C7.51338 -0.534139 6.2017 1.77617 7.49816 2.38446ZM27.9844 13.4189C28.7167 12.1211 24.9617 11.6694 27.4911 12.959C27.724 13.0368 27.6714 13.5087 27.9844 13.4189Z" fill="white"/>
</svg>
