<svg width="60" height="60" viewBox="0 0 60 60" fill="none" xmlns="http://www.w3.org/2000/svg">
<rect width="60" height="60" fill="white"/>
<mask id="mask0_6_1505" style="mask-type:alpha" maskUnits="userSpaceOnUse" x="38" y="32" width="20" height="20">
<rect x="38" y="32" width="20" height="20" fill="#D9D9D9"/>
</mask>
<g mask="url(#mask0_6_1505)">
<path d="M52.1667 44.5C51.9306 44.5 51.7328 44.42 51.5733 44.26C51.4133 44.1006 51.3333 43.9028 51.3333 43.6667V40.3333C51.3333 40.0972 51.4133 39.8992 51.5733 39.7392C51.7328 39.5797 51.9306 39.5 52.1667 39.5H54.6667C54.9028 39.5 55.1006 39.5797 55.26 39.7392C55.42 39.8992 55.5 40.0972 55.5 40.3333V41.1667H54.25V40.75H52.5833V43.25H54.25V42.8333H55.5V43.6667C55.5 43.9028 55.42 44.1006 55.26 44.26C55.1006 44.42 54.9028 44.5 54.6667 44.5H52.1667ZM45.9167 44.5V39.5H49.25C49.4861 39.5 49.6842 39.5797 49.8442 39.7392C50.0036 39.8992 50.0833 40.0972 50.0833 40.3333V41.1667C50.0833 41.4028 50.0036 41.6006 49.8442 41.76C49.6842 41.92 49.4861 42 49.25 42C49.4861 42 49.6842 42.0797 49.8442 42.2392C50.0036 42.3992 50.0833 42.5972 50.0833 42.8333V43.6667C50.0833 43.9028 50.0036 44.1006 49.8442 44.26C49.6842 44.42 49.4861 44.5 49.25 44.5H45.9167ZM47.1667 41.375H48.8333V40.75H47.1667V41.375ZM47.1667 43.25H48.8333V42.625H47.1667V43.25ZM40.5 44.5V40.3333C40.5 40.0972 40.58 39.8992 40.74 39.7392C40.8994 39.5797 41.0972 39.5 41.3333 39.5H43.8333C44.0694 39.5 44.2675 39.5797 44.4275 39.7392C44.5869 39.8992 44.6667 40.0972 44.6667 40.3333V44.5H43.4167V43.25H41.75V44.5H40.5ZM41.75 42H43.4167V40.75H41.75V42Z" fill="url(#paint0_linear_6_1505)"/>
</g>
<mask id="mask1_6_1505" style="mask-type:alpha" maskUnits="userSpaceOnUse" x="4" y="36" width="12" height="12">
<rect x="4" y="36" width="12" height="12" fill="#D9D9D9"/>
</mask>
<g mask="url(#mask1_6_1505)">
<path d="M6.97478 46.0002L7.46258 44.025H5.75018L6.01238 42.975H7.72478L8.21258 41.025H6.24998L6.51278 39.975H8.47478L8.96258 37.9998H10.0252L9.53738 39.975H11.4748L11.9626 37.9998H13.0252L12.5374 39.975H14.2498L13.9876 41.025H12.2752L11.7874 42.975H13.75L13.4872 44.025H11.5252L11.0374 46.0002H9.97478L10.4626 44.025H8.52518L8.03738 46.0002H6.97478ZM8.78738 42.975H10.7248L11.2126 41.025H9.27518L8.78738 42.975Z" fill="#778183"/>
</g>
<mask id="mask2_6_1505" style="mask-type:alpha" maskUnits="userSpaceOnUse" x="24" y="36" width="12" height="12">
<rect x="24" y="36" width="12" height="12" fill="#D9D9D9"/>
</mask>
<g mask="url(#mask2_6_1505)">
<path d="M26.9748 46.0002L27.4626 44.025H25.7502L26.0124 42.975H27.7248L28.2126 41.025H26.25L26.5128 39.975H28.4748L28.9626 37.9998H30.0252L29.5374 39.975H31.4748L31.9626 37.9998H33.0252L32.5374 39.975H34.2498L33.9876 41.025H32.2752L31.7874 42.975H33.75L33.4872 44.025H31.5252L31.0374 46.0002H29.9748L30.4626 44.025H28.5252L28.0374 46.0002H26.9748ZM28.7874 42.975H30.7248L31.2126 41.025H29.2752L28.7874 42.975Z" fill="#778183"/>
</g>
<path d="M12 30V19H30M48 30V19H30M30 19V30M30 19V11.5" stroke="#778183" stroke-linecap="round" stroke-linejoin="round"/>
<rect x="25" y="4" width="10" height="10" rx="1" fill="#778183"/>
<defs>
<linearGradient id="paint0_linear_6_1505" x1="48" y1="39.5" x2="48" y2="44.5" gradientUnits="userSpaceOnUse">
<stop stop-color="#2C8ECF"/>
<stop offset="1" stop-color="#41B8E4"/>
</linearGradient>
</defs>
</svg>
