<svg width="54" height="60" viewBox="0 0 54 60" fill="none" xmlns="http://www.w3.org/2000/svg">
<path d="M19.4003 40.9834H20.7639C20.9126 40.9834 21.0553 41.0431 21.1594 41.1494C21.2637 41.2555 21.3208 41.3993 21.3179 41.548V42.8797C21.3179 43.1858 21.07 43.4337 20.7639 43.4337H19.4003C19.0942 43.4337 18.8463 43.1858 18.8463 42.8797V41.548C18.8434 41.3993 18.9004 41.2555 19.0048 41.1494C19.1089 41.0431 19.2516 40.9834 19.4003 40.9834Z" fill="#AC724D"/>
<path d="M23.7568 40.9834H25.1418C25.2878 40.9834 25.4276 41.042 25.5297 41.1463C25.632 41.2504 25.688 41.3913 25.6851 41.5374V42.8903C25.6851 43.1904 25.4418 43.4337 25.1418 43.4337H23.7568C23.4567 43.4337 23.2135 43.1904 23.2135 42.8903V41.5374C23.2106 41.3913 23.2665 41.2504 23.3688 41.1463C23.4709 41.042 23.6108 40.9834 23.7568 40.9834Z" fill="#AC724D"/>
<path d="M28.1361 40.9834H29.521C29.6671 40.9834 29.8069 41.042 29.909 41.1463C30.0113 41.2504 30.0673 41.3913 30.0644 41.5374V42.8903C30.0644 43.1904 29.8211 43.4337 29.521 43.4337H28.1361C27.836 43.4337 27.5928 43.1904 27.5928 42.8903V41.5374C27.5928 41.2355 27.8343 40.9892 28.1361 40.9834Z" fill="#AC724D"/>
<path d="M13.9138 39.1511C14.2993 39.3773 14.636 39.678 14.9046 40.0353C15.1607 40.4053 15.3316 40.8273 15.4053 41.2711C15.5136 41.9116 15.5635 42.5606 15.5544 43.2101V44.5098C15.5717 44.7302 15.6257 44.9463 15.7142 45.149C15.7817 45.2697 15.8811 45.3691 16.0019 45.4366C16.193 45.4965 16.3892 45.5392 16.5878 45.5645C16.8128 45.594 17.0163 45.7129 17.1524 45.8947C17.3098 46.1104 17.3888 46.3737 17.3761 46.6405C17.3761 47.3649 16.9393 47.7058 16.0551 47.7058C15.5524 47.7153 15.0552 47.6019 14.6062 47.3755C14.1963 47.1538 13.8567 46.8216 13.6261 46.4167C13.388 45.9786 13.2635 45.4879 13.2639 44.9892C13.2639 44.0836 13.2639 43.3592 13.2106 42.8585C13.2122 42.502 13.1871 42.1458 13.1361 41.7932C13.0775 41.4627 12.9385 41.1517 12.7312 40.8876C12.5321 40.6676 12.3024 40.4777 12.0494 40.323C11.8255 40.1967 11.6211 40.0389 11.4421 39.8542C11.3121 39.6558 11.2522 39.4194 11.2717 39.1831C11.257 38.9869 11.2972 38.7902 11.3873 38.6156C11.4777 38.4407 11.6146 38.2942 11.783 38.1923C12.114 38.0014 12.4213 37.7726 12.6992 37.5105C12.8908 37.3085 13.0235 37.0579 13.0828 36.786C13.1609 36.4722 13.2037 36.1506 13.2106 35.8272C13.2106 35.4757 13.2106 34.6447 13.2639 33.313C13.2472 32.5762 13.532 31.8644 14.0522 31.3421C14.5935 30.8374 15.3157 30.5724 16.0551 30.607C16.9393 30.607 17.3761 30.9692 17.3761 31.6724C17.3921 31.9429 17.3128 32.2104 17.1524 32.4287C17.017 32.6094 16.8123 32.7252 16.5877 32.7483C16.3356 32.7756 16.0901 32.8478 15.8633 32.9614C15.7042 33.1032 15.6083 33.3025 15.597 33.5154C15.597 33.7924 15.533 34.325 15.5117 35.1028C15.5137 35.7375 15.4674 36.3714 15.3732 36.9991C15.3135 37.4447 15.1533 37.8711 14.9045 38.2455C14.6408 38.6131 14.3035 38.9216 13.9137 39.1511L13.9138 39.1511Z" fill="#AC724D"/>
<path d="M33.9741 38.2136C33.726 37.8376 33.5624 37.4124 33.4947 36.9671C33.4057 36.3388 33.3595 35.7054 33.3562 35.0708C33.3606 34.5408 33.3358 34.0108 33.2816 33.4834C33.2703 33.2706 33.1744 33.0713 33.0153 32.9295C32.7885 32.8158 32.543 32.7437 32.2909 32.7164C32.0656 32.6958 31.8598 32.5794 31.7262 32.3968C31.5658 32.1784 31.4865 31.9109 31.5025 31.6404C31.5025 30.9373 31.9393 30.5751 32.8129 30.5751C33.5557 30.5387 34.2817 30.8039 34.8264 31.3102C35.3437 31.8335 35.6247 32.5455 35.6041 33.2811V35.7953C35.6194 36.1187 35.6658 36.4396 35.7426 36.7541C35.8019 37.026 35.9346 37.2766 36.1261 37.4785C36.3998 37.7409 36.7038 37.9699 37.0317 38.1604C37.2021 38.2607 37.3411 38.4067 37.4334 38.5816C37.5255 38.7565 37.5672 38.9538 37.5537 39.1511C37.5701 39.3888 37.5062 39.6252 37.3726 39.8222C37.1981 40.0071 36.9971 40.1652 36.776 40.291C36.5199 40.4459 36.2868 40.6359 36.0835 40.8556C35.9241 41.118 35.8258 41.4129 35.7959 41.7186C35.7448 42.0715 35.7164 42.4273 35.7106 42.7839V44.9146C35.7195 45.4129 35.5983 45.905 35.3591 46.3422C35.1243 46.7474 34.7811 47.0795 34.3683 47.301C33.9197 47.5285 33.4221 47.6419 32.9194 47.6312C32.0458 47.6312 31.6091 47.2797 31.6091 46.5659C31.5964 46.2991 31.6754 46.0359 31.8328 45.8201C31.9688 45.6384 32.1724 45.5194 32.3974 45.4899C32.593 45.4664 32.7856 45.4235 32.9727 45.3621C33.0979 45.3008 33.1991 45.1996 33.2603 45.0744C33.358 44.8744 33.4159 44.6574 33.4308 44.4352V43.1355C33.4213 42.4861 33.4712 41.8369 33.58 41.1966C33.6485 40.7513 33.8199 40.3281 34.0807 39.9608C34.3492 39.6034 34.6859 39.3027 35.0715 39.0766C34.6475 38.8717 34.2731 38.5774 33.9742 38.2136L33.9741 38.2136Z" fill="#AC724D"/>
<path d="M38.7361 11.3567C38.1932 11.3276 37.6659 11.5425 37.2979 11.9426C36.9188 12.3818 36.7239 12.9504 36.7546 13.53C36.7313 14.0986 36.9255 14.6548 37.2979 15.0854C37.6648 15.4882 38.1919 15.7069 38.7361 15.682C39.2797 15.7024 39.8048 15.4844 40.1743 15.0854C40.5423 14.6446 40.7323 14.0822 40.707 13.5087C40.7349 12.9314 40.5449 12.3648 40.1743 11.9213C39.7999 11.5327 39.2747 11.3265 38.7361 11.3567Z" fill="#778183"/>
<path d="M53.2331 6.17893H48.5776V0.17041H12.7077L0.637207 12.5176V59.8295H48.5776V21.0937H53.2331V6.17893ZM12.0899 3.84587V9.40694C12.0899 10.8239 10.4919 11.8892 9.16027 11.8892H4.2384L12.0899 3.84587ZM46.4473 57.6987H2.76834V14.0197H9.16039C11.5574 14.0197 14.2207 12.1234 14.2207 9.40677V2.30109H46.4474V6.17893H19.1429V21.0937H46.4474L46.4473 57.6987ZM42.5588 13.5294C42.5697 14.2205 42.3928 14.9017 42.0474 15.5003C41.719 16.0754 41.2402 16.5505 40.6625 16.8746C39.46 17.5283 38.0085 17.5283 36.806 16.8746C36.2251 16.5512 35.7426 16.0763 35.4104 15.5003C34.715 14.2785 34.715 12.7804 35.4104 11.5585C35.758 10.9788 36.2595 10.5067 36.8593 10.1949C37.4372 9.89261 38.0824 9.74235 38.7343 9.75811C39.4123 9.74967 40.0806 9.91858 40.6732 10.2482C41.2504 10.568 41.7294 11.0396 42.0581 11.6118C42.3862 12.1977 42.5584 12.858 42.5588 13.5294ZM31.9906 14.7439C31.8568 14.618 31.7016 14.517 31.5325 14.4456C31.2782 14.3433 31.0185 14.2545 30.7548 14.1792C30.3504 14.0587 29.9551 13.9091 29.5723 13.7318C29.2613 13.5764 28.9912 13.3503 28.7839 13.0713C28.5442 12.7253 28.4279 12.3089 28.4537 11.8888C28.4273 11.252 28.7089 10.6417 29.2101 10.2482C29.7933 9.86819 30.4875 9.69552 31.181 9.75811C31.8916 9.72615 32.5928 9.93234 33.1731 10.344C33.6789 10.7437 33.9766 11.3508 33.9828 11.9953H32.0119C32.0088 11.7744 31.912 11.5651 31.7455 11.42C31.568 11.2777 31.3443 11.2056 31.117 11.2176C30.9244 11.2065 30.7346 11.2671 30.5843 11.388C30.4372 11.5374 30.3668 11.7465 30.3939 11.9544C30.421 12.1626 30.5422 12.3466 30.7228 12.4534C31.062 12.6351 31.4191 12.7816 31.7882 12.8902C32.1919 13.0213 32.5868 13.178 32.9707 13.3589C33.2761 13.5136 33.542 13.7358 33.7484 14.0088C33.9735 14.3175 34.0895 14.6921 34.0787 15.0741C34.0831 15.4834 33.9723 15.8858 33.7591 16.2354C33.5278 16.5963 33.1991 16.8846 32.8109 17.0663C32.3548 17.2803 31.8552 17.3862 31.3513 17.3753C30.8484 17.3846 30.3488 17.2941 29.8812 17.109C29.4577 16.954 29.0877 16.6804 28.8158 16.3206C28.563 15.9584 28.429 15.5265 28.4323 15.0848H30.3712C30.3845 15.323 30.4873 15.5476 30.6589 15.7133C30.8344 15.8687 31.0639 15.949 31.2981 15.9371C31.5269 15.949 31.7528 15.8811 31.9373 15.7453C32.0975 15.6259 32.1858 15.4332 32.1716 15.2339C32.1838 15.0522 32.1179 14.8739 31.9905 14.7439H31.9906ZM27.1753 9.81138V14.9037C27.2174 15.5762 26.9782 16.236 26.5148 16.7254C26.0234 17.1691 25.3755 17.399 24.7143 17.3646C24.0187 17.3975 23.338 17.1564 22.818 16.6935C22.3228 16.1861 22.0639 15.4941 22.1043 14.7865H23.9153C23.8947 15.0362 23.9626 15.285 24.1071 15.4897C24.2423 15.6548 24.448 15.7458 24.6611 15.7347C24.8551 15.7451 25.0433 15.6666 25.1724 15.5216C25.3074 15.3452 25.372 15.125 25.3535 14.9037V9.81141L27.1753 9.81138ZM50.2611 17.2688H48.4394L45.3819 12.6772V17.2901H43.5708V9.83274H45.3819L48.4287 14.4669V9.81138H50.2505L50.2611 17.2688Z" fill="#778183"/>
</svg>
