<svg width="60" height="60" viewBox="0 0 60 60" fill="none" xmlns="http://www.w3.org/2000/svg">
<rect width="60" height="60" fill="white"/>
<mask id="mask0_2_3662" style="mask-type:alpha" maskUnits="userSpaceOnUse" x="20" y="8" width="20" height="20">
<rect x="20" y="8" width="20" height="20" fill="#D9D9D9"/>
</mask>
<g mask="url(#mask0_2_3662)">
<path d="M29.4325 21.6437C29.4325 20.5 29.542 19.6492 29.761 19.0912C29.98 18.5332 30.4214 17.9576 31.0851 17.3644C31.6641 16.8559 32.0841 16.4288 32.3451 16.083C32.6068 15.7366 32.7376 15.3234 32.7376 14.8434C32.7376 14.2644 32.5644 13.8125 32.218 13.4878C31.8722 13.1624 31.3532 12.9997 30.661 12.9997C29.941 12.9997 29.4078 13.2115 29.0614 13.6353C28.7156 14.059 28.4651 14.4969 28.3098 14.9492L26.042 13.9749C26.339 13.0705 26.8827 12.2864 27.6732 11.6227C28.4644 10.959 29.4603 10.6271 30.661 10.6271C32.1444 10.6271 33.2851 11.0403 34.0831 11.8668C34.881 12.6932 35.28 13.6854 35.28 14.8434C35.28 15.5498 35.1281 16.1536 34.8244 16.6546C34.5207 17.1563 34.0441 17.7247 33.3946 18.36C32.7024 19.0237 32.2892 19.5288 32.1549 19.8753C32.0207 20.221 31.9536 20.8105 31.9536 21.6437H29.4325ZM30.661 26.7285C30.181 26.7285 29.7715 26.559 29.4325 26.22C29.0936 25.881 28.9241 25.4715 28.9241 24.9915C28.9241 24.5115 29.0936 24.102 29.4325 23.763C29.7715 23.4241 30.181 23.2546 30.661 23.2546C31.141 23.2546 31.5505 23.4241 31.8895 23.763C32.2285 24.102 32.398 24.5115 32.398 24.9915C32.398 25.4715 32.2285 25.881 31.8895 26.22C31.5505 26.559 31.141 26.7285 30.661 26.7285Z" fill="url(#paint0_linear_2_3662)"/>
</g>
<path d="M22 37L38 48" stroke="url(#paint1_linear_2_3662)" stroke-width="1.5" stroke-linecap="round" stroke-dasharray="3 2"/>
<path d="M4 33.75L12 46L20 36" stroke="#778183" stroke-width="1.5" stroke-linecap="round" stroke-linejoin="round"/>
<path d="M40 49L48 31L56 36.75" stroke="#778183" stroke-width="1.5" stroke-linecap="round" stroke-linejoin="round"/>
<defs>
<linearGradient id="paint0_linear_2_3662" x1="30.661" y1="10.6271" x2="30.5" y2="24" gradientUnits="userSpaceOnUse">
<stop stop-color="#2683C9"/>
<stop offset="1" stop-color="#44C0E7"/>
</linearGradient>
<linearGradient id="paint1_linear_2_3662" x1="16.9091" y1="38.1" x2="19.168" y2="50.0479" gradientUnits="userSpaceOnUse">
<stop stop-color="#2683C9"/>
<stop offset="1" stop-color="#44C0E7"/>
</linearGradient>
</defs>
</svg>
