<svg width="60" height="60" viewBox="0 0 60 60" fill="none" xmlns="http://www.w3.org/2000/svg">
<rect width="60" height="60" fill="white"/>
<path d="M23.5 30C23.5 37.1344 22.3869 43.5708 20.6044 48.2053C19.7125 50.5242 18.6627 52.3665 17.5225 53.6204C16.3825 54.8742 15.1914 55.5 14 55.5C12.8086 55.5 11.6175 54.8742 10.4775 53.6204C9.33727 52.3665 8.2875 50.5242 7.3956 48.2053C5.6131 43.5708 4.5 37.1344 4.5 30C4.5 22.8656 5.6131 16.4292 7.3956 11.7947C8.2875 9.47579 9.33727 7.63349 10.4775 6.37959C11.6175 5.12585 12.8086 4.5 14 4.5C15.1914 4.5 16.3825 5.12585 17.5225 6.37959C18.6627 7.63349 19.7125 9.47579 20.6044 11.7947C22.3869 16.4292 23.5 22.8656 23.5 30Z" fill="#EBF2F3" stroke="#778183"/>
<path d="M55.5 30C55.5 37.1344 54.3869 43.5708 52.6044 48.2053C51.7125 50.5242 50.6627 52.3665 49.5225 53.6204C48.3825 54.8742 47.1914 55.5 46 55.5C44.8086 55.5 43.6175 54.8742 42.4775 53.6204C41.3373 52.3665 40.2875 50.5242 39.3956 48.2053C37.6131 43.5708 36.5 37.1344 36.5 30C36.5 22.8656 37.6131 16.4292 39.3956 11.7947C40.2875 9.47579 41.3373 7.63349 42.4775 6.37959C43.6175 5.12585 44.8086 4.5 46 4.5C47.1914 4.5 48.3825 5.12585 49.5225 6.37959C50.6627 7.63349 51.7125 9.47579 52.6044 11.7947C54.3869 16.4292 55.5 22.8656 55.5 30Z" fill="#EBF2F3" stroke="#778183"/>
<circle cx="14" cy="16" r="4" fill="#778183"/>
<rect x="10" y="40" width="8" height="8" rx="1" fill="#778183"/>
<path d="M36 30L28.5 25.6699V34.3301L36 30ZM24 30.75H29.25V29.25H24V30.75Z" fill="#778183"/>
<circle cx="46" cy="16" r="4" fill="#778183"/>
<path d="M46 25L47.4695 27.9775L50.7553 28.4549L48.3776 30.7725L48.9389 34.0451L46 32.5L43.0611 34.0451L43.6224 30.7725L41.2447 28.4549L44.5305 27.9775L46 25Z" fill="url(#paint0_linear_5_1477)"/>
<rect x="42" y="40" width="8" height="8" rx="1" fill="#778183"/>
<defs>
<linearGradient id="paint0_linear_5_1477" x1="46" y1="25" x2="46" y2="35" gradientUnits="userSpaceOnUse">
<stop stop-color="#2886CB"/>
<stop offset="1" stop-color="#45C1E8"/>
</linearGradient>
</defs>
</svg>
