<svg width="26" height="26" viewBox="0 0 26 26" fill="none" xmlns="http://www.w3.org/2000/svg">
<g clip-path="url(#clip0_2382_859)">
<path d="M24.4461 12.5187H21.6048C21.2659 12.5187 20.9912 12.7934 20.9912 13.1325C20.9912 13.4713 21.2659 13.746 21.6048 13.746H24.4461C24.7849 13.746 25.0596 13.4713 25.0596 13.1325C25.0596 12.7935 24.7849 12.5187 24.4461 12.5187Z" fill="white"/>
<path d="M20.6215 9.32981C20.7327 9.33195 20.8421 9.30394 20.9383 9.24858L23.3985 7.82803C23.6939 7.65551 23.7937 7.27605 23.6212 6.98042C23.4487 6.68476 23.069 6.58514 22.7736 6.75766L20.3135 8.18675C20.0717 8.32527 19.9537 8.60939 20.0259 8.87833C20.0984 9.14748 20.343 9.3341 20.6215 9.33261L20.6215 9.32981Z" fill="white"/>
<path d="M19.5658 2.27438C19.2886 2.09138 18.916 2.16215 18.7253 2.43407L17.1226 4.78219C17.0187 4.91623 16.9751 5.08725 17.0018 5.25464C17.0288 5.42202 17.1235 5.57102 17.2639 5.66594C17.4044 5.76108 17.5777 5.79378 17.743 5.75637C17.9085 5.71896 18.051 5.61485 18.1368 5.46884L19.7283 3.11514C19.9109 2.83702 19.8389 2.46438 19.5659 2.27437L19.5658 2.27438Z" fill="white"/>
<path d="M7.43864 5.73482C7.66674 5.73525 7.87624 5.60933 7.9827 5.40753C8.08916 5.20572 8.07506 4.96159 7.94593 4.77368L6.34325 2.42556H6.34304C6.25475 2.28404 6.11238 2.18464 5.94926 2.15022C5.78594 2.1158 5.61577 2.14937 5.47767 2.24321C5.33979 2.33685 5.24593 2.48286 5.21772 2.64725C5.18971 2.81186 5.22969 2.98053 5.32867 3.115L6.92877 5.4687C7.044 5.63651 7.23512 5.73613 7.43863 5.73485L7.43864 5.73482Z" fill="white"/>
<path d="M4.72594 8.18666L2.263 6.75757C1.9712 6.60259 1.60907 6.70627 1.44379 6.99252C1.27833 7.27855 1.3694 7.64409 1.64945 7.8196L4.10959 9.24015C4.25068 9.32844 4.4217 9.35581 4.58332 9.31562C4.74493 9.27542 4.88325 9.17132 4.96662 9.02702C5.04978 8.88293 5.07094 8.71106 5.02519 8.55094C4.97923 8.39082 4.87021 8.25635 4.72313 8.17811L4.72594 8.18666Z" fill="white"/>
<path d="M23.3877 18.3187L20.9389 16.8982C20.6441 16.7257 20.2651 16.8246 20.0926 17.1194C19.9201 17.4142 20.0193 17.7932 20.3141 17.9658L22.7742 19.3863C23.066 19.5413 23.4281 19.4376 23.5934 19.1514C23.7587 18.8654 23.6678 18.4998 23.3877 18.3243L23.3877 18.3187Z" fill="white"/>
<path d="M4.11204 16.898L1.6519 18.3186C1.50482 18.3968 1.39579 18.5313 1.34983 18.6914C1.30408 18.8515 1.32525 19.0234 1.40841 19.1675C1.49178 19.3118 1.63009 19.4159 1.79171 19.4561C1.95332 19.4963 2.12434 19.4689 2.26544 19.3806L4.72558 17.9657C5.00563 17.7902 5.09669 17.4246 4.93123 17.1386C4.76598 16.8523 4.40384 16.7486 4.11202 16.9036L4.11204 16.898Z" fill="white"/>
<path d="M4.07329 13.1323C4.07329 12.7932 3.79858 12.5185 3.45974 12.5185H0.618427C0.27959 12.5185 0.00488281 12.7932 0.00488281 13.1323C0.00488281 13.4711 0.279585 13.7458 0.618427 13.7458H3.45974C3.62243 13.7458 3.77848 13.6812 3.89371 13.566C4.00873 13.451 4.07328 13.2949 4.07328 13.1323H4.07329Z" fill="white"/>
<path d="M12.51 4.1013C12.8489 4.1013 13.1238 3.8266 13.1238 3.48776V0.646442C13.1238 0.307606 12.8489 0.0328979 12.51 0.0328979C12.1712 0.0328979 11.8965 0.3076 11.8965 0.646442V3.48776C11.8965 3.65044 11.961 3.8065 12.0761 3.92173C12.1913 4.03674 12.3473 4.1013 12.51 4.1013L12.51 4.1013Z" fill="white"/>
<path d="M14.951 20.5576H10.0698C9.73077 20.5576 9.45605 20.8323 9.45605 21.1712C9.45605 21.5102 9.73076 21.7849 10.0698 21.7849H14.951C15.2898 21.7849 15.5645 21.5102 15.5645 21.1712C15.5645 20.8323 15.2898 20.5576 14.951 20.5576Z" fill="white"/>
<path d="M11.244 24.2173V24.5535C11.244 24.9377 11.5546 25.2496 11.9388 25.2511H12.9307C13.3138 25.2496 13.6242 24.9394 13.6257 24.5563V24.2312C14.0103 24.2098 14.3722 24.0426 14.6377 23.7634C14.9032 23.4845 15.0524 23.1146 15.0546 22.7294H9.95215C9.95429 23.0907 10.0858 23.4396 10.3226 23.7123C10.5597 23.9853 10.8864 24.1645 11.244 24.2173L11.244 24.2173Z" fill="white"/>
<path d="M12.5102 6.64008C9.10296 6.64008 6.34571 9.47559 6.34571 12.9698V12.97C6.34485 13.7832 6.49791 14.5896 6.79699 15.3459C6.8344 15.4393 6.87352 15.5328 6.91478 15.6262H6.91457C7.18179 16.2209 7.539 16.771 7.97381 17.2571L9.54015 19.664H15.4857L17.052 17.2571C17.4866 16.771 17.8439 16.2209 18.1111 15.6262C18.1522 15.5347 18.1915 15.4413 18.2289 15.3459C18.5278 14.5896 18.681 13.7832 18.68 12.97C18.68 9.47307 15.9171 6.64029 12.51 6.64029L12.5102 6.64008ZM12.2299 8.97133V8.97155C11.5815 9.00981 10.9515 9.202 10.3918 9.53184C9.21777 10.2296 8.60702 11.4933 8.57621 13.25C8.57001 13.5846 8.29701 13.8527 7.96245 13.8525C7.79976 13.8497 7.64477 13.7821 7.5319 13.665C7.41881 13.5476 7.35703 13.3905 7.36002 13.2276C7.40769 10.4256 8.73011 9.07777 9.83149 8.44458C10.5675 8.02408 11.394 7.7866 12.2412 7.75256C12.58 7.75256 12.8547 8.02726 12.8547 8.3661C12.8547 8.70515 12.58 8.97987 12.2412 8.97987L12.2299 8.97133Z" fill="white"/>
</g>
<defs>
<clipPath id="clip0_2382_859">
<rect width="25.065" height="25.2839" fill="white"/>
</clipPath>
</defs>
</svg>
