<svg width="43" height="35" viewBox="0 0 43 35" fill="none" xmlns="http://www.w3.org/2000/svg">
<g opacity="0.5">
<rect x="9.56934" y="4.55078" width="23.7811" height="6.44756" rx="1.00926" fill="#9FA9AB"/>
<rect x="9.56934" y="12.2422" width="23.7811" height="6.44756" rx="1.00926" fill="#9FA9AB"/>
<rect x="9.56934" y="19.9341" width="23.7811" height="6.44756" rx="1.00926" fill="#9FA9AB"/>
</g>
<g filter="url(#filter0_d)">
<rect x="20.7031" y="18.9692" width="8.54282" height="8.54282" rx="1.00926" fill="white"/>
<rect x="26.0918" y="11.8276" width="11.413" height="11.413" rx="1.00926" fill="#8B9597"/>
<path d="M31.7364 13.8394C31.5774 13.6805 31.69 13.4087 31.9148 13.4087H35.5626C35.8413 13.4087 36.0672 13.6346 36.0672 13.9133V17.5611C36.0672 17.7859 35.7954 17.8985 35.6365 17.7395L31.7364 13.8394Z" fill="#FEFEFE"/>
</g>
<path d="M7.9481 6.02832C10.4443 6.02832 12.3872 6.55818 13.7766 7.6179C15.166 8.67763 15.8607 10.1612 15.8607 12.0687C15.8607 12.7046 15.7547 13.2815 15.5428 13.7996C15.3544 14.3177 15.1071 14.7769 14.801 15.1773C14.4948 15.554 14.1534 15.8837 13.7766 16.1663C13.3998 16.4254 13.023 16.6255 12.6462 16.7668C13.1172 16.9317 13.5764 17.1554 14.0238 17.438C14.4948 17.7206 14.9069 18.0856 15.2602 18.533C15.6134 18.9569 15.896 19.4632 16.108 20.052C16.3435 20.6172 16.4612 21.2765 16.4612 22.0301C16.4612 23.0663 16.2493 23.9847 15.8254 24.7854C15.425 25.5861 14.8481 26.269 14.0945 26.8342C13.3645 27.3758 12.4814 27.788 11.4452 28.0705C10.409 28.3531 9.27864 28.4944 8.05407 28.4944C6.94725 28.4944 5.95818 28.412 5.08685 28.2472C4.21552 28.0823 3.47372 27.8586 2.86143 27.576C2.24915 27.2699 1.77816 26.9166 1.44847 26.5163C1.14233 26.1159 0.989258 25.6921 0.989258 25.2446C0.989258 24.7501 1.107 24.3262 1.3425 23.9729C1.60154 23.6197 1.91946 23.3489 2.29625 23.1605C2.83788 23.5608 3.52082 23.9494 4.34504 24.3262C5.16927 24.6794 6.25254 24.8561 7.59486 24.8561C8.98427 24.8561 10.0558 24.5852 10.8094 24.0436C11.5865 23.502 11.975 22.7248 11.975 21.7122C11.975 20.7702 11.6336 20.0402 10.9506 19.5221C10.2913 18.9805 9.25509 18.7097 7.84213 18.7097H4.69829C4.58054 18.5213 4.47457 18.274 4.38037 17.9679C4.28617 17.6617 4.23907 17.3202 4.23907 16.9435C4.23907 16.5431 4.28617 16.1899 4.38037 15.8837C4.47457 15.5776 4.58054 15.3303 4.69829 15.1419H7.73616C9.00782 15.1419 9.92625 14.8947 10.4914 14.4001C11.0802 13.9056 11.3745 13.2462 11.3745 12.422C11.3745 11.5507 11.0331 10.8677 10.3501 10.3732C9.6672 9.87864 8.68991 9.63138 7.41824 9.63138C6.35852 9.63138 5.44009 9.78445 4.66296 10.0906C3.88583 10.3732 3.22645 10.6911 2.68481 11.0443C2.37867 10.8324 2.10785 10.5616 1.87236 10.2319C1.63687 9.90219 1.51912 9.51363 1.51912 9.06619C1.51912 8.61875 1.67219 8.20664 1.97833 7.82985C2.30802 7.45306 2.75546 7.13514 3.32065 6.8761C3.88583 6.59351 4.55699 6.38156 5.33412 6.24026C6.1348 6.09897 7.00612 6.02832 7.9481 6.02832Z" fill="#8B9597"/>
<defs>
<filter id="filter0_d" x="12.6291" y="3.75356" width="29.9221" height="28.8049" filterUnits="userSpaceOnUse" color-interpolation-filters="sRGB">
<feFlood flood-opacity="0" result="BackgroundImageFix"/>
<feColorMatrix in="SourceAlpha" type="matrix" values="0 0 0 0 0 0 0 0 0 0 0 0 0 0 0 0 0 0 127 0" result="hardAlpha"/>
<feOffset dx="-1.51389" dy="-1.51389"/>
<feGaussianBlur stdDeviation="3.28009"/>
<feColorMatrix type="matrix" values="0 0 0 0 0.545098 0 0 0 0 0.584314 0 0 0 0 0.592157 0 0 0 1 0"/>
<feBlend mode="normal" in2="BackgroundImageFix" result="effect1_dropShadow"/>
<feBlend mode="normal" in="SourceGraphic" in2="effect1_dropShadow" result="shape"/>
</filter>
</defs>
</svg>
