<svg width="59" height="59" viewBox="0 0 59 59" fill="none" xmlns="http://www.w3.org/2000/svg">
<path d="M50.6594 33.6473C50.6594 35.7042 50.3164 37.6632 49.729 39.5243L52.0796 40.8956C52.9121 38.6429 53.3529 36.1941 53.3529 33.6473C53.3529 23.1667 45.762 14.401 35.771 12.6372V15.3798C44.2437 17.143 50.6593 24.6361 50.6593 33.6475L50.6594 33.6473Z" fill="#C5FCFF"/>
<path d="M14.3207 39.5241C13.684 37.663 13.3903 35.704 13.3903 33.6471C13.3903 24.636 19.8057 17.0944 28.2787 15.3794V12.6372C18.239 14.4005 10.6479 23.1667 10.6479 33.6473C10.6479 36.1941 11.0889 38.6426 11.9213 40.8956L14.3207 39.5241Z" fill="#C5FCFF"/>
<path d="M32.0007 52.3064C26.4667 52.3064 21.4712 49.9065 18.0918 46.0378L15.6919 47.4091C19.6099 52.0618 25.438 55 32.0007 55C38.5144 55 44.3915 52.0617 48.3095 47.4091L45.9589 46.0378C42.5303 49.9069 37.5352 52.3064 32.0013 52.3064H32.0007Z" fill="#C5FCFF"/>
<path d="M46.2519 35.4104C46.3009 34.8226 46.3498 34.2349 46.3498 33.6471C46.3498 27.7211 42.7258 22.6279 37.5834 20.4241L36.0164 22.6768C40.4732 24.3417 43.6562 28.6028 43.6562 33.6472C43.6562 34.3328 43.6073 34.9695 43.5094 35.6551L46.2519 35.4104Z" fill="#C5FCFF"/>
<path d="M27.9851 22.677L26.418 20.4243C21.2755 22.6281 17.6516 27.7216 17.6516 33.6474C17.6516 34.2351 17.7006 34.8228 17.7495 35.4106L20.4921 35.6554C20.3942 35.0187 20.3452 34.333 20.3452 33.6474C20.2963 28.6518 23.5286 24.3422 27.9851 22.677L27.9851 22.677Z" fill="#C5FCFF"/>
<path d="M32.0006 48.0461C35.233 48.0461 38.2202 46.9685 40.6691 45.1567L39.4936 42.6589C37.4857 44.3732 34.841 45.4015 32.0006 45.4015C29.1602 45.4015 26.5644 44.3728 24.5075 42.6589L23.332 45.1567C25.7809 46.9196 28.7682 48.0461 32.0006 48.0461Z" fill="#C5FCFF"/>
<path d="M28.1316 18.8567L31.413 23.6072C31.7067 23.9991 32.2455 23.9991 32.5395 23.6072L35.8209 18.8567C36.1145 18.4158 35.8209 17.779 35.2331 17.779H33.372V9.89437C33.372 9.11084 32.7353 8.47412 31.9518 8.47412C31.1682 8.47412 30.5315 9.1108 30.5315 9.89437V17.7794H28.6704C28.1805 17.779 27.8379 18.4157 28.1316 18.8567H28.1316Z" fill="#18B7B7"/>
<path d="M19.9043 44.4215C20.198 44.9114 20.8836 44.8624 21.1288 44.3726L23.5777 39.1812C23.7735 38.7403 23.4798 38.2509 22.9899 38.2019L17.2601 37.7121C16.7213 37.6631 16.3298 38.2509 16.6235 38.7407L17.5538 40.3568L10.7464 44.2748C10.0608 44.6668 9.81604 45.5482 10.2076 46.2338C10.5996 46.9194 11.481 47.1642 12.1666 46.7726L18.974 42.8546L19.9043 44.4215Z" fill="#18B7B7"/>
<path d="M53.3044 44.2746L46.497 40.3566L47.4274 38.7405C47.7211 38.2507 47.3295 37.6629 46.7907 37.7119L41.0609 38.2017C40.5711 38.2506 40.2774 38.7405 40.4732 39.181L42.9221 44.3724C43.1668 44.8622 43.8525 44.9111 44.1465 44.4213L45.0769 42.8053L51.8843 46.7233C52.57 47.1152 53.4514 46.8701 53.8433 46.1845C54.1863 45.5478 53.9901 44.6664 53.3045 44.2744L53.3044 44.2746Z" fill="#18B7B7"/>
<path d="M32.0006 41.0427C36.0654 41.0427 39.3957 37.7613 39.3957 33.6475C39.3957 29.5338 36.0654 26.2524 32.0006 26.2524C27.9357 26.2524 24.6055 29.5338 24.6055 33.6475C24.6055 37.7613 27.9357 41.0427 32.0006 41.0427ZM28.3277 32.7661C28.8175 32.2763 29.601 32.2763 30.091 32.7661L31.0213 33.6965L33.8129 30.905C34.3027 30.4151 35.0862 30.4151 35.5761 30.905C36.0661 31.3948 36.066 32.1783 35.5761 32.6682L31.9033 36.3411C31.6585 36.5858 31.3645 36.733 31.0218 36.733C30.6788 36.733 30.3852 36.5862 30.1404 36.3411L28.3283 34.5289C27.8381 34.0391 27.8381 33.2556 28.3279 32.7661L28.3277 32.7661Z" fill="#18B7B7"/>
</svg>
