<svg width="35" height="36" viewBox="0 0 35 36" fill="none" xmlns="http://www.w3.org/2000/svg">
<g clip-path="url(#clip0)">
<path d="M12.7115 27.5594C12.7115 27.5594 11.3662 28.3775 13.6467 28.6116C16.392 28.9616 17.8543 28.9036 20.8928 28.3196C21.5035 28.6935 22.1493 29.0067 22.8211 29.2547C15.9851 32.1772 7.33357 29.0797 12.7104 27.5594H12.7115ZM11.8365 23.7608C11.8365 23.7608 10.3753 24.871 12.6547 25.1061C15.6351 25.3982 17.9725 25.4561 22.0062 24.6391C22.3985 25.037 22.8788 25.3371 23.4084 25.5152C15.1681 27.9696 5.93466 25.7493 11.8365 23.7619V23.7608ZM27.9661 30.4218C27.9661 30.4218 28.9592 31.2399 26.8559 31.883C22.9403 33.0533 10.4343 33.4033 6.92779 31.883C5.7006 31.358 8.03794 30.5978 8.78716 30.4808C9.54732 30.3058 9.95747 30.3058 9.95747 30.3058C8.61216 29.3707 1.01607 32.2341 6.10091 33.0511C20.0681 35.3305 31.5809 32.058 27.9573 30.4218H27.9661ZM13.3437 19.7861C13.3437 19.7861 6.97372 21.3064 11.0643 21.8314C12.8176 22.0655 16.2651 22.0064 19.4797 21.7735C22.109 21.5394 24.7406 21.0735 24.7406 21.0735C24.7406 21.0735 23.8054 21.4825 23.1623 21.8916C16.6764 23.5869 4.22732 22.8268 7.79294 21.0735C10.8314 19.6122 13.3448 19.7883 13.3448 19.7883L13.3437 19.7861ZM24.7406 26.1561C31.2856 22.7655 28.2472 19.4952 26.1428 19.9032C25.6178 20.0202 25.3826 20.1372 25.3826 20.1372C25.3826 20.1372 25.5576 19.7872 25.9667 19.6702C30.1164 18.2089 33.3889 24.0528 24.6214 26.3311C24.6214 26.3311 24.6793 26.2732 24.7384 26.1561H24.7406ZM13.989 35.3896C20.3 35.7986 29.9436 35.1555 30.1765 32.1739C30.1765 32.1739 29.7095 33.3443 24.9758 34.2193C19.5989 35.2124 12.9368 35.0943 9.02122 34.4533C9.02122 34.4533 9.83935 35.1533 13.989 35.3885V35.3896Z" fill="#4E7896"/>
<path d="M20.7769 0.501099C20.7769 0.501099 24.4005 4.18266 17.3294 9.73454C11.6605 14.2342 16.0442 16.8056 17.3294 19.7281C13.9978 16.7477 11.6025 14.1172 13.2388 11.6639C15.6341 8.03922 22.2382 6.29688 20.7769 0.501099ZM18.9175 17.2738C20.6128 19.202 18.4505 20.9553 18.4505 20.9553C18.4505 20.9553 22.7752 18.735 20.7878 15.9875C18.9766 13.3581 17.5722 12.0719 25.1705 7.68922C25.1705 7.68922 13.1907 10.6697 18.9175 17.2738Z" fill="#F58219"/>
</g>
<defs>
<clipPath id="clip0">
<rect width="35" height="35" fill="white" transform="translate(0 0.5)"/>
</clipPath>
</defs>
</svg>
