<svg width="30" height="30" viewBox="0 0 30 30" fill="none" xmlns="http://www.w3.org/2000/svg">
<path fill-rule="evenodd" clip-rule="evenodd" d="M5 6C5 5.44772 5.44772 5 6 5H13C13.5523 5 14 5.44772 14 6V13C14 13.5523 13.5523 14 13 14H6C5.44772 14 5 13.5523 5 13V6ZM7 7H12V12H7V7ZM5 17C5 16.4477 5.44772 16 6 16H13C13.5523 16 14 16.4477 14 17V24C14 24.5523 13.5523 25 13 25H6C5.44772 25 5 24.5523 5 24V17ZM7 18H12V23H7V18ZM17 5C16.4477 5 16 5.44772 16 6V13C16 13.5523 16.4477 14 17 14H24C24.5523 14 25 13.5523 25 13V6C25 5.44772 24.5523 5 24 5H17ZM23 7H18V12H23V7ZM16 17C16 16.4477 16.4477 16 17 16H24C24.5523 16 25 16.4477 25 17V24C25 24.5523 24.5523 25 24 25H17C16.4477 25 16 24.5523 16 24V17ZM18 18H23V23H18V18Z" fill="currentColor"/>
</svg>