<svg xmlns="http://www.w3.org/2000/svg" width="278" height="635" viewBox="0 0 278 635" fill="none">
<path opacity="0.3" fill-rule="evenodd" clip-rule="evenodd" d="M261.976 422.03V492.774C261.47 492.004 260.892 491.277 260.246 490.603C257.977 488.235 256.711 485.083 256.711 481.804V456.197C256.711 450.561 254.472 445.156 250.487 441.171L200.415 391.099C196.899 387.583 194.923 382.814 194.923 377.841V340.388C194.923 338.096 194.553 335.842 193.846 333.706L247.698 387.558C256.84 396.701 261.976 409.1 261.976 422.03ZM258.441 492.332C260.71 494.7 261.976 497.852 261.976 501.131V527.257V634.287H264.476V527.257V501.131V422.03C264.476 408.437 259.077 395.402 249.465 385.79L180.636 316.961C181.369 317.084 182.116 317.147 182.869 317.147C185.78 317.147 188.572 318.304 190.631 320.362L254.45 384.182C263.593 393.324 268.729 405.724 268.729 418.653V630.911H271.229V418.653C271.229 405.061 265.829 392.025 256.218 382.414L192.399 318.595C191.871 318.066 191.303 317.587 190.703 317.158C195.472 317.32 200.01 319.296 203.381 322.696L261.014 380.828C270.065 389.958 275.144 402.294 275.144 415.151V627.534H277.644V415.151C277.644 401.635 272.305 388.666 262.789 379.068L205.156 320.936C201.166 316.911 195.733 314.647 190.066 314.647H182.869C179.963 314.647 177.176 313.495 175.118 311.443L175.107 311.432L140.873 277.198L114.664 250.989C105.522 241.847 100.386 229.447 100.386 216.518L100.386 185.908V159.782C100.386 159.777 100.386 159.772 100.386 159.767V119.846C100.386 106.254 94.9861 93.2183 85.3749 83.6071L1.76777 -6.10352e-05L0 1.7677L17.7259 19.4935L16.5441 20.6753L24.3056 28.4368C26.8842 31.0154 28.3329 34.5128 28.3329 38.1595V38.5632C28.3329 42.873 30.0449 47.0062 33.0924 50.0537L84.6283 101.59C88.1446 105.106 90.1201 109.875 90.1201 114.848V140.455C90.1201 144.379 91.6356 148.151 94.3504 150.983C96.6159 153.347 97.8821 156.494 97.8857 159.768C97.8857 159.773 97.8857 159.777 97.8857 159.782V185.908L97.8857 216.518C97.8857 230.11 103.285 243.146 112.896 252.757L139.106 278.966L173.34 313.2L173.353 313.214L180.804 320.664L180.635 320.833L186.932 327.13C190.448 330.646 192.423 335.415 192.423 340.388V377.841C192.423 383.477 194.662 388.882 198.647 392.867L248.719 442.939C252.235 446.455 254.211 451.224 254.211 456.197V481.804C254.211 485.728 255.726 489.5 258.441 492.332ZM97.8857 151.425C97.3797 150.655 96.8015 149.928 96.1553 149.254C93.8866 146.886 92.6201 143.734 92.6201 140.455V114.848C92.6201 109.212 90.3812 103.807 86.3961 99.8219L34.8601 48.2859C32.2815 45.7073 30.8329 42.21 30.8329 38.5632V38.1595C30.8329 35.6074 30.2325 33.1172 29.11 30.8777L83.6071 85.3748C92.7495 94.5172 97.8857 106.917 97.8857 119.846V151.425Z" fill="url(#paint0_linear)"/>
<defs>
<linearGradient id="paint0_linear" x1="295.154" y1="545.19" x2="27.9303" y2="44.8087" gradientUnits="userSpaceOnUse">
<stop stop-color="#49FF87" stop-opacity="0"/>
<stop offset="0.325575" stop-color="#4CD5A1"/>
<stop offset="0.85144" stop-color="#5EAADA"/>
<stop offset="1" stop-color="#5EAADA" stop-opacity="0"/>
</linearGradient>
</defs>
</svg>