<svg width="23" height="23" viewBox="0 0 23 23" fill="none" xmlns="http://www.w3.org/2000/svg">
<path d="M1 11.5H2.16667M11.5 1V2.16667M20.8333 11.5H22M4.03333 4.03333L4.85 4.85M18.9667 4.03333L18.15 4.85M8.81661 17.3333H14.1833M8 16.1667C7.02055 15.4321 6.29705 14.4079 5.932 13.2393C5.56695 12.0707 5.57885 10.8168 5.96601 9.65534C6.35318 8.49385 7.09597 7.48362 8.08919 6.76775C9.08241 6.05188 10.2757 5.66667 11.5 5.66667C12.7243 5.66667 13.9176 6.05188 14.9108 6.76775C15.904 7.48362 16.6468 8.49385 17.034 9.65534C17.4211 10.8168 17.433 12.0707 17.068 13.2393C16.7029 14.4079 15.9795 15.4321 15 16.1667C14.5445 16.6176 14.2015 17.1694 13.9988 17.7774C13.7962 18.3854 13.7395 19.0326 13.8333 19.6667C13.8333 20.2855 13.5875 20.879 13.1499 21.3166C12.7123 21.7542 12.1188 22 11.5 22C10.8812 22 10.2877 21.7542 9.85008 21.3166C9.4125 20.879 9.16667 20.2855 9.16667 19.6667C9.26053 19.0326 9.20383 18.3854 9.00115 17.7774C8.79847 17.1694 8.4555 16.6176 8 16.1667Z" stroke="#FFC000" stroke-width="2" stroke-linecap="round" stroke-linejoin="round"/>
</svg>
