<svg width="54" height="46" viewBox="0 0 54 46" fill="none" xmlns="http://www.w3.org/2000/svg">
<path d="M0.682861 4.98663C0.682861 2.66514 2.5648 0.783203 4.88629 0.783203H49.0828C51.4043 0.783203 53.2863 2.66514 53.2863 4.98663V31.759C53.2863 34.0805 51.4043 35.9624 49.0828 35.9624H4.88629C2.5648 35.9624 0.682861 34.0805 0.682861 31.759V4.98663Z" fill="#369BAC"/>
<path fill-rule="evenodd" clip-rule="evenodd" d="M0.713745 17.5629V15.2257H3.27215C4.94761 15.2257 6.54731 14.5276 7.6867 13.2992L8.03633 12.9222C10.5999 10.1584 15.1984 11.2477 16.2498 14.8677C16.8886 17.0674 19.8968 17.3352 20.9142 15.283L22.6543 11.7729C24.4703 8.10981 29.6191 7.90559 31.7195 11.4134L33.0325 13.6061C33.8341 14.9447 35.7292 15.0628 36.6907 13.834C38.2638 11.8236 41.1808 11.496 43.1607 13.1073L43.4275 13.3244C44.9387 14.5542 46.8275 15.2257 48.7759 15.2257H53.3171V17.5629H48.7759C46.2901 17.5629 43.8802 16.7062 41.9522 15.1372L41.6854 14.9201C40.7202 14.1346 39.2982 14.2943 38.5314 15.2744C36.559 17.795 32.6715 17.5528 31.0273 14.8068L29.7143 12.6141C28.5637 10.6925 25.7431 10.8044 24.7483 12.811L23.0082 16.3211C21.0446 20.2821 15.2383 19.7652 14.0053 15.5196C13.4606 13.6441 11.0781 13.0797 9.74992 14.5116L9.4003 14.8886C7.81863 16.5938 5.59797 17.5629 3.27215 17.5629H0.713745Z" fill="#9BCDD5"/>
<path fill-rule="evenodd" clip-rule="evenodd" d="M0.682861 24.9698V22.4365C2.44196 23.3861 4.70983 23.0516 6.10579 21.4527L6.47441 21.0305C7.97824 19.3081 10.6245 19.2146 12.2461 20.8267L16.3298 24.8862C17.6355 26.1841 19.759 26.1344 21.0025 24.7768L23.217 22.3592C25.5847 19.7742 29.7362 20.0426 31.7513 22.911L33.8491 25.8971C34.0844 26.2321 34.5934 26.1897 34.7701 25.8204L37.1466 20.8529C38.2594 18.5266 41.2446 17.8365 43.2656 19.4382C45.9007 21.5268 49.4261 22.1099 52.5934 20.9811L53.2863 20.7341V23.2149C49.3834 24.5707 45.0553 23.839 41.8138 21.2699C40.9687 20.6001 39.7203 20.8887 39.255 21.8615L36.8785 26.8291C35.9305 28.8107 33.1994 29.0382 31.9366 27.2407L29.8388 24.2546C28.6823 22.6082 26.2995 22.4542 24.9405 23.9378L22.726 26.3555C20.5853 28.6926 16.9297 28.7782 14.682 26.5438L10.5984 22.4842C9.93437 21.8241 8.85079 21.8624 8.23502 22.5677L7.8664 22.9899C6.0155 25.1098 3.16232 25.7763 0.682861 24.9698Z" fill="#CDE6EA"/>
<path d="M11.1917 43.3902C11.1917 42.3813 12.0095 41.5635 13.0184 41.5635H40.9512C41.96 41.5635 42.7779 42.3813 42.7779 43.3902C42.7779 44.3991 41.96 45.217 40.9512 45.217H13.0184C12.0095 45.217 11.1917 44.3991 11.1917 43.3902Z" fill="#9BCDD5"/>
<path d="M18.9261 38.8219C18.9261 37.813 19.744 36.9951 20.7528 36.9951H32.8135C33.8224 36.9951 34.6402 37.813 34.6402 38.8219C34.6402 39.8308 33.8224 40.6486 32.8135 40.6486H20.7528C19.744 40.6486 18.9261 39.8308 18.9261 38.8219Z" fill="#9BCDD5"/>
</svg>
