<svg width="46" height="50" viewBox="0 0 46 50" fill="none" xmlns="http://www.w3.org/2000/svg">
<rect x="22.9077" y="30" width="12" height="2" rx="1" transform="rotate(26.9958 22.9077 30)" fill="#369BAC"/>
<rect width="12" height="2" rx="1" transform="matrix(-0.891039 0.453926 0.453926 0.891039 23.6924 30)" fill="#369BAC"/>
<rect width="4" height="2" rx="1" transform="matrix(0 -1 -1 0 24 32)" fill="#369BAC"/>
<rect width="4" height="2" rx="1" transform="matrix(0 -1 -1 0 24 26)" fill="#369BAC"/>
<path d="M31.9744 5.23832L22.7436 0.952602L14.0256 5.23832V14.7621L22.7436 19.524L31.9744 14.7621V5.23832Z" fill="#CDE6EA"/>
<path d="M31.8431 4.26673L24.1569 0.281529C23.8058 0.0971597 23.4065 0 23 0C22.5935 0 22.1942 0.0971597 21.8431 0.281529L14.1569 4.26673C13.8114 4.44603 13.5233 4.70262 13.3206 5.01159C13.1179 5.32056 13.0074 5.67141 13 6.03009V13.9652C13.0074 14.3239 13.1179 14.6747 13.3206 14.9837C13.5233 15.2927 13.8114 15.5493 14.1569 15.7286L21.8431 19.7226C22.1952 19.9044 22.5941 20 23 20C23.4059 20 23.8048 19.9044 24.1569 19.7226L31.8431 15.7286C32.1886 15.5493 32.4767 15.2927 32.6794 14.9837C32.8821 14.6747 32.9926 14.3239 33 13.9652V6.03009C32.9916 5.6716 32.8808 5.32108 32.6782 5.01226C32.4756 4.70343 32.188 4.44669 31.8431 4.26673ZM22.0392 17.9416L15.1176 14.3532C15.0601 14.3223 15.0126 14.2783 14.9799 14.2257C14.9472 14.1731 14.9305 14.1136 14.9314 14.0534V6.85887L22.0294 10.5619L22.0392 17.9416ZM15.8922 5.36883L22.7549 1.78039C22.813 1.75021 22.879 1.73432 22.9461 1.73432C23.0132 1.73432 23.0791 1.75021 23.1373 1.78039L30 5.36883L22.902 9.05425L15.8922 5.36883ZM31.0686 14.0534C31.0675 14.1143 31.0489 14.174 31.0145 14.2265C30.9802 14.2791 30.9312 14.3227 30.8725 14.3532L24.0098 17.9416V10.5619L31.0686 6.85887V14.0534Z" fill="#369BAC"/>
<path d="M44.9744 35.2383L35.7436 30.9526L27.0256 35.2383V44.7621L35.7436 49.524L44.9744 44.7621V35.2383Z" fill="#CDE6EA"/>
<path d="M44.8431 34.2667L37.1569 30.2815C36.8058 30.0972 36.4065 30 36 30C35.5935 30 35.1942 30.0972 34.8431 30.2815L27.1569 34.2667C26.8114 34.446 26.5233 34.7026 26.3206 35.0116C26.1179 35.3206 26.0074 35.6714 26 36.0301V43.9652C26.0074 44.3239 26.1179 44.6747 26.3206 44.9837C26.5233 45.2927 26.8114 45.5493 27.1569 45.7286L34.8431 49.7226C35.1952 49.9044 35.5941 50 36 50C36.4059 50 36.8048 49.9044 37.1569 49.7226L44.8431 45.7286C45.1886 45.5493 45.4767 45.2927 45.6794 44.9837C45.8821 44.6747 45.9926 44.3239 46 43.9652V36.0301C45.9916 35.6716 45.8808 35.3211 45.6782 35.0123C45.4756 34.7034 45.188 34.4467 44.8431 34.2667ZM35.0392 47.9416L28.1176 44.3532C28.0601 44.3223 28.0126 44.2783 27.9799 44.2257C27.9472 44.1731 27.9305 44.1136 27.9314 44.0534V36.8589L35.0294 40.5619L35.0392 47.9416ZM28.8922 35.3688L35.7549 31.7804C35.813 31.7502 35.879 31.7343 35.9461 31.7343C36.0132 31.7343 36.0791 31.7502 36.1373 31.7804L43 35.3688L35.902 39.0543L28.8922 35.3688ZM44.0686 44.0534C44.0675 44.1143 44.0489 44.174 44.0145 44.2265C43.9802 44.2791 43.9312 44.3227 43.8725 44.3532L37.0098 47.9416V40.5619L44.0686 36.8589V44.0534Z" fill="#369BAC"/>
<path d="M18.9744 35.2383L9.74358 30.9526L1.02563 35.2383V44.7621L9.74358 49.524L18.9744 44.7621V35.2383Z" fill="#CDE6EA"/>
<path d="M18.8431 34.2667L11.1569 30.2815C10.8058 30.0972 10.4065 30 10 30C9.59345 30 9.19421 30.0972 8.84314 30.2815L1.15686 34.2667C0.811365 34.446 0.523281 34.7026 0.32058 35.0116C0.117879 35.3206 0.00744682 35.6714 0 36.0301V43.9652C0.00744682 44.3239 0.117879 44.6747 0.32058 44.9837C0.523281 45.2927 0.811365 45.5493 1.15686 45.7286L8.84314 49.7226C9.19519 49.9044 9.59405 50 10 50C10.4059 50 10.8048 49.9044 11.1569 49.7226L18.8431 45.7286C19.1886 45.5493 19.4767 45.2927 19.6794 44.9837C19.8821 44.6747 19.9926 44.3239 20 43.9652V36.0301C19.9916 35.6716 19.8808 35.3211 19.6782 35.0123C19.4756 34.7034 19.188 34.4467 18.8431 34.2667ZM9.03922 47.9416L2.11765 44.3532C2.06011 44.3223 2.01261 44.2783 1.97992 44.2257C1.94723 44.1731 1.93049 44.1136 1.93137 44.0534V36.8589L9.02941 40.5619L9.03922 47.9416ZM2.89216 35.3688L9.7549 31.7804C9.81303 31.7502 9.87896 31.7343 9.94608 31.7343C10.0132 31.7343 10.0791 31.7502 10.1373 31.7804L17 35.3688L9.90196 39.0543L2.89216 35.3688ZM18.0686 44.0534C18.0675 44.1143 18.0489 44.174 18.0145 44.2265C17.9802 44.2791 17.9312 44.3227 17.8725 44.3532L11.0098 47.9416V40.5619L18.0686 36.8589V44.0534Z" fill="#369BAC"/>
</svg>
