<svg width="230" height="115" fill="none" xmlns="http://www.w3.org/2000/svg"><g clip-path="url(#clip0)"><path opacity=".2" stroke="#1D2125" stroke-width=".454" stroke-dasharray="1.82 2.73" d="M0 12.63h230M0 27.487h230M0 42.344h230M0 57.202h230M0 72.058h230M0 86.915h230M0 101.773h230"/><path d="M230 33.926c-5.723 3.133-11.301 6.052-17.188 6.052-4.594 0-8.999-1.777-13.432-3.565-3.313-1.336-6.642-2.678-10.076-3.289-7.454-1.428-15.481 1.428-22.935 5.426-8.027 3.998-16.054 9.423-23.508 17.42-1.781 1.774-3.535 3.676-5.273 5.56-6.091 6.605-11.989 13.001-18.234 13.001-4.516 0-9.242-3.878-14.052-7.824-3.128-2.568-6.292-5.164-9.456-6.74-4.635-2.486-9.49-2.432-14.293-2.38-2.921.033-5.822.065-8.642-.475-7.409-1.055-14.33-5.759-21.664-10.743-.611-.416-1.226-.834-1.843-1.251-7.454-5.14-15.481-10.566-23.508-13.422-7.454-2.57-15.481-2.57-22.935 4.284A35.734 35.734 0 000 38.72" stroke="#EBF2F3" stroke-width="2.27" stroke-linecap="round"/><path d="M230 33.925c-.5.069-.999.152-1.496.25-4.531.835-8.923 2.667-13.295 4.491-5.849 2.44-11.661 4.866-17.722 4.866-8.125 0-15.805-4.36-23.722-8.853-2.403-1.364-4.829-2.741-7.295-4.012-9.834-5.458-20.426-9.356-30.26-5.458-9.666 3.202-18.701 12.573-28.256 22.482-.915.95-1.835 1.904-2.761 2.858-.788.812-1.572 1.624-2.352 2.433-9.707 10.057-18.862 19.543-28.665 21.347-4.532.898-9.225-.19-13.931-1.283-5.505-1.277-11.027-2.558-16.33-.667-5.468 2.013-10.937 6.833-16.302 11.56C22.59 88.367 17.655 92.715 12.9 94.6 8.505 96.056 4.24 95.633 0 94.138" stroke="#EBF2F3" stroke-width="2.27" stroke-linecap="round"/><path d="M0 54.186l6.39-7.172c.792-.853 1.669-1.816 2.622-2.862 6.725-7.387 17.219-18.912 28.413-24.933 11.866-7.173 24.645-7.173 36.511-4.483 12.78 2.989 25.558 8.667 37.425 14.047.983.437 1.961.874 2.935 1.31 11.676 5.216 22.694 10.139 34.489 11.242 4.488.565 9.107.532 13.758.498 7.645-.055 15.376-.11 22.754 2.49 5.037 1.65 10.074 4.367 15.055 7.054 7.656 4.13 15.18 8.189 22.369 8.189 2.456 0 4.878-.408 7.279-1.127" stroke="#EBF2F3" stroke-width="2.27" stroke-linecap="round"/><path d="M37.6 55.54c-.533 0-.8-.147-.8-.44V41.9c0-.293.267-.44.8-.44h.42c.213 0 .38.027.5.08a.726.726 0 01.34.3l6.28 9.48c.227.333.447.733.66 1.2l.08-.02c-.027-.307-.04-.76-.04-1.36V41.9c0-.293.267-.44.8-.44h.14c.533 0 .8.147.8.44v13.2c0 .293-.267.44-.8.44h-.4c-.347 0-.58-.093-.7-.28l-6.44-9.72a8.207 8.207 0 01-.66-1.2l-.08.02c.027.307.04.76.04 1.36v9.38c0 .293-.267.44-.8.44h-.14zm17.515.08c-1.507 0-2.66-.453-3.46-1.36-.787-.907-1.18-2.22-1.18-3.94 0-1.733.4-3.067 1.2-4 .8-.933 1.947-1.4 3.44-1.4 1.467 0 2.587.467 3.36 1.4.787.92 1.18 2.253 1.18 4 0 1.733-.387 3.053-1.16 3.96-.76.893-1.887 1.34-3.38 1.34zm-.06-1.44c.973 0 1.693-.313 2.16-.94.467-.64.7-1.627.7-2.96s-.233-2.32-.7-2.96c-.467-.64-1.187-.96-2.16-.96-.973 0-1.687.32-2.14.96-.453.627-.68 1.613-.68 2.96 0 1.333.227 2.32.68 2.96.453.627 1.167.94 2.14.94zm15.431 1.44c-.786 0-1.473-.227-2.06-.68-.586-.453-1.04-1.087-1.36-1.9-.306-.813-.46-1.733-.46-2.76 0-1.133.167-2.1.5-2.9.347-.813.827-1.427 1.44-1.84.614-.413 1.32-.62 2.12-.62.587 0 1.1.087 1.54.26.454.173.894.427 1.32.76V40.9c0-.293.267-.44.8-.44h.08c.534 0 .8.147.8.44v11.64c0 .88.04 1.513.12 1.9.08.373.12.58.12.62 0 .16-.126.28-.38.36-.253.067-.486.1-.7.1-.186 0-.326-.1-.42-.3a5.39 5.39 0 01-.2-.66c-.04-.227-.066-.373-.08-.44-.96 1-2.02 1.5-3.18 1.5zm.34-1.46c.454 0 .914-.12 1.38-.36.48-.24.92-.58 1.32-1.02V47.3c-.72-.6-1.54-.9-2.46-.9-.893 0-1.566.32-2.02.96-.453.64-.68 1.56-.68 2.76 0 1.293.214 2.293.64 3 .427.693 1.034 1.04 1.82 1.04zm10.449 1.46c-1.027 0-1.853-.253-2.48-.76s-.94-1.253-.94-2.24c0-1.053.313-1.84.94-2.36.64-.533 1.42-.873 2.34-1.02.92-.16 2.04-.247 3.36-.26v-.94c0-.493-.173-.893-.52-1.2-.347-.32-.907-.48-1.68-.48-.587 0-1.1.073-1.54.22-.44.133-.807.273-1.1.42-.293.133-.453.2-.48.2-.133 0-.287-.133-.46-.4-.16-.267-.24-.467-.24-.6 0-.173.173-.36.52-.56.36-.2.833-.367 1.42-.5a7.474 7.474 0 011.82-.22c1.24 0 2.207.28 2.9.84.693.547 1.04 1.313 1.04 2.3v4.48c0 .88.04 1.513.12 1.9.08.373.12.58.12.62 0 .16-.127.28-.38.36-.253.067-.487.1-.7.1-.187 0-.327-.1-.42-.3a5.39 5.39 0 01-.2-.66c-.04-.227-.067-.373-.08-.44-.907 1-2.027 1.5-3.36 1.5zm.08-1.46c.653 0 1.213-.12 1.68-.36.48-.24.967-.58 1.46-1.02v-2.36c-1 .013-1.82.053-2.46.12a3.779 3.779 0 00-1.66.56c-.48.307-.72.78-.72 1.42 0 .533.14.94.42 1.22.293.28.72.42 1.28.42zm11.138 1.46c-.666 0-1.266-.2-1.8-.6-.52-.413-.78-1.133-.78-2.16v-6.38h-1c-.133 0-.233-.047-.3-.14-.066-.093-.1-.247-.1-.46v-.24c0-.213.034-.367.1-.46.067-.093.167-.14.3-.14h1l.24-2.1c.04-.293.254-.44.64-.44h.2c.4 0 .6.147.6.44v2.1h1.68c.147 0 .247.047.3.14.067.093.1.247.1.46v.24c0 .213-.033.367-.1.46-.053.093-.153.14-.3.14h-1.68v6.22c0 .56.094.947.28 1.16.2.213.467.32.8.32.254 0 .44-.013.56-.04.134-.04.234-.06.3-.06.12 0 .22.127.3.38.08.24.12.427.12.56 0 .4-.486.6-1.46.6zm6.516 0c-1.026 0-1.853-.253-2.48-.76-.626-.507-.94-1.253-.94-2.24 0-1.053.314-1.84.94-2.36.64-.533 1.42-.873 2.34-1.02.92-.16 2.04-.247 3.36-.26v-.94c0-.493-.173-.893-.52-1.2-.346-.32-.906-.48-1.68-.48-.586 0-1.1.073-1.54.22-.44.133-.806.273-1.1.42-.293.133-.453.2-.48.2-.133 0-.286-.133-.46-.4-.16-.267-.24-.467-.24-.6 0-.173.174-.36.52-.56.36-.2.834-.367 1.42-.5a7.474 7.474 0 011.82-.22c1.24 0 2.207.28 2.9.84.694.547 1.04 1.313 1.04 2.3v4.48c0 .88.04 1.513.12 1.9.08.373.12.58.12.62 0 .16-.126.28-.38.36-.253.067-.486.1-.7.1-.186 0-.326-.1-.42-.3a5.516 5.516 0 01-.2-.66c-.04-.227-.066-.373-.08-.44-.906 1-2.026 1.5-3.36 1.5zm.08-1.46c.654 0 1.214-.12 1.68-.36.48-.24.967-.58 1.46-1.02v-2.36c-1 .013-1.82.053-2.46.12a3.779 3.779 0 00-1.66.56c-.48.307-.72.78-.72 1.42 0 .533.14.94.42 1.22.294.28.72.42 1.28.42zm17.184 1.46c-1.654 0-2.887-.427-3.7-1.28-.814-.853-1.22-2.227-1.22-4.12 0-1.907.453-3.267 1.36-4.08.906-.813 2.033-1.22 3.38-1.22.773 0 1.466.093 2.08.28.613.187.92.4.92.64 0 .173-.08.4-.24.68-.147.267-.28.4-.4.4a.328.328 0 01-.1-.02.256.256 0 00-.12-.06 5.325 5.325 0 00-2.18-.48c-1.934 0-2.9 1.273-2.9 3.82 0 1.413.233 2.433.7 3.06.48.627 1.28.94 2.4.94.813 0 1.566-.173 2.26-.52l.22-.08c.133 0 .28.133.44.4.16.253.24.46.24.62 0 .16-.147.32-.44.48-.28.147-.66.273-1.14.38-.48.107-1 .16-1.56.16zm8.147 0c-1.027 0-1.854-.253-2.48-.76-.627-.507-.94-1.253-.94-2.24 0-1.053.313-1.84.94-2.36.64-.533 1.42-.873 2.34-1.02.92-.16 2.04-.247 3.36-.26v-.94c0-.493-.174-.893-.52-1.2-.347-.32-.907-.48-1.68-.48-.587 0-1.1.073-1.54.22-.44.133-.807.273-1.1.42-.294.133-.454.2-.48.2-.134 0-.287-.133-.46-.4-.16-.267-.24-.467-.24-.6 0-.173.173-.36.52-.56.36-.2.833-.367 1.42-.5a7.468 7.468 0 011.82-.22c1.24 0 2.206.28 2.9.84.693.547 1.04 1.313 1.04 2.3v4.48c0 .88.04 1.513.12 1.9.08.373.12.58.12.62 0 .16-.127.28-.38.36a2.77 2.77 0 01-.7.1c-.187 0-.327-.1-.42-.3a5.339 5.339 0 01-.2-.66c-.04-.227-.067-.373-.08-.44-.907 1-2.027 1.5-3.36 1.5zm.08-1.46c.653 0 1.213-.12 1.68-.36.48-.24.966-.58 1.46-1.02v-2.36c-1 .013-1.82.053-2.46.12a3.777 3.777 0 00-1.66.56c-.48.307-.72.78-.72 1.42 0 .533.14.94.42 1.22.293.28.72.42 1.28.42zm8.938 5.5c-.533 0-.8-.147-.8-.44V48.08c0-.88-.04-1.507-.12-1.88-.08-.387-.12-.6-.12-.64 0-.16.127-.273.38-.34.253-.08.487-.12.7-.12.187 0 .32.1.4.3.093.187.16.387.2.6.053.213.087.353.1.42.96-1 2.02-1.5 3.18-1.5.813 0 1.507.233 2.08.7.587.453 1.033 1.087 1.34 1.9.307.8.46 1.72.46 2.76 0 1.133-.173 2.1-.52 2.9-.333.8-.807 1.407-1.42 1.82-.613.413-1.32.62-2.12.62-.587 0-1.107-.087-1.56-.26a5.245 5.245 0 01-1.3-.76v4.62c0 .293-.267.44-.8.44h-.08zm3.36-5.52c.88 0 1.547-.32 2-.96.453-.64.68-1.56.68-2.76 0-1.293-.213-2.287-.64-2.98-.427-.707-1.033-1.06-1.82-1.06-.453 0-.92.12-1.4.36-.467.24-.9.58-1.3 1.02v5.48c.72.6 1.547.9 2.48.9zm10.305 1.48c-.667 0-1.267-.2-1.8-.6-.52-.413-.78-1.133-.78-2.16v-6.38h-1c-.134 0-.234-.047-.3-.14-.067-.093-.1-.247-.1-.46v-.24c0-.213.033-.367.1-.46.066-.093.166-.14.3-.14h1l.24-2.1c.04-.293.253-.44.64-.44h.2c.4 0 .6.147.6.44v2.1h1.68c.146 0 .246.047.3.14.066.093.1.247.1.46v.24c0 .213-.034.367-.1.46-.054.093-.154.14-.3.14h-1.68v6.22c0 .56.093.947.28 1.16.2.213.466.32.8.32.253 0 .44-.013.56-.04.133-.04.233-.06.3-.06.12 0 .22.127.3.38.08.24.12.427.12.56 0 .4-.487.6-1.46.6zm6.876 0c-1.014 0-1.814-.287-2.4-.86-.574-.573-.86-1.367-.86-2.38v-6.94c0-.293.266-.44.8-.44h.08c.533 0 .8.147.8.44v6.78c0 .613.173 1.093.52 1.44.36.333.866.5 1.52.5.453 0 .9-.127 1.34-.38a3.919 3.919 0 001.18-1.02v-7.32c0-.293.266-.44.8-.44h.08c.533 0 .8.147.8.44v7.1c0 .88.04 1.513.12 1.9.08.373.12.58.12.62 0 .16-.127.28-.38.36a2.77 2.77 0 01-.7.1c-.187 0-.327-.1-.42-.3a5.339 5.339 0 01-.2-.66c-.04-.227-.067-.373-.08-.44a4.858 4.858 0 01-1.46 1.1c-.547.267-1.1.4-1.66.4zm8.973-.08c-.534 0-.8-.147-.8-.44v-7.02c0-.88-.04-1.507-.12-1.88-.08-.387-.12-.6-.12-.64 0-.16.126-.273.38-.34.253-.08.486-.12.7-.12.186 0 .32.1.4.3.093.187.16.387.2.6.053.213.086.353.1.42.706-1 1.48-1.5 2.32-1.5.386 0 .673.067.86.2.2.12.3.313.3.58 0 .227-.04.467-.12.72-.08.24-.174.36-.28.36-.067 0-.2-.033-.4-.1-.187-.08-.42-.12-.7-.12-.347 0-.68.12-1 .36-.32.227-.6.513-.84.86v7.32c0 .293-.267.44-.8.44h-.08zm10.333.08c-1.667 0-2.9-.433-3.7-1.3-.8-.867-1.2-2.193-1.2-3.98 0-1.773.393-3.12 1.18-4.04.787-.92 1.947-1.38 3.48-1.38 1.36 0 2.387.447 3.08 1.34.693.88 1.04 2.173 1.04 3.88 0 .12-.08.287-.24.5-.16.213-.3.32-.42.32h-6.32c.08 1.107.367 1.92.86 2.44s1.233.78 2.22.78c.56 0 1.04-.067 1.44-.2a9.312 9.312 0 001.02-.42c.267-.147.42-.22.46-.22.133 0 .28.133.44.4.173.267.26.467.26.6 0 .16-.167.347-.5.56-.333.2-.78.373-1.34.52-.547.133-1.133.2-1.76.2zm2.1-6.1c0-2.107-.8-3.16-2.4-3.16-1.72 0-2.653 1.053-2.8 3.16h5.2zm7.406 6.1c-.787 0-1.473-.227-2.06-.68-.587-.453-1.04-1.087-1.36-1.9-.307-.813-.46-1.733-.46-2.76 0-1.133.167-2.1.5-2.9.347-.813.827-1.427 1.44-1.84.613-.413 1.32-.62 2.12-.62.587 0 1.1.087 1.54.26.453.173.893.427 1.32.76V40.9c0-.293.267-.44.8-.44h.08c.533 0 .8.147.8.44v11.64c0 .88.04 1.513.12 1.9.08.373.12.58.12.62 0 .16-.127.28-.38.36-.253.067-.487.1-.7.1-.187 0-.327-.1-.42-.3a5.339 5.339 0 01-.2-.66c-.04-.227-.067-.373-.08-.44-.96 1-2.02 1.5-3.18 1.5zm.34-1.46c.453 0 .913-.12 1.38-.36.48-.24.92-.58 1.32-1.02V47.3c-.72-.6-1.54-.9-2.46-.9-.893 0-1.567.32-2.02.96-.453.64-.68 1.56-.68 2.76 0 1.293.213 2.293.64 3 .427.693 1.033 1.04 1.82 1.04zm8.869-2.7c-.4 0-.6-.147-.6-.44V41.9c0-.293.266-.44.8-.44h.4c.52 0 .78.147.78.44l-.18 3.04a402.97 402.97 0 01-.36 6.08c-.027.293-.234.44-.62.44H192zm-.04 4.08c-.534 0-.8-.147-.8-.44v-1.32c0-.293.266-.44.8-.44h.34c.533 0 .8.147.8.44v1.32c0 .293-.267.44-.8.44h-.34z" fill="#056"/></g><defs><clipPath id="clip0"><path fill="#fff" d="M0 0h230v115H0z"/></clipPath></defs></svg>