<svg width="60" height="60" viewBox="0 0 60 60" fill="none" xmlns="http://www.w3.org/2000/svg">
<rect width="60" height="60" fill="white"/>
<path d="M29.0002 31C29.513 31 29.9357 31.386 29.9934 31.8834L30.0002 32V55H36.0002V43C36.0002 42.4477 36.4479 42 37.0002 42C37.513 42 37.9357 42.386 37.9934 42.8834L38.0002 43V55H44.0002V53.5C44.0002 52.9477 44.4479 52.5 45.0002 52.5C45.513 52.5 45.9357 52.886 45.9934 53.3834L46.0002 53.5V55H51.0002C51.5524 55 52.0002 55.4477 52.0002 56C52.0002 56.5128 51.6141 56.9355 51.1168 56.9933L51.0002 57H7.00016C6.44787 57 6.00016 56.5523 6.00016 56C6.00016 55.4872 6.3862 55.0645 6.88353 55.0067L7.00016 55H12.0002V53.5C12.0002 52.9477 12.4479 52.5 13.0002 52.5C13.513 52.5 13.9357 52.886 13.9934 53.3834L14.0002 53.5V55H20.0002V43C20.0002 42.4477 20.4479 42 21.0002 42C21.513 42 21.9357 42.386 21.9934 42.8834L22.0002 43V55H28.0002V32C28.0002 31.4477 28.4479 31 29.0002 31ZM40.0002 27C40.5524 27 41.0002 27.4477 41.0002 28C41.0002 28.5128 40.6141 28.9355 40.1168 28.9933L40.0002 29L34.1344 28.9995C35.3458 30.1215 36.4806 31.7487 37.6999 33.9627L38.0576 34.6243C38.1177 34.7374 38.178 34.8519 38.2386 34.9678L38.6051 35.6801L38.9787 36.4266C39.0416 36.554 39.1048 36.6828 39.1684 36.813L40.5262 39.6373L40.9293 40.4613C40.9959 40.5956 41.0621 40.7285 41.1281 40.8599L41.5207 41.6307C41.5856 41.7562 41.6503 41.8804 41.7147 42.0031L42.0988 42.7219C42.1624 42.8389 42.2258 42.9545 42.289 43.0687L42.6664 43.737C45.2959 48.299 47.6815 50.4335 51.1645 51.0136C51.7092 51.1044 52.0773 51.6195 51.9866 52.1643C51.8958 52.7091 51.3806 53.0771 50.8358 52.9864C46.4282 52.2522 43.6275 49.6134 40.5663 44.0891L40.1653 43.3521C40.0982 43.2265 40.031 43.0995 39.9635 42.9711L39.5564 42.1841L39.1441 41.3632L38.539 40.1201L37.3756 37.6997L37.0161 36.9717L36.6654 36.2798L36.3228 35.6237C36.2663 35.5172 36.2101 35.4122 36.1542 35.3087L35.8222 34.7048L35.4962 34.1351C35.1729 33.5822 34.8575 33.0796 34.5463 32.6248L34.2363 32.1857C32.6019 29.9447 31.0516 29.0142 29.0465 29.0002L29.0002 29L28.987 28.999L28.7763 29.0038C26.482 29.0837 24.7773 30.4114 22.8222 33.601L22.5012 34.1374C22.3934 34.3218 22.2847 34.5117 22.175 34.7074L21.8427 35.3116C21.7868 35.4152 21.7306 35.5202 21.674 35.6266L21.3312 36.2831C21.2734 36.3955 21.2152 36.5094 21.1568 36.6248L20.8015 37.3349L19.2719 40.5079C19.0608 40.9443 18.8525 41.3676 18.6462 41.7781L18.2365 42.5821C14.8436 49.1408 11.9527 52.1884 7.16455 52.9864C6.61978 53.0772 6.10456 52.7092 6.01376 52.1644C5.92297 51.6197 6.29099 51.1044 6.83576 51.0136C10.3992 50.4197 12.8137 48.197 15.5188 43.4072L15.8983 42.7222L16.2824 42.0032L16.672 41.2498C16.7375 41.1213 16.8032 40.9913 16.8692 40.8599L17.2687 40.0537L18.6359 37.2119L19.0176 36.4302L19.232 36H13.0002C12.4479 36 12.0002 35.5523 12.0002 35C12.0002 34.4872 12.3862 34.0645 12.8835 34.0067L13.0002 34H20.0002C20.0904 34 20.1778 34.012 20.261 34.0344L20.4744 33.6468C20.7687 33.1229 21.0584 32.6333 21.346 32.177L21.6901 31.6452C23.8647 28.3774 25.9641 27 29.0002 27H40.0002ZM10.0002 34C10.5524 34 11.0002 34.4477 11.0002 35C11.0002 35.5523 10.5524 36 10.0002 36C9.44787 36 9.00016 35.5523 9.00016 35C9.00016 34.4477 9.44787 34 10.0002 34ZM47.0002 27C47.5524 27 48.0002 27.4477 48.0002 28C48.0002 28.5523 47.5524 29 47.0002 29C46.4479 29 46.0002 28.5523 46.0002 28C46.0002 27.4477 46.4479 27 47.0002 27ZM44.0002 27C44.5524 27 45.0002 27.4477 45.0002 28C45.0002 28.5523 44.5524 29 44.0002 29H43.0002C42.4479 29 42.0002 28.5523 42.0002 28C42.0002 27.4477 42.4479 27 43.0002 27H44.0002Z" fill="#778183"/>
<g style="mix-blend-mode:multiply">
<path d="M29.5 21C29.4349 21 29.3706 20.9859 29.312 20.9589C29.2534 20.9318 29.202 20.8925 29.1615 20.8438L24.2191 14.8934C24.1106 14.7821 24.0385 14.643 24.0117 14.4932C23.9849 14.3433 24.0044 14.1893 24.068 14.0499C24.1316 13.9105 24.2364 13.7919 24.3697 13.7086C24.5029 13.6252 24.6587 13.5808 24.8179 13.5808L26.4769 13.5808L26.4769 5.77283C26.4771 5.56793 26.5625 5.37149 26.7143 5.2266C26.8661 5.08172 27.072 5.00022 27.2867 5L31.7133 5C31.928 5.00022 32.1339 5.08172 32.2857 5.2266C32.4375 5.37149 32.5229 5.56793 32.5231 5.77283L32.5231 13.5808L34.1821 13.5808C34.3413 13.5808 34.4971 13.6252 34.6303 13.7086C34.7636 13.7919 34.8684 13.9105 34.932 14.0499C34.9956 14.1893 35.0151 14.3433 34.9883 14.4932C34.9615 14.643 34.8894 14.7821 34.781 14.8934L29.8384 20.8438C29.798 20.8925 29.7465 20.9318 29.6879 20.9589C29.6293 20.9859 29.5651 21 29.5 21Z" fill="url(#paint0_linear_2867_3636)"/>
</g>
<path d="M40.0002 27C40.5524 27 41.0002 27.4477 41.0002 28C41.0002 28.5128 40.6141 28.9355 40.1168 28.9933L40.0002 29L34.1344 28.9995C35.3458 30.1215 36.4806 31.7487 37.6999 33.9627L38.0576 34.6243C38.1177 34.7374 38.178 34.8519 38.2386 34.9678L38.6051 35.6801L38.9787 36.4266C39.0416 36.554 39.1048 36.6828 39.1684 36.813L40.5262 39.6373L40.9293 40.4613C40.9959 40.5956 41.0621 40.7285 41.1281 40.8599L41.5207 41.6307C41.5856 41.7562 41.6503 41.8804 41.7147 42.0031L42.0988 42.7219C42.1624 42.8389 42.2258 42.9545 42.289 43.0687L42.6664 43.737C45.2959 48.299 47.6815 50.4335 51.1645 51.0136C51.7092 51.1044 52.0773 51.6195 51.9866 52.1643C51.8958 52.7091 51.3806 53.0771 50.8358 52.9864C46.4282 52.2522 43.6275 49.6134 40.5663 44.0891L40.1653 43.3521C40.0982 43.2265 40.031 43.0995 39.9635 42.9711L39.5564 42.1841L39.1441 41.3632L38.539 40.1201L37.3756 37.6997L37.0161 36.9717L36.6654 36.2798L36.3228 35.6237C36.2663 35.5172 36.2101 35.4122 36.1542 35.3087L35.8222 34.7048L35.4962 34.1351C35.1729 33.5822 34.8575 33.0796 34.5463 32.6248L34.2363 32.1857C32.6019 29.9447 31.0516 29.0142 29.0465 29.0002L29.0002 29L28.987 28.999L28.7763 29.0038C26.482 29.0837 24.7773 30.4114 22.8222 33.601L22.5012 34.1374C22.3934 34.3218 22.2847 34.5117 22.175 34.7074L21.8427 35.3116C21.7868 35.4152 21.7306 35.5202 21.674 35.6266L21.3312 36.2831C21.2734 36.3955 21.2152 36.5094 21.1568 36.6248L20.8015 37.3349L19.2719 40.5079C19.0608 40.9443 18.8525 41.3676 18.6462 41.7781L18.2365 42.5821C14.8436 49.1408 11.9527 52.1884 7.16455 52.9864C6.61978 53.0772 6.10456 52.7092 6.01376 52.1644C5.92297 51.6197 6.29099 51.1044 6.83576 51.0136C10.3992 50.4197 12.8137 48.197 15.5188 43.4072L15.8983 42.7222L16.2824 42.0032L16.672 41.2498C16.7375 41.1213 16.8032 40.9913 16.8692 40.8599L17.2687 40.0537L18.6359 37.2119L19.0176 36.4302L19.232 36H13.0002C12.4479 36 12.0002 35.5523 12.0002 35C12.0002 34.4872 12.3862 34.0645 12.8835 34.0067L13.0002 34H20.0002C20.0904 34 20.1778 34.012 20.261 34.0344L20.4744 33.6468C20.7687 33.1229 21.0584 32.6333 21.346 32.177L21.6901 31.6452C23.8647 28.3774 25.9641 27 29.0002 27H40.0002Z" fill="url(#paint1_linear_2867_3636)"/>
<defs>
<linearGradient id="paint0_linear_2867_3636" x1="35.9668" y1="3.35202" x2="33.9403" y2="22.5529" gradientUnits="userSpaceOnUse">
<stop stop-color="#EA5B4F"/>
<stop offset="1" stop-color="#F9C452"/>
</linearGradient>
<linearGradient id="paint1_linear_2867_3636" x1="1.26202" y1="24.7148" x2="56.1747" y2="31.7644" gradientUnits="userSpaceOnUse">
<stop stop-color="#EA5B4F"/>
<stop offset="1" stop-color="#F9C452"/>
</linearGradient>
</defs>
</svg>
