<svg width="36" height="11" viewBox="0 0 36 11" fill="none" xmlns="http://www.w3.org/2000/svg">
<path d="M1.138 10.08C0.668667 10.08 0.434 9.888 0.434 9.504V0.464C0.626 0.272 0.914 0.176 1.298 0.176C1.554 0.176 1.77267 0.229333 1.954 0.335999C2.13533 0.432 2.30067 0.613333 2.45 0.879999L5.506 6C5.634 6.224 5.76733 6.464 5.906 6.72C6.04467 6.96533 6.178 7.216 6.306 7.472C6.434 7.71733 6.55133 7.952 6.658 8.176C6.77533 8.38933 6.87133 8.57067 6.946 8.72L7.01 8.704C6.92467 7.84 6.87133 6.97067 6.85 6.096C6.83933 5.22133 6.834 4.368 6.834 3.536V0.304C6.898 0.282666 6.98333 0.261333 7.09 0.24C7.19667 0.208 7.314 0.191999 7.442 0.191999C7.91133 0.191999 8.146 0.384 8.146 0.768V9.824C8.05 9.90933 7.92733 9.97333 7.778 10.016C7.62867 10.0693 7.46333 10.096 7.282 10.096C7.026 10.096 6.80733 10.048 6.626 9.952C6.44467 9.84533 6.27933 9.65867 6.13 9.392L3.09 4.272C2.962 4.05867 2.82333 3.824 2.674 3.568C2.53533 3.312 2.39667 3.06133 2.258 2.816C2.13 2.57067 2.00733 2.336 1.89 2.112C1.78333 1.888 1.69267 1.70133 1.618 1.552L1.554 1.568C1.60733 2.08 1.65 2.66667 1.682 3.328C1.714 3.97867 1.73 4.59733 1.73 5.184V9.968C1.67667 9.98933 1.59133 10.0107 1.474 10.032C1.36733 10.064 1.25533 10.08 1.138 10.08ZM17.7965 6.304C17.7965 6.90133 17.7112 7.44 17.5405 7.92C17.3698 8.4 17.1245 8.81067 16.8045 9.152C16.4952 9.49333 16.1165 9.75467 15.6685 9.936C15.2205 10.1173 14.7192 10.208 14.1645 10.208C13.6098 10.208 13.1085 10.1173 12.6605 9.936C12.2125 9.75467 11.8285 9.49333 11.5085 9.152C11.1885 8.81067 10.9432 8.4 10.7725 7.92C10.6018 7.44 10.5165 6.90133 10.5165 6.304C10.5165 5.70667 10.6018 5.168 10.7725 4.688C10.9538 4.208 11.2045 3.79733 11.5245 3.456C11.8445 3.11467 12.2285 2.85333 12.6765 2.672C13.1245 2.49067 13.6205 2.4 14.1645 2.4C14.7085 2.4 15.2045 2.49067 15.6525 2.672C16.1005 2.85333 16.4792 3.11467 16.7885 3.456C17.1085 3.79733 17.3538 4.208 17.5245 4.688C17.7058 5.168 17.7965 5.70667 17.7965 6.304ZM14.1645 3.456C13.4392 3.456 12.8685 3.70667 12.4525 4.208C12.0365 4.70933 11.8285 5.408 11.8285 6.304C11.8285 7.21067 12.0312 7.91467 12.4365 8.416C12.8525 8.90667 13.4285 9.152 14.1645 9.152C14.9005 9.152 15.4712 8.90133 15.8765 8.4C16.2818 7.89867 16.4845 7.2 16.4845 6.304C16.4845 5.408 16.2765 4.70933 15.8605 4.208C15.4552 3.70667 14.8898 3.456 14.1645 3.456ZM25.0563 5.184C25.0563 4.58667 24.8856 4.14933 24.5443 3.872C24.2136 3.59467 23.7656 3.456 23.2003 3.456C22.7736 3.456 22.3949 3.50933 22.0643 3.616C21.7336 3.72267 21.4509 3.84533 21.2163 3.984V9.968C21.1629 9.98933 21.0829 10.0107 20.9763 10.032C20.8696 10.064 20.7523 10.08 20.6243 10.08C20.1656 10.08 19.9363 9.888 19.9363 9.504V4.048C19.9363 3.824 19.9789 3.64267 20.0643 3.504C20.1603 3.35467 20.3203 3.21067 20.5443 3.072C20.8216 2.90133 21.1896 2.74667 21.6483 2.608C22.1069 2.46933 22.6243 2.4 23.2003 2.4C24.1709 2.4 24.9336 2.61867 25.4883 3.056C26.0536 3.49333 26.3363 4.18133 26.3363 5.12V9.968C26.2829 9.98933 26.1976 10.0107 26.0803 10.032C25.9736 10.064 25.8616 10.08 25.7443 10.08C25.2856 10.08 25.0563 9.888 25.0563 9.504V5.184ZM29.8051 7.056C30.0931 8.45333 31.0105 9.152 32.5571 9.152C33.0051 9.152 33.4105 9.07733 33.7731 8.928C34.1358 8.77867 34.4238 8.61867 34.6371 8.448C34.8931 8.59733 35.0211 8.8 35.0211 9.056C35.0211 9.20533 34.9518 9.34933 34.8131 9.488C34.6851 9.62667 34.5038 9.74933 34.2691 9.856C34.0451 9.96267 33.7785 10.048 33.4691 10.112C33.1705 10.176 32.8451 10.208 32.4931 10.208C31.2558 10.208 30.2745 9.872 29.5491 9.2C28.8345 8.528 28.4771 7.54667 28.4771 6.256C28.4771 5.648 28.5625 5.10933 28.7331 4.64C28.9145 4.16 29.1598 3.75467 29.4691 3.424C29.7891 3.09333 30.1678 2.84267 30.6051 2.672C31.0425 2.49067 31.5171 2.4 32.0291 2.4C32.5091 2.4 32.9518 2.48 33.3571 2.64C33.7625 2.8 34.1091 3.02933 34.3971 3.328C34.6958 3.616 34.9251 3.96267 35.0851 4.368C35.2558 4.76267 35.3411 5.2 35.3411 5.68C35.3411 5.91467 35.2878 6.08533 35.1811 6.192C35.0745 6.288 34.9251 6.34667 34.7331 6.368L29.8051 7.056ZM32.0131 3.44C31.3625 3.44 30.8238 3.66933 30.3971 4.128C29.9705 4.576 29.7465 5.22133 29.7251 6.064L34.1251 5.456C34.0718 4.86933 33.8638 4.38933 33.5011 4.016C33.1491 3.632 32.6531 3.44 32.0131 3.44Z" fill="#778183"/>
</svg>
