<svg width="57" height="56" viewBox="0 0 57 56" fill="none" xmlns="http://www.w3.org/2000/svg">
<g clip-path="url(#clip0)">
<path d="M28.2971 0C14.0064 1.01961e-06 14.8988 6.1973 14.8988 6.1973L14.9148 12.6176H28.552V14.5453H9.49811C9.49811 14.5453 0.353516 13.5082 0.353516 27.9277C0.353515 42.3471 8.33512 41.8357 8.33512 41.8357H13.0986V35.1446C13.0986 35.1446 12.8418 27.163 20.9528 27.163C29.0637 27.163 34.4785 27.163 34.4785 27.163C34.4785 27.163 42.0777 27.2858 42.0777 19.8186C42.0777 12.3514 42.0777 7.47181 42.0777 7.47181C42.0777 7.4718 43.2315 0 28.2971 0ZM20.7775 4.3174C22.1343 4.3174 23.2309 5.41402 23.2309 6.77083C23.2309 8.12763 22.1343 9.22425 20.7775 9.22425C19.4207 9.22426 18.3241 8.12763 18.3241 6.77083C18.3241 5.41402 19.4207 4.3174 20.7775 4.3174Z" fill="url(#paint0_linear)"/>
<path d="M28.7029 55.9999C42.9936 55.9999 42.1012 49.8026 42.1012 49.8026L42.0852 43.3822H28.448V41.4545H47.5019C47.5019 41.4545 56.6465 42.4916 56.6465 28.0722C56.6465 13.6528 48.6649 14.1641 48.6649 14.1641H43.9014V20.8553C43.9014 20.8553 44.1582 28.8369 36.0473 28.8369C27.9363 28.8369 22.5215 28.8369 22.5215 28.8369C22.5215 28.8369 14.9223 28.714 14.9223 36.1812C14.9223 43.6484 14.9223 48.528 14.9223 48.528C14.9223 48.528 13.7685 55.9999 28.7029 55.9999ZM36.2225 51.6825C34.8657 51.6825 33.7691 50.5858 33.7691 49.229C33.7691 47.8722 34.8657 46.7756 36.2225 46.7756C37.5793 46.7756 38.6759 47.8722 38.6759 49.229C38.6759 50.5858 37.5793 51.6825 36.2225 51.6825Z" fill="url(#paint1_linear)"/>
</g>
<defs>
<linearGradient id="paint0_linear" x1="5.76338" y1="4.89489" x2="33.5987" y2="32.8233" gradientUnits="userSpaceOnUse">
<stop stop-color="#387EB8"/>
<stop offset="1" stop-color="#366994"/>
</linearGradient>
<linearGradient id="paint1_linear" x1="22.8864" y1="22.6616" x2="52.7816" y2="51.3027" gradientUnits="userSpaceOnUse">
<stop stop-color="#FFE052"/>
<stop offset="1" stop-color="#FFC331"/>
</linearGradient>
<clipPath id="clip0">
<rect width="56.293" height="55.9999" fill="white" transform="translate(0.353516)"/>
</clipPath>
</defs>
</svg>
