<svg xmlns="http://www.w3.org/2000/svg" width="278" height="635" viewBox="0 0 278 635" fill="none">
<path opacity="0.49" fill-rule="evenodd" clip-rule="evenodd" d="M261.976 212.257L261.976 141.513C261.47 142.283 260.892 143.01 260.246 143.684C257.977 146.052 256.711 149.204 256.711 152.483L256.711 178.09C256.711 183.726 254.472 189.131 250.487 193.116L200.415 243.188C196.899 246.704 194.923 251.473 194.923 256.446L194.923 293.899C194.923 296.191 194.553 298.445 193.846 300.581L247.698 246.729C256.84 237.587 261.976 225.187 261.976 212.257ZM258.441 141.955C260.71 139.587 261.976 136.435 261.976 133.156L261.976 107.03L261.976 -2.29027e-05L264.476 -2.31212e-05L264.476 107.03L264.476 133.156L264.476 212.257C264.476 225.85 259.077 238.885 249.466 248.497L180.636 317.326C181.369 317.203 182.116 317.14 182.869 317.14C185.78 317.14 188.572 315.983 190.631 313.925L254.45 250.105C263.593 240.963 268.729 228.563 268.729 215.634L268.729 3.37633L271.229 3.37633L271.229 215.634C271.229 229.226 265.829 242.262 256.218 251.873L192.399 315.692C191.871 316.221 191.303 316.7 190.703 317.129C195.472 316.967 200.01 314.991 203.381 311.591L261.014 253.459C270.065 244.329 275.144 231.993 275.144 219.136L275.144 6.75268L277.644 6.75268L277.644 219.136C277.644 232.652 272.305 245.621 262.789 255.219L205.156 313.351C201.166 317.376 195.733 319.64 190.066 319.64L182.869 319.64C179.963 319.64 177.176 320.792 175.118 322.844L175.107 322.855L140.873 357.089L114.664 383.298C105.522 392.44 100.386 404.84 100.386 417.769L100.386 448.379L100.386 474.505C100.386 474.51 100.386 474.515 100.386 474.52L100.386 514.441C100.386 528.033 94.9862 541.069 85.3749 550.68L1.76782 634.287L5.52966e-05 632.519L17.7259 614.794L16.5442 613.612L24.3056 605.85C26.8843 603.272 28.3329 599.774 28.3329 596.128L28.3329 595.724C28.3329 591.414 30.045 587.281 33.0924 584.233L84.6284 532.697C88.1447 529.181 90.1201 524.412 90.1201 519.439L90.1201 493.832C90.1201 489.908 91.6357 486.136 94.3504 483.304C96.6159 480.94 97.8821 477.793 97.8857 474.519C97.8857 474.515 97.8857 474.51 97.8857 474.505L97.8857 448.379L97.8857 417.769C97.8857 404.177 103.285 391.141 112.896 381.53L139.106 355.321L173.34 321.087L173.353 321.073L180.804 313.623L180.635 313.454L186.932 307.157C190.448 303.641 192.423 298.872 192.423 293.899L192.423 256.446C192.423 250.81 194.662 245.405 198.647 241.42L248.719 191.348C252.235 187.832 254.211 183.063 254.211 178.09L254.211 152.483C254.211 148.559 255.726 144.787 258.441 141.955ZM97.8857 482.862C97.3797 483.632 96.8015 484.359 96.1554 485.033C93.8867 487.401 92.6201 490.553 92.6201 493.832L92.6201 519.439C92.6201 525.075 90.3813 530.48 86.3961 534.465L34.8602 586.001C32.2816 588.58 30.8329 592.077 30.8329 595.724L30.8329 596.128C30.8329 598.68 30.2326 601.17 29.1101 603.409L83.6072 548.912C92.7496 539.77 97.8857 527.37 97.8857 514.441L97.8857 482.862Z" fill="url(#paint0_linear)"/>
<defs>
<linearGradient id="paint0_linear" x1="295.154" y1="89.0975" x2="27.9303" y2="589.478" gradientUnits="userSpaceOnUse">
<stop stop-color="#49FF87" stop-opacity="0"/>
<stop offset="0.325575" stop-color="#4CD5A1"/>
<stop offset="0.85144" stop-color="#5EAADA"/>
<stop offset="1" stop-color="#5EAADA" stop-opacity="0"/>
</linearGradient>
</defs>
</svg>