<svg width="126" height="125" viewBox="0 0 126 125" fill="none" xmlns="http://www.w3.org/2000/svg">
<g clip-path="url(#clip0_15_20)">
<path d="M1.38304 96.1277C4.03637 97.1168 6.05459 98.5699 6.93476 100.14V100.14C7.08778 100.401 7.20768 100.681 7.29125 100.972C7.43175 101.459 7.75675 101.871 8.19682 102.121C8.63688 102.37 9.1573 102.438 9.64658 102.31C10.1 102.19 10.605 102.086 11.1957 101.988C12.3108 101.805 13.4396 101.713 14.5697 101.714C20.7201 101.714 25.3145 104.308 25.3145 106.627L25.3149 106.627C25.3149 107.319 25.6843 107.959 26.2838 108.305C26.8834 108.652 27.6222 108.652 28.2218 108.305C28.8213 107.959 29.1907 107.319 29.1907 106.627V106.626C29.1907 104.307 33.7868 101.713 39.9376 101.713C41.5989 101.702 43.2555 101.903 44.8664 102.309C45.3561 102.436 45.8765 102.367 46.3157 102.116C46.755 101.865 47.0784 101.452 47.2169 100.965C47.6747 99.3614 49.435 97.7332 52.1408 96.5236C52.0459 96.4162 51.9434 96.2979 51.8622 96.1921L51.8618 96.1925C51.1488 95.264 50.5307 94.2663 50.0164 93.2147C47.6179 94.2486 45.5907 95.9879 44.2043 98.2011C42.7953 97.9553 41.3678 97.8338 39.9377 97.8374C37.8549 97.8297 35.7805 98.099 33.7691 98.6388C24.5709 92.544 17.5806 83.6482 13.8329 73.2703C10.0855 62.8914 9.78068 51.5822 12.9633 41.0173C16.1463 30.4523 22.6471 21.1927 31.5042 14.6111C40.3605 8.02943 51.1013 4.47546 62.1355 4.47546C73.1697 4.47546 83.9104 8.02954 92.7669 14.6111C101.623 21.1927 108.124 30.4523 111.308 41.0173C114.49 51.5822 114.186 62.8914 110.438 73.2703C106.691 83.6482 99.7005 92.5439 90.5019 98.6388C88.4905 98.099 86.4162 97.8297 84.3333 97.8374C82.9033 97.8338 81.4757 97.9553 80.0667 98.2011C78.6807 95.9883 76.6543 94.2495 74.2566 93.2159C73.9994 93.8631 73.7014 94.4937 73.3635 95.103C73.066 95.6323 72.7357 96.1426 72.3748 96.6307C74.9441 97.8281 76.61 99.4096 77.054 100.965C77.1925 101.452 77.5159 101.865 77.9551 102.116C78.3944 102.367 78.9148 102.436 79.4045 102.309C81.0154 101.903 82.6718 101.702 84.3333 101.713C90.4837 101.713 95.0801 104.307 95.0801 106.626V106.627C95.0801 107.32 95.4495 107.959 96.0491 108.305C96.6486 108.652 97.3874 108.652 97.987 108.305C98.5865 107.959 98.9559 107.319 98.9559 106.627C98.9559 104.308 103.551 101.714 109.701 101.714L109.701 101.715C110.833 101.713 111.962 101.805 113.079 101.989C113.666 102.086 114.171 102.19 114.624 102.309V102.31C115.114 102.439 115.634 102.371 116.074 102.121C116.515 101.871 116.84 101.459 116.98 100.973C117.066 100.672 117.191 100.383 117.35 100.114C118.214 98.5743 120.141 97.1738 122.784 96.1636C123.283 96.0066 123.698 95.6541 123.933 95.1862C124.169 94.7187 124.205 94.1757 124.034 93.6812C123.864 93.1862 123.5 92.7812 123.026 92.5584C122.552 92.3355 122.008 92.3137 121.519 92.4983C117.92 93.8516 115.309 95.8294 113.985 98.1929L113.975 98.2103C113.888 98.1953 113.8 98.18 113.711 98.1659L113.711 98.1655C112.385 97.9466 111.044 97.8372 109.701 97.8388C104.205 97.8388 99.5178 99.5785 97.0183 102.207C96.3421 101.504 95.5746 100.895 94.7364 100.395C104.14 93.5194 111.128 83.8461 114.703 72.7592C118.277 61.6723 118.254 49.7389 114.637 38.6655C111.02 27.592 103.995 17.9458 94.5652 11.1058C85.1357 4.26618 73.7857 0.583221 62.1365 0.583221C50.4874 0.583221 39.1369 4.26649 29.7068 11.1058C20.2773 17.9458 13.2516 27.592 9.63522 38.6655C6.01821 49.7389 5.99557 61.6713 9.56941 72.7592C13.1436 83.8461 20.1323 93.5191 29.5356 100.395C28.6974 100.894 27.9299 101.504 27.2537 102.207C24.7537 99.5785 20.0673 97.8388 14.571 97.8388C13.229 97.8372 11.889 97.9462 10.5647 98.1646C10.4739 98.18 10.3851 98.1945 10.2971 98.2103C8.96956 95.8481 6.28595 93.8193 2.73963 92.4963H2.73922C2.09164 92.2581 1.36615 92.3824 0.834387 92.8229C0.30308 93.263 0.0454986 93.9526 0.158941 94.6337C0.271991 95.3144 0.738701 95.8837 1.38422 96.1279L1.38304 96.1277Z" fill="#4F595B"/>
<path d="M52.4458 82.0063H54.0586C53.3206 83.1206 52.8163 84.3733 52.5769 85.6883C52.1574 88.6194 53.019 91.5897 54.9428 93.8409C54.9796 93.8881 55.0223 93.939 55.0631 93.983C55.8884 94.8784 57.192 96.9339 56.6158 97.8548H56.6154C56.37 98.248 56.2735 98.7159 56.3433 99.1742C56.4128 99.632 56.6445 100.05 56.9961 100.352C57.3478 100.654 57.7959 100.82 58.2595 100.82C58.3705 100.82 58.4811 100.81 58.5905 100.791C58.9151 100.735 66.5872 99.3424 69.972 93.2264C71.7258 90.0571 71.9648 86.287 70.7366 82.0062H71.8247C72.3386 82.0062 72.8316 81.8019 73.1949 81.4385C73.5587 81.0752 73.7626 80.5822 73.7626 80.0682V74.2549H77.1454C77.7732 74.2549 78.3622 73.9505 78.7256 73.439C79.089 72.9271 79.1822 72.271 78.9755 71.6783L76.1809 63.674H85.5745C86.0885 63.674 86.5814 63.4697 86.9448 63.1064C87.3082 62.743 87.5125 62.25 87.5125 61.7361V55.0794C87.5125 54.565 87.3082 54.0717 86.944 53.7083L79.0878 45.8609C79.0874 45.8444 79.0886 45.8274 79.0882 45.8105C78.873 36.0567 74.9358 26.7549 68.0829 19.8105C66.5265 18.1979 64.3808 17.2884 62.1396 17.2912H62.1339C59.9001 17.2867 57.7604 18.1907 56.2067 19.7959C49.3409 26.7372 45.3948 36.0454 45.1818 45.8062C45.1814 45.8244 45.1827 45.8426 45.1827 45.8607L37.3264 53.7081H37.326C36.9619 54.0714 36.7576 54.5648 36.7576 55.0792V61.7359C36.7576 62.2498 36.9615 62.7428 37.3252 63.1062C37.6886 63.4695 38.1815 63.6738 38.6955 63.6738H48.0891L45.2949 71.6781H45.2945C45.0878 72.2708 45.1811 72.9269 45.5444 73.4388C45.9078 73.9503 46.4968 74.2547 47.1246 74.2547H50.5074V80.0685V80.0681C50.5074 80.582 50.7113 81.075 51.0751 81.4383C51.4384 81.8021 51.9314 82.006 52.4454 82.006L52.4458 82.0063ZM78.7899 51.0411L83.6368 55.8827V59.7981H76.777C77.7419 56.9546 78.4164 54.0207 78.7899 51.0411ZM40.6333 59.7981V55.8827L45.4804 51.0411C45.8535 54.0206 46.5277 56.9546 47.4931 59.7981H40.6333ZM66.5903 91.3307C65.1829 93.5916 63.0447 95.3034 60.5307 96.1823C60.087 94.4074 59.2076 92.7711 57.9722 91.4222C56.7619 90.0342 56.1885 88.2029 56.3916 86.3728C56.6311 85.1794 57.1926 84.074 58.0154 83.1769C57.8774 84.5855 58.309 85.9912 59.2146 87.0794C59.2533 87.1298 59.2941 87.1787 59.3377 87.2255C59.4604 87.3688 59.5662 87.5255 59.6534 87.693C59.4257 88.2889 59.5061 88.9583 59.8674 89.484C60.2292 90.0092 60.8259 90.3233 61.4637 90.3237C61.5748 90.3233 61.6854 90.314 61.7948 90.2951C64.0084 89.8986 65.954 88.5914 67.1572 86.6918C67.3134 86.4035 67.4462 86.1028 67.554 85.7927C67.8112 87.6939 67.4749 89.6281 66.5903 91.3307ZM61.8658 83.5932C61.9987 83.1446 62.2809 82.7554 62.6652 82.4898C62.859 82.3602 63.0274 82.1967 63.1626 82.0065H63.7036C64.1162 82.8878 64.1417 83.9012 63.7735 84.8019C63.5748 85.1479 63.3015 85.4451 62.9737 85.6724C62.7686 85.3127 62.5259 84.976 62.2498 84.6671C61.9866 84.3728 61.8489 83.9877 61.8658 83.5932ZM69.886 78.1307L54.3827 78.1311V74.2553H69.886V78.1307ZM49.0579 45.8611C49.2638 37.0808 52.8239 28.7125 59.0079 22.475C59.825 21.6271 60.9563 21.154 62.134 21.1673H62.1368C63.3197 21.1621 64.4538 21.6381 65.2783 22.4859C68.9849 26.1659 71.7835 30.6586 73.4522 35.6079C75.1212 40.5573 75.6146 45.8271 74.8935 51.0006H49.3761C49.1428 49.2976 49.0366 47.5797 49.058 45.861L49.0579 45.8611ZM74.1701 54.8765C73.6933 56.854 73.0821 58.7963 72.3408 60.6902H51.9282C51.1861 58.7963 50.5748 56.854 50.098 54.8765H74.1701ZM49.8537 70.3798L51.8841 64.566H72.3867L74.4171 70.3798H49.8537Z" fill="url(#paint0_linear_15_20)"/>
<path d="M62.1353 30.6522C60.3367 30.6522 58.6115 31.3668 57.3394 32.6386C56.0676 33.9108 55.353 35.6359 55.353 37.4349C55.353 39.2335 56.0676 40.9587 57.3394 42.2308C58.6116 43.5026 60.3367 44.2172 62.1357 44.2172C63.9343 44.2172 65.6595 43.5026 66.9316 42.2308C68.2034 40.9586 68.918 39.2335 68.918 37.4349C68.9159 35.6367 68.2009 33.9124 66.9292 32.641C65.6578 31.3696 63.9336 30.6542 62.1353 30.6522ZM62.1353 40.3418C61.3646 40.3418 60.6254 40.0353 60.0799 39.4903C59.5348 38.9449 59.2284 38.2056 59.2284 37.4349C59.2284 36.6637 59.5348 35.9245 60.0799 35.379C60.6253 34.834 61.3646 34.528 62.1353 34.528C62.9064 34.528 63.6456 34.834 64.1911 35.379C64.7362 35.9245 65.0422 36.6637 65.0422 37.4349C65.0414 38.2052 64.7349 38.9444 64.1899 39.4891C63.6449 40.0341 62.906 40.3406 62.1353 40.3418Z" fill="url(#paint1_linear_15_20)"/>
<path d="M53.8885 124.579C54.3851 124.71 54.914 124.639 55.3581 124.381C55.8023 124.122 56.1256 123.698 56.2568 123.201C56.5265 122.181 58.7188 120.768 62.1348 120.768C65.5507 120.768 67.743 122.181 68.0127 123.201H68.0131C68.1899 123.87 68.7107 124.394 69.3789 124.576C70.0471 124.757 70.7613 124.568 71.2522 124.081C71.7436 123.593 71.9369 122.88 71.7601 122.21C70.9321 119.079 66.9738 116.892 62.1348 116.892C57.2957 116.892 53.3375 119.079 52.5098 122.21C52.3786 122.707 52.4501 123.236 52.7084 123.68C52.9668 124.125 53.3915 124.448 53.8885 124.579Z" fill="#4F595B"/>
<path d="M48.9979 83.9318C42.3686 80.8307 37.0501 75.4849 33.9825 68.8399C30.9157 62.1948 30.2981 54.6792 32.2396 47.6231C34.1807 40.5663 38.5555 34.4247 44.5905 30.2832C45.5397 28.0906 46.6722 25.9815 47.9758 23.9786C39.6356 27.6812 33.0793 34.5053 29.713 42.9866C26.3467 51.4681 26.4391 60.9311 29.9702 69.3453C33.5016 77.7594 40.1898 84.4537 48.601 87.9936C48.538 87.0021 48.5909 86.0068 48.7588 85.0278C48.8238 84.6524 48.9037 84.287 48.9982 83.9321L48.9979 83.9318Z" fill="#778183"/>
<path d="M76.295 23.9776C77.5967 25.9797 78.7275 28.0876 79.6759 30.279C85.7238 34.4274 90.1054 40.5851 92.0413 47.6582C93.9779 54.7316 93.3445 62.2623 90.2539 68.9132C87.163 75.5634 81.8144 80.9034 75.1589 83.9823C75.3765 85.3469 75.4484 86.7301 75.3737 88.1097C83.8512 84.6352 90.6207 77.9636 94.2174 69.5378C97.8151 61.112 97.9511 51.6088 94.5973 43.0831C91.2436 34.5571 84.6688 27.6945 76.2942 23.9768L76.295 23.9776Z" fill="#778183"/>
</g>
<defs>
<linearGradient id="paint0_linear_15_20" x1="31.5299" y1="9.94965" x2="92.9974" y2="12.6598" gradientUnits="userSpaceOnUse">
<stop stop-color="#6D44C3"/>
<stop offset="1" stop-color="#EA5B4F"/>
</linearGradient>
<linearGradient id="paint1_linear_15_20" x1="53.9559" y1="29.46" x2="70.3296" y2="30.6481" gradientUnits="userSpaceOnUse">
<stop stop-color="#6D44C3"/>
<stop offset="1" stop-color="#EA5B4F"/>
</linearGradient>
<clipPath id="clip0_15_20">
<rect width="125" height="125" fill="white"/>
</clipPath>
</defs>
</svg>
