<svg width="14" height="15" viewBox="0 0 14 15" fill="none" xmlns="http://www.w3.org/2000/svg">
<path d="M11.0897 5.76984C11.0897 4.74909 11.2846 4.23088 11.7838 3.92665C13.0846 3.13344 14.5706 4.61944 13.7774 5.92027C13.4736 6.41899 12.955 6.61433 11.9342 6.61433H11.0897V5.76984Z" fill="#2EB67D"/>
<path d="M8.175 6.41803C7.47332 6.06761 7.39069 5.73287 7.39111 3.25112C7.39111 1.28038 7.4123 1.02954 7.60976 0.705819C8.1 -0.0979846 9.22965 -0.230188 9.89829 0.438024L10.2491 0.788441L10.2801 3.16892C10.3093 5.40236 10.297 5.57228 10.0813 5.92016C9.84575 6.30109 9.27753 6.61422 8.82288 6.61422C8.68262 6.61422 8.39068 6.52565 8.17458 6.41803H8.175Z" fill="#2EB67D"/>
<path d="M4.73747 2.79191C4.29044 2.66225 3.83409 2.12836 3.7396 1.62413C3.59893 0.874138 4.35739 0 5.14848 0C5.58916 0 6.17517 0.370333 6.40101 0.791514C6.54931 1.06778 6.60609 1.41523 6.60609 2.04404V2.91479L5.84932 2.90462C5.43323 2.89911 4.93281 2.84826 4.73747 2.79191Z" fill="#36C5F0"/>
<path d="M0.944199 6.45621C-0.201973 5.94647 -0.294345 4.48208 0.783184 3.90412C1.11454 3.72616 1.44631 3.69946 3.29883 3.69946C5.7238 3.69946 6.03015 3.7804 6.41616 4.52446C6.78819 5.2414 6.43142 6.12825 5.63778 6.4596C5.12635 6.67358 1.42682 6.67061 0.944199 6.45579V6.45621Z" fill="#36C5F0"/>
<path d="M8.2088 10.1319C7.18466 9.62686 7.16898 8.14723 8.18211 7.60401C8.51346 7.42605 8.84481 7.39893 10.6715 7.39893C13.0435 7.39893 13.4041 7.47943 13.7778 8.09299C14.2282 8.83153 13.9303 9.83279 13.1655 10.1523C12.5863 10.3947 8.70879 10.3781 8.2088 10.1319Z" fill="#ECB22E"/>
<path d="M8.20896 13.8374C7.62634 13.5408 7.46448 13.1819 7.41024 12.068L7.36194 11.0752L8.37718 11.115C9.57293 11.1616 9.93013 11.354 10.1899 12.0896C10.5034 12.9781 9.94919 13.8591 9.00641 13.9692C8.73056 14.0014 8.4348 13.9527 8.20896 13.8379V13.8374Z" fill="#ECB22E"/>
<path d="M0.697356 10.0938C0.534623 9.99539 0.392913 9.86582 0.28035 9.71253C0.167787 9.55924 0.0865844 9.38524 0.041395 9.20051C-0.00379439 9.01577 -0.0120821 8.82394 0.0170087 8.636C0.0460996 8.44806 0.111996 8.2677 0.210921 8.10528C0.53973 7.56545 0.962607 7.39893 2.00327 7.39893H2.9058V8.32391C2.90538 9.0434 2.85665 9.32856 2.68631 9.6078C2.58789 9.77059 2.4583 9.91235 2.30498 10.025C2.15166 10.1376 1.97761 10.2188 1.79283 10.264C1.60805 10.3092 1.41616 10.3174 1.22817 10.2883C1.04019 10.2592 0.8598 10.1932 0.697356 10.0942V10.0938Z" fill="#E01E5A"/>
<path d="M4.39696 13.7936C3.74824 13.3983 3.69104 13.147 3.69104 10.706C3.69104 8.26533 3.74824 8.01405 4.39696 7.61872C4.62363 7.48179 4.88341 7.40942 5.14822 7.40942C5.41304 7.40942 5.67282 7.48179 5.89949 7.61872C6.54948 8.0149 6.60584 8.26278 6.60541 10.7289C6.60499 12.7322 6.5838 12.9831 6.38592 13.3072C6.2875 13.47 6.15791 13.6118 6.00459 13.7244C5.85127 13.837 5.67722 13.9182 5.49244 13.9634C5.30765 14.0086 5.11577 14.0168 4.92778 13.9877C4.73979 13.9586 4.55941 13.8926 4.39696 13.7936Z" fill="#E01E5A"/>
</svg>
