<svg width="29" height="29" viewBox="0 0 29 29" fill="none" xmlns="http://www.w3.org/2000/svg">
<g clip-path="url(#clip0)">
<path fill-rule="evenodd" clip-rule="evenodd" d="M21.8708 19.8988L21.7433 19.6278L18.9577 14.3469C18.8634 14.1701 18.8752 14.0649 18.9998 13.9147L23.4067 8.73895C23.4581 8.67836 23.5048 8.61356 23.5246 8.50583L22.2378 8.84247L16.8937 10.2626C16.7279 10.3072 16.6526 10.2584 16.5697 10.1213L13.5349 5.06501C13.4823 4.97748 13.4255 4.89669 13.314 4.81884L13.0691 6.16833L12.2221 10.9359L12.1345 11.451C12.1202 11.6193 12.0361 11.6757 11.8879 11.7224L5.59666 13.7106C5.50409 13.7401 5.41488 13.7771 5.31599 13.8672L10.4918 15.9223L10.3403 16.0414L7.11993 18.1231C7.06747 18.164 7.00417 18.1887 6.93785 18.1941C6.87152 18.1994 6.80507 18.1853 6.74669 18.1534L2.89812 16.4382C2.32247 16.1857 1.80405 15.8394 1.40093 15.3462C0.489074 14.2311 0.668753 12.9616 1.884 12.1903C2.28165 11.9366 2.73316 11.7464 3.18341 11.5995L9.36318 9.6365C9.5315 9.58264 9.61566 9.50522 9.64806 9.31796L10.4896 4.55038C10.6428 3.70122 10.7244 2.82512 11.1377 2.05171C11.2963 1.75715 11.4869 1.45923 11.7129 1.20844C12.5313 0.299523 13.6738 0.265018 14.5389 1.13017C14.831 1.4222 15.086 1.76683 15.2993 2.1203L18.1195 6.80625C18.2297 6.9914 18.3299 7.02927 18.5335 6.97457L25.4413 5.13949C25.9159 5.01409 26.3965 4.96822 26.8833 5.05533C27.9437 5.25394 28.4079 6.06523 28.0489 7.08608C27.8857 7.54895 27.6037 7.94744 27.2915 8.31984L22.4705 13.9867C22.3388 14.1407 22.3358 14.2518 22.4271 14.4243L25.2978 19.8668C25.5267 20.3011 25.7017 20.7518 25.7059 21.2504C25.7173 22.3849 24.8879 23.3131 23.7606 23.4781C23.1294 23.5706 22.5428 23.436 21.9512 23.2534L17.617 21.935C17.4832 21.8951 17.4319 21.8425 17.4083 21.6981L16.8857 18.6516C16.8807 18.6238 16.8891 18.5935 16.8933 18.5312L21.8671 19.903" fill="#E25A1C"/>
<path d="M10.4875 15.9223L11.4048 16.3221L10.3852 24.4434L15.9582 18.2661L16.8979 18.53L18.055 22.0478L16.5511 21.5176L12.6596 25.7188C12.6596 25.7188 10.9192 27.5206 9.97581 27.2168C9.03239 26.913 8.23625 26.0723 8.14788 24.5692C8.05952 23.0661 7.66145 18.7749 7.66145 18.7749L5.75946 17.4039L10.4875 15.9223Z" fill="#E25A1C"/>
<path d="M7.66108 18.7752C7.66108 18.7752 6.82118 28.0634 8.45722 28.3727C10.0933 28.682 8.28049 28.3285 8.28049 28.3285C8.28049 28.3285 9.20918 29.3902 12.8798 25.4536L16.5508 21.5175L9.20876 25.8517C9.38549 25.6304 10.1374 18.1116 10.1374 18.1116L7.66108 18.7752Z" fill="#E25A1C"/>
</g>
<defs>
<clipPath id="clip0">
<rect width="28" height="28" fill="white" transform="translate(0.5 0.5)"/>
</clipPath>
</defs>
</svg>
