<svg width="46" height="40" viewBox="0 0 46 40" fill="none" xmlns="http://www.w3.org/2000/svg">
<g opacity="0.5">
<g opacity="0.5">
<rect x="9.59766" y="5.06494" width="23.8689" height="6.47137" rx="1.01299" fill="#0ED390"/>
<rect x="9.59766" y="12.7852" width="23.8689" height="6.47137" rx="1.01299" fill="#0ED390"/>
<rect x="9.59766" y="20.5049" width="23.8689" height="6.47137" rx="1.01299" fill="#0ED390"/>
</g>
</g>
<g filter="url(#filter0_d)">
<path d="M28.3528 20.5915C28.7531 20.409 29.2129 20.409 29.6132 20.5915L37.8508 24.3463C38.2461 24.5264 38.2461 25.0879 37.8508 25.268L29.6132 29.0229C29.2129 29.2053 28.7531 29.2053 28.3528 29.0229L20.1151 25.268C19.7199 25.0879 19.7199 24.5264 20.1151 24.3463L28.3528 20.5915Z" fill="white"/>
<path d="M28.3528 16.8273C28.7531 16.6448 29.2129 16.6448 29.6132 16.8273L37.8508 20.5821C38.2461 20.7623 38.2461 21.3237 37.8508 21.5039L29.6132 25.2587C29.2129 25.4412 28.7531 25.4412 28.3528 25.2587L20.1151 21.5039C19.7199 21.3237 19.7199 20.7623 20.1151 20.5821L28.3528 16.8273Z" fill="#0ED290"/>
<path d="M28.3528 13.0724C28.7531 12.8899 29.2129 12.8899 29.6132 13.0724L37.8508 16.8272C38.2461 17.0074 38.2461 17.5688 37.8508 17.749L29.6132 21.5038C29.2129 21.6863 28.7531 21.6863 28.3528 21.5038L20.1151 17.749C19.7199 17.5688 19.7199 17.0074 20.1151 16.8272L28.3528 13.0724Z" fill="white"/>
</g>
<path d="M2.09182 10.1382C2.09182 9.66545 2.24546 9.23999 2.55273 8.86181C2.86 8.45999 3.28546 8.11727 3.82909 7.83363C4.37273 7.54999 5.02273 7.33727 5.77909 7.19545C6.55909 7.02999 7.39819 6.94727 8.29637 6.94727C9.57273 6.94727 10.6955 7.11272 11.6645 7.44363C12.6573 7.7509 13.4845 8.18817 14.1464 8.75545C14.8318 9.32272 15.34 9.99636 15.6709 10.7764C16.0255 11.5564 16.2027 12.4191 16.2027 13.3645C16.2027 14.6409 15.8482 15.8818 15.1391 17.0873C14.4536 18.2927 13.3073 19.5809 11.7 20.9518L6.52364 25.4545H16.0255C16.1436 25.6436 16.25 25.8918 16.3445 26.1991C16.4391 26.5064 16.4864 26.8373 16.4864 27.1918C16.4864 27.8064 16.3445 28.2673 16.0609 28.5745C15.7773 28.8582 15.3873 29 14.8909 29H2.48182C2.10364 28.74 1.80819 28.4091 1.59546 28.0073C1.38273 27.6054 1.27637 27.1327 1.27637 26.5891C1.27637 25.9982 1.39455 25.49 1.63091 25.0645C1.89091 24.6391 2.18637 24.2727 2.51728 23.9654L8.15455 18.8245C9.47819 17.6427 10.3882 16.6618 10.8845 15.8818C11.3809 15.0782 11.6291 14.2982 11.6291 13.5418C11.6291 12.6673 11.31 11.9582 10.6718 11.4145C10.0336 10.8709 9.1 10.5991 7.87091 10.5991C6.87819 10.5991 5.99182 10.7645 5.21182 11.0954C4.43182 11.4027 3.78182 11.7454 3.26182 12.1236C2.93091 11.9345 2.64728 11.6745 2.41091 11.3436C2.19819 11.0127 2.09182 10.6109 2.09182 10.1382Z" fill="#0ED290"/>
<defs>
<filter id="filter0_d" x="12.2214" y="8.37711" width="33.5234" height="31.4189" filterUnits="userSpaceOnUse" color-interpolation-filters="sRGB">
<feFlood flood-opacity="0" result="BackgroundImageFix"/>
<feColorMatrix in="SourceAlpha" type="matrix" values="0 0 0 0 0 0 0 0 0 0 0 0 0 0 0 0 0 0 127 0" result="hardAlpha"/>
<feOffset dy="3.03896"/>
<feGaussianBlur stdDeviation="3.7987"/>
<feColorMatrix type="matrix" values="0 0 0 0 0.0801355 0 0 0 0 0.654167 0 0 0 0 0.46087 0 0 0 0.4 0"/>
<feBlend mode="normal" in2="BackgroundImageFix" result="effect1_dropShadow"/>
<feBlend mode="normal" in="SourceGraphic" in2="effect1_dropShadow" result="shape"/>
</filter>
</defs>
</svg>
