<svg width="220" height="105" viewBox="0 0 220 105" fill="none" xmlns="http://www.w3.org/2000/svg">
<g clip-path="url(#clip0_207:14)">
<path opacity="0.2" d="M2.00024 0.772827L220 0.772829" stroke="#1D2125" stroke-width="0.45433" stroke-dasharray="1.82 2.73"/>
<path opacity="0.2" d="M2 15.6298H220" stroke="#1D2125" stroke-width="0.45433" stroke-dasharray="1.82 2.73"/>
<path opacity="0.2" d="M2 30.4871H220" stroke="#1D2125" stroke-width="0.45433" stroke-dasharray="1.82 2.73"/>
<path opacity="0.2" d="M2 45.3441H220" stroke="#1D2125" stroke-width="0.45433" stroke-dasharray="1.82 2.73"/>
<path opacity="0.2" d="M2 60.2015H220" stroke="#1D2125" stroke-width="0.45433" stroke-dasharray="1.82 2.73"/>
<path opacity="0.2" d="M2 75.0585H220" stroke="#1D2125" stroke-width="0.45433" stroke-dasharray="1.82 2.73"/>
<path opacity="0.2" d="M2 89.9155H220" stroke="#1D2125" stroke-width="0.45433" stroke-dasharray="1.82 2.73"/>
<path opacity="0.2" d="M2 104.773H220" stroke="#1D2125" stroke-width="0.45433" stroke-dasharray="1.82 2.73"/>
<path d="M220 29.926C214.576 33.0592 209.288 35.9776 203.708 35.9776C199.355 35.9776 195.179 34.201 190.978 32.4135C187.837 31.0772 184.682 29.7348 181.427 29.124C174.362 27.6961 166.754 30.5518 159.689 34.5497C152.081 38.5477 144.473 43.9734 137.408 51.9693C135.719 53.7442 134.057 55.6456 132.41 57.5301C126.636 64.1352 121.046 70.5311 115.126 70.5311C110.846 70.5311 106.367 66.6529 101.808 62.7067C98.8428 60.1393 95.844 57.543 92.8451 55.9672C88.4525 53.4815 83.8497 53.5348 79.2981 53.5876C76.5293 53.6197 73.7794 53.6516 71.1072 53.1116C64.0846 52.0572 57.525 47.3534 50.5736 42.3687C49.9939 41.953 49.4115 41.5354 48.8259 41.1178C41.7611 35.9776 34.1528 30.5518 26.5446 27.6961C19.4797 25.126 11.8715 25.126 4.80667 31.9796C3.86098 32.796 2.92368 33.7183 2 34.7202" stroke="#EBF2F3" stroke-width="2.27024" stroke-linecap="round"/>
<path d="M220 29.9245C219.526 29.9936 219.053 30.0772 218.582 30.1756C214.288 31.0095 210.125 32.8421 205.98 34.6663C200.437 37.1065 194.928 39.5317 189.183 39.5317C181.482 39.5317 174.203 35.1727 166.699 30.6786C164.421 29.3145 162.122 27.938 159.785 26.6671C150.463 21.2094 140.425 17.3111 131.103 21.2094C121.942 24.4113 113.378 33.7817 104.321 43.6914C103.454 44.6405 102.582 45.5946 101.705 46.5487C100.958 47.361 100.215 48.1732 99.4749 48.9818C90.2748 59.039 81.5975 68.5246 72.306 70.3287C68.01 71.227 63.5618 70.1382 59.1017 69.0464C53.884 67.7692 48.6499 66.488 43.6243 68.3795C38.4409 70.3925 33.2575 75.2117 28.1728 79.9392C23.4101 84.3672 18.734 88.7148 14.2257 90.6002C10.0612 92.0557 6.02009 91.6327 2 90.1382" stroke="#EBF2F3" stroke-width="2.27024" stroke-linecap="round"/>
<path d="M2 50.1864L8.05618 43.0136C8.80744 42.1609 9.63858 41.1979 10.5413 40.1518C16.9161 32.7652 26.8621 21.2404 37.4719 15.2192C48.7191 8.04641 60.8314 8.04641 72.0786 10.7362C84.191 13.7248 96.3033 19.4033 107.551 24.7829C108.483 25.2199 109.41 25.657 110.333 26.092C121.399 31.3089 131.842 36.2318 143.022 37.3352C147.276 37.9004 151.654 37.867 156.062 37.8334C163.308 37.7782 170.636 37.7223 177.629 40.3238C182.403 41.973 187.177 44.6902 191.899 47.3771C199.155 51.5072 206.287 55.566 213.101 55.566C215.429 55.566 217.724 55.1577 220 54.4386" stroke="#EBF2F3" stroke-width="2.27024" stroke-linecap="round"/>
</g>
<defs>
<clipPath id="clip0_207:14">
<rect width="220" height="105" fill="white"/>
</clipPath>
</defs>
</svg>
