<svg width="59" height="56" viewBox="0 0 59 56" fill="none" xmlns="http://www.w3.org/2000/svg">
<path d="M29.4999 17.1793C29.0751 17.1793 28.7329 17.5215 28.7329 17.9345V20.3299C28.7329 20.7547 29.0751 21.0851 29.4999 21.0851C29.9247 21.0851 30.2669 20.7429 30.2669 20.3299V17.9345C30.2669 17.5215 29.9247 17.1793 29.4999 17.1793Z" fill="#B3BDBF"/>
<path d="M29.4999 6.2998C29.0751 6.2998 28.7329 6.642 28.7329 7.055V9.4504C28.7329 9.8752 29.0751 10.2056 29.4999 10.2056C29.9247 10.2056 30.2669 9.8634 30.2669 9.4504V7.0668C30.2669 6.642 29.9247 6.2998 29.4999 6.2998Z" fill="#B3BDBF"/>
<path d="M28.7329 3.43241V4.01061C28.7329 4.43541 29.0751 4.76581 29.4999 4.76581C29.9247 4.76581 30.2669 4.42361 30.2669 4.01061V3.43241C30.3967 3.52681 30.5501 3.57401 30.7035 3.57401C30.9041 3.57401 31.0929 3.50321 31.2463 3.34981C31.5413 3.05481 31.5413 2.57101 31.2463 2.27601L30.0427 1.07241C30.0427 1.07241 30.0427 1.07241 30.0309 1.07241C29.9955 1.03701 29.9601 1.01341 29.9247 0.978006C29.9011 0.966206 29.8893 0.954406 29.8657 0.942606C29.8421 0.930806 29.8185 0.919006 29.7949 0.907206C29.7713 0.895406 29.7477 0.895406 29.7241 0.883606C29.7005 0.871806 29.6769 0.871806 29.6533 0.860006C29.6061 0.848206 29.5589 0.848206 29.5117 0.848206C29.5117 0.848206 29.5117 0.848206 29.4999 0.848206C29.4881 0.848206 29.4999 0.848206 29.4881 0.848206C29.4409 0.848206 29.3937 0.848206 29.3465 0.860006C29.3229 0.860006 29.2993 0.871806 29.2757 0.883606C29.2521 0.895406 29.2285 0.895406 29.2049 0.907206C29.1813 0.919006 29.1577 0.930806 29.1341 0.942606C29.1105 0.954406 29.0987 0.966206 29.0751 0.978006C29.0397 1.00161 29.0043 1.03701 28.9689 1.07241C28.9689 1.07241 28.9689 1.07241 28.9571 1.07241L27.7535 2.27601C27.4585 2.57101 27.4585 3.05481 27.7535 3.34981C28.0249 3.62121 28.4379 3.64481 28.7329 3.43241Z" fill="#636D6F"/>
<path d="M16.6616 41.1924L14.573 42.396C14.2072 42.6084 14.0774 43.0686 14.2898 43.4344C14.4314 43.6822 14.691 43.812 14.9506 43.812C15.0804 43.812 15.2102 43.7766 15.3282 43.7058L17.4168 42.5022C17.7826 42.2898 17.9124 41.8296 17.7 41.4638C17.4876 41.1098 17.0156 40.98 16.6616 41.1924Z" fill="#B3BDBF"/>
<path d="M7.19798 46.6323L5.10938 47.8359C4.74358 48.0483 4.61378 48.5085 4.82618 48.8743C4.96778 49.1221 5.22738 49.2519 5.48698 49.2519C5.61678 49.2519 5.74658 49.2165 5.86458 49.1457L7.96498 47.9421C8.33078 47.7297 8.46058 47.2695 8.24818 46.9037C8.02398 46.5497 7.56378 46.4199 7.19798 46.6323Z" fill="#B3BDBF"/>
<path d="M2.4662 49.3463L1.9588 49.6413C1.9942 49.2755 1.77 48.9332 1.4042 48.8388C0.9912 48.7327 0.5782 48.9687 0.472 49.3817L0.0236001 51.0101C0.0118001 51.0573 0 51.1044 0 51.1634C0 51.187 0 51.2107 0 51.2343C0 51.2579 0 51.2932 0 51.3168C0 51.3404 0.0118001 51.364 0.0236001 51.3994C0.0236001 51.423 0.0353999 51.4467 0.0353999 51.4703C0.0471999 51.5175 0.0707999 51.5646 0.0943999 51.6118C0.118 51.6472 0.1416 51.6826 0.1652 51.718C0.177 51.7298 0.177 51.7299 0.1888 51.7417C0.2124 51.7653 0.2478 51.8007 0.2714 51.8243L0.2832 51.836C0.3186 51.8596 0.354 51.8832 0.3894 51.9068C0.4012 51.9068 0.413 51.9187 0.413 51.9187C0.4484 51.9423 0.4956 51.954 0.531 51.9658L2.1712 52.4024C2.242 52.4142 2.301 52.426 2.3718 52.426C2.714 52.426 3.0208 52.2018 3.1034 51.8597C3.1978 51.4939 3.0208 51.1281 2.6786 50.9747L3.186 50.6797C3.5518 50.4673 3.6816 50.0071 3.4692 49.6413C3.2922 49.2637 2.832 49.1457 2.4662 49.3463Z" fill="#636D6F"/>
<path d="M44.4271 42.3842L42.3385 41.1806C41.9727 40.9682 41.5125 41.098 41.3001 41.4638C41.0877 41.8296 41.2175 42.2898 41.5833 42.5022L43.6719 43.7057C43.7899 43.7765 43.9197 43.8119 44.0495 43.8119C44.3091 43.8119 44.5687 43.6703 44.7103 43.4343C44.9227 43.0685 44.7929 42.5966 44.4271 42.3842Z" fill="#B3BDBF"/>
<path d="M37 30.5L29.5 26L22 30.5V39L29.5 43.5L37 39V30.5Z" fill="#EBF2F3"/>
<path d="M49.1589 45.11L47.3889 44.0952V24.8258C47.3889 24.8022 47.3889 24.7786 47.3889 24.7432C47.3889 24.7314 47.3889 24.7314 47.3889 24.7196C47.3889 24.6724 47.3771 24.637 47.3653 24.5898C47.3653 24.578 47.3535 24.5662 47.3535 24.5544C47.3417 24.5072 47.3181 24.4718 47.2945 24.4364C47.2709 24.401 47.2473 24.3656 47.2119 24.3302C47.2001 24.3184 47.2001 24.3184 47.1883 24.3066C47.1647 24.2712 47.1293 24.2476 47.0939 24.224L47.0821 24.2122C47.0585 24.2004 47.0349 24.1768 47.0113 24.165L30.2671 14.5362V12.4948C30.2671 12.07 29.9249 11.7396 29.5001 11.7396C29.0753 11.7396 28.7331 12.0818 28.7331 12.4948V14.5362L11.9889 24.165C11.9653 24.1768 11.9417 24.1886 11.9181 24.2122L11.9063 24.224C11.8709 24.2476 11.8355 24.283 11.8119 24.3066C11.8001 24.3184 11.8001 24.3184 11.7883 24.3302C11.7647 24.3656 11.7293 24.401 11.7057 24.4364C11.6821 24.4718 11.6703 24.519 11.6467 24.5544C11.6467 24.5662 11.6349 24.578 11.6349 24.5898C11.6231 24.6252 11.6113 24.6724 11.6113 24.7196C11.6113 24.7314 11.6113 24.7314 11.6113 24.7432C11.6113 24.7668 11.6113 24.7904 11.6113 24.8258V44.0834L9.84132 45.0982C9.47551 45.3106 9.34572 45.7708 9.55812 46.1366C9.69972 46.3844 9.95932 46.5142 10.2189 46.5142C10.3487 46.5142 10.4785 46.4788 10.5965 46.408L12.3665 45.3932L29.1107 55.022C29.1343 55.0338 29.1579 55.0456 29.1815 55.0574C29.1815 55.0574 29.1933 55.0574 29.1933 55.0692C29.2287 55.081 29.2759 55.0928 29.3231 55.1046C29.3349 55.1046 29.3467 55.1046 29.3585 55.1164C29.4057 55.1282 29.4529 55.1282 29.4883 55.1282C29.5237 55.1282 29.5827 55.1282 29.6181 55.1164C29.6299 55.1164 29.6417 55.1164 29.6535 55.1046C29.7007 55.0928 29.7361 55.081 29.7833 55.0692C29.7833 55.0692 29.7951 55.0692 29.7951 55.0574C29.8187 55.0456 29.8423 55.0338 29.8659 55.022L46.6101 45.3932L48.3801 46.408C48.4981 46.4788 48.6279 46.5142 48.7577 46.5142C49.0173 46.5142 49.2769 46.3726 49.4185 46.1366C49.6545 45.7826 49.5247 45.3224 49.1589 45.11ZM22.5263 31.5518L28.7331 35.1272V42.2662L22.5263 38.7026V31.5518ZM29.5001 26.6666L35.7069 30.2302L29.5001 33.8056L23.2933 30.2302L29.5001 26.6666ZM30.2671 35.1154L36.4739 31.54V38.679L30.2671 42.2426V35.1154ZM37.2291 29.357L30.2553 25.345V23.3862C30.2553 22.9614 29.9131 22.631 29.4883 22.631C29.0635 22.631 28.7213 22.9732 28.7213 23.3862V25.345L21.7475 29.357L13.8769 24.8376L29.4765 15.8696L45.0761 24.8376L37.2291 29.357ZM13.1335 26.1474L21.0041 30.6668V38.679L19.3049 39.6584C18.9391 39.8708 18.8093 40.331 19.0217 40.6968C19.1633 40.9446 19.4229 41.0744 19.6825 41.0744C19.8123 41.0744 19.9421 41.039 20.0601 40.9682L21.7593 39.9888L28.7331 44.0008V53.0514L13.1335 44.0834V26.1474ZM30.2671 53.0632V44.0126L37.2409 40.0006L38.9401 40.98C39.0581 41.0508 39.1879 41.0862 39.3177 41.0862C39.5773 41.0862 39.8369 40.9446 39.9785 40.7086C40.1909 40.3428 40.0611 39.8826 39.6953 39.6702L37.9961 38.6908V30.6786L45.8667 26.1592V44.107L30.2671 53.0632Z" fill="#778183"/>
<path d="M53.8907 47.8358L51.8021 46.6322C51.4363 46.4198 50.9761 46.5496 50.7637 46.9154C50.5513 47.2812 50.6811 47.7414 51.0469 47.9538L53.1355 49.1574C53.2535 49.2282 53.3833 49.2636 53.5131 49.2636C53.7727 49.2636 54.0323 49.122 54.1739 48.886C54.3745 48.5084 54.2565 48.0364 53.8907 47.8358Z" fill="#B3BDBF"/>
<path d="M58.823 51.6944C58.8466 51.659 58.882 51.6236 58.8938 51.5882C58.9174 51.541 58.941 51.4938 58.9528 51.4466C58.9646 51.423 58.9646 51.3994 58.9646 51.3758C58.9764 51.3522 58.9764 51.3286 58.9882 51.2932C58.9882 51.2696 58.9882 51.2342 58.9882 51.2106C58.9882 51.187 58.9882 51.1634 58.9882 51.1398C58.9882 51.0926 58.9764 51.0454 58.9646 50.9864L58.528 49.3462C58.4218 48.945 57.997 48.6972 57.5958 48.8034C57.23 48.8978 57.0058 49.2518 57.0412 49.6058L56.5338 49.3108C56.168 49.0984 55.7078 49.2282 55.4954 49.594C55.283 49.9598 55.4128 50.42 55.7786 50.6324L56.286 50.9274C55.9556 51.0808 55.7668 51.4466 55.8612 51.8124C55.9556 52.1546 56.2624 52.3788 56.5928 52.3788C56.6636 52.3788 56.7226 52.367 56.7934 52.3552L58.4336 51.9186C58.4808 51.9068 58.5162 51.895 58.5516 51.8714C58.5634 51.8714 58.5752 51.8596 58.5752 51.8596C58.6106 51.836 58.646 51.8124 58.6814 51.7888L58.6932 51.777C58.7168 51.7534 58.7522 51.7298 58.7758 51.6944C58.8112 51.718 58.8112 51.7062 58.823 51.6944Z" fill="#636D6F"/>
<rect x="9.5" y="17.5" width="40" height="32" rx="1.5" fill="white" fill-opacity="0.8"/>
<path d="M15.0869 30.028C14.7136 30.028 14.5269 29.9253 14.5269 29.72V20.48C14.5269 20.2747 14.7136 20.172 15.0869 20.172H15.1989C15.5723 20.172 15.7589 20.2747 15.7589 20.48V29.72C15.7589 29.9253 15.5723 30.028 15.1989 30.028H15.0869ZM22.4398 30.084C20.9091 30.084 19.7751 29.6827 19.0378 28.88C18.3005 28.068 17.9318 26.808 17.9318 25.1C17.9318 21.7773 19.4438 20.116 22.4678 20.116C22.7851 20.116 23.0931 20.1393 23.3918 20.186C23.6905 20.2327 23.9611 20.2933 24.2038 20.368C24.4465 20.4427 24.6471 20.5267 24.8058 20.62C25.0298 20.7507 25.1418 20.872 25.1418 20.984C25.1418 21.0587 25.1138 21.1613 25.0578 21.292C25.0018 21.4227 24.9365 21.5393 24.8618 21.642C24.7965 21.7447 24.7311 21.796 24.6658 21.796C24.6191 21.796 24.5071 21.7447 24.3298 21.642C24.1618 21.5393 23.9238 21.4367 23.6158 21.334C23.3171 21.2313 22.9438 21.18 22.4958 21.18C21.3758 21.18 20.5451 21.4927 20.0038 22.118C19.4718 22.734 19.2058 23.7327 19.2058 25.114C19.2058 26.458 19.4671 27.4473 19.9898 28.082C20.5218 28.7073 21.3385 29.02 22.4398 29.02C22.9251 29.02 23.3311 28.964 23.6578 28.852C23.9938 28.7307 24.2598 28.614 24.4558 28.502C24.6611 28.3807 24.7918 28.32 24.8478 28.32C24.9131 28.32 24.9831 28.3713 25.0578 28.474C25.1325 28.5767 25.1978 28.6887 25.2538 28.81C25.3098 28.9313 25.3378 29.02 25.3378 29.076C25.3378 29.1413 25.2958 29.216 25.2118 29.3C25.1371 29.384 25.0298 29.4633 24.8898 29.538C24.7218 29.6313 24.5118 29.72 24.2598 29.804C24.0171 29.888 23.7418 29.9533 23.4338 30C23.1258 30.056 22.7945 30.084 22.4398 30.084ZM30.6383 30.084C29.2383 30.084 28.1697 29.6593 27.4323 28.81C26.695 27.9513 26.3263 26.7053 26.3263 25.072C26.3263 23.4293 26.695 22.1927 27.4323 21.362C28.1697 20.5313 29.2383 20.116 30.6383 20.116C32.0477 20.116 33.121 20.5313 33.8583 21.362C34.5957 22.1927 34.9643 23.4293 34.9643 25.072C34.9643 26.7053 34.5957 27.9513 33.8583 28.81C33.121 29.6593 32.0477 30.084 30.6383 30.084ZM30.6383 29.02C31.6277 29.02 32.3837 28.684 32.9063 28.012C33.429 27.34 33.6903 26.36 33.6903 25.072C33.6903 23.784 33.429 22.8133 32.9063 22.16C32.3837 21.5067 31.6277 21.18 30.6383 21.18C29.649 21.18 28.893 21.5067 28.3703 22.16C27.857 22.8133 27.6003 23.784 27.6003 25.072C27.6003 26.36 27.857 27.34 28.3703 28.012C28.893 28.684 29.649 29.02 30.6383 29.02ZM37.5886 30.028C37.2152 30.028 37.0286 29.9253 37.0286 29.72V20.48C37.0286 20.2747 37.2152 20.172 37.5886 20.172H37.8826C38.0412 20.172 38.1626 20.1907 38.2466 20.228C38.3306 20.2653 38.4052 20.3353 38.4706 20.438L42.8666 27.074C42.9599 27.214 43.0439 27.354 43.1186 27.494C43.1932 27.6247 43.2632 27.7647 43.3286 27.914L43.3846 27.9C43.3752 27.7413 43.3659 27.5967 43.3566 27.466C43.3566 27.326 43.3566 27.1533 43.3566 26.948V20.48C43.3566 20.2747 43.5432 20.172 43.9166 20.172H44.0146C44.3879 20.172 44.5746 20.2747 44.5746 20.48V29.72C44.5746 29.9253 44.3879 30.028 44.0146 30.028H43.7346C43.6039 30.028 43.5012 30.014 43.4266 29.986C43.3519 29.9487 43.2912 29.8973 43.2446 29.832L38.7366 23.028C38.6432 22.888 38.5592 22.7527 38.4846 22.622C38.4192 22.482 38.3492 22.3373 38.2746 22.188L38.2186 22.202C38.2372 22.3607 38.2466 22.51 38.2466 22.65C38.2466 22.7807 38.2466 22.9487 38.2466 23.154V29.72C38.2466 29.9253 38.0599 30.028 37.6866 30.028H37.5886ZM20.4496 46.028C20.0763 46.028 19.8896 45.9253 19.8896 45.72V37.264H17.2016C17.0149 37.264 16.9216 37.124 16.9216 36.844V36.62C16.9216 36.34 17.0149 36.2 17.2016 36.2H23.7676C23.9543 36.2 24.0476 36.34 24.0476 36.62V36.844C24.0476 37.124 23.9543 37.264 23.7676 37.264H21.1216V45.72C21.1216 45.9253 20.9349 46.028 20.5616 46.028H20.4496ZM26.1032 46C25.8232 46 25.6832 45.86 25.6832 45.58V36.62C25.6832 36.34 25.8232 36.2 26.1032 36.2H28.9312C29.7339 36.2 30.4619 36.3587 31.1152 36.676C31.7685 36.984 32.2865 37.4973 32.6692 38.216C33.0612 38.9253 33.2572 39.8867 33.2572 41.1C33.2572 42.0053 33.1452 42.7753 32.9212 43.41C32.6972 44.0353 32.3892 44.5393 31.9972 44.922C31.6052 45.2953 31.1479 45.5707 30.6252 45.748C30.1025 45.916 29.5379 46 28.9312 46H26.1032ZM26.9152 44.936H28.8332C29.4212 44.936 29.9532 44.81 30.4292 44.558C30.9052 44.306 31.2832 43.9 31.5632 43.34C31.8432 42.78 31.9832 42.0333 31.9832 41.1C31.9832 40.1667 31.8432 39.42 31.5632 38.86C31.2832 38.3 30.9052 37.894 30.4292 37.642C29.9532 37.39 29.4212 37.264 28.8332 37.264H26.9152V44.936ZM35.8376 46C35.5576 46 35.4176 45.86 35.4176 45.58V36.62C35.4176 36.34 35.5576 36.2 35.8376 36.2H38.3436C39.3889 36.2 40.1729 36.4287 40.6956 36.886C41.2182 37.3433 41.4796 37.9407 41.4796 38.678C41.4796 38.986 41.4049 39.2893 41.2556 39.588C41.1156 39.8867 40.9289 40.148 40.6956 40.372C40.4622 40.5867 40.2102 40.7313 39.9396 40.806V40.862C39.9396 40.862 40.0049 40.8853 40.1356 40.932C40.2662 40.9693 40.4296 41.044 40.6256 41.156C40.8216 41.2587 41.0176 41.3987 41.2136 41.576C41.4096 41.7533 41.5729 41.9727 41.7036 42.234C41.8342 42.4953 41.8996 42.8127 41.8996 43.186C41.8996 44.1567 41.5822 44.8707 40.9476 45.328C40.3222 45.776 39.4216 46 38.2456 46H35.8376ZM36.6496 44.936H38.6936C39.3189 44.936 39.7949 44.7727 40.1216 44.446C40.4576 44.1193 40.6256 43.6807 40.6256 43.13C40.6256 42.6167 40.4436 42.2153 40.0796 41.926C39.7156 41.6367 39.1742 41.492 38.4556 41.492H36.6496V44.936ZM36.6496 40.428H38.2736C38.8429 40.428 39.3049 40.2693 39.6596 39.952C40.0236 39.6347 40.2056 39.2473 40.2056 38.79C40.2056 38.2673 40.0469 37.8847 39.7296 37.642C39.4216 37.39 38.9176 37.264 38.2176 37.264H36.6496V40.428Z" fill="black"/>
<rect x="9.5" y="17.5" width="40" height="32" rx="1.5" stroke="#313B3D"/>
</svg>
