<svg width="526" height="563" viewBox="0 0 526 563" fill="none" xmlns="http://www.w3.org/2000/svg">
<path fill-rule="evenodd" clip-rule="evenodd" d="M281.134 -167L102.599 97.2969L110.134 102.387L288.669 -161.91L281.134 -167ZM107.829 122.044L296.205 -156.82L303.74 -151.73L155.53 67.6754L163.065 72.7656L37.9378 257.999L30.4024 252.909L115.365 127.134L107.83 122.044L7.53537 270.516L0 265.426L21.7399 233.243L14.2045 228.153L73.7824 139.956L81.3178 145.046L100.294 116.954L107.829 122.044ZM311.276 -146.639L163.065 72.7655L170.601 77.8557L100.942 180.976L108.477 186.066L258.613 -36.1908L266.149 -31.1006L333.881 -131.369L326.346 -136.459L258.614 -36.1911L251.079 -41.2813L318.811 -141.549L311.276 -146.639ZM108.477 186.067L43.4961 282.262L51.0314 287.353L116.013 191.157L123.548 196.246L213.512 63.0678L205.976 57.9776L116.013 191.156L108.477 186.067ZM83.8272 255.047L42.26 316.582L49.7953 321.672L91.3626 260.138L83.8272 255.047ZM91.3628 260.138L171.248 141.878L178.784 146.969L98.8982 265.228L91.3628 260.138ZM178.784 146.969L317.953 -59.0528L325.488 -53.9626L186.319 152.059L178.784 146.969ZM325.489 -53.963L364.023 -111.008L371.559 -105.918L333.024 -48.8728L325.489 -53.963ZM379.094 -100.828L240.962 103.658L248.497 108.748L386.63 -95.7374L379.094 -100.828ZM76.4757 347.157L151.146 236.618L158.682 241.708L84.011 352.248L76.4757 347.157ZM226.242 157.939L120.827 313.992L128.362 319.082L233.778 163.029L226.242 157.939ZM286.712 68.4219L394.164 -90.6467L401.7 -85.5564L294.247 73.5121L286.712 68.4219ZM320.902 50.299L191.366 242.059L198.902 247.149L328.438 55.3893L320.902 50.299ZM115.976 386.154L216.663 237.1L224.199 242.191L123.511 391.244L115.976 386.154ZM424.306 -70.2858L346.495 44.9021L354.031 49.9924L431.841 -65.1955L424.306 -70.2858ZM211.43 277.339L371.646 40.1619L379.181 45.2522L218.965 282.429L211.43 277.339ZM256.563 243.017L106.804 464.713L114.34 469.803L264.098 248.107L256.563 243.017ZM406.279 21.3832L454.448 -49.9255L461.984 -44.8353L413.814 26.4734L406.279 21.3832ZM391.708 75.4431L281.69 238.309L289.226 243.399L399.243 80.5333L391.708 75.4431ZM117.216 514.281L266.72 292.961L274.256 298.051L124.751 519.372L117.216 514.281ZM381.904 154.937L150.155 498.01L157.69 503.1L389.44 160.027L381.904 154.937ZM431.928 80.8837L499.66 -19.3843L507.195 -14.2941L439.463 85.9739L431.928 80.8837ZM484.589 -29.5644L336.749 189.292L344.285 194.382L492.124 -24.4742L484.589 -29.5644ZM213.512 63.0679L341.417 -126.279L348.953 -121.188L221.047 68.1581L213.512 63.0679ZM517.243 -7.50719L491.902 30.0073L499.437 35.0975L439.816 123.358L447.352 128.448L532.314 2.6734L524.779 -2.41682L499.437 35.0975L524.778 -2.41696L517.243 -7.50719ZM539.849 7.76314L454.887 133.539L447.351 128.448L206.274 485.331L213.809 490.421L414.722 192.997L422.257 198.087L547.385 12.8534L539.849 7.76314ZM201.244 525.266L422.257 198.087L429.792 203.178L499.451 100.057L506.986 105.148L356.849 327.405L349.314 322.315L208.78 530.356L201.244 525.266ZM506.987 105.147L562.456 23.0339L569.991 28.1241L514.522 110.238L506.987 105.147ZM514.522 110.238L424.558 243.417L432.094 248.507L522.057 115.328L514.522 110.238ZM561.778 56.5273L577.526 33.2147L585.062 38.3049L569.314 61.6176L561.778 56.5273ZM569.314 61.6176L576.849 66.7077L496.963 184.967L489.428 179.877L569.314 61.6176ZM357.794 390.988L496.963 184.967L504.498 190.057L365.329 396.079L357.794 390.988ZM365.329 396.079L272.578 533.384L280.113 538.474L372.864 401.169L365.329 396.079ZM317.714 499.057L479.997 258.819L487.533 263.909L325.25 504.147L317.714 499.057ZM615.203 58.6662L569.813 125.86L577.348 130.95L622.738 63.7564L615.203 58.6662ZM524.858 224.899L630.273 68.8462L637.809 73.9364L532.394 229.989L524.858 224.899ZM464.388 314.416L341.25 496.706L348.785 501.796L471.923 319.507L464.388 314.416ZM460.339 352.9L589.875 161.14L597.411 166.23L467.875 357.99L460.339 352.9ZM660.415 89.2074L594.72 186.46L602.256 191.55L667.951 94.2976L660.415 89.2074ZM359.089 535.279L464.888 378.658L472.423 383.748L366.624 540.369L359.089 535.279ZM630.096 166.581L469.88 403.759L477.415 408.849L637.631 171.672L630.096 166.581ZM615.104 221.266L690.557 109.568L698.092 114.658L622.639 226.356L615.104 221.266ZM465.388 442.898L400.709 538.646L408.245 543.736L472.923 447.988L465.388 442.898ZM510.1 409.199L620.118 246.333L627.653 251.424L517.636 414.289L510.1 409.199ZM720.698 129.929L665.23 212.042L672.765 217.133L728.234 135.019L720.698 129.929ZM580.187 370.427L735.769 140.109L743.304 145.199L587.722 375.517L580.187 370.427ZM530.163 444.48L462.431 544.748L469.966 549.838L537.698 449.57L530.163 444.48ZM440.417 544.846L595.2 315.711L602.735 320.801L447.952 549.936L440.417 544.846ZM432.093 248.507L281.22 471.855L288.755 476.945L439.629 253.597L432.093 248.507ZM238.528 502.564L356.85 327.405L364.385 332.495L246.063 507.654L238.528 502.564ZM135.297 557.91L422.44 132.835L429.976 137.925L142.833 563L135.297 557.91Z" fill="url(#paint0_linear)" fill-opacity="0.5"/>
<defs>
<linearGradient id="paint0_linear" x1="464.975" y1="145.15" x2="250.339" y2="450.318" gradientUnits="userSpaceOnUse">
<stop stop-color="#C7D1D3"/>
<stop offset="1" stop-color="#F7F7F8" stop-opacity="0"/>
</linearGradient>
</defs>
</svg>
