<svg width="60" height="60" viewBox="0 0 60 60" fill="none" xmlns="http://www.w3.org/2000/svg">
<g clip-path="url(#clip0)">
<ellipse cx="38" cy="40.1428" rx="12" ry="12.0536" fill="#C5FCFF"/>
<path d="M44.3574 28.8078V24.0217L39.9901 22.9872C39.6702 21.867 39.2249 20.789 38.6621 19.7696L41.0223 15.9349L36.4577 11.3499L32.6401 13.7207C31.6252 13.1553 30.5515 12.7081 29.4363 12.3867L28.4064 8H21.9505L20.9206 12.3867C19.8049 12.7086 18.7317 13.1553 17.7173 13.7202L13.9001 11.3499L9.33457 15.9349L11.6948 19.7691C11.1324 20.7872 10.6876 21.8657 10.3673 22.9872L6 24.0217V30.5064L10.3673 31.5414C10.6876 32.6629 11.1324 33.741 11.6948 34.7595L9.33503 38.5937L13.8996 43.1787L17.7168 40.8084C18.7312 41.3733 19.8049 41.82 20.9206 42.1418L21.9505 46.5286H26.7153C28.9564 50.3913 33.115 53 37.8778 53C45.0031 53 50.8 47.1772 50.8 40.0201C50.8 35.2361 48.2029 31.0589 44.3574 28.8078ZM23.428 44.6536L22.4783 40.6083L21.9245 40.471C20.6048 40.1432 19.3465 39.6196 18.1844 38.9137L17.6958 38.6166L14.1749 40.8038L11.6993 38.3172L13.8768 34.7801L13.5811 34.2898C12.8788 33.1239 12.357 31.86 12.0307 30.533L11.8939 29.9768L7.86667 29.0223V25.5058L11.8939 24.5518L12.0307 23.9956C12.357 22.6686 12.8788 21.4047 13.5811 20.2388L13.8768 19.7485L11.6998 16.2114L14.1753 13.7248L17.6958 15.912L18.1844 15.6149C19.3465 14.909 20.6052 14.3853 21.9245 14.058L22.4783 13.9207L23.428 9.875H26.9289L27.8786 13.9212L28.4328 14.058C29.7512 14.3849 31.01 14.909 32.173 15.6154L32.6615 15.9115L36.1825 13.7248L38.658 16.2114L36.481 19.748L36.7758 20.2388C37.479 21.407 38.0008 22.6709 38.3262 23.9956L38.463 24.5518L42.4907 25.5058V27.91C41.0557 27.3564 39.5044 27.0402 37.8778 27.0402C36.7676 27.0402 35.6956 27.1966 34.6668 27.4623C34.6682 27.3964 34.6754 27.3305 34.6754 27.2645C34.6754 22.0044 30.4152 17.7252 25.1785 17.7252C19.9421 17.7252 15.682 22.0044 15.682 27.2645C15.682 32.5242 19.9421 36.8034 25.1785 36.8034C25.2443 36.8034 25.3098 36.7966 25.3757 36.7952C25.1112 37.8285 24.9556 38.9051 24.9556 40.0201C24.9556 41.654 25.2704 43.2122 25.8215 44.6536H23.428ZM26.0277 34.858C25.7454 34.8894 25.4639 34.9284 25.1785 34.9284C20.9712 34.9284 17.5486 31.4906 17.5486 27.2645C17.5486 23.0385 20.9712 19.6002 25.1785 19.6002C29.3857 19.6002 32.8087 23.0385 32.8087 27.2645C32.8087 27.5467 32.7879 27.8281 32.7573 28.1081C29.7508 29.4172 27.3357 31.8405 26.0277 34.858ZM30.4139 48.1881C30.5627 44.177 33.8488 40.9576 37.8778 40.9576C41.9068 40.9576 45.1929 44.177 45.3417 48.1881C43.3725 50.0051 40.7561 51.125 37.8778 51.125C34.9995 51.125 32.3831 50.0051 30.4139 48.1881ZM34.9247 36.1163C34.9247 34.4807 36.2495 33.1505 37.8778 33.1505C39.5061 33.1505 40.8305 34.4807 40.8305 36.1163C40.8305 37.7519 39.5061 39.0826 37.8778 39.0826C36.2495 39.0826 34.9247 37.7519 34.9247 36.1163ZM46.9671 46.3259C46.2482 43.251 44.0236 40.7605 41.1174 39.6762C42.0813 38.7904 42.6971 37.5291 42.6971 36.1163C42.6971 33.4471 40.5352 31.2755 37.8778 31.2755C35.22 31.2755 33.058 33.4471 33.058 36.1163C33.058 37.5291 33.6739 38.7906 34.638 39.6763C31.7318 40.7607 29.5074 43.2511 28.7885 46.3259C27.5517 44.5329 26.8223 42.3616 26.8223 40.0201C26.8223 33.8971 31.782 28.9152 37.8778 28.9152C43.9736 28.9152 48.9333 33.8971 48.9333 40.0201C48.9333 42.3616 48.2039 44.5329 46.9671 46.3259Z" fill="#18B7B7"/>
</g>
<defs>
<clipPath id="clip0">
<rect width="44.8" height="45" fill="white" transform="translate(6 8)"/>
</clipPath>
</defs>
</svg>
