<svg width="127" height="19" viewBox="0 0 127 19" fill="none" xmlns="http://www.w3.org/2000/svg">
<path fill-rule="evenodd" clip-rule="evenodd" d="M3.24611 1.54255L8.48829 15.794C8.6467 16.22 8.62879 16.6376 8.43456 17.0457C8.24162 17.4534 7.92771 17.7353 7.49283 17.8899C7.06023 18.0454 6.63544 18.0273 6.22043 17.8373C5.80476 17.647 5.5182 17.3382 5.35994 16.912L0.117441 2.66152L0.10637 2.63098C-0.0515617 2.20494 -0.033652 1.78835 0.160261 1.38006C0.354012 0.972104 0.666944 0.690641 1.10052 0.535196C1.5354 0.379752 1.95986 0.397983 2.37472 0.587811C2.79087 0.778438 3.0771 1.08661 3.23504 1.51264L3.24611 1.54255Z" fill="#002B43"/>
<path fill-rule="evenodd" clip-rule="evenodd" d="M10.9544 1.48566L5.71222 15.7371C5.5538 16.1632 5.5717 16.5807 5.76594 16.9888C5.95888 17.3965 6.27279 17.6784 6.70767 17.8331C7.14027 17.9885 7.56506 17.9704 7.98007 17.7804C8.39574 17.5901 8.6823 17.2813 8.84056 16.8551L14.0831 2.60464L14.0941 2.57409C14.2521 2.14806 14.2342 1.73146 14.0402 1.32318C13.8465 0.915219 13.5336 0.633756 13.1 0.478312C12.6651 0.322867 12.2406 0.341098 11.8258 0.530926C11.4096 0.721553 11.1234 1.02972 10.9655 1.45576L10.9544 1.48566Z" fill="#002B43"/>
<path fill-rule="evenodd" clip-rule="evenodd" d="M21.7916 1.48566L16.5494 15.7371C16.391 16.1632 16.4089 16.5807 16.6031 16.9888C16.7961 17.3965 17.11 17.6784 17.5449 17.8331C17.9775 17.9885 18.4022 17.9704 18.8173 17.7804C19.2329 17.5901 19.5195 17.2813 19.6777 16.8551L24.9202 2.60464L24.9313 2.57409C25.0893 2.14806 25.0713 1.73146 24.8774 1.32318C24.6837 0.915219 24.3707 0.633756 23.9372 0.478312C23.5023 0.322867 23.0778 0.341098 22.663 0.530926C22.2468 0.721553 21.9606 1.02972 21.8027 1.45576L21.7916 1.48566Z" fill="#002B43"/>
<path fill-rule="evenodd" clip-rule="evenodd" d="M61.4904 0C61.952 0 62.3448 0.161981 62.6684 0.485784C62.993 0.809267 63.1548 1.19783 63.1548 1.65099C63.1548 1.99654 63.0503 2.31443 62.8418 2.60609L56.4145 11.2834V15.9289C56.4145 16.328 56.2801 16.682 56.0108 16.9895C55.7412 17.2968 55.4091 17.483 55.0141 17.5479H54.9809C54.9476 17.5479 54.9201 17.5533 54.8985 17.5639H54.6017C54.5794 17.5533 54.5521 17.5479 54.5193 17.5479H54.4863C54.0907 17.483 53.7585 17.2968 53.4895 16.9895C53.2201 16.682 53.0853 16.328 53.0853 15.9289V15.7669C53.072 12.7892 53.0652 11.2935 53.065 11.2798L53.0649 11.2912C53.0828 10.9215 53.1322 10.6424 53.213 10.4542C53.3393 10.1598 54.6169 8.29536 57.046 4.86095L60.1391 0.679906C60.3034 0.475071 60.5015 0.310531 60.732 0.186127C60.9633 0.0622021 61.2155 0 61.4904 0Z" fill="#002B43"/>
<path fill-rule="evenodd" clip-rule="evenodd" d="M49.6157 1.0659L53.1242 6.00119C53.387 6.36377 53.4848 6.76693 53.4186 7.2105C53.3529 7.65279 53.141 8.0079 52.7844 8.27535C52.4277 8.54231 52.0327 8.64223 51.5989 8.57477C51.1632 8.50779 50.8145 8.29189 50.553 7.92883L47.0448 2.99433L47.0256 2.96856C46.7641 2.60565 46.6658 2.20266 46.7323 1.75861C46.7974 1.31664 47.0085 0.961847 47.3648 0.694243C47.7221 0.42648 48.1179 0.326726 48.5514 0.394183C48.9878 0.462119 49.3348 0.678015 49.5973 1.04044L49.6157 1.0659Z" fill="#002B43"/>
<path fill-rule="evenodd" clip-rule="evenodd" d="M14.4567 1.48594L19.6994 15.7373C19.8575 16.1634 19.8397 16.5803 19.6456 16.9886C19.4525 17.3962 19.1385 17.678 18.7041 17.8333C18.2706 17.9883 17.8463 17.9707 17.4315 17.7802C17.0156 17.5904 16.7289 17.2817 16.5711 16.8555L11.3285 2.60428L11.3166 2.57421C11.1595 2.14834 11.1774 1.73142 11.3715 1.32281C11.5646 0.91533 11.8773 0.633385 12.3111 0.478419C12.7457 0.322973 13.1706 0.340885 13.5855 0.531034C14.0013 0.721502 14.2876 1.02999 14.446 1.45555L14.4567 1.48594Z" fill="#002B43"/>
<path fill-rule="evenodd" clip-rule="evenodd" d="M28.7747 2.00773C28.7747 1.55515 28.9355 1.16951 29.2576 0.851281C29.5791 0.533213 29.9695 0.373779 30.4279 0.373779C30.887 0.373779 31.2766 0.533213 31.599 0.851281C31.921 1.16951 32.0816 1.55515 32.0816 2.00773V7.5224L40.4157 7.5225V2.00767C40.4157 1.55509 40.5764 1.16944 40.8989 0.851217C41.2206 0.533308 41.6113 0.373875 42.0695 0.373875C42.528 0.373875 42.9179 0.533308 43.2399 0.851217C43.5619 1.16944 43.7225 1.55509 43.7225 2.00767V16.3041C43.7225 16.7573 43.5619 17.1427 43.2399 17.4607C42.9179 17.7789 42.528 17.9376 42.0695 17.9376C41.6113 17.9376 41.2206 17.7789 40.8989 17.4607C40.5764 17.1427 40.4157 16.7573 40.4157 16.3041V10.8057H32.0816L32.0815 16.3042C32.0815 16.7574 31.9209 17.1427 31.5989 17.4606C31.2768 17.7789 30.8872 17.9376 30.428 17.9376C29.9697 17.9376 29.5793 17.7789 29.2576 17.4606C28.9354 17.1427 28.7747 16.7574 28.7747 16.3042L28.7747 2.00773Z" fill="#002B43"/>
<path fill-rule="evenodd" clip-rule="evenodd" d="M77.9817 15.1373C78.312 15.4609 78.4764 15.8495 78.4764 16.3027C78.4764 16.7563 78.312 17.142 77.9817 17.4602C77.6519 17.7789 78.1275 17.9376 77.6658 17.9376H68.1839C67.7221 17.9376 67.3288 17.7789 67.0051 17.4602C66.68 17.142 66.5181 16.7563 66.5181 16.3027V2.02508C66.5181 1.57208 66.68 1.1832 67.0051 0.859559C67.3288 0.535919 67.7221 0.373779 68.1839 0.373779C68.6456 0.373779 69.039 0.535919 69.3632 0.859559C69.6878 1.1832 69.8499 1.57208 69.8499 2.02508V14.6518H76.7943C77.256 14.6518 77.6519 14.8137 77.9817 15.1373Z" fill="#002B43"/>
<path fill-rule="evenodd" clip-rule="evenodd" d="M94.1716 16.3042C94.1716 16.7574 94.0111 17.1427 93.6896 17.4606C93.3682 17.7789 92.9788 17.9376 92.5215 17.9376C92.206 17.9376 91.9142 17.8543 91.6475 17.687C91.3807 17.5197 91.1824 17.3013 91.0511 17.0322L91.0349 17.0483L89.336 13.717H85.3973C84.9395 13.717 84.547 13.5548 84.2206 13.2315C83.894 12.9081 83.7303 12.5199 83.7303 12.067C83.7303 11.614 83.894 11.2287 84.2206 10.9106C84.547 10.5925 84.9395 10.4337 85.3973 10.4337H87.6532L85.2032 5.64658L79.3541 17.0483V17.0322C79.2124 17.3013 79.0112 17.5197 78.75 17.687C78.4884 17.8543 78.1997 17.9376 77.8837 17.9376C77.4264 17.9376 77.0368 17.7789 76.7157 17.4606C76.3949 17.1427 76.2342 16.7574 76.2342 16.3042C76.2342 16.0459 76.2939 15.7974 76.4135 15.5605H76.3973L83.6671 1.40946C83.7868 1.10752 83.9858 0.859268 84.2637 0.665168C84.541 0.471228 84.8539 0.373779 85.2032 0.373779C85.5514 0.373779 85.8615 0.471228 86.1336 0.665168C86.4059 0.859268 86.608 1.10752 86.7381 1.40946L93.9919 15.5605C94.1114 15.7974 94.1716 16.0459 94.1716 16.3042Z" fill="#002B43"/>
<path fill-rule="evenodd" clip-rule="evenodd" d="M106.956 14.3555C107.287 14.156 107.544 13.8919 107.726 13.5633C107.908 13.2345 107.999 12.8867 107.999 12.5199C107.999 12.1103 107.878 11.722 107.635 11.3555C107.37 10.9782 107.066 10.7246 106.724 10.5952C106.382 10.4662 106.012 10.4015 105.614 10.4015L105.051 10.4171L103.699 10.4015L103.649 10.4171C103.186 10.4171 102.791 10.2558 102.465 9.93243C102.14 9.60909 101.977 9.22073 101.977 8.76751C101.977 8.3472 102.123 7.98105 102.415 7.66809C102.708 7.35594 103.064 7.17749 103.484 7.13452H103.649H103.667H105.035C105.586 7.1235 106.014 6.94585 106.318 6.60079C106.621 6.25556 106.773 5.85138 106.773 5.38746C106.773 4.93488 106.627 4.53822 106.335 4.19874C106.042 3.85911 105.636 3.68402 105.117 3.67315H99.3861V14.6549H105.829C106.248 14.6549 106.624 14.5552 106.956 14.3555ZM110.832 10.1749C111.185 10.9084 111.362 11.6736 111.362 12.4711C111.362 13.4093 111.133 14.2962 110.675 15.1316C110.216 15.9679 109.564 16.6443 108.72 17.1616C107.875 17.6788 106.912 17.9376 105.829 17.9376H97.7136C97.6363 17.9376 97.5804 17.9325 97.5478 17.9218C97.2271 17.9001 96.9434 17.795 96.6943 17.6066C96.4464 17.4178 96.2614 17.1777 96.14 16.8865C96.0735 16.6927 96.0402 16.4986 96.0402 16.3042V2.03984V2.02371V2.00773C96.0402 1.55515 96.203 1.16951 96.529 0.851281C96.8543 0.533372 97.2497 0.373779 97.7136 0.373779H97.7296H105.001C105.973 0.373779 106.853 0.608137 107.643 1.07781C108.432 1.54668 109.048 2.16924 109.49 2.9458C109.931 3.72188 110.152 4.54668 110.152 5.42005C110.152 6.41196 109.854 7.339 109.258 8.20151C109.236 8.22355 109.225 8.24512 109.225 8.26669C109.943 8.80585 110.478 9.44199 110.832 10.1749Z" fill="#002B43"/>
<path fill-rule="evenodd" clip-rule="evenodd" d="M122.971 8.44055C122.971 8.44055 123.599 8.63256 124.833 9.50681C126.066 10.3807 126.683 11.6319 126.683 13.2602C126.683 14.2543 126.43 15.1637 125.925 15.989C125.419 16.8144 124.683 17.4698 123.715 17.9556C122.747 18.4415 121.601 18.685 120.275 18.685C119.046 18.685 117.897 18.5048 116.827 18.1442C115.756 17.7834 114.677 17.2428 113.59 16.5215C113.362 16.3689 113.182 16.1723 113.053 15.9312C112.922 15.6911 112.857 15.4287 112.857 15.1447C112.857 14.6859 113.017 14.2951 113.337 13.9729C113.658 13.6504 114.047 13.4895 114.503 13.4895C114.851 13.4895 115.15 13.5764 115.4 13.7518V13.7349C116.226 14.2818 117.02 14.6916 117.781 14.9645C118.541 15.2375 119.373 15.3742 120.275 15.3742C121.351 15.3742 122.136 15.1719 122.631 14.7678C123.126 14.3634 123.373 13.8611 123.373 13.2602C123.373 12.823 123.216 12.4624 122.9 12.1778C122.585 11.894 122.188 11.6673 121.71 11.4977C121.231 11.3285 120.569 11.14 119.721 10.9325C118.601 10.6483 117.68 10.3754 116.957 10.113C116.234 9.85084 115.56 9.45209 114.935 8.9162C114.31 8.38129 113.867 7.68173 113.606 6.81833C113.487 6.45795 113.427 6.03135 113.427 5.53982V5.40901C113.46 4.16321 113.75 3.13612 114.3 2.32777C114.848 1.51925 115.568 0.929294 116.46 0.557576C117.351 0.186345 118.329 0 119.395 0C120.547 0 121.677 0.196706 122.786 0.590442C123.558 0.874573 124.281 1.19691 124.955 1.55697C125.226 1.69928 125.444 1.90165 125.607 2.16344C125.77 2.42572 125.852 2.71568 125.852 3.03235C125.852 3.491 125.691 3.88231 125.371 4.204C125.05 4.52699 124.661 4.68792 124.205 4.68792C123.933 4.68792 123.678 4.62785 123.438 4.50724C122.536 4.03806 121.794 3.72673 121.213 3.57325C120.631 3.42009 120.041 3.34384 119.444 3.34384C118.748 3.34384 118.202 3.4256 117.805 3.58976C117.408 3.75344 117.131 3.98933 116.973 4.29434C116.816 4.60081 116.732 4.99908 116.721 5.49077V5.53982C116.732 6.07571 117.052 6.49648 117.682 6.80214C118.313 7.10829 119.063 7.35907 119.933 7.5561C121.965 7.98254 122.971 8.44055 122.971 8.44055Z" fill="#002B43"/>
</svg>
