<svg width="394" height="59" viewBox="0 0 394 59" fill="none" xmlns="http://www.w3.org/2000/svg">
<path fill-rule="evenodd" clip-rule="evenodd" d="M10.2455 4.9727L26.5081 49.7873C26.9995 51.1269 26.944 52.44 26.3414 53.7233C25.7428 55.0052 24.769 55.8918 23.4199 56.3781C22.0779 56.8669 20.7601 56.81 19.4726 56.2126C18.1831 55.6142 17.2941 54.6431 16.8032 53.3029L0.539624 8.49138L0.505278 8.39533C0.0153357 7.05564 0.0708961 5.74563 0.672464 4.46177C1.27353 3.17891 2.24432 2.29383 3.58939 1.80503C4.93849 1.31622 6.25528 1.37355 7.54226 1.97048C8.83328 2.56991 9.72124 3.53897 10.2112 4.87866L10.2455 4.9727Z" fill="white"/>
<path fill-rule="evenodd" clip-rule="evenodd" d="M34.1579 4.79179L17.8954 49.6063C17.4039 50.946 17.4595 52.2591 18.0621 53.5424C18.6606 54.8243 19.6344 55.7109 20.9835 56.1972C22.3256 56.686 23.6434 56.6291 24.9308 56.0317C26.2204 55.4333 27.1093 54.4622 27.6003 53.122L43.8638 8.31047L43.8982 8.21442C44.3881 6.87474 44.3325 5.56472 43.731 4.28086C43.1299 2.998 42.1591 2.11292 40.8141 1.62412C39.4649 1.13531 38.1482 1.19264 36.8612 1.78957C35.5702 2.38901 34.6822 3.35806 34.1923 4.69775L34.1579 4.79179Z" fill="white"/>
<path fill-rule="evenodd" clip-rule="evenodd" d="M67.7779 4.79179L51.5154 49.6063C51.0239 50.946 51.0795 52.2591 51.6821 53.5424C52.2806 54.8243 53.2544 55.7109 54.6035 56.1972C55.9456 56.686 57.2634 56.6291 58.5508 56.0317C59.8404 55.4333 60.7293 54.4622 61.2203 53.122L77.4838 8.31047L77.5182 8.21442C78.0081 6.87474 77.9525 5.56472 77.351 4.28086C76.7499 2.998 75.7791 2.11292 74.4341 1.62412C73.0849 1.13531 71.7682 1.19264 70.4812 1.78957C69.1902 2.38901 68.3022 3.35806 67.8123 4.69775L67.7779 4.79179Z" fill="white"/>
<path fill-rule="evenodd" clip-rule="evenodd" d="M190.933 0.12207C192.365 0.12207 193.583 0.631429 194.587 1.64964C195.594 2.66685 196.096 3.88871 196.096 5.31371C196.096 6.40031 195.772 7.39992 195.125 8.31707L175.186 35.6032V50.2112C175.186 51.4663 174.769 52.5795 173.934 53.5465C173.097 54.5129 172.067 55.0982 170.842 55.3023H170.739C170.635 55.3023 170.55 55.3194 170.483 55.3526H169.562C169.493 55.3194 169.408 55.3023 169.307 55.3023H169.204C167.977 55.0982 166.946 54.5129 166.112 53.5465C165.276 52.5795 164.858 51.4663 164.858 50.2112V49.7019C164.817 40.3385 164.796 35.6352 164.795 35.5921L164.795 35.6279C164.85 34.4652 165.003 33.5878 165.254 32.9958C165.646 32.07 169.61 26.2073 177.145 15.4076L186.741 2.26007C187.25 1.61596 187.865 1.09855 188.58 0.707356C189.298 0.317668 190.08 0.12207 190.933 0.12207Z" fill="white"/>
<path fill-rule="evenodd" clip-rule="evenodd" d="M154.095 3.47182L164.979 18.9912C165.794 20.1313 166.098 21.3991 165.893 22.7939C165.689 24.1847 165.031 25.3014 163.925 26.1424C162.818 26.9819 161.593 27.2961 160.247 27.0839C158.895 26.8733 157.814 26.1944 157.002 25.0527L146.119 9.53591L146.06 9.45486C145.248 8.31369 144.943 7.04644 145.149 5.65011C145.351 4.26029 146.006 3.14463 147.112 2.30313C148.22 1.46113 149.448 1.14745 150.793 1.35957C152.147 1.5732 153.223 2.2521 154.038 3.39177L154.095 3.47182Z" fill="white"/>
<path fill-rule="evenodd" clip-rule="evenodd" d="M45.0232 4.79265L61.2869 49.607C61.7774 50.9467 61.7223 52.2578 61.1202 53.5416C60.5212 54.8235 59.5469 55.7096 58.1993 56.1979C56.8547 56.6852 55.5384 56.6299 54.2514 56.0309C52.9614 55.434 52.0719 54.4634 51.5824 53.1232L35.3187 8.30935L35.2818 8.21481C34.7944 6.87562 34.85 5.56459 35.452 4.27971C36.0511 2.99835 37.0214 2.11175 38.367 1.62446C39.7151 1.13565 41.0334 1.19197 42.3204 1.78991C43.6104 2.38885 44.4984 3.35892 44.9899 4.6971L45.0232 4.79265Z" fill="white"/>
<path fill-rule="evenodd" clip-rule="evenodd" d="M89.441 6.43347C89.441 5.01031 89.9397 3.79763 90.9392 2.79694C91.9366 1.79676 93.1477 1.29541 94.5696 1.29541C95.994 1.29541 97.2026 1.79676 98.2025 2.79694C99.2015 3.79763 99.6997 5.01031 99.6997 6.43347V23.7747L125.554 23.775V6.43327C125.554 5.0101 126.053 3.79743 127.053 2.79674C128.051 1.79706 129.263 1.29571 130.684 1.29571C132.107 1.29571 133.316 1.79706 134.315 2.79674C135.314 3.79743 135.813 5.0101 135.813 6.43327V51.3893C135.813 52.8144 135.314 54.0261 134.315 55.0263C133.316 56.027 132.107 56.5258 130.684 56.5258C129.263 56.5258 128.051 56.027 127.053 55.0263C126.053 54.0261 125.554 52.8144 125.554 51.3893V34.0993H99.6998L99.6996 51.3895C99.6996 52.8146 99.2014 54.0263 98.2024 55.026C97.203 56.0267 95.9944 56.526 94.57 56.526C93.1481 56.526 91.937 56.0267 90.9391 55.026C89.9396 54.0263 89.4409 52.8146 89.4409 51.3895L89.441 6.43347Z" fill="white"/>
<path fill-rule="evenodd" clip-rule="evenodd" d="M242.092 47.7202C243.117 48.7379 243.627 49.9597 243.627 51.3847C243.627 52.8112 243.117 54.024 242.092 55.0246C241.069 56.0267 242.544 56.526 241.112 56.526H211.697C210.264 56.526 209.044 56.0267 208.04 55.0246C207.031 54.024 206.529 52.8112 206.529 51.3847V6.48802C206.529 5.06353 207.031 3.84068 208.04 2.82297C209.044 1.80527 210.264 1.29541 211.697 1.29541C213.129 1.29541 214.349 1.80527 215.355 2.82297C216.362 3.84068 216.865 5.06353 216.865 6.48802V46.1936H238.408C239.841 46.1936 241.069 46.7025 242.092 47.7202Z" fill="white"/>
<path fill-rule="evenodd" clip-rule="evenodd" d="M292.317 51.3895C292.317 52.8146 291.819 54.0263 290.822 55.026C289.824 56.0267 288.616 56.526 287.198 56.526C286.219 56.526 285.314 56.2638 284.486 55.7378C283.659 55.2119 283.044 54.5252 282.636 53.6787L282.586 53.7294L277.316 43.2539H265.097C263.677 43.2539 262.459 42.744 261.446 41.7272C260.433 40.7105 259.925 39.4898 259.925 38.0656C259.925 36.6409 260.433 35.4292 261.446 34.4291C262.459 33.4289 263.677 32.9295 265.097 32.9295H272.095L264.495 17.876L246.349 53.7294V53.6787C245.91 54.5252 245.286 55.2119 244.475 55.7378C243.664 56.2638 242.768 56.526 241.788 56.526C240.369 56.526 239.161 56.0267 238.165 55.026C237.169 54.0263 236.671 52.8146 236.671 51.3895C236.671 50.5772 236.856 49.796 237.227 49.051H237.177L259.729 4.55216C260.101 3.60271 260.718 2.82206 261.58 2.2117C262.441 1.60184 263.411 1.29541 264.495 1.29541C265.575 1.29541 266.537 1.60184 267.381 2.2117C268.226 2.82206 268.853 3.60271 269.256 4.55216L291.759 49.051C292.13 49.796 292.317 50.5772 292.317 51.3895Z" fill="white"/>
<path fill-rule="evenodd" clip-rule="evenodd" d="M331.976 45.2618C333.004 44.6343 333.799 43.804 334.365 42.7706C334.931 41.7368 335.213 40.6432 335.213 39.4898C335.213 38.2017 334.836 36.9805 334.082 35.8281C333.261 34.6416 332.318 33.8443 331.257 33.4374C330.195 33.0315 329.047 32.8281 327.814 32.8281L326.066 32.8773L321.874 32.8281L321.719 32.8773C320.28 32.8773 319.056 32.3699 318.046 31.3532C317.035 30.3364 316.53 29.1152 316.53 27.69C316.53 26.3683 316.982 25.2169 317.891 24.2328C318.798 23.2512 319.904 22.6901 321.205 22.555H321.719H321.772H326.016C327.727 22.5203 329.054 21.9617 329.997 20.8766C330.939 19.791 331.41 18.5201 331.41 17.0612C331.41 15.6381 330.956 14.3907 330.05 13.3232C329.141 12.2552 327.881 11.7047 326.272 11.6705H308.493V46.2032H328.481C329.782 46.2032 330.947 45.8897 331.976 45.2618ZM344 32.1157C345.096 34.422 345.644 36.8283 345.644 39.336C345.644 42.2864 344.933 45.0754 343.513 47.7022C342.09 50.332 340.069 52.459 337.448 54.0856C334.828 55.7122 331.84 56.526 328.481 56.526H303.304C303.065 56.526 302.891 56.51 302.79 56.4763C301.796 56.408 300.915 56.0774 300.142 55.4852C299.373 54.8914 298.799 54.1363 298.423 53.2205C298.217 52.6112 298.113 52.0008 298.113 51.3895V6.53444V6.4837V6.43347C298.113 5.01031 298.618 3.79763 299.63 2.79694C300.639 1.79726 301.866 1.29541 303.304 1.29541H303.354H325.913C328.926 1.29541 331.658 2.03236 334.109 3.50928C336.557 4.98368 338.466 6.94135 339.838 9.38328C341.206 11.8237 341.891 14.4174 341.891 17.1637C341.891 20.2828 340.968 23.198 339.118 25.9102C339.049 25.9795 339.015 26.0473 339.015 26.1151C341.243 27.8106 342.902 29.8109 344 32.1157Z" fill="white"/>
<path fill-rule="evenodd" clip-rule="evenodd" d="M381.66 26.6639C381.66 26.6639 383.606 27.2677 387.434 30.0168C391.259 32.7649 393.175 36.6992 393.175 41.8197C393.175 44.9455 392.39 47.8051 390.823 50.4005C389.254 52.9959 386.97 55.0567 383.968 56.5845C380.965 58.1123 377.409 58.878 373.296 58.878C369.484 58.878 365.919 58.3114 362.599 57.1776C359.276 56.0429 355.929 54.343 352.558 52.075C351.849 51.5949 351.293 50.9768 350.889 50.2188C350.483 49.4638 350.281 48.6385 350.281 47.7456C350.281 46.3028 350.778 45.0738 351.773 44.0607C352.768 43.0466 353.974 42.5406 355.39 42.5406C356.468 42.5406 357.396 42.814 358.173 43.3653V43.3124C360.734 45.0321 363.197 46.3206 365.558 47.179C367.917 48.0373 370.497 48.467 373.296 48.467C376.634 48.467 379.069 47.8311 380.605 46.5604C382.139 45.2887 382.906 43.709 382.906 41.8197C382.906 40.4446 382.418 39.3109 381.439 38.4159C380.461 37.5234 379.23 36.8107 377.747 36.2771C376.262 35.7451 374.207 35.1526 371.575 34.4999C368.102 33.6064 365.244 32.7481 363.002 31.9228C360.76 31.0986 358.669 29.8447 356.73 28.1596C354.792 26.4775 353.417 24.2777 352.608 21.5627C352.236 20.4295 352.051 19.088 352.051 17.5424V17.131C352.153 13.2135 353.054 9.9838 354.759 7.44187C356.46 4.89944 358.694 3.04429 361.46 1.8754C364.224 0.708041 367.259 0.12207 370.565 0.12207C374.138 0.12207 377.645 0.740624 381.086 1.97875C383.48 2.87221 385.722 3.88583 387.812 5.01806C388.656 5.46556 389.331 6.10193 389.835 6.92514C390.341 7.74988 390.596 8.66167 390.596 9.65746C390.596 11.0997 390.096 12.3302 389.103 13.3418C388.107 14.3575 386.902 14.8635 385.486 14.8635C384.643 14.8635 383.851 14.6746 383.109 14.2953C380.31 12.82 378.007 11.841 376.205 11.3584C374.4 10.8768 372.57 10.637 370.717 10.637C368.558 10.637 366.864 10.8941 365.633 11.4103C364.402 11.925 363.541 12.6667 363.053 13.6259C362.563 14.5896 362.303 15.842 362.269 17.3881V17.5424C362.303 19.2275 363.297 20.5506 365.252 21.5118C367.209 22.4745 369.537 23.2631 372.234 23.8827C378.539 25.2236 381.66 26.6639 381.66 26.6639Z" fill="white"/>
</svg>
