<svg width="47" height="32" viewBox="0 0 47 32" fill="none" xmlns="http://www.w3.org/2000/svg">
<path d="M44.9009 23.1127C44.9009 20.3525 44.3473 17.6194 43.2719 15.0693C42.1964 12.5192 40.62 10.2022 38.6328 8.25041C36.6455 6.29866 34.2864 4.75045 31.6899 3.69417C29.0935 2.6379 26.3106 2.09424 23.5002 2.09424C20.6899 2.09424 17.907 2.6379 15.3106 3.69418C12.7141 4.75045 10.3549 6.29866 8.36771 8.25041C6.38048 10.2022 4.80412 12.5192 3.72864 15.0693C2.65315 17.6194 2.09961 20.3525 2.09961 23.1127" stroke="url(#paint0_angular)" stroke-width="4.14324" stroke-linecap="round"/>
<path d="M33.6426 10.9358L23.3109 27.6064L14.7124 27.6064L33.0567 10.4553C33.3828 10.1505 33.8777 10.5564 33.6426 10.9358Z" fill="url(#paint1_linear)"/>
<defs>
<radialGradient id="paint0_angular" cx="0" cy="0" r="1" gradientUnits="userSpaceOnUse" gradientTransform="translate(23.4886 18.7828) rotate(140.964) scale(18.2752 19.1638)">
<stop offset="0.680164" stop-color="#F5843C"/>
<stop offset="0.993219" stop-color="white" stop-opacity="0"/>
</radialGradient>
<linearGradient id="paint1_linear" x1="30.1896" y1="12.9851" x2="20.2536" y2="25.7873" gradientUnits="userSpaceOnUse">
<stop stop-color="#F3A26E"/>
<stop offset="1" stop-color="#FFCBAA" stop-opacity="0"/>
</linearGradient>
</defs>
</svg>
